<svg xmlns="http://www.w3.org/2000/svg" width="632.813" height="117.188" viewBox="0 0 632.813 117.188">
  <g id="アートワーク_6" data-name="アートワーク 6" transform="translate(316.406 58.594)">
    <g id="グループ_405" data-name="グループ 405" transform="translate(-316.406 -58.594)">
      <rect id="長方形_110" data-name="長方形 110" width="632.813" height="117.188" fill="#bd3622"/>
      <path id="パス_2472" data-name="パス 2472" d="M585.245,41.285l17.042,17.042L585.245,75.368" fill="none" stroke="#fffffe" stroke-miterlimit="10" stroke-width="2"/>
      <g id="グループ_404" data-name="グループ 404">
        <path id="パス_2473" data-name="パス 2473" d="M156.7,43.438q0,.4-.378.4l-7.2-.1H120.444v7.427a85.626,85.626,0,0,1-1.083,15.459,41.739,41.739,0,0,1-4.683,12.74q-.428.68-.529.68t-.654-.579a7.556,7.556,0,0,0-2.065-1.486,36.51,36.51,0,0,0,4.884-12.588,83.649,83.649,0,0,0,.982-14.628l-.1-9.568a.356.356,0,0,1,.4-.4l7.326.1h9.743V38.327a22.253,22.253,0,0,0-.3-4.179,23.466,23.466,0,0,1,3.4.251c.419.051.629.185.629.4a2,2,0,0,1-.3.981,6.749,6.749,0,0,0-.277,2.493V40.9h11.3l7.2-.1q.378,0,.378.4Zm-1.687,11.808q0,.4-.429.4l-6.017-.1h-10.02v7.377h6.244l7.024-.1a.357.357,0,0,1,.4.4l-.1,4.456v4.053l.1,8.158a.356.356,0,0,1-.4.4h-2.392a.355.355,0,0,1-.4-.4V78.082H127.77V80.2a.312.312,0,0,1-.353.353h-2.341c-.268,0-.4-.117-.4-.353l.1-8.258v-3.6l-.1-5.11a.357.357,0,0,1,.4-.4l6.974.1h3.45v-11.3a40.116,40.116,0,0,0-.3-5.992,29.075,29.075,0,0,1,3.3.327c.419.05.629.185.629.4a4.328,4.328,0,0,1-.327,1.033,17.763,17.763,0,0,0-.252,4.129v1.234h10.02l6.017-.1c.286,0,.429.135.429.4ZM149.02,75.287V65.669H127.77v9.618Z" fill="#fffffe"/>
        <path id="パス_2474" data-name="パス 2474" d="M185.146,43.539a5.931,5.931,0,0,0-1.334,1.636c-.269.521-.461.781-.579.781a1.472,1.472,0,0,1-.654-.4,34.176,34.176,0,0,1-6.395-6.446,42.091,42.091,0,0,1-10.121,10.676,1.3,1.3,0,0,1-.605.352q-.226,0-.529-.679a6.192,6.192,0,0,0-1.183-1.738,33.986,33.986,0,0,0,10.675-11.254,6.116,6.116,0,0,0,.554-1.586,15.357,15.357,0,0,1,2.87,1.032q.5.252.5.5,0,.277-.428.528l-.2.152A26.71,26.71,0,0,0,185.146,43.539Zm-.2,16.919q0,.353-.4.353l-5.689-.1h-7.227l-5.664.1q-.4,0-.4-.353V58.494a.356.356,0,0,1,.4-.4l5.664.1h2.795V52.653h-.931l-4.532.126c-.319,0-.479-.142-.479-.428V50.438q0-.4.479-.4l4.532.1h.931v-.781a24.576,24.576,0,0,0-.352-4.783,27.493,27.493,0,0,1,3.1.3c.419.051.629.193.629.428a3.138,3.138,0,0,1-.327.982,10.064,10.064,0,0,0-.252,2.82v1.032h.931l4.582-.1a.356.356,0,0,1,.4.4v1.913c0,.286-.134.428-.4.428l-4.582-.126h-.931v5.539h1.637l5.689-.1a.356.356,0,0,1,.4.4Zm-1.888,18.908c0,.268-.143.4-.428.4h-2.115a.356.356,0,0,1-.4-.4V77.5h-9.19v2.518q0,.427-.4.427H168.4a.377.377,0,0,1-.428-.427l.1-7.4v-3.1l-.1-4.33a.356.356,0,0,1,.4-.4l4.809.051h4.657l4.809-.051a.357.357,0,0,1,.4.4l-.1,3.6V72.14Zm-2.946-4.331V67.356h-9.19v7.679Zm31.018-31.547a.356.356,0,0,1-.4.4l-6.672-.1h-4.683V48.9h3.549l6.421-.1a.357.357,0,0,1,.4.4l-.1,7.2V68.111l.05,7.856a4.283,4.283,0,0,1-1.032,3.248q-.957.881-4.28.881a1.709,1.709,0,0,1-.957-.151,2.065,2.065,0,0,1-.277-.781,5.481,5.481,0,0,0-.78-2.064q1.938.151,3.046.151,1.436,0,1.435-1.813V67.961h-7.477v4.078l.1,7.83q0,.427-.4.428h-2.19q-.4,0-.4-.428l.1-7.83V67.961h-6.823v4.481l.1,7.7a.356.356,0,0,1-.4.4h-2.14c-.3,0-.454-.134-.454-.4l.1-7.754V56.152l-.1-6.948c0-.268.152-.4.454-.4l6.344.1h2.921v-5.11h-3.953l-6.7.1a.357.357,0,0,1-.4-.4V41.424q0-.427.4-.428l6.7.1h3.953v-.4a43.193,43.193,0,0,0-.352-6.3,29.987,29.987,0,0,1,3.1.3q.554.1.554.428a2.839,2.839,0,0,1-.2.932,18.252,18.252,0,0,0-.3,4.43v.6h4.683l6.672-.1q.4,0,.4.428Zm-14.552,13.7V51.419h-6.823v5.766Zm0,8.359V59.6h-6.823v5.942Zm10.272-8.359V51.419h-7.477v5.766Zm0,8.359V59.6h-7.477v5.942Zm1.964-26.764a.491.491,0,0,1,.1.227c0,.084-.1.219-.3.4l-1.183.931a.98.98,0,0,1-.478.252c-.084,0-.185-.083-.3-.252a27.194,27.194,0,0,0-3.827-4.028c-.134-.117-.2-.2-.2-.251q0-.152.3-.378l1.033-.755a1.057,1.057,0,0,1,.453-.227.605.605,0,0,1,.327.151A29.672,29.672,0,0,1,208.813,38.78Z" fill="#fffffe"/>
        <path id="パス_2475" data-name="パス 2475" d="M263.772,58.645a.356.356,0,0,1-.4.4l-6.824-.1H226.813l-6.823.1a.356.356,0,0,1-.4-.4V55.951a.356.356,0,0,1,.4-.4l6.823.1h29.733l6.824-.1a.356.356,0,0,1,.4.4Z" fill="#fffffe"/>
        <path id="パス_2476" data-name="パス 2476" d="M318.606,74.784a9.541,9.541,0,0,1-1.007,3.2,5.3,5.3,0,0,1-1.385,1.334q-1.737,1.234-7.981,1.234a37.254,37.254,0,0,1-7.528-.5,3.157,3.157,0,0,1-1.838-1.083,4.323,4.323,0,0,1-.529-2.392v-3.6h-6.294a13.308,13.308,0,0,1-7.1,6.319A32.14,32.14,0,0,1,276.183,81a4.131,4.131,0,0,1-.554.051q-.555,0-1.007-.957a7.3,7.3,0,0,0-1.184-1.712A38.406,38.406,0,0,0,282.9,77.05a10.056,10.056,0,0,0,5.539-4.079h-.252l-7.125.1a.355.355,0,0,1-.4-.4l.1-4.759V60.961l-.1-4.809a.356.356,0,0,1,.4-.4l7.125.1h14.779l7.1-.1q.427,0,.428.4l-.1,4.809V67.91l.1,4.759c0,.269-.143.4-.428.4l-7.1-.1h-1.435v2.895a2,2,0,0,0,.277,1.209,1.909,1.909,0,0,0,1.107.554,33.747,33.747,0,0,0,5.263.251q4.657,0,5.916-.78a2.738,2.738,0,0,0,1.309-1.637,12.563,12.563,0,0,0,.4-3.172,6.9,6.9,0,0,0,1.914,1.133q.93.4.931.856A3.667,3.667,0,0,1,318.606,74.784ZM295.418,53.232q0,.4-.428.4l-5.313-.1h-7.83l-6.294.1a.356.356,0,0,1-.4-.4l.1-5.01V41.877l-.1-5.01a.357.357,0,0,1,.4-.4l6.294.1h7.226l5.816-.1a.357.357,0,0,1,.4.4v1.612a.356.356,0,0,1-.4.4l-5.816-.1h-1.964v2.744h.932l5.313-.049c.234,0,.352.134.352.4l-.1,2.392v1.385l.1,2.367c0,.268-.118.4-.352.4l-5.363-.05h-.882v3h2.568l5.313-.1q.428,0,.428.4ZM284.466,41.524V38.78h-6.5v2.744Zm6.445,4.885V43.488H277.97v2.921Zm-6.445,4.96v-3h-6.5v3ZM307.5,60.811V58.066H283.66v2.745Zm0,4.834v-2.77H283.66v2.77Zm0,5.11V67.709H283.66v3.046Zm10.121-28.727a.356.356,0,0,1-.4.4l-5.791-.1h-9.995a31.3,31.3,0,0,1-3.349,4.129q-.528.5-.73.5-.252,0-.881-.6a3.89,3.89,0,0,0-1.284-.88,30.208,30.208,0,0,0,5.992-8.183,10.9,10.9,0,0,0,.881-2.744,17.211,17.211,0,0,1,2.619.78q.63.226.63.554,0,.3-.479.68a7.7,7.7,0,0,0-.982,1.561q-.1.227-.881,1.637h8.459l5.791-.1a.356.356,0,0,1,.4.4Zm-1.863,8.611a.357.357,0,0,1-.4.4l-5.01-.1h-5.312l-4.986.1c-.285,0-.427-.135-.427-.4V48.625q0-.4.427-.4l4.986.1h5.312l5.01-.1a.356.356,0,0,1,.4.4Z" fill="#fffffe"/>
        <path id="パス_2477" data-name="パス 2477" d="M333.131,38.227a10.766,10.766,0,0,1,3.676,1.334.973.973,0,0,1,.528.78,1.177,1.177,0,0,1-.226.6,9.335,9.335,0,0,0-.831,2.593,99.636,99.636,0,0,0-2.467,19.512,83.132,83.132,0,0,0,.352,9.064q.705-1.813,3.626-8.409a8.874,8.874,0,0,0,1.158,2.114,1.065,1.065,0,0,1,.226.579,1.367,1.367,0,0,1-.176.555,46.248,46.248,0,0,0-3.072,8.132c-.067.654-.1,1.175-.1,1.56a4.959,4.959,0,0,0,.05.756,1.551,1.551,0,0,1,.025.252.506.506,0,0,1-.3.428,11.392,11.392,0,0,1-2.316.654.615.615,0,0,1-.227.051c-.185,0-.327-.151-.428-.454q-1.964-4.984-1.963-15.181,0-6.772,2.215-19.815a25.605,25.605,0,0,0,.327-3.826A9.678,9.678,0,0,0,333.131,38.227ZM356.9,65.972q-.353-7.5-.353-14.351-3.651.2-6.5.2-2.569,0-5.01-.151a.482.482,0,0,1-.555-.453,19.805,19.805,0,0,1-.2-2.744q2.92.2,5.992.2,3.121,0,6.169-.2l.05-5.917a20.377,20.377,0,0,0-.5-4.582,18.968,18.968,0,0,1,3.953.705q.579.252.579.629a1.781,1.781,0,0,1-.2.73,6.49,6.49,0,0,0-.428,2.468q-.1,1.788-.1,5.715,3.928-.378,8.132-1.159a1.075,1.075,0,0,1,.252-.049q.227,0,.277.4a11.8,11.8,0,0,1,.2,2.04q0,.528-.352.629a66.1,66.1,0,0,1-8.51,1.233q.076,8.536.478,15.56a37.5,37.5,0,0,1,9.064,5.338.406.406,0,0,1,.2.3,1.155,1.155,0,0,1-.1.352,9.634,9.634,0,0,1-1.385,2.266.412.412,0,0,1-.327.226.48.48,0,0,1-.3-.175,34.088,34.088,0,0,0-7.2-4.734q-.327,6.949-8.636,6.949a9.5,9.5,0,0,1-6.092-1.737,4.993,4.993,0,0,1-1.939-4.129,5.346,5.346,0,0,1,2.618-4.708,9.481,9.481,0,0,1,5.313-1.435A24.781,24.781,0,0,1,356.9,65.972Zm0,3.122a20.673,20.673,0,0,0-5.615-.857,5.976,5.976,0,0,0-3.625.957,2.8,2.8,0,0,0-1.158,2.342,2.505,2.505,0,0,0,1.485,2.341,7.5,7.5,0,0,0,3.45.68q5.461,0,5.463-4.482Z" fill="#fffffe"/>
        <path id="パス_2478" data-name="パス 2478" d="M384.641,61.616q.806.4,2.266,1.234c.185.1.277.218.277.352a.572.572,0,0,1-.126.327,7.976,7.976,0,0,0-1.385,4.029q0,6.294,13.193,6.294a63.341,63.341,0,0,0,14.8-1.511,1.4,1.4,0,0,1,.3-.05c.2,0,.336.135.4.4a19.337,19.337,0,0,1,.479,2.694v.126q0,.4-.68.553a79.11,79.11,0,0,1-15.61,1.335q-8.232,0-12.312-2.694a7.875,7.875,0,0,1-3.726-7A10.876,10.876,0,0,1,384.641,61.616Zm1.435-19.235a60.234,60.234,0,0,0,12.891,1.183q6.067,0,11.4-.453h.176a.507.507,0,0,1,.554.478,15.737,15.737,0,0,1,.151,2.316.713.713,0,0,1-.73.781q-5.891.831-13.344,5.866a1.333,1.333,0,0,1-.8.3,1.232,1.232,0,0,1-.655-.2,5.9,5.9,0,0,0-2.115-1.032,68.181,68.181,0,0,1,8.888-5.162q-2.318.2-5.59.2a50.958,50.958,0,0,1-10.473-.932c-.3-.05-.453-.285-.453-.705Q385.976,44.144,386.076,42.381Z" fill="#fffffe"/>
        <path id="パス_2479" data-name="パス 2479" d="M438.064,46.258q.328-2.19.605-5.262a19.424,19.424,0,0,0,.151-2.241,10.751,10.751,0,0,0-.252-2.341,14.725,14.725,0,0,1,4.18.881c.385.168.579.394.579.68a1.243,1.243,0,0,1-.3.705,4.213,4.213,0,0,0-.679,1.712q-.227,1.208-.831,5.463a87.6,87.6,0,0,0,11.078-2.165,1.22,1.22,0,0,1,.352-.076q.277,0,.327.428a17.036,17.036,0,0,1,.2,2.216.6.6,0,0,1-.5.63q-5.488,1.259-12.059,2.165-1.16,7.048-2.846,13.9a21.7,21.7,0,0,1,7.982-5.539A20.32,20.32,0,0,1,453.7,55.9q5.538,0,8.534,3.121a8.473,8.473,0,0,1,2.392,6.094q0,6.32-6.143,9.793-4.531,2.519-13.042,3.626a13.051,13.051,0,0,1-2.517.252q-.5,0-.831-.73a6.192,6.192,0,0,0-1.762-2.266q9.416-.6,15.207-3.248,5.312-2.493,5.312-7.528a5.522,5.522,0,0,0-2.216-4.733,8.727,8.727,0,0,0-5.262-1.435,18.327,18.327,0,0,0-8.862,2.341,17.2,17.2,0,0,0-5.715,4.884,17.728,17.728,0,0,0-1.184,1.687q-.428.63-.78.63h-.1a9.451,9.451,0,0,1-2.266-.731q-.68-.3-.679-.73a5.42,5.42,0,0,1,.2-.881c.1-.318.218-.7.352-1.158.118-.4.193-.663.227-.781q1.611-6.47,3.046-14.7-4.783.479-10.221.579a.691.691,0,0,1-.73-.579q-.252-1.208-.4-2.618h1.41A97.786,97.786,0,0,0,438.064,46.258Z" fill="#fffffe"/>
        <path id="パス_2480" data-name="パス 2480" d="M480.436,46.762a14.6,14.6,0,0,1,3.4,1.485.9.9,0,0,1,.529.73.976.976,0,0,1-.226.579,6.97,6.97,0,0,0-.781,2.417,83.6,83.6,0,0,0-1.485,11.808,29.165,29.165,0,0,1,9.315-7.251,20.125,20.125,0,0,1,8.686-2.039q5.514,0,8.535,3.1a9.276,9.276,0,0,1,2.543,6.747q0,7.125-7.729,11a38.231,38.231,0,0,1-12.538,3.4,5.3,5.3,0,0,1-.6.051.763.763,0,0,1-.731-.529,8.4,8.4,0,0,0-2.316-2.518,41.663,41.663,0,0,0,14.024-3.2q6.193-2.845,6.193-8.51a5.867,5.867,0,0,0-2.115-4.834,8.666,8.666,0,0,0-5.665-1.662,16.935,16.935,0,0,0-8.233,2.442,31.67,31.67,0,0,0-7.1,5.59,15.039,15.039,0,0,0-2.266,3.046c-.151.236-.3.353-.454.353a1.351,1.351,0,0,1-.377-.1q-.882-.327-2.115-.931a.723.723,0,0,1-.4-.706q.176-6.168,1.486-16.188A34.826,34.826,0,0,0,480.436,46.762Zm4.078-8.661a13.447,13.447,0,0,1,1.788-2.367.708.708,0,0,1,.428-.227.8.8,0,0,1,.3.076,31.488,31.488,0,0,1,9.441,5.866c.168.135.252.252.252.353a.855.855,0,0,1-.151.378,15.481,15.481,0,0,1-1.687,2.215.56.56,0,0,1-.4.227.639.639,0,0,1-.428-.227A34.169,34.169,0,0,0,484.514,38.1Z" fill="#fffffe"/>
      </g>
    </g>
  </g>
</svg>
