<svg xmlns="http://www.w3.org/2000/svg" width="632.813" height="117.188" viewBox="0 0 632.813 117.188">
  <g id="アートワーク_9" data-name="アートワーク 9" transform="translate(316.406 58.594)">
    <g id="グループ_454" data-name="グループ 454" transform="translate(-316.406 -58.594)">
      <rect id="長方形_115" data-name="長方形 115" width="632.813" height="117.188" fill="#bd3622"/>
      <path id="パス_2910" data-name="パス 2910" d="M585.245,41.285l17.042,17.042L585.245,75.368" fill="none" stroke="#fffffe" stroke-miterlimit="10" stroke-width="2"/>
      <g id="グループ_453" data-name="グループ 453">
        <path id="パス_2911" data-name="パス 2911" d="M156.7,43.438q0,.4-.378.4l-7.2-.1H120.444v7.428a85.634,85.634,0,0,1-1.083,15.459,41.727,41.727,0,0,1-4.683,12.738q-.428.68-.529.68t-.654-.578a7.583,7.583,0,0,0-2.065-1.487,36.5,36.5,0,0,0,4.884-12.587,83.641,83.641,0,0,0,.982-14.628l-.1-9.568a.356.356,0,0,1,.4-.4l7.326.1h9.743V38.327a22.253,22.253,0,0,0-.3-4.179,23.327,23.327,0,0,1,3.4.252q.628.075.629.4a2,2,0,0,1-.3.981,6.749,6.749,0,0,0-.277,2.493V40.9h11.3l7.2-.1c.252,0,.378.135.378.4Zm-1.687,11.808c0,.27-.143.4-.429.4l-6.017-.1h-10.02v7.377h6.244l7.024-.1a.357.357,0,0,1,.4.4l-.1,4.456v4.053l.1,8.158a.356.356,0,0,1-.4.4h-2.392a.356.356,0,0,1-.4-.4V78.082H127.77V80.2a.312.312,0,0,1-.353.352h-2.341c-.268,0-.4-.117-.4-.352l.1-8.259v-3.6l-.1-5.11a.357.357,0,0,1,.4-.4l6.974.1h3.45V51.621a40.116,40.116,0,0,0-.3-5.992,28.846,28.846,0,0,1,3.3.327c.419.05.629.185.629.4a4.341,4.341,0,0,1-.327,1.032,17.763,17.763,0,0,0-.252,4.129v1.234h10.02l6.017-.1q.429,0,.429.4ZM149.02,75.287V65.67H127.77v9.617Z" fill="#fffffe"/>
        <path id="パス_2912" data-name="パス 2912" d="M185.146,43.539a5.919,5.919,0,0,0-1.334,1.637c-.269.519-.461.78-.579.78a1.472,1.472,0,0,1-.654-.4,34.117,34.117,0,0,1-6.395-6.446,42.091,42.091,0,0,1-10.121,10.676,1.3,1.3,0,0,1-.605.352q-.226,0-.529-.68a6.194,6.194,0,0,0-1.183-1.736,34,34,0,0,0,10.675-11.254,6.136,6.136,0,0,0,.554-1.587,15.286,15.286,0,0,1,2.87,1.032q.5.252.5.5,0,.277-.428.528l-.2.152A26.71,26.71,0,0,0,185.146,43.539Zm-.2,16.919q0,.353-.4.353l-5.689-.1h-7.227l-5.664.1q-.4,0-.4-.353V58.494a.356.356,0,0,1,.4-.4l5.664.1h2.795V52.652h-.931l-4.532.127q-.478,0-.479-.427V50.438q0-.4.479-.4l4.532.1h.931v-.78a24.588,24.588,0,0,0-.352-4.784,27.492,27.492,0,0,1,3.1.3c.419.051.629.193.629.428a3.138,3.138,0,0,1-.327.982,10.073,10.073,0,0,0-.252,2.821v1.031h.931l4.582-.1a.356.356,0,0,1,.4.4v1.914q0,.427-.4.427l-4.582-.127h-.931v5.539h1.637l5.689-.1a.356.356,0,0,1,.4.4Zm-1.888,18.907c0,.27-.143.4-.428.4h-2.115a.356.356,0,0,1-.4-.4V77.5h-9.19v2.519q0,.427-.4.427H168.4a.377.377,0,0,1-.428-.427l.1-7.4v-3.1l-.1-4.33a.356.356,0,0,1,.4-.4l4.809.051h4.657l4.809-.051a.357.357,0,0,1,.4.4l-.1,3.6v3.35Zm-2.946-4.33V67.356h-9.19v7.679Zm31.018-31.547a.356.356,0,0,1-.4.4l-6.672-.1h-4.683V48.9h3.549l6.421-.1a.356.356,0,0,1,.4.4l-.1,7.2V68.111l.05,7.856a4.285,4.285,0,0,1-1.032,3.248q-.957.882-4.28.881a1.719,1.719,0,0,1-.957-.151,2.057,2.057,0,0,1-.277-.781,5.481,5.481,0,0,0-.78-2.064q1.938.151,3.046.151,1.436,0,1.435-1.813V67.961h-7.477v4.078l.1,7.83q0,.427-.4.428h-2.19q-.4,0-.4-.428l.1-7.83V67.961h-6.823v4.48l.1,7.705a.356.356,0,0,1-.4.4h-2.14c-.3,0-.454-.135-.454-.4l.1-7.754V56.152l-.1-6.949c0-.267.152-.4.454-.4l6.344.1h2.921V43.791h-3.953l-6.7.1a.356.356,0,0,1-.4-.4V41.424q0-.427.4-.428l6.7.1h3.953v-.4a43.162,43.162,0,0,0-.352-6.293,30,30,0,0,1,3.1.3c.369.069.554.211.554.429a2.845,2.845,0,0,1-.2.932,18.246,18.246,0,0,0-.3,4.43v.6h4.683l6.672-.1q.4,0,.4.428Zm-14.552,13.7V51.42h-6.823v5.766Zm0,8.357V59.6h-6.823v5.941Zm10.272-8.357V51.42h-7.477v5.766Zm0,8.357V59.6h-7.477v5.941Zm1.964-26.763a.491.491,0,0,1,.1.227q0,.127-.3.4l-1.183.932a.989.989,0,0,1-.478.252c-.084,0-.185-.084-.3-.252a27.152,27.152,0,0,0-3.827-4.029c-.134-.118-.2-.2-.2-.251q0-.152.3-.378l1.033-.756a1.07,1.07,0,0,1,.453-.227.6.6,0,0,1,.327.153A29.663,29.663,0,0,1,208.813,38.78Z" fill="#fffffe"/>
        <path id="パス_2913" data-name="パス 2913" d="M263.772,58.645a.356.356,0,0,1-.4.4l-6.824-.1H226.813l-6.823.1a.356.356,0,0,1-.4-.4V55.951a.356.356,0,0,1,.4-.4l6.823.1h29.733l6.824-.1a.356.356,0,0,1,.4.4Z" fill="#fffffe"/>
        <path id="パス_2914" data-name="パス 2914" d="M318.606,74.783a9.525,9.525,0,0,1-1.007,3.2,5.27,5.27,0,0,1-1.385,1.335q-1.737,1.234-7.981,1.234a37.157,37.157,0,0,1-7.528-.5,3.151,3.151,0,0,1-1.838-1.082,4.323,4.323,0,0,1-.529-2.392v-3.6h-6.294a13.308,13.308,0,0,1-7.1,6.319A32.14,32.14,0,0,1,276.183,81a4.305,4.305,0,0,1-.554.051q-.555,0-1.007-.957a7.3,7.3,0,0,0-1.184-1.712,38.349,38.349,0,0,0,9.467-1.335,10.041,10.041,0,0,0,5.539-4.078h-.252l-7.125.1a.356.356,0,0,1-.4-.4l.1-4.758V60.961l-.1-4.809a.356.356,0,0,1,.4-.4l7.125.1h14.779l7.1-.1c.285,0,.428.135.428.4l-.1,4.809V67.91l.1,4.758c0,.27-.143.4-.428.4l-7.1-.1h-1.435v2.895a1.991,1.991,0,0,0,.277,1.208,1.9,1.9,0,0,0,1.107.555,33.571,33.571,0,0,0,5.263.252q4.657,0,5.916-.781a2.735,2.735,0,0,0,1.309-1.637,12.57,12.57,0,0,0,.4-3.172,6.929,6.929,0,0,0,1.914,1.133c.62.269.931.555.931.855A3.639,3.639,0,0,1,318.606,74.783ZM295.418,53.232q0,.4-.428.4l-5.313-.1h-7.83l-6.294.1a.356.356,0,0,1-.4-.4l.1-5.01V41.877l-.1-5.01a.356.356,0,0,1,.4-.4l6.294.1h7.226l5.816-.1a.356.356,0,0,1,.4.4v1.612a.356.356,0,0,1-.4.4l-5.816-.1h-1.964v2.745h.932l5.313-.05c.234,0,.352.134.352.4l-.1,2.393v1.384l.1,2.367c0,.268-.118.4-.352.4l-5.363-.051h-.882v3h2.568l5.313-.1q.428,0,.428.4ZM284.466,41.525V38.78h-6.5v2.745Zm6.445,4.884V43.488H277.97v2.921Zm-6.445,4.96v-3h-6.5v3ZM307.5,60.811V58.066H283.66v2.745Zm0,4.834v-2.77H283.66v2.77Zm0,5.111V67.709H283.66v3.047Zm10.121-28.728a.357.357,0,0,1-.4.4l-5.791-.1h-9.995a31.236,31.236,0,0,1-3.349,4.129q-.528.5-.73.5-.252,0-.881-.6a3.863,3.863,0,0,0-1.284-.881,30.208,30.208,0,0,0,5.992-8.183,10.9,10.9,0,0,0,.881-2.744,17.211,17.211,0,0,1,2.619.78q.63.226.63.554c0,.2-.16.428-.479.679a7.748,7.748,0,0,0-.982,1.562q-.1.227-.881,1.636h8.459l5.791-.1a.356.356,0,0,1,.4.4Zm-1.863,8.611a.356.356,0,0,1-.4.4l-5.01-.1h-5.312l-4.986.1c-.285,0-.427-.133-.427-.4V48.625q0-.4.427-.4l4.986.1h5.312l5.01-.1a.356.356,0,0,1,.4.4Z" fill="#fffffe"/>
        <path id="パス_2915" data-name="パス 2915" d="M333.131,38.227a10.766,10.766,0,0,1,3.676,1.334.976.976,0,0,1,.528.781,1.171,1.171,0,0,1-.226.6,9.368,9.368,0,0,0-.831,2.594,99.636,99.636,0,0,0-2.467,19.512,83.12,83.12,0,0,0,.352,9.064q.705-1.813,3.626-8.41a8.86,8.86,0,0,0,1.158,2.115,1.065,1.065,0,0,1,.226.579,1.359,1.359,0,0,1-.176.554,46.276,46.276,0,0,0-3.072,8.133c-.067.654-.1,1.175-.1,1.56a4.968,4.968,0,0,0,.05.756,1.541,1.541,0,0,1,.025.252.505.505,0,0,1-.3.428,11.392,11.392,0,0,1-2.316.654.615.615,0,0,1-.227.051c-.185,0-.327-.151-.428-.453q-1.964-4.986-1.963-15.182,0-6.772,2.215-19.814a25.629,25.629,0,0,0,.327-3.827A9.668,9.668,0,0,0,333.131,38.227ZM356.9,65.972q-.353-7.5-.353-14.351-3.651.2-6.5.2-2.569,0-5.01-.151a.482.482,0,0,1-.555-.453,19.794,19.794,0,0,1-.2-2.744q2.92.2,5.992.2,3.121,0,6.169-.2l.05-5.917a20.383,20.383,0,0,0-.5-4.582,18.968,18.968,0,0,1,3.953.705q.579.252.579.629a1.781,1.781,0,0,1-.2.73,6.485,6.485,0,0,0-.428,2.468q-.1,1.788-.1,5.715,3.928-.376,8.132-1.159a1.075,1.075,0,0,1,.252-.049q.227,0,.277.4a11.8,11.8,0,0,1,.2,2.039c0,.354-.117.563-.352.63a66.282,66.282,0,0,1-8.51,1.233q.076,8.536.478,15.56a37.533,37.533,0,0,1,9.064,5.337.409.409,0,0,1,.2.3,1.155,1.155,0,0,1-.1.352,9.682,9.682,0,0,1-1.385,2.267.414.414,0,0,1-.327.226.477.477,0,0,1-.3-.176,34.127,34.127,0,0,0-7.2-4.734q-.327,6.949-8.636,6.949a9.5,9.5,0,0,1-6.092-1.738,4.99,4.99,0,0,1-1.939-4.129,5.346,5.346,0,0,1,2.618-4.707,9.481,9.481,0,0,1,5.313-1.435A24.781,24.781,0,0,1,356.9,65.972Zm0,3.122a20.669,20.669,0,0,0-5.615-.856,5.976,5.976,0,0,0-3.625.956,2.8,2.8,0,0,0-1.158,2.341,2.507,2.507,0,0,0,1.485,2.342,7.5,7.5,0,0,0,3.45.68q5.461,0,5.463-4.481Z" fill="#fffffe"/>
        <path id="パス_2916" data-name="パス 2916" d="M384.641,61.616q.806.4,2.266,1.234c.185.1.277.218.277.352a.572.572,0,0,1-.126.327,7.976,7.976,0,0,0-1.385,4.029q0,6.294,13.193,6.294a63.4,63.4,0,0,0,14.8-1.51,1.421,1.421,0,0,1,.3-.051c.2,0,.336.135.4.4a19.415,19.415,0,0,1,.479,2.695v.126q0,.4-.68.553a79.186,79.186,0,0,1-15.61,1.335q-8.232,0-12.312-2.694a7.875,7.875,0,0,1-3.726-7A10.876,10.876,0,0,1,384.641,61.616Zm1.435-19.235a60.234,60.234,0,0,0,12.891,1.183q6.067,0,11.4-.453h.176a.507.507,0,0,1,.554.479,15.718,15.718,0,0,1,.151,2.316.713.713,0,0,1-.73.78q-5.891.831-13.344,5.867a1.338,1.338,0,0,1-.8.3,1.233,1.233,0,0,1-.655-.2,5.91,5.91,0,0,0-2.115-1.031,68.3,68.3,0,0,1,8.888-5.162q-2.318.2-5.59.2a50.965,50.965,0,0,1-10.473-.931c-.3-.049-.453-.285-.453-.705Q385.976,44.145,386.076,42.381Z" fill="#fffffe"/>
        <path id="パス_2917" data-name="パス 2917" d="M438.064,46.258q.328-2.19.605-5.262a19.408,19.408,0,0,0,.151-2.24,10.747,10.747,0,0,0-.252-2.342,14.725,14.725,0,0,1,4.18.881c.385.168.579.394.579.68a1.241,1.241,0,0,1-.3.705,4.219,4.219,0,0,0-.679,1.712q-.227,1.208-.831,5.463a87.42,87.42,0,0,0,11.078-2.166,1.246,1.246,0,0,1,.352-.075c.185,0,.294.144.327.429a17.009,17.009,0,0,1,.2,2.215.594.594,0,0,1-.5.629q-5.488,1.26-12.059,2.166-1.16,7.048-2.846,13.9a21.67,21.67,0,0,1,7.982-5.538A20.3,20.3,0,0,1,453.7,55.9q5.538,0,8.534,3.123a8.466,8.466,0,0,1,2.392,6.092q0,6.32-6.143,9.8-4.531,2.517-13.042,3.625a13.051,13.051,0,0,1-2.517.252q-.5,0-.831-.73a6.192,6.192,0,0,0-1.762-2.266q9.416-.6,15.207-3.248,5.312-2.493,5.312-7.527a5.526,5.526,0,0,0-2.216-4.735,8.727,8.727,0,0,0-5.262-1.434,18.327,18.327,0,0,0-8.862,2.341,17.2,17.2,0,0,0-5.715,4.884,17.715,17.715,0,0,0-1.184,1.688q-.428.628-.78.629h-.1a9.4,9.4,0,0,1-2.266-.731q-.68-.3-.679-.73a5.42,5.42,0,0,1,.2-.881c.1-.318.218-.7.352-1.158.118-.4.193-.662.227-.781q1.611-6.47,3.046-14.7-4.783.48-10.221.579a.692.692,0,0,1-.73-.579q-.252-1.208-.4-2.618h1.41A97.786,97.786,0,0,0,438.064,46.258Z" fill="#fffffe"/>
        <path id="パス_2918" data-name="パス 2918" d="M480.436,46.762a14.6,14.6,0,0,1,3.4,1.485.9.9,0,0,1,.529.73.979.979,0,0,1-.226.58,6.954,6.954,0,0,0-.781,2.416,83.6,83.6,0,0,0-1.485,11.808,29.165,29.165,0,0,1,9.315-7.251,20.126,20.126,0,0,1,8.686-2.04q5.514,0,8.535,3.1a9.276,9.276,0,0,1,2.543,6.747q0,7.126-7.729,11a38.256,38.256,0,0,1-12.538,3.4,5.3,5.3,0,0,1-.6.051.763.763,0,0,1-.731-.529,8.4,8.4,0,0,0-2.316-2.518,41.639,41.639,0,0,0,14.024-3.2q6.193-2.845,6.193-8.51a5.867,5.867,0,0,0-2.115-4.834,8.671,8.671,0,0,0-5.665-1.662,16.935,16.935,0,0,0-8.233,2.442,31.693,31.693,0,0,0-7.1,5.589,15.1,15.1,0,0,0-2.266,3.047c-.151.236-.3.353-.454.353a1.389,1.389,0,0,1-.377-.1q-.882-.328-2.115-.931a.723.723,0,0,1-.4-.706q.176-6.168,1.486-16.189A34.8,34.8,0,0,0,480.436,46.762Zm4.078-8.661a13.447,13.447,0,0,1,1.788-2.367.706.706,0,0,1,.428-.226.8.8,0,0,1,.3.075,31.508,31.508,0,0,1,9.441,5.866c.168.135.252.252.252.353a.855.855,0,0,1-.151.378,15.426,15.426,0,0,1-1.687,2.215.558.558,0,0,1-.4.226.637.637,0,0,1-.428-.226A34.169,34.169,0,0,0,484.514,38.1Z" fill="#fffffe"/>
      </g>
    </g>
  </g>
</svg>
