<svg width="632" height="117" viewBox="0 0 632 117" fill="none" xmlns="http://www.w3.org/2000/svg">
<path d="M632 0H0V117H632V0Z" fill="#BD3622"/>
<path d="M585.24 41.2803L602.29 58.3303L585.24 75.3703" stroke="#FFFFFE" stroke-width="2" stroke-miterlimit="10"/>
<path d="M156.7 43.4401C156.7 43.7101 156.57 43.8401 156.32 43.8401L149.12 43.7401H120.44V51.1701C120.44 57.7501 120.08 62.9001 119.36 66.6301C118.52 71.0601 116.96 75.3101 114.68 79.3701C114.39 79.8201 114.22 80.0501 114.15 80.0501C114.08 80.0501 113.86 79.8601 113.5 79.4701C112.81 78.8001 112.12 78.3001 111.44 77.9801C113.74 74.3701 115.37 70.1801 116.32 65.3901C116.97 61.9201 117.3 57.0401 117.3 50.7601L117.2 41.1901C117.2 40.9201 117.33 40.7901 117.6 40.7901L124.93 40.8901H134.67V38.3201C134.67 36.5201 134.57 35.1301 134.37 34.1401C135.49 34.1401 136.63 34.2201 137.77 34.3901C138.19 34.4401 138.4 34.5801 138.4 34.7901C138.4 35.0901 138.3 35.4201 138.1 35.7701C137.91 36.1201 137.82 36.9501 137.82 38.2601V40.8801H149.12L156.32 40.7801C156.57 40.7801 156.7 40.9101 156.7 41.1801V43.4201V43.4401ZM155.01 55.2501C155.01 55.5201 154.87 55.6501 154.58 55.6501L148.56 55.5501H138.54V62.9301H144.78L151.8 62.8301C152.07 62.8301 152.2 62.9601 152.2 63.2301L152.1 67.6901V71.7401L152.2 79.9001C152.2 80.1701 152.07 80.3001 151.8 80.3001H149.41C149.14 80.3001 149.01 80.1701 149.01 79.9001V78.0901H127.76V80.2001C127.76 80.4401 127.64 80.5501 127.41 80.5501H125.07C124.8 80.5501 124.67 80.4301 124.67 80.2001L124.77 71.9401V68.3401L124.67 63.2301C124.67 62.9601 124.8 62.8301 125.07 62.8301L132.04 62.9301H135.49V51.6301C135.49 48.7901 135.39 46.8001 135.19 45.6401C136.5 45.7101 137.6 45.8201 138.49 45.9701C138.91 46.0201 139.12 46.1501 139.12 46.3701C139.12 46.5001 139.01 46.8501 138.79 47.4001C138.62 47.8201 138.54 49.2001 138.54 51.5301V52.7601H148.56L154.58 52.6601C154.87 52.6601 155.01 52.7901 155.01 53.0601V55.2501ZM149.02 75.2901V65.6701H127.77V75.2901H149.02Z" fill="#FFFFFE"/>
<path d="M185.15 43.5399C184.56 44.0599 184.12 44.6099 183.82 45.1799C183.55 45.6999 183.36 45.9599 183.24 45.9599C183.12 45.9599 182.9 45.8299 182.59 45.5599C180.16 43.6799 178.02 41.5299 176.19 39.1099C173.66 43.0399 170.28 46.5999 166.07 49.7899C165.78 50.0299 165.58 50.1399 165.47 50.1399C165.32 50.1399 165.14 49.9099 164.94 49.4599C164.6 48.7499 164.21 48.1799 163.76 47.7199C168.49 44.4599 172.05 40.7099 174.44 36.4699C174.69 35.9799 174.88 35.4499 174.99 34.8799C175.9 35.0999 176.85 35.4399 177.86 35.9099C178.2 36.0799 178.36 36.2499 178.36 36.4099C178.36 36.5899 178.22 36.7699 177.93 36.9399L177.73 37.0899C179.76 39.6599 182.24 41.8099 185.16 43.5399H185.15ZM184.95 60.4599C184.95 60.6999 184.82 60.8099 184.55 60.8099L178.86 60.7099H171.63L165.97 60.8099C165.7 60.8099 165.57 60.6899 165.57 60.4599V58.4999C165.57 58.2299 165.7 58.0999 165.97 58.0999L171.63 58.1999H174.42V52.6599H173.49L168.96 52.7899C168.64 52.7899 168.48 52.6499 168.48 52.3599V50.4499C168.48 50.1799 168.64 50.0499 168.96 50.0499L173.49 50.1499H174.42V49.3699C174.42 47.2899 174.3 45.6899 174.07 44.5899C175.19 44.6399 176.23 44.7399 177.17 44.8899C177.59 44.9399 177.8 45.0799 177.8 45.3199C177.8 45.4899 177.69 45.8199 177.47 46.2999C177.3 46.7699 177.22 47.7099 177.22 49.1199V50.1499H178.15L182.73 50.0499C183 50.0499 183.13 50.1799 183.13 50.4499V52.3599C183.13 52.6499 183 52.7899 182.73 52.7899L178.15 52.6599H177.22V58.1999H178.86L184.55 58.0999C184.82 58.0999 184.95 58.2299 184.95 58.4999V60.4599ZM183.06 79.3699C183.06 79.6399 182.92 79.7699 182.63 79.7699H180.52C180.25 79.7699 180.12 79.6399 180.12 79.3699V77.5099H170.93V80.0299C170.93 80.3199 170.8 80.4599 170.53 80.4599H168.42C168.13 80.4599 167.99 80.3199 167.99 80.0299L168.09 72.6299V69.5299L167.99 65.1999C167.99 64.9299 168.12 64.7999 168.39 64.7999L173.2 64.8499H177.86L182.67 64.7999C182.94 64.7999 183.07 64.9299 183.07 65.1999L182.97 68.7999V72.1499L183.07 79.3799L183.06 79.3699ZM180.11 75.0399V67.3599H170.92V75.0399H180.11ZM211.13 43.4899C211.13 43.7599 211 43.8899 210.73 43.8899L204.06 43.7899H199.38V48.8999H202.93L209.35 48.7999C209.62 48.7999 209.75 48.9299 209.75 49.1999L209.65 56.3999V68.1099L209.7 75.9699C209.7 77.4999 209.36 78.5799 208.67 79.2199C208.03 79.8099 206.61 80.0999 204.39 80.0999C203.85 80.0999 203.53 80.0499 203.43 79.9499C203.35 79.8699 203.25 79.6099 203.15 79.1699C202.97 78.2599 202.71 77.5799 202.37 77.1099C203.66 77.2099 204.68 77.2599 205.42 77.2599C206.38 77.2599 206.86 76.6599 206.86 75.4499V67.9699H199.38V72.0499L199.48 79.8799C199.48 80.1699 199.35 80.3099 199.08 80.3099H196.89C196.62 80.3099 196.49 80.1699 196.49 79.8799L196.59 72.0499V67.9699H189.77V72.4499L189.87 80.1499C189.87 80.4199 189.74 80.5499 189.47 80.5499H187.33C187.03 80.5499 186.88 80.4199 186.88 80.1499L186.98 72.3999V56.1599L186.88 49.2099C186.88 48.9399 187.03 48.8099 187.33 48.8099L193.67 48.9099H196.59V43.7999H192.64L185.94 43.8999C185.67 43.8999 185.54 43.7699 185.54 43.4999V41.4399C185.54 41.1499 185.67 41.0099 185.94 41.0099L192.64 41.1099H196.59V40.7099C196.59 38.0099 196.47 35.9099 196.24 34.4199C197.31 34.4699 198.35 34.5699 199.34 34.7199C199.71 34.7899 199.89 34.9299 199.89 35.1499C199.89 35.3999 199.82 35.7099 199.69 36.0799C199.49 36.6299 199.39 38.1099 199.39 40.5099V41.1099H204.07L210.74 41.0099C211.01 41.0099 211.14 41.1499 211.14 41.4399V43.4999L211.13 43.4899ZM196.58 57.1899V51.4199H189.76V57.1899H196.58ZM196.58 65.5499V59.6099H189.76V65.5499H196.58ZM206.85 57.1899V51.4199H199.37V57.1899H206.85ZM206.85 65.5499V59.6099H199.37V65.5499H206.85ZM208.81 38.7899C208.88 38.8899 208.91 38.9699 208.91 39.0199C208.91 39.0999 208.81 39.2399 208.61 39.4199L207.43 40.3499C207.21 40.5199 207.05 40.5999 206.95 40.5999C206.87 40.5999 206.77 40.5199 206.65 40.3499C205.53 38.8899 204.25 37.5499 202.82 36.3199C202.69 36.1999 202.62 36.1199 202.62 36.0699C202.62 35.9699 202.72 35.8399 202.92 35.6899L203.95 34.9399C204.17 34.7899 204.32 34.7099 204.4 34.7099C204.48 34.7099 204.59 34.7599 204.73 34.8599C206.12 35.9499 207.48 37.2599 208.81 38.7899Z" fill="#FFFFFE"/>
<path d="M263.77 58.6501C263.77 58.9201 263.64 59.0501 263.37 59.0501L256.55 58.9501H226.82L220 59.0501C219.73 59.0501 219.6 58.9201 219.6 58.6501V55.9601C219.6 55.6901 219.73 55.5601 220 55.5601L226.82 55.6601H256.55L263.37 55.5601C263.64 55.5601 263.77 55.6901 263.77 55.9601V58.6501Z" fill="#FFFFFE"/>
<path d="M318.61 74.78C318.34 76.27 318.01 77.34 317.6 77.98C317.33 78.4 316.87 78.84 316.22 79.31C315.06 80.13 312.4 80.54 308.24 80.54C304.6 80.54 302.09 80.37 300.71 80.04C299.8 79.79 299.19 79.43 298.87 78.96C298.52 78.44 298.34 77.64 298.34 76.57V72.97H292.05C290.47 75.94 288.11 78.05 284.95 79.29C282.87 80.11 279.95 80.68 276.19 81C275.95 81.03 275.77 81.05 275.64 81.05C275.27 81.05 274.93 80.73 274.63 80.09C274.34 79.5 273.95 78.93 273.45 78.38C277.66 78.18 280.82 77.73 282.92 77.05C285.42 76.21 287.27 74.85 288.46 72.97H288.21L281.09 73.07C280.82 73.07 280.69 72.94 280.69 72.67L280.79 67.91V60.96L280.69 56.15C280.69 55.88 280.82 55.75 281.09 55.75L288.21 55.85H302.99L310.09 55.75C310.38 55.75 310.52 55.88 310.52 56.15L310.42 60.96V67.91L310.52 72.67C310.52 72.94 310.38 73.07 310.09 73.07L302.99 72.97H301.55V75.87C301.55 76.44 301.64 76.84 301.83 77.08C302.03 77.33 302.4 77.52 302.94 77.63C303.76 77.8 305.52 77.88 308.2 77.88C311.3 77.88 313.28 77.62 314.12 77.1C314.76 76.75 315.19 76.2 315.43 75.46C315.65 74.79 315.78 73.73 315.83 72.29C316.42 72.78 317.06 73.15 317.74 73.42C318.36 73.69 318.67 73.97 318.67 74.28C318.67 74.4 318.65 74.57 318.62 74.78H318.61ZM295.42 53.23C295.42 53.5 295.28 53.63 294.99 53.63L289.68 53.53H281.85L275.56 53.63C275.29 53.63 275.16 53.5 275.16 53.23L275.26 48.22V41.88L275.16 36.87C275.16 36.6 275.29 36.47 275.56 36.47L281.85 36.57H289.08L294.9 36.47C295.17 36.47 295.3 36.6 295.3 36.87V38.48C295.3 38.75 295.17 38.88 294.9 38.88L289.08 38.78H287.12V41.52H288.05L293.36 41.47C293.59 41.47 293.71 41.6 293.71 41.87L293.61 44.26V45.64L293.71 48.01C293.71 48.28 293.59 48.41 293.36 48.41L288 48.36H287.12V51.36H289.69L295 51.26C295.29 51.26 295.43 51.39 295.43 51.66V53.22L295.42 53.23ZM284.47 41.52V38.78H277.97V41.52H284.47ZM290.92 46.4V43.48H277.98V46.4H290.92ZM284.47 51.36V48.36H277.97V51.36H284.47ZM307.51 60.8V58.06H283.67V60.8H307.51ZM307.51 65.63V62.86H283.67V65.63H307.51ZM307.51 70.74V67.69H283.67V70.74H307.51ZM317.63 42.01C317.63 42.28 317.5 42.41 317.23 42.41L311.44 42.31H301.44C300.52 43.69 299.4 45.06 298.09 46.44C297.74 46.78 297.49 46.94 297.36 46.94C297.19 46.94 296.9 46.74 296.48 46.34C296.13 45.97 295.7 45.68 295.2 45.46C297.62 43.13 299.61 40.4 301.19 37.28C301.61 36.39 301.9 35.48 302.07 34.54C303.11 34.78 303.98 35.04 304.69 35.32C305.11 35.47 305.32 35.66 305.32 35.87C305.32 36.07 305.16 36.3 304.84 36.55C304.65 36.72 304.33 37.24 303.86 38.11C303.79 38.26 303.5 38.81 302.98 39.75H311.44L317.23 39.65C317.5 39.65 317.63 39.78 317.63 40.05V42.01ZM315.77 50.62C315.77 50.89 315.64 51.02 315.37 51.02L310.36 50.92H305.05L300.06 51.02C299.77 51.02 299.63 50.89 299.63 50.62V48.61C299.63 48.34 299.77 48.21 300.06 48.21L305.05 48.31H310.36L315.37 48.21C315.64 48.21 315.77 48.34 315.77 48.61V50.62Z" fill="#FFFFFE"/>
<path d="M333.13 38.2302C334.66 38.5302 335.88 38.9802 336.81 39.5602C337.16 39.7902 337.34 40.0602 337.34 40.3402C337.34 40.5102 337.26 40.7102 337.11 40.9402C336.81 41.4602 336.53 42.3202 336.28 43.5302C334.63 51.4402 333.81 57.9402 333.81 63.0402C333.81 67.1502 333.93 70.1702 334.16 72.1002C334.63 70.8902 335.84 68.0902 337.79 63.6902C338.02 64.3402 338.41 65.0502 338.95 65.8002C339.1 66.0202 339.18 66.2102 339.18 66.3802C339.18 66.5102 339.12 66.7002 339 66.9302C337.15 71.1102 336.13 73.8202 335.93 75.0602C335.86 75.7102 335.83 76.2302 335.83 76.6202C335.83 76.9102 335.85 77.1602 335.88 77.3802C335.9 77.4802 335.91 77.5602 335.91 77.6302C335.91 77.8002 335.81 77.9402 335.61 78.0602C334.97 78.3302 334.2 78.5502 333.29 78.7102C333.21 78.7402 333.13 78.7602 333.06 78.7602C332.87 78.7602 332.73 78.6102 332.63 78.3102C331.32 74.9902 330.67 69.9302 330.67 63.1302C330.67 58.6102 331.41 52.0102 332.89 43.3202C333.11 41.8902 333.22 40.6202 333.22 39.4902C333.22 39.0002 333.2 38.5702 333.14 38.2102L333.13 38.2302ZM356.9 65.9802C356.66 60.9802 356.55 56.1902 356.55 51.6302C354.12 51.7602 351.95 51.8302 350.05 51.8302C348.34 51.8302 346.67 51.7802 345.04 51.6802C344.7 51.6802 344.52 51.5302 344.49 51.2302C344.36 50.2702 344.29 49.3602 344.29 48.4902C346.24 48.6202 348.23 48.6902 350.28 48.6902C352.33 48.6902 354.42 48.6202 356.45 48.4902L356.5 42.5702C356.5 40.9802 356.33 39.4502 356 37.9902C357.65 38.1402 358.96 38.3802 359.95 38.7002C360.34 38.8702 360.53 39.0802 360.53 39.3302C360.53 39.5302 360.46 39.7702 360.33 40.0602C360.11 40.4302 359.97 41.2502 359.9 42.5302C359.83 43.7202 359.8 45.6302 359.8 48.2402C362.42 47.9902 365.13 47.6002 367.93 47.0802C368.05 47.0502 368.13 47.0302 368.18 47.0302C368.33 47.0302 368.42 47.1602 368.46 47.4302C368.59 48.1902 368.66 48.8702 368.66 49.4702C368.66 49.8202 368.54 50.0302 368.31 50.1002C366.23 50.5902 363.39 51.0002 359.8 51.3302C359.85 57.0202 360.01 62.2102 360.28 66.8902C363.7 68.3302 366.73 70.1102 369.34 72.2302C369.47 72.3302 369.54 72.4302 369.54 72.5302C369.54 72.6002 369.51 72.7202 369.44 72.8802C369.07 73.7202 368.61 74.4702 368.06 75.1502C367.96 75.3002 367.85 75.3802 367.73 75.3802C367.65 75.3802 367.54 75.3202 367.43 75.2002C365.08 73.2202 362.68 71.6402 360.23 70.4702C360.01 75.1002 357.13 77.4202 351.59 77.4202C348.97 77.4202 346.94 76.8402 345.5 75.6802C344.21 74.6602 343.56 73.2802 343.56 71.5502C343.56 69.5502 344.43 67.9802 346.18 66.8402C347.64 65.8802 349.41 65.4002 351.49 65.4002C353.37 65.4002 355.17 65.5902 356.9 65.9802ZM356.9 69.1002C354.89 68.5302 353.01 68.2402 351.29 68.2402C349.73 68.2402 348.52 68.5602 347.66 69.2002C346.89 69.7902 346.5 70.5702 346.5 71.5402C346.5 72.5802 347 73.3602 347.99 73.8802C348.86 74.3302 350.01 74.5602 351.44 74.5602C355.08 74.5602 356.9 73.0702 356.9 70.0802V69.1002Z" fill="#FFFFFE"/>
<path d="M384.64 61.6199C385.18 61.8899 385.93 62.2999 386.91 62.8499C387.09 62.9499 387.19 63.0699 387.19 63.1999C387.19 63.2999 387.15 63.4099 387.06 63.5299C386.14 65.0399 385.68 66.3799 385.68 67.5599C385.68 71.7599 390.08 73.8499 398.87 73.8499C404.59 73.8499 409.53 73.3499 413.67 72.3399C413.8 72.3099 413.9 72.2899 413.97 72.2899C414.17 72.2899 414.31 72.4199 414.37 72.6899C414.54 73.2799 414.7 74.1799 414.85 75.3799V75.5099C414.85 75.7799 414.62 75.9599 414.17 76.0599C409.81 76.9499 404.6 77.3899 398.56 77.3899C393.07 77.3899 388.97 76.4899 386.25 74.6999C383.77 73.0699 382.52 70.7399 382.52 67.6999C382.52 65.7199 383.23 63.6899 384.63 61.6099L384.64 61.6199ZM386.08 42.3799C389.62 43.1699 393.92 43.5599 398.97 43.5599C403.01 43.5599 406.82 43.4099 410.38 43.1099H410.56C410.88 43.1099 411.06 43.2699 411.11 43.5899C411.21 44.2599 411.26 45.0299 411.26 45.9099C411.26 46.3799 411.02 46.6399 410.53 46.6899C406.6 47.2399 402.15 49.1999 397.19 52.5599C396.92 52.7599 396.65 52.8599 396.38 52.8599C396.16 52.8599 395.94 52.7899 395.73 52.6599C395.06 52.1599 394.35 51.8099 393.61 51.6299C396.56 49.6199 399.53 47.8999 402.5 46.4699C400.96 46.5999 399.09 46.6699 396.91 46.6699C392.85 46.6699 389.36 46.3599 386.44 45.7399C386.14 45.6899 385.99 45.4499 385.99 45.0299C385.99 44.4399 386.02 43.5599 386.09 42.3899L386.08 42.3799Z" fill="#FFFFFE"/>
<path d="M438.06 46.2599C438.28 44.7999 438.48 43.0499 438.66 40.9999C438.76 40.1399 438.81 39.3999 438.81 38.7599C438.81 37.9499 438.73 37.1699 438.56 36.4199C440.27 36.5699 441.66 36.8599 442.74 37.2999C443.13 37.4699 443.32 37.6899 443.32 37.9799C443.32 38.1799 443.22 38.4199 443.02 38.6899C442.7 39.1299 442.47 39.6999 442.34 40.3999C442.19 41.2099 441.91 43.0299 441.51 45.8599C445.61 45.3099 449.3 44.5799 452.59 43.6899C452.74 43.6399 452.86 43.6099 452.94 43.6099C453.12 43.6099 453.23 43.7499 453.27 44.0399C453.4 44.9999 453.47 45.7399 453.47 46.2599C453.47 46.5999 453.3 46.8099 452.97 46.8899C449.31 47.7299 445.29 48.4499 440.91 49.0599C440.14 53.7599 439.19 58.3899 438.06 62.9599C440.33 60.4899 442.99 58.6499 446.04 57.4199C448.54 56.4099 451.09 55.9099 453.69 55.9099C457.38 55.9099 460.23 56.9499 462.22 59.0299C463.81 60.6899 464.61 62.7199 464.61 65.1199C464.61 69.3299 462.56 72.5999 458.47 74.9099C455.45 76.5899 451.1 77.7999 445.43 78.5399C444.57 78.7099 443.73 78.7899 442.91 78.7899C442.57 78.7899 442.3 78.5499 442.08 78.0599C441.59 77.0699 441.01 76.3099 440.32 75.7899C446.6 75.3899 451.67 74.2999 455.53 72.5399C459.07 70.8799 460.84 68.3699 460.84 65.0099C460.84 62.9499 460.1 61.3699 458.62 60.2799C457.31 59.3199 455.56 58.8399 453.36 58.8399C450.32 58.8399 447.37 59.6199 444.5 61.1799C442.12 62.4899 440.21 64.1199 438.79 66.0599C438.24 66.7799 437.84 67.3399 437.61 67.7499C437.32 68.1699 437.06 68.3799 436.83 68.3799H436.73C436.26 68.3299 435.5 68.0899 434.46 67.6499C434.01 67.4499 433.78 67.2099 433.78 66.9199C433.78 66.8199 433.85 66.5299 433.98 66.0399C434.08 65.7199 434.2 65.3399 434.33 64.8799C434.45 64.4799 434.52 64.2199 434.56 64.0999C435.63 59.7899 436.65 54.8899 437.61 49.3999C434.42 49.7199 431.01 49.9099 427.39 49.9799C427 49.9799 426.76 49.7899 426.66 49.3999C426.49 48.5899 426.36 47.7199 426.26 46.7799H427.67C431.31 46.7799 434.78 46.5999 438.07 46.2499L438.06 46.2599Z" fill="#FFFFFE"/>
<path d="M480.44 46.76C481.87 47.21 483 47.71 483.84 48.25C484.19 48.47 484.37 48.71 484.37 48.98C484.37 49.17 484.29 49.36 484.14 49.56C483.85 49.96 483.59 50.77 483.36 51.98C482.52 56.39 482.03 60.33 481.87 63.79C484.72 60.55 487.83 58.13 491.19 56.54C494.06 55.18 496.96 54.5 499.88 54.5C503.56 54.5 506.4 55.53 508.42 57.6C510.12 59.35 510.96 61.59 510.96 64.35C510.96 69.1 508.38 72.77 503.23 75.35C499.86 77.03 495.68 78.16 490.69 78.75C490.42 78.78 490.22 78.8 490.09 78.8C489.75 78.8 489.51 78.62 489.36 78.27C488.72 77.23 487.95 76.39 487.04 75.75C492.68 75.31 497.35 74.25 501.06 72.55C505.19 70.65 507.25 67.82 507.25 64.04C507.25 61.96 506.54 60.35 505.14 59.21C503.8 58.1 501.91 57.55 499.47 57.55C496.89 57.55 494.14 58.36 491.24 59.99C488.77 61.38 486.41 63.25 484.14 65.58C483.22 66.55 482.46 67.57 481.87 68.63C481.72 68.87 481.57 68.98 481.42 68.98C481.35 68.98 481.23 68.95 481.04 68.88C480.45 68.66 479.75 68.35 478.92 67.95C478.65 67.82 478.52 67.58 478.52 67.24C478.64 63.13 479.13 57.73 480.01 51.05C480.3 49.05 480.44 47.63 480.44 46.77V46.76ZM484.52 38.1C485.16 37.08 485.75 36.29 486.31 35.73C486.48 35.58 486.62 35.5 486.74 35.5C486.82 35.5 486.92 35.53 487.04 35.58C490.67 37.06 493.81 39.01 496.48 41.45C496.65 41.58 496.73 41.7 496.73 41.8C496.73 41.88 496.68 42.01 496.58 42.18C496.11 42.93 495.55 43.67 494.89 44.4C494.76 44.55 494.62 44.63 494.49 44.63C494.36 44.63 494.21 44.55 494.06 44.4C491.31 41.82 488.13 39.72 484.52 38.11V38.1Z" fill="#FFFFFE"/>
</svg>
