<svg xmlns="http://www.w3.org/2000/svg" viewBox="0 0 540 100"><defs><style>.cls-1{fill:#bd3622;}.cls-2{fill:none;stroke:#eff0e5;stroke-miterlimit:10;stroke-width:1.71px;}.cls-3{fill:#eff0e5;}</style></defs><g id="レイヤー_2" data-name="レイヤー 2"><g id="レイヤー_2-2" data-name="レイヤー 2"><rect class="cls-1" width="540" height="100"/><polyline class="cls-2" points="499.41 35.23 513.95 49.77 499.41 64.31"/><path class="cls-3" d="M133.72,37.07c0,.23-.11.34-.33.34l-6.14-.08H102.78v6.33a72.56,72.56,0,0,1-.93,13.19,35.36,35.36,0,0,1-4,10.88c-.25.38-.4.58-.45.58s-.25-.17-.56-.5a6.86,6.86,0,0,0-1.76-1.27A31.08,31.08,0,0,0,99.25,55.8a71.14,71.14,0,0,0,.84-12.48L100,35.16a.31.31,0,0,1,.34-.35l6.25.09h8.32V32.71a19,19,0,0,0-.26-3.57,20.31,20.31,0,0,1,2.9.21c.36,0,.54.16.54.35a1.73,1.73,0,0,1-.26.84,5.66,5.66,0,0,0-.24,2.12V34.9h9.65l6.14-.09c.22,0,.33.12.33.35Zm-1.44,10.07a.32.32,0,0,1-.37.35l-5.13-.09h-8.55v6.3h5.32l6-.09a.3.3,0,0,1,.34.34l-.08,3.81v3.46l.08,7a.3.3,0,0,1-.34.34h-2a.31.31,0,0,1-.35-.34V66.63H109v1.8a.27.27,0,0,1-.3.31h-2c-.23,0-.34-.11-.34-.31l.08-7V58.32L106.39,54a.3.3,0,0,1,.34-.34l6,.09h2.95V44.05a34.39,34.39,0,0,0-.26-5.11,22.88,22.88,0,0,1,2.81.28c.36,0,.54.15.54.34a3.55,3.55,0,0,1-.28.88,15.48,15.48,0,0,0-.21,3.52V45h8.55l5.13-.09c.24,0,.37.12.37.34Zm-5.12,17.11V56H109v8.21Z"/><path class="cls-3" d="M158,37.15a5.17,5.17,0,0,0-1.14,1.4c-.23.44-.39.67-.49.67a1.28,1.28,0,0,1-.56-.35,29,29,0,0,1-5.46-5.5,35.91,35.91,0,0,1-8.63,9.11,1.14,1.14,0,0,1-.52.3c-.13,0-.28-.19-.45-.58a5.35,5.35,0,0,0-1-1.48,29.1,29.1,0,0,0,9.11-9.6,5.46,5.46,0,0,0,.47-1.36,13.51,13.51,0,0,1,2.45.88c.29.15.43.29.43.43s-.12.31-.36.45l-.18.13A22.87,22.87,0,0,0,158,37.15Zm-.17,14.44c0,.2-.12.3-.34.3l-4.86-.08h-6.17l-4.83.08c-.23,0-.34-.1-.34-.3V49.92a.31.31,0,0,1,.34-.35l4.83.09h2.39V44.93H148l-3.86.11c-.28,0-.41-.12-.41-.37V43c0-.23.13-.34.41-.34l3.86.08h.8v-.66a21.12,21.12,0,0,0-.3-4.09,24.59,24.59,0,0,1,2.64.26c.36,0,.54.17.54.37a3,3,0,0,1-.28.84,8.24,8.24,0,0,0-.22,2.4v.88h.8l3.91-.08a.3.3,0,0,1,.34.34v1.63c0,.25-.11.37-.34.37L152,44.93h-.8v4.73h1.4l4.86-.09a.31.31,0,0,1,.34.35Zm-1.61,16.14c0,.22-.12.34-.37.34H154a.31.31,0,0,1-.35-.34V66.14h-7.84v2.14c0,.25-.11.37-.34.37H143.7a.32.32,0,0,1-.36-.37l.08-6.31V59.33l-.08-3.7a.3.3,0,0,1,.34-.34l4.11,0h4l4.1,0a.31.31,0,0,1,.35.34l-.09,3.07v2.86ZM153.69,64V57.48h-7.84V64Zm26.47-26.92a.3.3,0,0,1-.34.34l-5.69-.08h-4v4.36h3l5.48-.09A.31.31,0,0,1,179,42l-.08,6.14v10l0,6.71a3.69,3.69,0,0,1-.88,2.77c-.55.5-1.76.75-3.65.75-.46,0-.74,0-.82-.13a1.79,1.79,0,0,1-.24-.67,4.84,4.84,0,0,0-.66-1.76c1.1.09,2,.13,2.6.13.81,0,1.22-.51,1.22-1.55V58h-6.38v3.48l.09,6.69a.32.32,0,0,1-.35.36H168c-.23,0-.34-.12-.34-.36l.09-6.69V58h-5.83v3.83l.09,6.57a.31.31,0,0,1-.34.35h-1.83c-.26,0-.39-.12-.39-.35l.09-6.62V47.92L159.45,42c0-.23.13-.35.39-.35l5.41.09h2.5V37.37h-3.38l-5.71.08a.31.31,0,0,1-.35-.34V35.35c0-.25.12-.37.35-.37l5.71.09h3.38v-.34a36.69,36.69,0,0,0-.31-5.38c.92,0,1.8.13,2.65.26.31.06.47.18.47.37a2.5,2.5,0,0,1-.17.79,15.74,15.74,0,0,0-.26,3.78v.52h4l5.69-.09c.23,0,.34.12.34.37ZM167.75,48.8V43.88h-5.83V48.8Zm0,7.13V50.86h-5.83v5.07Zm8.76-7.13V43.88h-6.38V48.8Zm0,7.13V50.86h-6.38v5.07Zm1.68-22.84a.48.48,0,0,1,.08.2c0,.07-.08.18-.26.34l-1,.79a.79.79,0,0,1-.4.22c-.08,0-.16-.07-.26-.22A23,23,0,0,0,173.07,31c-.11-.1-.17-.17-.17-.22s.09-.19.26-.32l.88-.64a.92.92,0,0,1,.39-.2.6.6,0,0,1,.28.13A26.45,26.45,0,0,1,178.19,33.09Z"/><path class="cls-3" d="M225.09,50a.31.31,0,0,1-.35.35l-5.82-.09H193.55l-5.83.09a.31.31,0,0,1-.34-.35V47.75a.31.31,0,0,1,.34-.35l5.83.09h25.37l5.82-.09a.31.31,0,0,1,.35.35Z"/><path class="cls-3" d="M271.88,63.82a8.16,8.16,0,0,1-.86,2.72,4.61,4.61,0,0,1-1.18,1.14c-1,.7-3.26,1.06-6.82,1.06a32.28,32.28,0,0,1-6.42-.43,2.74,2.74,0,0,1-1.57-.93,3.67,3.67,0,0,1-.45-2V62.27h-5.37a11.4,11.4,0,0,1-6.06,5.39,27.4,27.4,0,0,1-7.47,1.46,3.71,3.71,0,0,1-.48,0c-.31,0-.6-.28-.86-.82a6.09,6.09,0,0,0-1-1.46,32.48,32.48,0,0,0,8.08-1.14,8.61,8.61,0,0,0,4.73-3.48h-.22l-6.08.08a.3.3,0,0,1-.34-.34l.09-4.06V52l-.09-4.1a.31.31,0,0,1,.34-.35l6.08.09h12.61l6.06-.09c.25,0,.37.12.37.35l-.09,4.1V58L265,62c0,.23-.12.34-.37.34l-6.06-.08h-1.22v2.47a1.68,1.68,0,0,0,.24,1,1.57,1.57,0,0,0,.94.47,27.58,27.58,0,0,0,4.49.22c2.65,0,4.33-.22,5-.67a2.34,2.34,0,0,0,1.12-1.39,11,11,0,0,0,.34-2.71,6.17,6.17,0,0,0,1.63,1c.53.22.8.47.8.73C271.92,63.49,271.9,63.63,271.88,63.82Zm-19.79-18.4c0,.23-.12.35-.37.35l-4.53-.09h-6.68l-5.37.09a.31.31,0,0,1-.35-.35l.09-4.27V35.74l-.09-4.28a.31.31,0,0,1,.35-.34l5.37.08h6.17l5-.08a.3.3,0,0,1,.34.34v1.37a.31.31,0,0,1-.34.35l-5-.09H245v2.34h.79l4.54,0c.2,0,.3.12.3.35l-.09,2V39l.09,2c0,.23-.1.34-.3.34l-4.58,0H245v2.55h2.19l4.53-.08c.25,0,.37.11.37.34Zm-9.35-10V33.09H237.2v2.34Zm5.5,4.17V37.11h-11V39.6Zm-5.5,4.23V41.28H237.2v2.55Zm19.66,8.06V49.55H242.06v2.34Zm0,4.13V53.65H242.06V56Zm0,4.36v-2.6H242.06v2.6ZM271,35.86a.31.31,0,0,1-.35.35l-4.94-.09h-8.53a26.74,26.74,0,0,1-2.85,3.53c-.3.28-.51.43-.63.43s-.39-.18-.75-.52a3.12,3.12,0,0,0-1.09-.75,25.93,25.93,0,0,0,5.11-7,9.07,9.07,0,0,0,.75-2.35,15.29,15.29,0,0,1,2.24.67c.35.13.53.29.53.47s-.13.37-.41.58a7.44,7.44,0,0,0-.83,1.33c-.06.13-.31.6-.76,1.4h7.22l4.94-.09a.31.31,0,0,1,.35.35Zm-1.59,7.35a.31.31,0,0,1-.35.35l-4.27-.09H260.3l-4.26.09a.32.32,0,0,1-.36-.35V41.49c0-.23.12-.34.36-.34l4.26.09h4.53l4.27-.09a.31.31,0,0,1,.35.34Z"/><path class="cls-3" d="M284.27,32.62a9.31,9.31,0,0,1,3.14,1.14.83.83,0,0,1,.45.66,1.07,1.07,0,0,1-.19.52,7.68,7.68,0,0,0-.71,2.21,84.68,84.68,0,0,0-2.11,16.65,71.25,71.25,0,0,0,.3,7.74c.4-1,1.43-3.43,3.1-7.18a8,8,0,0,0,1,1.81.89.89,0,0,1,.2.49,1.13,1.13,0,0,1-.15.47,39,39,0,0,0-2.62,6.94,13.3,13.3,0,0,0-.09,1.34,4.14,4.14,0,0,0,0,.64.9.9,0,0,1,0,.21.42.42,0,0,1-.25.37,10.29,10.29,0,0,1-2,.56.5.5,0,0,1-.19,0c-.16,0-.28-.13-.37-.39q-1.68-4.24-1.67-13A110,110,0,0,1,284.06,37a22.66,22.66,0,0,0,.28-3.26A8.72,8.72,0,0,0,284.27,32.62ZM304.55,56.3q-.3-6.4-.3-12.25c-2.08.11-3.92.17-5.54.17-1.46,0-2.89,0-4.28-.13a.41.41,0,0,1-.47-.38,17.69,17.69,0,0,1-.17-2.35c1.66.12,3.36.18,5.11.18s3.53-.06,5.27-.18l0-5a17.1,17.1,0,0,0-.43-3.91,15.12,15.12,0,0,1,3.37.6c.33.14.5.32.5.53a1.49,1.49,0,0,1-.18.63,5.68,5.68,0,0,0-.36,2.1c-.06,1-.09,2.65-.09,4.88q3.36-.33,6.94-1a.79.79,0,0,1,.22,0c.13,0,.2.11.23.34a9.7,9.7,0,0,1,.18,1.74q0,.45-.3.54a56.56,56.56,0,0,1-7.27,1q.08,7.29.41,13.28a32.28,32.28,0,0,1,7.74,4.55.38.38,0,0,1,.17.26.91.91,0,0,1-.09.3,8.24,8.24,0,0,1-1.18,1.94.35.35,0,0,1-.28.19.42.42,0,0,1-.26-.15,28.86,28.86,0,0,0-6.14-4Q307.11,66,300,66.05a8.11,8.11,0,0,1-5.2-1.48A4.28,4.28,0,0,1,293.17,61a4.55,4.55,0,0,1,2.23-4,8.08,8.08,0,0,1,4.53-1.23A21,21,0,0,1,304.55,56.3Zm0,2.66a17.5,17.5,0,0,0-4.79-.73,5,5,0,0,0-3.09.82,2.37,2.37,0,0,0-1,2A2.13,2.13,0,0,0,297,63a6.32,6.32,0,0,0,2.94.58q4.67,0,4.66-3.82Z"/><path class="cls-3" d="M328.23,52.58c.45.23,1.1.58,1.93,1.05q.24.13.24.3a.5.5,0,0,1-.11.28,6.79,6.79,0,0,0-1.18,3.44q0,5.37,11.26,5.37A54.07,54.07,0,0,0,353,61.73a1,1,0,0,1,.26,0c.17,0,.28.11.34.34a17.22,17.22,0,0,1,.41,2.3v.11c0,.23-.2.39-.58.47a67.6,67.6,0,0,1-13.32,1.14q-7,0-10.51-2.3a6.72,6.72,0,0,1-3.18-6A9.22,9.22,0,0,1,328.23,52.58Zm1.22-16.41a51.66,51.66,0,0,0,11,1c3.45,0,6.7-.12,9.73-.38h.15a.43.43,0,0,1,.48.41,14.24,14.24,0,0,1,.13,2,.61.61,0,0,1-.63.67q-5,.7-11.38,5a1.1,1.1,0,0,1-.69.26,1,1,0,0,1-.56-.17,5.1,5.1,0,0,0-1.8-.88,56.82,56.82,0,0,1,7.58-4.4c-1.32.11-2.91.17-4.77.17a43.5,43.5,0,0,1-8.94-.8c-.26,0-.38-.24-.38-.6S329.39,37.17,329.45,36.17Z"/><path class="cls-3" d="M373.81,39.47c.19-1.24.36-2.74.52-4.49a15.68,15.68,0,0,0,.13-1.91,8.82,8.82,0,0,0-.22-2,12.31,12.31,0,0,1,3.57.76c.33.14.49.33.49.58a1.06,1.06,0,0,1-.25.6,3.42,3.42,0,0,0-.58,1.46c-.13.69-.37,2.24-.71,4.66a74.34,74.34,0,0,0,9.45-1.85,1.11,1.11,0,0,1,.3-.06c.16,0,.25.12.28.36a13.73,13.73,0,0,1,.17,1.89.5.5,0,0,1-.43.54q-4.68,1.08-10.29,1.85-1,6-2.43,11.86A18.56,18.56,0,0,1,380.63,49a17.31,17.31,0,0,1,6.53-1.29c3.15,0,5.57.89,7.28,2.67a7.21,7.21,0,0,1,2,5.2q0,5.38-5.24,8.35-3.87,2.14-11.13,3.1a11.43,11.43,0,0,1-2.15.21c-.29,0-.52-.21-.71-.62a5.34,5.34,0,0,0-1.5-1.94,37.17,37.17,0,0,0,13-2.77c3-1.41,4.54-3.56,4.54-6.42a4.72,4.72,0,0,0-1.89-4,7.44,7.44,0,0,0-4.49-1.22,15.66,15.66,0,0,0-7.57,2,16.36,16.36,0,0,0-5.88,5.61c-.25.36-.47.54-.67.54h-.08a7.91,7.91,0,0,1-1.94-.62c-.38-.18-.58-.38-.58-.63a5.41,5.41,0,0,1,.17-.75q.14-.4.3-1l.2-.66q1.37-5.53,2.6-12.55c-2.72.27-5.63.44-8.72.49a.6.6,0,0,1-.63-.49,22.11,22.11,0,0,1-.34-2.24h1.2A83.39,83.39,0,0,0,373.81,39.47Z"/><path class="cls-3" d="M410,39.9a12.35,12.35,0,0,1,2.9,1.27c.3.19.45.39.45.62a.83.83,0,0,1-.19.5,6,6,0,0,0-.67,2.06,72.38,72.38,0,0,0-1.26,10.08,24.69,24.69,0,0,1,7.95-6.19,17.14,17.14,0,0,1,7.41-1.74q4.69,0,7.28,2.64A7.91,7.91,0,0,1,436,54.9q0,6.08-6.59,9.39a32.68,32.68,0,0,1-10.7,2.9,4.25,4.25,0,0,1-.52,0,.64.64,0,0,1-.62-.45,7.33,7.33,0,0,0-2-2.15,35.47,35.47,0,0,0,12-2.73q5.28-2.43,5.28-7.26a5,5,0,0,0-1.8-4.12,7.39,7.39,0,0,0-4.84-1.42,14.43,14.43,0,0,0-7,2.08A26.9,26.9,0,0,0,413.13,56a12.77,12.77,0,0,0-1.93,2.6q-.19.3-.39.3a1.3,1.3,0,0,1-.32-.08,19.77,19.77,0,0,1-1.81-.8.6.6,0,0,1-.34-.6q.15-5.26,1.27-13.81A30.27,30.27,0,0,0,410,39.9Zm3.48-7.39a11.82,11.82,0,0,1,1.53-2,.57.57,0,0,1,.36-.19.73.73,0,0,1,.26.06,26.91,26.91,0,0,1,8.06,5q.21.16.21.3a.68.68,0,0,1-.13.32,12.44,12.44,0,0,1-1.44,1.89.48.48,0,0,1-.34.2.55.55,0,0,1-.37-.2A29.23,29.23,0,0,0,413.45,32.51Z"/></g></g></svg>