<svg xmlns="http://www.w3.org/2000/svg" xmlns:xlink="http://www.w3.org/1999/xlink" width="750" height="140" viewBox="0 0 750 140">
  <defs>
    <linearGradient id="linear-gradient" x1="-25.593" y1="-1.06" x2="-22.941" y2="1.586" gradientUnits="objectBoundingBox">
      <stop offset="0.002" stop-color="#fae69e"/>
      <stop offset="0.333" stop-color="#d1b166"/>
      <stop offset="0.397" stop-color="#ecd48b"/>
      <stop offset="0.495" stop-color="#fae69e"/>
      <stop offset="0.604" stop-color="#c6a75b"/>
      <stop offset="0.678" stop-color="#cdb26a"/>
      <stop offset="0.785" stop-color="#fae69e"/>
      <stop offset="0.883" stop-color="#c9a85c"/>
      <stop offset="0.916" stop-color="#dac075"/>
      <stop offset="0.962" stop-color="#c1a154"/>
      <stop offset="1" stop-color="#d0b468"/>
    </linearGradient>
    <linearGradient id="linear-gradient-2" x1="-26.492" y1="-1.073" x2="-23.865" y2="1.59" xlink:href="#linear-gradient"/>
  </defs>
  <g id="アートワーク_1" data-name="アートワーク 1" transform="translate(375 70)">
    <g id="グループ_351" data-name="グループ 351" transform="translate(-375 -70)">
      <rect id="長方形_95" data-name="長方形 95" width="750" height="140" fill="none"/>
      <g id="グループ_349" data-name="グループ 349">
        <rect id="長方形_96" data-name="長方形 96" width="750" height="110.156" fill="#cd181d"/>
        <g id="グループ_345" data-name="グループ 345">
          <g id="グループ_344" data-name="グループ 344">
            <path id="パス_2157" data-name="パス 2157" d="M147.222,48.582v6.375l9.961,10.758V76.074l-9.961-10.758V97.091H139.95V60.535L127.3,81.154V67.109L149.413,31.15H127.3V23.779h12.65V11.427h7.571V23.779h15.041Zm12.949-34.366h51.3v7.372h-51.3ZM161.366,96.1V56.351h49.307V96.1Zm4.483-69.925h40.142v25.5H165.849Zm16.435,37.353H168.737V71.99h13.547ZM168.737,79.062v9.862h13.547V79.062ZM198.62,44.6V33.242h-25.4V44.6ZM203.3,71.99V63.523H189.456V71.99ZM189.456,88.924H203.3V79.062H189.456Z" fill="url(#linear-gradient)"/>
            <path id="パス_2158" data-name="パス 2158" d="M236.173,31.847,234.38,33.74H224.12l21.117-21.815H255.4L243.644,24.078V53.961h-7.471Zm34.564,16.137v7.77h38.35v6.972H270.14l-.5.3,14.543,12.85L303.11,64.32v8.766l-13.148,7.968,18.029,16.037H297.034L263.167,67.009l-14.344,8.766v8.666l15.539-9.562v7.968l-22.91,13.946V80.258l-16.535,10.16V82.15l31.676-19.424H224.917V55.754h38.35v-7.77Zm10.758-23.607,27.592-3.287v7.171l-21.615,2.59L308.29,53.562H298.13L278.308,31.947l-30.58,3.686V28.361l24.6-2.988L259.979,11.925H270.14Zm18.328-3.487h-9.761l-7.471-8.168h9.762Z" fill="url(#linear-gradient-2)"/>
          </g>
        </g>
        <g id="グループ_346" data-name="グループ 346">
          <path id="パス_2159" data-name="パス 2159" d="M368.077,91.783c-3.047,1.768-12.981,1.829-16.271,1.829-6.034,0-12.189-.244-16.7-2.865-2.621-1.523-6.094-4.632-6.094-9.2,0-1.768.914-6.217,3.9-7.8a17.7,17.7,0,0,0-.731,4.754c0,4.144,2.986,10.116,14.931,10.116,4.814,0,10.908-.426,15.54-1.889a3.8,3.8,0,0,1,1.28-.183c1.95,0,5.424,1.219,5.424,3.169A2.5,2.5,0,0,1,368.077,91.783Zm-7.983-30.837c-.671,0-3.474-.122-4.023-.122-4.509,0-7.252,1.1-14.321,4.022l-.183-.366c.975-.975,6.7-5.3,6.7-5.545s-4.693-.975-5.546-1.158c-.549-.122-8.045-1.768-7.862-8.045,3.108,3.352,6.7,4.51,15.114,4.51.975,0,5.424-.061,6.338,0,2.072.122,6.765,1.463,6.765,4.327C363.08,60.7,361.008,60.946,360.094,60.946Zm9.69-2.986c-1.1,0-1.463-.488-3.23-2.8-2.742-3.535-3.413-3.9-6.033-5.424,3.961.122,11.4,1.646,11.4,5.729A2.338,2.338,0,0,1,369.784,57.96Zm6.155-2.987c-.975,0-1.219-.3-3.291-3.108a12.806,12.806,0,0,0-5.545-4.449c.73-.061,1.218-.122,1.828-.122,4.387,0,9.141,2.316,9.141,5.485A2.172,2.172,0,0,1,375.939,54.973Z" fill="#fff"/>
          <path id="パス_2160" data-name="パス 2160" d="M413.413,69.844V93c0,2.316-.488,4.144-1.89,5.424a9.8,9.8,0,0,1-6.277,2.743,14.319,14.319,0,0,0-1.28-3.6c-1.524-2.5-5.18-4.022-6.4-4.571v-.426a66.935,66.935,0,0,0,8.776.853c1.1,0,2.011-.488,2.011-1.768V69.844h-17.8a31.311,31.311,0,0,0-6.643.426l-.976-2.255c3.718.305,8.045.366,8.716.366h34.859l3.535-2.925c.549-.488.61-.549.914-.549a2.436,2.436,0,0,1,1.1.61l4.388,3.839a2,2,0,0,1,.732,1.28c0,1.219-2.316,1.341-5.12,1.462-3.23,2.377-10.36,6.7-14.139,8.167l-.183-.244a107.679,107.679,0,0,0,8.045-10.177ZM400.127,55.339a21.372,21.372,0,0,1,12.31,4.022c2.56-2.255,2.987-2.681,7.5-7.679H396.287a30.592,30.592,0,0,0-6.581.427l-.976-2.255c3.657.305,7.984.366,8.654.366h22.854l2.742-2.133a4.57,4.57,0,0,1,1.28-.793,3.369,3.369,0,0,1,1.1.61l4.693,3.535A1.506,1.506,0,0,1,430.6,52.6a1.248,1.248,0,0,1-.914,1.28c-.671.183-3.718.244-4.328.305A90.386,90.386,0,0,1,413.6,60.275a5.175,5.175,0,0,1,2.194,4.145c0,1.4-.731,3.778-3.23,3.778-1.219,0-1.462-.366-2.925-2.5a38.633,38.633,0,0,0-9.69-9.994Z" fill="#fff"/>
          <path id="パス_2161" data-name="パス 2161" d="M471.729,56.5c.854.426,1.1.731,1.1,1.158,0,.731-.3.792-2.62,1.4-1.89,1.889-9.508,10.847-11.214,12.554.549-.061,5.241-.305,7.923-.67a13.411,13.411,0,0,0-2.5-3.291l.244-.305c4.327,1.219,9.141,4.083,9.141,7.5a2.528,2.528,0,0,1-2.5,2.742c-2.011,0-2.377-1.036-2.743-2.133-.122-.426-.731-2.376-.853-2.8l-4.814,1.158c0,2.011.121,12.615.121,12.92.122,3.6.366,10.238.366,10.787,0,.792,0,3.047-3.352,3.047-2.011,0-2.011-1.158-2.011-1.828,0-.549.061-1.219.061-1.829.244-8.958.244-10.238.3-22.061-1.279.244-6.46,1.463-7.069,1.645a12.928,12.928,0,0,0-.853,1.036c-.3.488-.488.854-.975.854-.732,0-1.036-.671-1.158-1.28l-1.4-5.729a22.641,22.641,0,0,0,5.424.427c1.585,0,3.169-.061,4.632-.122a101.55,101.55,0,0,0,8.654-15.724,8.383,8.383,0,0,0,.3-2.437ZM447.656,96.72c.975-2.56,3.962-10.605,3.962-18.527l5.3,2.072c.548.183.975.487.975.975,0,.609-.67.914-1.707,1.4-1.767,5.3-3.656,8.837-8.166,14.26Zm1.95-40.04a22.01,22.01,0,0,1,5.607,1.645c1.646-3.778,3.84-9.934,3.718-13.773l6.216,3.108A1.275,1.275,0,0,1,466,48.7c0,.853-.975,1.036-2.254,1.28-3.535,4.266-3.962,4.754-7.619,8.776,1.951,1.036,3.84,2.742,3.84,5a3,3,0,0,1-2.8,3.23c-1.707,0-2.012-.609-3.535-3.961a17.973,17.973,0,0,0-4.2-5.973Zm14.2,22.854c5.3,2.072,9.263,4.327,9.263,8.227a2.994,2.994,0,0,1-2.925,3.23c-2.012,0-2.438-1.646-3.291-4.571a25.6,25.6,0,0,0-3.292-6.582Zm28.521-19.32,2.133-1.889c.427-.426.67-.609.975-.609s.488.122,1.036.609l2.8,2.316c.365.305.67.549.67,1.036s-1.645,2.011-2.072,2.377c-.061.914-.122,2.377-.488,15.419-.06,1.1-.548,15.175-7.069,19.319a11.368,11.368,0,0,1-6.094,1.645c-.549-4.022-3.9-6.521-5.3-7.557l.184-.487a40.464,40.464,0,0,0,8.044,1.34c1.158,0,2.072,0,3.657-4.266,2.376-6.277,2.255-20.781,2.071-27.79H477.641a36.771,36.771,0,0,1-6.4,8.532l-.366-.244c5.241-10.543,6.216-20.172,6.216-22.122a20.122,20.122,0,0,0-.243-2.621l7.069,3.108c.67.3.914.61.914.976,0,.548-.244.67-2.437,1.584a66.618,66.618,0,0,1-3.962,9.324ZM476.117,71.672c8.106,2.8,9.324,5.363,9.324,7.74a2.836,2.836,0,0,1-2.925,3.047c-1.95,0-2.5-1.463-3.23-3.779a21.569,21.569,0,0,0-3.412-6.7Z" fill="#fff"/>
          <path id="パス_2162" data-name="パス 2162" d="M529.071,66.8c-4.815,15.358-10.056,23.159-20.295,28.766l-.182-.244a49.759,49.759,0,0,0,10.177-15.053,89.513,89.513,0,0,0,5.851-18.344H518.1a29.21,29.21,0,0,0-6.582.426l-.975-2.254c2.742.243,5.851.365,8.654.365h5.18l2.559-2.072a1.459,1.459,0,0,1,.793-.426c.122,0,.183,0,.67.487l3.23,2.864a1.29,1.29,0,0,1,.488.915c0,.975-1.219,1.279-2.194,1.523-.3,1.158-.487,1.828-.853,2.925,1.462.122,2.986.244,6.216.3,0-7.557,0-8.41-1.4-11.7l3.352.914a82.447,82.447,0,0,0,7.131-7.13h-16.15a34.385,34.385,0,0,0-6.582.426l-.975-2.255c2.8.244,5.911.366,8.714.366h14.932l2.072-1.645c.548-.427.548-.488.792-.488a3.089,3.089,0,0,1,1.1.549l4.205,2.62a1.486,1.486,0,0,1,.732,1.28c0,1.4-2.012,1.524-2.865,1.585a115.86,115.86,0,0,1-11.518,5.119l2.011.548a1.167,1.167,0,0,1,1.036,1.036c0,.488-.427.793-1.767,1.707-.244,3.778-.183,6.7-.183,7.069h.183l1.036-1.523c.243-.366.548-.793.914-.793.3,0,.548.183,1.1.671l1.95,1.584a1.3,1.3,0,0,1,.609.914c0,.61-.609.671-.914.671h-4.875c.06.975.244,6.033.244,7.191h.67l1.767-2.742c.183-.305.427-.732.854-.732s.914.488,1.1.61l2.987,2.742a1.31,1.31,0,0,1,.548.914c0,.61-.609.671-.914.671h-6.947c.06,2.072.182,5.424.243,7.252h2.377l2.255-2.5c.609-.67.671-.792.975-.792.244,0,.488.122,1.1.67l3.047,2.56a1.253,1.253,0,0,1,.61.914c0,.61-.61.61-.914.61h-9.447c.061,1.219.183,7.679.183,8.288,0,4.083-1.4,5.546-7.862,7.191-.365-4.449-4.449-6.643-5.851-7.313v-.487c1.281.121,5.12.487,6.461.487,1.28,0,1.95-.366,2.072-2.316.122-1.645.061-2.986,0-5.85h-4.876a33.777,33.777,0,0,0-6.582.426l-.975-2.255c2.743.244,5.851.366,8.654.366h3.779c0-1.889-.061-5.668-.061-7.252a35.737,35.737,0,0,0-7.313.426l-.975-2.255c2.316.183,5.85.366,8.227.366l-.061-7.191a27.9,27.9,0,0,0-5.3.365ZM568.2,89.1a13.466,13.466,0,0,0-6.825,4.631c-10.665-9.994-16.577-25.352-16.211-38.455h.365c0,5.3,2.56,10.726,3.84,13.408.914-1.1,4.875-6.095,5.607-7.192,2.011-2.925,2.255-4.083,2.5-5l5.85,5a1.358,1.358,0,0,1,.61.914c0,.793-1.036.854-2.56.976-.67.365-1.219.67-6.095,3.23a44.428,44.428,0,0,1-5.606,2.62c4.266,8.167,10.056,15.724,18.526,19.319Z" fill="#fff"/>
          <path id="パス_2163" data-name="パス 2163" d="M594.642,94.769c-3.109,2.926-7.435,5.729-10.117,6.278l-.244-.244c12.677-9.264,13.834-23.22,13.834-30.838,0-4.144-.365-14.26-4.936-14.26-2.133,0-3.84,1.95-6.1,6.4-2.864,5.667-4.022,11.274-4.022,14.443,0,.975.67,5.241.67,6.156,0,.609,0,2.315-2.01,2.315-2.438,0-5-4.326-5-11.7A90.305,90.305,0,0,1,577.76,60.7c.183-1.28,1.219-7.191,1.219-8.288a6.187,6.187,0,0,0-3.352-5.424,11.529,11.529,0,0,1,3.474-.854c1.828,0,5.363,2.194,5.363,4.754a5.55,5.55,0,0,1-.792,2.682,32.549,32.549,0,0,0-3.657,15.6c0,.731,0,3.962.427,3.962.3,0,.426-.366.548-.61,3.108-9.446,7.5-19.989,13.713-19.989,8.044,0,8.776,12.676,8.776,18.465C603.479,82.581,600.8,88.98,594.642,94.769Z" fill="#fff"/>
          <path id="パス_2164" data-name="パス 2164" d="M663.076,62.287c-.061,3.656-.061,9.019.182,14.017,0,.487.244,2.742.244,3.169,0,2.62-3.23,2.864-3.839,2.864-1.951,0-1.89-1.036-1.829-4.2h-15.6c0,5.911.244,12.067.427,17.917.061,1.158.061,1.28.061,1.4,0,3.352-3.474,3.352-3.657,3.352a2.11,2.11,0,0,1-2.377-2.377c0-.305.061-1.158.061-1.463.244-5.972.609-12.31.609-15.662V78.132H622.183c.121,1.1.243,2.62.243,2.986,0,3.291-3.534,3.352-3.718,3.352-2.071,0-2.071-1.463-2.071-2.438,0-.548.182-3.047.182-3.534.244-5.181.244-8.533.244-10.787a92.775,92.775,0,0,0-.548-12.067l6.46,3.169H637.3c-.061-1.219-.121-6.643-.182-7.74a19.9,19.9,0,0,0-1.1-5.668l7.374,2.072c.548.183,1.1.427,1.1.975,0,.914-1.585,1.829-2.072,2.072-.061,1.341-.122,7.07-.122,8.289h15.114l2.011-2.255a1.048,1.048,0,0,1,.853-.427c.183,0,.305,0,.915.427l3.107,2.133c.854.609.914.975.914,1.28C665.208,60.519,664.965,61.007,663.076,62.287Zm-25.719,4.022c0-.549-.061-3.84-.061-6.034H622.183V76.669h15.174Zm20.477-6.034h-15.54c-.061,4.084-.061,5.363-.061,16.394h15.6Z" fill="#fff"/>
          <path id="パス_2165" data-name="パス 2165" d="M681.666,96.657a3.779,3.779,0,1,1-2.672-4.628A3.759,3.759,0,0,1,681.666,96.657Zm-2.715-8.236a193.629,193.629,0,0,0,5.066-25.964c.087-.8.257-4.726.478-5.55a3.779,3.779,0,1,1,7.3,1.956c-.205.766-2.007,4.194-2.361,5.046a187.082,187.082,0,0,0-8.6,25.017Z" fill="#fff"/>
        </g>
        <rect id="長方形_97" data-name="長方形 97" width="361.479" height="27.064" rx="12.886" transform="translate(329.225 10.936)" fill="#fffffe"/>
        <g id="グループ_347" data-name="グループ 347">
          <path id="パス_2166" data-name="パス 2166" d="M354.3,16.466V31.273h3.022v1.49h-8.034v-1.49h3.229V18.4a15.185,15.185,0,0,1-3.208,1.609L349,18.379a14.778,14.778,0,0,0,3.783-1.913Z"/>
          <path id="パス_2167" data-name="パス 2167" d="M360.73,20.673a5.145,5.145,0,0,1,1.827-3.359,4.732,4.732,0,0,1,3-.957,4.57,4.57,0,0,1,3.414,1.261,4.03,4.03,0,0,1,1.109,2.947,4.932,4.932,0,0,1-.772,2.7,14.244,14.244,0,0,1-2.587,2.783,16.6,16.6,0,0,0-4.273,5.186H370.1v1.533h-9.5V31.382a19.031,19.031,0,0,1,4.761-6.317,12.7,12.7,0,0,0,2.338-2.652,3.684,3.684,0,0,0,.468-1.848,2.5,2.5,0,0,0-2.621-2.675q-2.555,0-2.989,3.207Z"/>
          <path id="パス_2168" data-name="パス 2168" d="M382.006,14.487l-8.752,20.57H372l8.752-20.57Z"/>
          <path id="パス_2169" data-name="パス 2169" d="M383.8,20.673a5.149,5.149,0,0,1,1.827-3.359,4.733,4.733,0,0,1,3-.957,4.574,4.574,0,0,1,3.415,1.261,4.03,4.03,0,0,1,1.108,2.947,4.932,4.932,0,0,1-.772,2.7,14.212,14.212,0,0,1-2.587,2.783,16.6,16.6,0,0,0-4.273,5.186h7.654v1.533h-9.5V31.382a19.034,19.034,0,0,1,4.762-6.317,12.734,12.734,0,0,0,2.338-2.652,3.694,3.694,0,0,0,.467-1.848,2.5,2.5,0,0,0-2.62-2.675q-2.555,0-2.99,3.207Z"/>
          <path id="パス_2170" data-name="パス 2170" d="M403.8,16.466V27.512h2.25v1.467H403.8v3.784H402.13V28.979h-6.458V27.6l5.589-11.133ZM402.13,27.512V21.858q0-1.032.087-3.924h-.38q-1.262,2.892-1.555,3.5l-2.957,6.078Z"/>
          <path id="パス_2171" data-name="パス 2171" d="M417.253,14.509a14.073,14.073,0,0,0-4.023,5.164,12.853,12.853,0,0,0-.923,5.034,12.539,12.539,0,0,0,1.228,5.7,14.707,14.707,0,0,0,3.718,4.5l-.554.641a15.285,15.285,0,0,1-4.675-5.36,12.367,12.367,0,0,1-1.164-5.479,12.177,12.177,0,0,1,1.534-6.186,16.128,16.128,0,0,1,4.3-4.654Z"/>
          <path id="パス_2172" data-name="パス 2172" d="M439.138,33.372a.154.154,0,0,1-.174.174l-2.881-.044H422.646l-2.881.044a.154.154,0,0,1-.174-.174V32.295a.153.153,0,0,1,.174-.174l2.881.044h5.762V23.728h-3.719l-3.141.044a.154.154,0,0,1-.174-.174V22.543a.154.154,0,0,1,.174-.174l3.141.044h3.719v-4.3a19.232,19.232,0,0,0-.174-3.1q.793.033,1.6.109c.181.029.272.1.272.206a1.552,1.552,0,0,1-.109.424,9.761,9.761,0,0,0-.141,2.316v4.338h4.229l3.12-.044a.154.154,0,0,1,.174.174V23.6a.154.154,0,0,1-.174.174l-3.12-.044h-4.229v8.437h6.229l2.881-.044a.154.154,0,0,1,.174.174Z"/>
          <path id="パス_2173" data-name="パス 2173" d="M441.476,14.509l.554-.642a15.293,15.293,0,0,1,4.675,5.36,12.385,12.385,0,0,1,1.164,5.48,12.183,12.183,0,0,1-1.534,6.186,16.138,16.138,0,0,1-4.3,4.653l-.554-.641A14.076,14.076,0,0,0,445.5,29.74a12.844,12.844,0,0,0,.923-5.033,12.539,12.539,0,0,0-1.228-5.7A14.7,14.7,0,0,0,441.476,14.509Z"/>
          <path id="パス_2174" data-name="パス 2174" d="M458.262,22.608a10.226,10.226,0,0,1,4.479,1.4,19.548,19.548,0,0,0,2.87,1.337,5.776,5.776,0,0,0,1.827.315,6.153,6.153,0,0,0,4.294-2.272l.718.62q-2.523,3.012-5.284,3.011a9.835,9.835,0,0,1-4.468-1.446,17.632,17.632,0,0,0-2.827-1.337,5.9,5.9,0,0,0-1.87-.315,4.389,4.389,0,0,0-2.109.544,10.731,10.731,0,0,0-2.142,1.663l-.717-.6a10.662,10.662,0,0,1,2.739-2.294A5.274,5.274,0,0,1,458.262,22.608Z"/>
          <path id="パス_2175" data-name="パス 2175" d="M481.256,16.466V31.273h3.022v1.49h-8.034v-1.49h3.229V18.4a15.176,15.176,0,0,1-3.207,1.609l-.315-1.631a14.778,14.778,0,0,0,3.783-1.913Z"/>
          <path id="パス_2176" data-name="パス 2176" d="M487.681,20.673a5.149,5.149,0,0,1,1.827-3.359,4.733,4.733,0,0,1,3-.957,4.57,4.57,0,0,1,3.414,1.261,4.026,4.026,0,0,1,1.109,2.947,4.932,4.932,0,0,1-.772,2.7,14.244,14.244,0,0,1-2.587,2.783A16.6,16.6,0,0,0,489.4,31.23h7.654v1.533h-9.5V31.382a19.03,19.03,0,0,1,4.761-6.317,12.7,12.7,0,0,0,2.338-2.652,3.684,3.684,0,0,0,.468-1.848,2.5,2.5,0,0,0-2.62-2.675q-2.556,0-2.99,3.207Z"/>
          <path id="パス_2177" data-name="パス 2177" d="M508.958,14.487l-8.752,20.57h-1.25l8.752-20.57Z"/>
          <path id="パス_2178" data-name="パス 2178" d="M510.73,19.608a4.52,4.52,0,0,1,1.924-2.522,5.011,5.011,0,0,1,2.718-.729,4.7,4.7,0,0,1,3.425,1.25,3.623,3.623,0,0,1,1.12,2.707,3.653,3.653,0,0,1-.924,2.577,3.794,3.794,0,0,1-2.142,1.142v.206a4.268,4.268,0,0,1,2.631,1.555,4.109,4.109,0,0,1,.793,2.544,4.48,4.48,0,0,1-1.532,3.588,4.94,4.94,0,0,1-3.338,1.13,4.8,4.8,0,0,1-4.968-3.229l1.782-.674a3.577,3.577,0,0,0,1.316,1.914,3.347,3.347,0,0,0,1.87.478,2.755,2.755,0,0,0,2.24-.967,3.346,3.346,0,0,0,.717-2.218q0-3.327-3.653-3.327H513.47V23.456h1.109a3.637,3.637,0,0,0,2.7-.9,2.828,2.828,0,0,0,.75-2.076,2.493,2.493,0,0,0-.859-2.023,3.035,3.035,0,0,0-3.675.066,3.2,3.2,0,0,0-.989,1.685Z"/>
          <path id="パス_2179" data-name="パス 2179" d="M529.049,16.466V31.273h3.022v1.49h-8.034v-1.49h3.229V18.4a15.2,15.2,0,0,1-3.207,1.609l-.315-1.631a14.777,14.777,0,0,0,3.783-1.913Z"/>
          <path id="パス_2180" data-name="パス 2180" d="M544.205,14.509a14.052,14.052,0,0,0-4.023,5.164,12.834,12.834,0,0,0-.924,5.034,12.539,12.539,0,0,0,1.228,5.7,14.7,14.7,0,0,0,3.719,4.5l-.555.641a15.285,15.285,0,0,1-4.675-5.36,12.367,12.367,0,0,1-1.163-5.479,12.177,12.177,0,0,1,1.533-6.186,16.142,16.142,0,0,1,4.305-4.654Z"/>
          <path id="パス_2181" data-name="パス 2181" d="M566.089,33.372a.154.154,0,0,1-.173.174l-2.881-.044H549.6l-2.881.044a.154.154,0,0,1-.174-.174V32.295a.154.154,0,0,1,.174-.174l2.881.044h5.762V23.728h-3.718l-3.142.044a.154.154,0,0,1-.174-.174V22.543a.154.154,0,0,1,.174-.174l3.142.044h3.718v-4.3a19.227,19.227,0,0,0-.174-3.1q.793.033,1.6.109c.181.029.272.1.272.206a1.514,1.514,0,0,1-.109.424,9.761,9.761,0,0,0-.141,2.316v4.338h4.229l3.12-.044a.154.154,0,0,1,.174.174V23.6a.154.154,0,0,1-.174.174l-3.12-.044H556.8v8.437h6.23l2.881-.044a.153.153,0,0,1,.173.174Z"/>
          <path id="パス_2182" data-name="パス 2182" d="M568.427,14.509l.554-.642a15.294,15.294,0,0,1,4.675,5.36,12.371,12.371,0,0,1,1.164,5.48,12.182,12.182,0,0,1-1.533,6.186,16.156,16.156,0,0,1-4.306,4.653l-.554-.641a14.066,14.066,0,0,0,4.023-5.165,12.844,12.844,0,0,0,.924-5.033,12.54,12.54,0,0,0-1.229-5.7A14.7,14.7,0,0,0,568.427,14.509Z"/>
          <path id="パス_2183" data-name="パス 2183" d="M583.017,16.651a6.743,6.743,0,0,1,1.457.6c.21.123.315.243.315.358a.7.7,0,0,1-.152.381,3.4,3.4,0,0,0-.446,1.174,33.933,33.933,0,0,0-1.044,7.686,18.073,18.073,0,0,0,.337,3.827q.164-.379.827-1.891.467-1.023.815-1.87a9.794,9.794,0,0,0,.533.891.306.306,0,0,1,.119.218.9.9,0,0,1-.109.358q-.945,2.175-1.435,3.534a1.312,1.312,0,0,0-.087.554l.044.489a.185.185,0,0,1-.152.207,5.647,5.647,0,0,1-1,.218c-.117,0-.2-.073-.25-.218a13.881,13.881,0,0,1-.772-3.207,23.931,23.931,0,0,1-.229-3.251,41,41,0,0,1,.914-7.588A14.741,14.741,0,0,0,583.017,16.651Zm4.871,11.285,1.206-.087a.047.047,0,0,1,.033-.011q.12,0,.12.228.1,2.447,4.055,2.446a34.538,34.538,0,0,0,4.381-.3.726.726,0,0,1,.087-.011c.094,0,.148.076.163.228q.066.794.066,1.044c0,.109-.015.174-.044.2a.555.555,0,0,1-.25.076,35.317,35.317,0,0,1-3.979.239,11.045,11.045,0,0,1-3.175-.359,3.777,3.777,0,0,1-1.729-1.043A3.685,3.685,0,0,1,587.888,27.936Zm.782-7.154q0-.957.022-1.218a.293.293,0,0,1,.261-.315,30.215,30.215,0,0,1,4.718-.4q2.163,0,3.164.109c.225.021.337.1.337.228q0,.707-.022,1.043c0,.138-.054.207-.163.207H596.9q-1.076-.12-3.577-.12A27.491,27.491,0,0,0,588.67,20.782Z"/>
          <path id="パス_2184" data-name="パス 2184" d="M607.99,20.63q.043-1.717.043-2.294a10.3,10.3,0,0,0-.174-2.088,7.287,7.287,0,0,1,1.783.327.36.36,0,0,1,.272.337.691.691,0,0,1-.109.293,2.655,2.655,0,0,0-.271,1.131q-.055.663-.087,2.044a21.532,21.532,0,0,0,3.261-.935.515.515,0,0,1,.152-.033c.08,0,.127.062.141.185a7.442,7.442,0,0,1,.088.946c0,.13-.084.225-.251.282a23.218,23.218,0,0,1-3.467.914q-.033,1.25-.033,2.674,0,.806.011,1.827a14.071,14.071,0,0,1,5.816-1.7,4.4,4.4,0,0,1,3.349,1.272,3.717,3.717,0,0,1,1.011,2.663,3.757,3.757,0,0,1-1.424,3.2,5.233,5.233,0,0,1-3.207.9,5.369,5.369,0,0,1-1.784-.272c-.181-.05-.282-.243-.3-.576a3.255,3.255,0,0,0-.359-1.022,5.667,5.667,0,0,0,2.381.467,3.36,3.36,0,0,0,2.348-.771,2.8,2.8,0,0,0-.108-4.012,3.391,3.391,0,0,0-2.174-.642,13.406,13.406,0,0,0-5.545,1.87q0,1.12.119,3.4.022.565.087,1.381.043.565.044.739c0,.29-.084.46-.25.511a4.276,4.276,0,0,1-.935.152c-.087,0-.192-.069-.315-.206-.008-.015-.091-.113-.25-.294-.095-.108-.185-.21-.272-.3a18.214,18.214,0,0,0-3.229-2.49c-.124.073-.377.236-.762.49a.581.581,0,0,1-.315.152c-.1,0-.213-.084-.337-.25a8.018,8.018,0,0,1-.684-1.348,11.463,11.463,0,0,0,2.163-.783q1.131-.545,3.6-1.957-.023-1.587-.022-4.871a35.021,35.021,0,0,1-4.066.239.384.384,0,0,1-.424-.337,6.172,6.172,0,0,1-.142-1.043q.588.031,1.207.032A29.715,29.715,0,0,0,607.99,20.63Zm.022,7.61q-.219.12-2.849,1.718,2.577,1.49,2.773,1.6a.217.217,0,0,0,.119.043c.065,0,.1-.065.1-.2q-.011-.271-.066-1.588Q608.055,28.915,608.012,28.24Zm7.512-8.263a8.892,8.892,0,0,1,.533-.935c.065-.123.145-.184.239-.184h.065a7.836,7.836,0,0,1,4.414,2.337.272.272,0,0,1,.065.152.229.229,0,0,1-.065.142,6.3,6.3,0,0,1-.717.913.17.17,0,0,1-.283,0A8,8,0,0,0,615.524,19.977Z"/>
          <path id="パス_2185" data-name="パス 2185" d="M627.788,23.1a.243.243,0,0,1,.087.141c0,.043-.051.123-.153.239l-.467.576c-.087.116-.16.174-.218.174a.238.238,0,0,1-.141-.087,14.359,14.359,0,0,0-2.914-2.446c-.065-.043-.1-.083-.1-.119a.482.482,0,0,1,.12-.207l.446-.544c.079-.1.141-.152.185-.152a.277.277,0,0,1,.108.044A14.072,14.072,0,0,1,627.788,23.1Zm0,4.968A33.552,33.552,0,0,1,625.9,33.3a4.32,4.32,0,0,0-.359,1c-.022.166-.087.25-.2.25a.708.708,0,0,1-.315-.109,11.577,11.577,0,0,1-1-.739,8.407,8.407,0,0,0,.891-1.511,29.538,29.538,0,0,0,1.957-5.415,4.509,4.509,0,0,0,.674.609q.3.228.305.359A1.553,1.553,0,0,1,627.788,28.066Zm.717-10.535a.244.244,0,0,1,.076.142.479.479,0,0,1-.141.239l-.446.511c-.123.13-.206.195-.25.195s-.08-.028-.131-.087a14.251,14.251,0,0,0-2.717-2.38c-.066-.044-.1-.08-.1-.109,0-.044.047-.116.141-.218l.446-.511c.094-.108.166-.163.217-.163a.344.344,0,0,1,.142.044A17.208,17.208,0,0,1,628.505,17.531Zm14.916.37a.154.154,0,0,1-.174.174l-3.1-.044h-8.817v2.544a56.33,56.33,0,0,1-.381,7.317,15.658,15.658,0,0,1-2.207,6.317c-.109.181-.2.272-.261.272-.043,0-.141-.073-.294-.218a2.784,2.784,0,0,0-.826-.554,13.006,13.006,0,0,0,2.36-6.306,55.619,55.619,0,0,0,.337-6.86l-.044-3.566a.154.154,0,0,1,.174-.174l3.121.043h2.63v-.489a8.005,8.005,0,0,0-.152-1.783,14.1,14.1,0,0,1,1.435.131c.181.029.272.1.272.206a1.069,1.069,0,0,1-.13.4,2.969,2.969,0,0,0-.109,1.044v.489h2.892l3.1-.043a.154.154,0,0,1,.174.174Zm.62,15.416a2.708,2.708,0,0,0-.533.848c-.1.225-.214.337-.337.337l-.3-.043a18.42,18.42,0,0,1-5.61-2.381,20.119,20.119,0,0,1-5.589,2.49,2.931,2.931,0,0,1-.358.086c-.073,0-.17-.112-.293-.337a2.01,2.01,0,0,0-.621-.771,20.824,20.824,0,0,0,5.828-2.273,13.383,13.383,0,0,1-2.827-3.718q-.619.01-1.108.033l-.338.011q-.2,0-.2-.174v-.848q0-.174.2-.174l2.653.043h5.523a.994.994,0,0,0,.4-.065.5.5,0,0,1,.218-.065c.1,0,.308.156.619.467q.381.381.381.576a.309.309,0,0,1-.174.261,1.959,1.959,0,0,0-.489.566,16.053,16.053,0,0,1-2.762,3.087A19.456,19.456,0,0,0,644.041,33.317Zm-.652-11.622c0,.131-.058.2-.174.2l-2.273-.044h-.706V22.8l.043,2.12a.154.154,0,0,1-.174.174l-1.924-.043h-1.729l-1.924.043a.154.154,0,0,1-.174-.174l.043-2.12v-.957l-2.38.044c-.117,0-.174-.065-.174-.2v-.783c0-.13.057-.2.174-.2l2.38.043a11.953,11.953,0,0,0-.13-2.142,13.116,13.116,0,0,1,1.316.12c.159.022.239.08.239.174a1.384,1.384,0,0,1-.109.38,5.435,5.435,0,0,0-.109,1.468h3.425a11.927,11.927,0,0,0-.131-2.142q.685.033,1.283.12c.181.022.272.08.272.174a1.912,1.912,0,0,1-.13.4,6.106,6.106,0,0,0-.087,1.446h.706l2.273-.043q.174,0,.174.2Zm-3.425,5.86h-5.23a9.751,9.751,0,0,0,2.523,3.012A11.484,11.484,0,0,0,639.964,27.555Zm-.935-3.566V21.847H635.6v2.142Z"/>
          <path id="パス_2186" data-name="パス 2186" d="M649.053,15.509a8.778,8.778,0,0,1,1.8.315c.239.066.359.174.359.327a2.152,2.152,0,0,1-.175.587,12.219,12.219,0,0,0-.271,2.294q-.337,5.9-.337,10.013a3.839,3.839,0,0,0,.674,2.652,2.642,2.642,0,0,0,1.957.6,8.886,8.886,0,0,0,4.479-1.326,14.935,14.935,0,0,0,3.533-2.925,5.543,5.543,0,0,0,.381,1.294,1.817,1.817,0,0,1,.087.305.642.642,0,0,1-.272.424,12.012,12.012,0,0,1-8.48,3.739,3.605,3.605,0,0,1-3-1.163,5.226,5.226,0,0,1-.87-3.316q0-1.1.3-10.458.033-.826.033-1.294A8.986,8.986,0,0,0,649.053,15.509Z"/>
          <path id="パス_2187" data-name="パス 2187" d="M669.645,31.165v2.381H667.22V31.165Zm-.022-15.232-.511,12.688h-1.425l-.423-12.688Z"/>
        </g>
        <g id="グループ_348" data-name="グループ 348">
          <path id="パス_2188" data-name="パス 2188" d="M26.425,71.548V68.1l7.031-10.863q.772-1.194,1.459-2.285a12.34,12.34,0,0,0,1.125-2.268,7.334,7.334,0,0,0,.439-2.584,4.366,4.366,0,0,0-.562-2.425,1.962,1.962,0,0,0-1.758-.844,2.376,2.376,0,0,0-1.758.633,3.291,3.291,0,0,0-.861,1.652,10.263,10.263,0,0,0-.228,2.25v1.195H26.53V51.3a12.061,12.061,0,0,1,.756-4.447,6.242,6.242,0,0,1,2.408-3.006,7.728,7.728,0,0,1,4.325-1.09A7.127,7.127,0,0,1,39.5,44.724a7.755,7.755,0,0,1,1.828,5.484,9.7,9.7,0,0,1-.492,3.182,13.552,13.552,0,0,1-1.3,2.724q-.808,1.3-1.758,2.672l-5.836,8.859h8.649v3.9Z" fill="#fff"/>
          <path id="パス_2189" data-name="パス 2189" d="M53.717,71.97a7.481,7.481,0,0,1-4.131-1.055A6.525,6.525,0,0,1,47.125,68a10.485,10.485,0,0,1-.826-4.289V51.087a11.23,11.23,0,0,1,.791-4.377,6.306,6.306,0,0,1,2.426-2.936,7.621,7.621,0,0,1,4.2-1.054,7.625,7.625,0,0,1,4.2,1.054,6.312,6.312,0,0,1,2.426,2.936,11.23,11.23,0,0,1,.791,4.377V63.708A10.5,10.5,0,0,1,60.309,68a6.531,6.531,0,0,1-2.461,2.918A7.484,7.484,0,0,1,53.717,71.97Zm0-4.184a1.933,1.933,0,0,0,1.617-.668,3.629,3.629,0,0,0,.7-1.617,10.238,10.238,0,0,0,.176-1.863V51.157a12.12,12.12,0,0,0-.158-1.951,3.506,3.506,0,0,0-.686-1.635,2.378,2.378,0,0,0-3.305,0,3.5,3.5,0,0,0-.685,1.635,12.007,12.007,0,0,0-.158,1.951V63.638a9.314,9.314,0,0,0,.193,1.863,3.765,3.765,0,0,0,.721,1.617A1.89,1.89,0,0,0,53.717,67.786Z" fill="#fff"/>
          <path id="パス_2190" data-name="パス 2190" d="M66.162,71.548V68.1l7.031-10.863q.772-1.194,1.459-2.285a12.34,12.34,0,0,0,1.125-2.268,7.334,7.334,0,0,0,.44-2.584,4.366,4.366,0,0,0-.563-2.425,1.962,1.962,0,0,0-1.758-.844,2.374,2.374,0,0,0-1.757.633,3.3,3.3,0,0,0-.862,1.652,10.325,10.325,0,0,0-.228,2.25v1.195H66.268V51.3a12.061,12.061,0,0,1,.755-4.447,6.244,6.244,0,0,1,2.409-3.006,7.724,7.724,0,0,1,4.324-1.09,7.127,7.127,0,0,1,5.484,1.969,7.755,7.755,0,0,1,1.828,5.484,9.7,9.7,0,0,1-.492,3.182,13.5,13.5,0,0,1-1.3,2.724q-.809,1.3-1.757,2.672l-5.836,8.859H80.33v3.9Z" fill="#fff"/>
          <path id="パス_2191" data-name="パス 2191" d="M93.183,71.97a8.165,8.165,0,0,1-4.307-1A5.751,5.751,0,0,1,86.5,68.12a11.552,11.552,0,0,1-.738-4.307v-.984h4.817v.844a12.015,12.015,0,0,0,.246,2.285,2.537,2.537,0,0,0,.791,1.441,2.388,2.388,0,0,0,1.6.493,2.267,2.267,0,0,0,1.635-.528,2.822,2.822,0,0,0,.738-1.547,13.177,13.177,0,0,0,.194-2.425,7.168,7.168,0,0,0-.686-3.428,2.948,2.948,0,0,0-2.654-1.354h-.809v-3.9h.739a3.2,3.2,0,0,0,2.671-1.037,5.489,5.489,0,0,0,.739-3.217,6.028,6.028,0,0,0-.545-2.812,2.152,2.152,0,0,0-2.092-1.02,2,2,0,0,0-2.022,1.125,7.476,7.476,0,0,0-.544,2.918V51.72H85.765V50.349a9.081,9.081,0,0,1,.861-4.131,5.932,5.932,0,0,1,2.514-2.6,8.3,8.3,0,0,1,4.008-.9,8.6,8.6,0,0,1,4.078.879,5.87,5.87,0,0,1,2.514,2.548,8.865,8.865,0,0,1,.861,4.1,7.456,7.456,0,0,1-1.055,4.149A4.843,4.843,0,0,1,96.839,56.5a4.666,4.666,0,0,1,1.969,1.213,5.854,5.854,0,0,1,1.318,2.25,10.425,10.425,0,0,1,.475,3.357,13.018,13.018,0,0,1-.721,4.518,6.065,6.065,0,0,1-2.355,3.041A7.717,7.717,0,0,1,93.183,71.97Z" fill="#fff"/>
        </g>
      </g>
      <rect id="長方形_98" data-name="長方形 98" width="750" height="30" transform="translate(0 110)" fill="#e0cbaf"/>
      <g id="グループ_350" data-name="グループ 350">
        <path id="パス_2192" data-name="パス 2192" d="M27.593,117.153V131.96h3.022v1.49H22.581v-1.49H25.81V119.088A15.2,15.2,0,0,1,22.6,120.7l-.315-1.631a14.746,14.746,0,0,0,3.783-1.913Z"/>
        <path id="パス_2193" data-name="パス 2193" d="M34.909,121.36A5.144,5.144,0,0,1,36.735,118a4.736,4.736,0,0,1,3-.957,4.572,4.572,0,0,1,3.414,1.261,4.03,4.03,0,0,1,1.109,2.947,4.94,4.94,0,0,1-.772,2.7,14.2,14.2,0,0,1-2.588,2.783,16.617,16.617,0,0,0-4.273,5.186H44.28v1.533h-9.5v-1.381a19.036,19.036,0,0,1,4.762-6.316,12.733,12.733,0,0,0,2.338-2.653,3.694,3.694,0,0,0,.467-1.848,2.5,2.5,0,0,0-2.62-2.675q-2.554,0-2.99,3.207Z"/>
        <path id="パス_2194" data-name="パス 2194" d="M57.076,115.174l-8.752,20.57h-1.25l8.752-20.57Z"/>
        <path id="パス_2195" data-name="パス 2195" d="M65.7,117.153V131.96h3.023v1.49H60.685v-1.49h3.229V119.088a15.186,15.186,0,0,1-3.208,1.609l-.315-1.631a14.746,14.746,0,0,0,3.783-1.913Z"/>
        <path id="パス_2196" data-name="パス 2196" d="M79.307,124.839a6.568,6.568,0,0,1,2.805,2.066,4.2,4.2,0,0,1,.653,2.4,4.048,4.048,0,0,1-1.566,3.4,5.546,5.546,0,0,1-3.468,1.032,5.275,5.275,0,0,1-3.794-1.3,4.067,4.067,0,0,1-1.218-3.066,3.633,3.633,0,0,1,.935-2.533,8.155,8.155,0,0,1,2.511-1.7,5.886,5.886,0,0,1-2.414-1.925,3.847,3.847,0,0,1-.586-2.163,3.678,3.678,0,0,1,1.424-3,5.445,5.445,0,0,1,6.632.239,3.565,3.565,0,0,1,1.141,2.686,3.49,3.49,0,0,1-.8,2.359A6.317,6.317,0,0,1,79.307,124.839Zm-1.826.957A6.45,6.45,0,0,0,75.1,127.47a2.878,2.878,0,0,0-.6,1.816,2.815,2.815,0,0,0,.989,2.283,3.866,3.866,0,0,0,4.74-.174,2.792,2.792,0,0,0,.75-2.033,2.715,2.715,0,0,0-.739-1.957,6.875,6.875,0,0,0-2.294-1.413Zm.533-1.587a4.812,4.812,0,0,0,2.119-1.5,2.884,2.884,0,0,0,.468-1.685,2.3,2.3,0,0,0-.9-1.913,3.074,3.074,0,0,0-1.968-.62,2.84,2.84,0,0,0-2.12.783,2.433,2.433,0,0,0-.685,1.783,2.365,2.365,0,0,0,.641,1.7,6.446,6.446,0,0,0,2,1.261Z"/>
        <path id="パス_2197" data-name="パス 2197" d="M95,115.2a14.052,14.052,0,0,0-4.023,5.164,12.835,12.835,0,0,0-.924,5.034,12.539,12.539,0,0,0,1.228,5.7,14.7,14.7,0,0,0,3.719,4.5l-.555.641a15.285,15.285,0,0,1-4.675-5.36,12.367,12.367,0,0,1-1.163-5.479,12.182,12.182,0,0,1,1.533-6.186,16.154,16.154,0,0,1,4.305-4.653Z"/>
        <path id="パス_2198" data-name="パス 2198" d="M114.117,134.494a.154.154,0,0,1-.174.174h-1.076a.154.154,0,0,1-.174-.174v-1.359H102.387v1.4q0,.174-.153.174h-1.1a.154.154,0,0,1-.174-.174l.044-7.632v-4.294l-.044-5.61c0-.123.059-.185.174-.185l3.1.043h6.61l3.1-.043c.116,0,.174.062.174.185l-.043,5.044v4.86Zm-1.424-10.329v-6.034H102.387v6.034Zm0,7.7v-6.447H102.387v6.447Z"/>
        <path id="パス_2199" data-name="パス 2199" d="M120.15,115.2l.555-.641a15.283,15.283,0,0,1,4.675,5.359,12.385,12.385,0,0,1,1.163,5.48,12.182,12.182,0,0,1-1.533,6.186,16.152,16.152,0,0,1-4.305,4.653l-.555-.641a14.047,14.047,0,0,0,4.023-5.165,12.826,12.826,0,0,0,.924-5.033,12.539,12.539,0,0,0-1.228-5.7A14.685,14.685,0,0,0,120.15,115.2Z"/>
        <path id="パス_2200" data-name="パス 2200" d="M140.285,129.308q-.109-1.87-.131-3.36-1.121.043-2.163.044-1.632,0-2.958-.109c-.145,0-.228-.09-.25-.272a7.976,7.976,0,0,1-.065-1.13,30.943,30.943,0,0,0,3.631.195q.924,0,1.751-.043l-.022-3.316q-1.24.054-2.316.054-1.924,0-3.576-.163a.241.241,0,0,1-.207-.217,9.279,9.279,0,0,1-.087-1.164,32.245,32.245,0,0,0,4.023.229q1.021,0,2.163-.055l-.022-2.337a5.507,5.507,0,0,0-.2-1.468,8.947,8.947,0,0,1,1.762.294.326.326,0,0,1,.25.326.338.338,0,0,1-.055.185,2.1,2.1,0,0,0-.26,1.022q-.022.271-.077,1.935a50.908,50.908,0,0,0,5.437-.739.737.737,0,0,1,.108-.011c.08,0,.127.058.142.174a8.174,8.174,0,0,1,.064.978c0,.145-.05.218-.151.218a55.536,55.536,0,0,1-5.6.652q0,2.25.033,3.294a38.322,38.322,0,0,0,4.914-.641.348.348,0,0,1,.109-.022c.072,0,.119.043.141.13l.022,1.066q0,.195-.228.228a41.3,41.3,0,0,1-4.914.6q0,1.533.151,3.686a17.921,17.921,0,0,1,5.948,2.87.281.281,0,0,1,.119.217.48.48,0,0,1-.032.163,2.57,2.57,0,0,1-.555.957.265.265,0,0,1-.2.12.3.3,0,0,1-.142-.055,17.248,17.248,0,0,0-5.077-2.826,3.17,3.17,0,0,1-1.109,2.783,6.275,6.275,0,0,1-5.947-.109,2.209,2.209,0,0,1-.87-1.848,2.316,2.316,0,0,1,1.229-2,5.235,5.235,0,0,1,2.87-.717A13.379,13.379,0,0,1,140.285,129.308Zm.021,1.326a10.949,10.949,0,0,0-2.359-.283,4.279,4.279,0,0,0-2.2.457,1.089,1.089,0,0,0-.609.946q0,1.38,2.49,1.381a2.9,2.9,0,0,0,2.272-.7,2.267,2.267,0,0,0,.413-1.457C140.317,130.881,140.313,130.765,140.306,130.634Z"/>
        <path id="パス_2201" data-name="パス 2201" d="M152.493,120.773a21.53,21.53,0,0,0,2.761-.261q6.209-1,13.808-1.946h.076a.286.286,0,0,1,.3.185,5.017,5.017,0,0,1,.13,1.109c0,.16-.1.25-.293.272a10.088,10.088,0,0,0-3.251.663,9.919,9.919,0,0,0-4.283,3.12,6.224,6.224,0,0,0-1.457,3.892q0,4.524,6.48,5.056c.238.022.358.1.358.25a5.28,5.28,0,0,1-.13,1.065c-.044.21-.142.316-.294.316h-.065a10.691,10.691,0,0,1-5.61-1.87,5.425,5.425,0,0,1-2.207-4.567q0-4.7,5.425-7.566l-.022-.044q-6.11.968-9.034,1.577a5.757,5.757,0,0,0-1.337.38,2.322,2.322,0,0,1-.424.152.36.36,0,0,1-.316-.195A13.293,13.293,0,0,1,152.493,120.773Zm13.622,3.4.826-.6a.164.164,0,0,1,.1-.032.238.238,0,0,1,.13.054,9.747,9.747,0,0,1,2.512,2.7.167.167,0,0,1,.044.1.163.163,0,0,1-.087.141l-.642.544a.25.25,0,0,1-.141.054.167.167,0,0,1-.152-.1A9.208,9.208,0,0,0,166.115,124.176Zm1.968-1.478.707-.566a.292.292,0,0,1,.141-.054.182.182,0,0,1,.109.043,12.085,12.085,0,0,1,2.543,2.6.254.254,0,0,1,.033.108c0,.051-.036.1-.109.153l-.6.543a.194.194,0,0,1-.12.055c-.051,0-.1-.037-.152-.109A9.868,9.868,0,0,0,168.083,122.7Z"/>
        <path id="パス_2202" data-name="パス 2202" d="M194.033,119.229c0,.116-.054.174-.163.174l-3.109-.043H178.377v3.207a36.962,36.962,0,0,1-.467,6.675,18.017,18.017,0,0,1-2.022,5.5c-.123.195-.2.293-.228.293s-.124-.083-.283-.25a3.248,3.248,0,0,0-.892-.641,15.776,15.776,0,0,0,2.109-5.436,36.092,36.092,0,0,0,.425-6.317l-.044-4.131a.154.154,0,0,1,.174-.174l3.163.043h4.208v-1.109a9.588,9.588,0,0,0-.13-1.8,10.14,10.14,0,0,1,1.467.108c.182.022.272.08.272.174a.871.871,0,0,1-.13.424,2.912,2.912,0,0,0-.12,1.077v1.13h4.882l3.109-.043c.109,0,.163.058.163.174Zm-.728,5.1c0,.116-.062.174-.185.174l-2.6-.043h-4.327v3.185h2.7l3.033-.043a.154.154,0,0,1,.174.174l-.044,1.924v1.75l.044,3.523a.154.154,0,0,1-.174.174h-1.033a.154.154,0,0,1-.174-.174v-.783h-9.176v.913a.135.135,0,0,1-.152.153h-1.011q-.174,0-.174-.153l.044-3.566v-1.554l-.044-2.207a.154.154,0,0,1,.174-.174l3.012.043h1.489v-4.881a17.535,17.535,0,0,0-.13-2.588,12.366,12.366,0,0,1,1.424.142c.181.021.271.079.271.174a1.87,1.87,0,0,1-.141.445,7.642,7.642,0,0,0-.109,1.783v.533h4.327l2.6-.043c.123,0,.185.058.185.174Zm-2.588,8.654v-4.153h-9.176v4.153Z" fill="#bd3622"/>
        <path id="パス_2203" data-name="パス 2203" d="M206.567,130.069a3.647,3.647,0,0,0-.1.793c.007.1.01.174.01.218a.32.32,0,0,1-.086.25,1.6,1.6,0,0,1-.327.163,51.147,51.147,0,0,1-6.805,2.087,2.014,2.014,0,0,0-.848.316.406.406,0,0,1-.294.13c-.094,0-.174-.072-.239-.217a9.227,9.227,0,0,1-.424-1.229q.988-.108,2.022-.326,1.641-.369,2.968-.739.576-1.251,1.131-2.849a7.038,7.038,0,0,0,.315-1.424,7.057,7.057,0,0,1,1.25.424c.145.058.218.131.218.218a.379.379,0,0,1-.174.271,3,3,0,0,0-.511.979q-.468,1.065-.968,2A25.742,25.742,0,0,0,206.567,130.069Zm-.337-12.5a.153.153,0,0,1-.173.174l-2.479-.043H200.49l-2.457.043a.154.154,0,0,1-.174-.174v-.946q0-.2.174-.195l2.457.043h3.088l2.479-.043c.115,0,.173.065.173.195Zm-.685,8.361a.153.153,0,0,1-.173.174l-2.143-.044h-2.163l-2.12.044a.154.154,0,0,1-.174-.174l.044-1.849v-2.141l-.044-1.849a.154.154,0,0,1,.174-.174l2.12.044h2.163l2.143-.044a.154.154,0,0,1,.173.174l-.043,1.849v2.141Zm-4.2,4.359a.646.646,0,0,1,.022.12q0,.1-.261.195l-.555.2a.953.953,0,0,1-.271.087c-.052,0-.088-.043-.109-.13a12.531,12.531,0,0,0-1.055-2.849.264.264,0,0,1-.033-.108c0-.058.087-.116.262-.174l.532-.185a.6.6,0,0,1,.174-.044c.051,0,.1.037.141.109A10.422,10.422,0,0,1,201.349,130.286Zm2.924-5.338v-3.881h-4.251v3.881Zm6.23,7.61c0,.073-.072.135-.217.185a2.753,2.753,0,0,0-.522.326,15.044,15.044,0,0,1-3.87,2.392,1.228,1.228,0,0,1-.338.109q-.118,0-.326-.359a2.306,2.306,0,0,0-.554-.62,12.324,12.324,0,0,0,4.066-2.228,3.742,3.742,0,0,0,.631-.718,4.6,4.6,0,0,1,.934.631C210.438,132.384,210.5,132.479,210.5,132.558Zm7.013-15.035c0,.123-.051.184-.153.184l-2.859-.043h-1.957a20.09,20.09,0,0,1-.859,2.185h1.75l2.523-.054a.154.154,0,0,1,.174.174l-.044,2.642v5.7l.044,2.631c0,.131-.058.2-.174.2l-2.523-.043h-3.131l-2.544.043c-.116,0-.174-.065-.174-.2l.044-2.631v-5.653l-.044-2.685a.154.154,0,0,1,.174-.174l2.544.054h.088a14.184,14.184,0,0,0,.8-2.185h-1.25l-2.827.043a.163.163,0,0,1-.185-.184v-.957c0-.116.062-.174.185-.174l2.827.043H214.5l2.859-.043q.153,0,.153.174Zm-2.675,5.642v-2.207h-5.958v2.207Zm0,3.316v-2.25h-5.958v2.25Zm0,3.457v-2.413h-5.958v2.413Zm3.12,4.273a2.312,2.312,0,0,0-.554.707c-.124.224-.229.337-.316.337a1.046,1.046,0,0,1-.347-.131,14.269,14.269,0,0,1-3.741-2.7c-.05-.044-.076-.08-.076-.109s.069-.112.207-.228l.424-.359c.1-.094.177-.141.228-.141a.282.282,0,0,1,.152.076A11.988,11.988,0,0,0,217.961,134.211Z" fill="#bd3622"/>
        <path id="パス_2204" data-name="パス 2204" d="M224.07,117.338a6.743,6.743,0,0,1,1.457.6c.21.123.315.243.315.358a.693.693,0,0,1-.152.381,3.4,3.4,0,0,0-.446,1.174,33.933,33.933,0,0,0-1.043,7.687,18.021,18.021,0,0,0,.337,3.827q.162-.381.826-1.892.467-1.021.815-1.87a10.036,10.036,0,0,0,.533.891.3.3,0,0,1,.12.218.927.927,0,0,1-.109.359q-.947,2.174-1.435,3.533a1.3,1.3,0,0,0-.087.554l.043.49a.185.185,0,0,1-.152.206,5.648,5.648,0,0,1-1,.218c-.116,0-.2-.073-.25-.218a13.937,13.937,0,0,1-.772-3.207,23.934,23.934,0,0,1-.229-3.251,41,41,0,0,1,.914-7.588A14.738,14.738,0,0,0,224.07,117.338Zm4.871,11.285,1.206-.087a.049.049,0,0,1,.033-.011q.12,0,.12.228.1,2.446,4.055,2.446a34.538,34.538,0,0,0,4.381-.3.751.751,0,0,1,.087-.011c.094,0,.149.076.163.228q.066.795.066,1.044c0,.109-.015.174-.044.2a.55.55,0,0,1-.25.076,35.3,35.3,0,0,1-3.979.239,11.009,11.009,0,0,1-3.175-.359,3.778,3.778,0,0,1-1.729-1.043A3.683,3.683,0,0,1,228.941,128.623Zm.783-7.154c0-.638.006-1.044.021-1.218a.294.294,0,0,1,.261-.315,30.227,30.227,0,0,1,4.719-.4q2.163,0,3.163.109c.225.021.337.1.337.228q0,.707-.021,1.044c0,.137-.055.206-.163.206h-.087q-1.077-.119-3.578-.119A27.571,27.571,0,0,0,229.724,121.469Z"/>
        <path id="パス_2205" data-name="パス 2205" d="M243.53,120.773a21.527,21.527,0,0,0,2.762-.261q6.25-1.011,13.807-1.946h.076a.286.286,0,0,1,.305.185,5.019,5.019,0,0,1,.13,1.109c0,.16-.1.25-.293.272a10.088,10.088,0,0,0-3.251.663,9.919,9.919,0,0,0-4.283,3.12,6.224,6.224,0,0,0-1.457,3.892q0,4.524,6.479,5.056.359.033.359.25a5.279,5.279,0,0,1-.13,1.065c-.044.21-.142.316-.294.316h-.065a10.685,10.685,0,0,1-5.61-1.87,5.423,5.423,0,0,1-2.207-4.567q0-4.7,5.425-7.566l-.022-.055q-6.132.99-9.034,1.588a5.757,5.757,0,0,0-1.337.38,2.316,2.316,0,0,1-.425.152.359.359,0,0,1-.315-.195A14.382,14.382,0,0,1,243.53,120.773Z"/>
        <path id="パス_2206" data-name="パス 2206" d="M267.088,127.079q.348.174.979.544c.079.036.12.083.12.141a.25.25,0,0,1-.055.141,3.443,3.443,0,0,0-.6,1.74q0,2.718,5.7,2.718a27.893,27.893,0,0,0,6.393-.642.612.612,0,0,1,.13-.021c.087,0,.145.058.174.173a8.569,8.569,0,0,1,.207,1.153v.054c0,.116-.1.2-.294.239a34.03,34.03,0,0,1-6.74.577q-6.927,0-6.926-4.186A4.73,4.73,0,0,1,267.088,127.079Zm.62-8.3a26.582,26.582,0,0,0,5.566.5q2.61,0,4.925-.2h.076a.22.22,0,0,1,.24.207,6.877,6.877,0,0,1,.065,1,.308.308,0,0,1-.315.337,14.349,14.349,0,0,0-5.763,2.533.574.574,0,0,1-.347.131.5.5,0,0,1-.283-.087,2.545,2.545,0,0,0-.914-.446,29.521,29.521,0,0,1,3.838-2.229q-.988.087-2.413.087a21.961,21.961,0,0,1-4.523-.4c-.13-.022-.195-.123-.195-.305Q267.665,119.535,267.708,118.784Zm10.491-1.762.8-.587a.217.217,0,0,1,.12-.043.193.193,0,0,1,.119.054,9.576,9.576,0,0,1,2.511,2.686.173.173,0,0,1,.044.108.19.19,0,0,1-.076.142l-.653.532a.2.2,0,0,1-.13.055.192.192,0,0,1-.163-.1A9.141,9.141,0,0,0,278.2,117.022Zm1.957-1.5.718-.554a.25.25,0,0,1,.141-.055.165.165,0,0,1,.1.044,11.747,11.747,0,0,1,2.544,2.6.21.21,0,0,1,.032.109.2.2,0,0,1-.1.152l-.609.544a.166.166,0,0,1-.12.054c-.051,0-.1-.036-.141-.109A9.971,9.971,0,0,0,280.156,115.522Z"/>
        <path id="パス_2207" data-name="パス 2207" d="M306.184,124.633q0,.184-.272.337a3.182,3.182,0,0,0-.794.739,18.874,18.874,0,0,1-2.881,2.762c-.153.13-.258.2-.316.2a1.379,1.379,0,0,1-.369-.25,4.423,4.423,0,0,0-.968-.532,13.658,13.658,0,0,0,3.164-2.762h-6.186V130l.022,3.044a1.972,1.972,0,0,1-.577,1.63,5.364,5.364,0,0,1-2.717.424h-.468c-.246,0-.391-.025-.435-.076a1.011,1.011,0,0,1-.141-.391,4.56,4.56,0,0,0-.446-1.1,22.49,22.49,0,0,0,2.316.141,1.18,1.18,0,0,0,.815-.206.931.931,0,0,0,.185-.664v-7.686h-5.632l-2.967.044a.154.154,0,0,1-.175-.174v-1.077a.154.154,0,0,1,.175-.174l2.967.044h6.991a23.529,23.529,0,0,0-4.7-3.381c-.079-.044-.119-.076-.119-.1a.93.93,0,0,1,.163-.239l.446-.511c.079-.087.141-.131.185-.131a.239.239,0,0,1,.119.054,25.387,25.387,0,0,1,2.838,1.751,28.55,28.55,0,0,0,4.914-3.294h-8.752l-3.131.043c-.109,0-.163-.058-.163-.174v-1.033c0-.115.054-.173.163-.173l3.131.043H301.9a1.672,1.672,0,0,0,.543-.065,1.966,1.966,0,0,1,.3-.109c.137,0,.37.163.7.489s.489.573.489.74q0,.185-.315.3a2.558,2.558,0,0,0-.772.467,30.243,30.243,0,0,1-5.349,3.556q.4.325,1.337,1.163c.051.043.076.076.076.1a1.1,1.1,0,0,1-.2.206l-.3.294h5.784a1.258,1.258,0,0,0,.565-.087.668.668,0,0,1,.261-.087,1.7,1.7,0,0,1,.718.424Q306.184,124.426,306.184,124.633Z"/>
        <path id="パス_2208" data-name="パス 2208" d="M318.794,126.709a.447.447,0,0,1,.033.142c0,.08-.1.148-.283.206l-.511.163a.932.932,0,0,1-.218.044c-.065,0-.108-.047-.13-.142q-.326-1-.424-1.282l-2.142.217v5.969l.044,3.25c0,.1-.059.153-.174.153h-1.011q-.174,0-.174-.153l.043-3.25v-5.86l-2.446.185a2.424,2.424,0,0,0-.848.174.662.662,0,0,1-.25.086c-.1,0-.167-.094-.218-.282q-.087-.338-.228-1.229.707.066,1.4.066h.272q.793-1.034,1.674-2.316a31.259,31.259,0,0,0-3.284-3.425.232.232,0,0,1-.1-.152c0-.044.057-.127.174-.25l.38-.468c.094-.108.163-.163.206-.163s.084.033.142.1l.848.826q.825-1.283,1.467-2.522a5.687,5.687,0,0,0,.588-1.511q.6.24,1.239.554c.167.08.25.178.25.294,0,.08-.065.16-.2.239a1.307,1.307,0,0,0-.38.468q-1.174,1.946-2.142,3.316.762.761,1.49,1.63.825-1.326,1.445-2.381a10.252,10.252,0,0,0,.892-1.891,9.184,9.184,0,0,1,1.229.619.334.334,0,0,1,.2.272c0,.094-.072.189-.217.283a4.174,4.174,0,0,0-.783.978q-1.838,2.936-3.718,5.436,2.152-.118,3.925-.261a17.321,17.321,0,0,0-.87-1.717.272.272,0,0,1-.044-.12c0-.058.087-.123.262-.2l.4-.152a.6.6,0,0,1,.239-.076c.058,0,.112.04.163.12A22.4,22.4,0,0,1,318.794,126.709Zm-6.262,1.533a1.032,1.032,0,0,1-.109.261,2.058,2.058,0,0,0-.163.653,18.75,18.75,0,0,1-1.087,4.337c-.058.211-.124.316-.2.316a.836.836,0,0,1-.337-.174,1.75,1.75,0,0,0-.761-.337,17.055,17.055,0,0,0,1.207-4.393,4.667,4.667,0,0,0,.054-.695c0-.094,0-.218-.011-.37a9.2,9.2,0,0,1,1.087.174C312.427,128.057,312.532,128.134,312.532,128.242Zm6.208,3.936a.368.368,0,0,1,.01.087c0,.109-.09.192-.271.25l-.533.152a.976.976,0,0,1-.25.054c-.058,0-.1-.054-.131-.163a23.381,23.381,0,0,0-1.163-4.272.407.407,0,0,1-.032-.131c0-.079.087-.141.26-.185l.468-.13a.887.887,0,0,1,.185-.033c.072,0,.137.055.2.163A21.9,21.9,0,0,1,318.74,132.178Zm10.089-12.753q-.044.565-.044,1.7a73.132,73.132,0,0,1-.717,10.8,5.51,5.51,0,0,1-.968,2.6,2.285,2.285,0,0,1-1.815.761,17.372,17.372,0,0,1-2.066-.108.726.726,0,0,1-.424-.12,1.205,1.205,0,0,1-.13-.413,3.426,3.426,0,0,0-.359-1,19.306,19.306,0,0,0,2.891.3,1.207,1.207,0,0,0,1.1-.8,6.8,6.8,0,0,0,.468-1.707,70.5,70.5,0,0,0,.62-10.927h-6.5a17.747,17.747,0,0,1-1.87,2.892c-.123.167-.228.25-.315.25s-.181-.076-.326-.228a2.752,2.752,0,0,0-.718-.533,15.911,15.911,0,0,0,3.229-5.675,8.872,8.872,0,0,0,.424-1.967,9.549,9.549,0,0,1,1.381.358c.21.073.315.163.315.272a.621.621,0,0,1-.2.391,2.766,2.766,0,0,0-.566,1.077q-.228.717-.761,1.935h4.751l2.4-.044A.173.173,0,0,1,328.829,119.425Zm-4.61,8.839a.351.351,0,0,1,.054.141c0,.058-.076.131-.228.218l-.62.348a.853.853,0,0,1-.293.141c-.044,0-.087-.043-.131-.13a18.413,18.413,0,0,0-2.7-4.262.206.206,0,0,1-.076-.131c0-.05.076-.123.229-.217l.554-.337a.451.451,0,0,1,.206-.1c.036,0,.08.033.131.1A17.768,17.768,0,0,1,324.219,128.264Z"/>
        <path id="パス_2209" data-name="パス 2209" d="M340.646,115.924a6.661,6.661,0,0,1,1.663.49.271.271,0,0,1,.174.25.311.311,0,0,1-.131.239,2.574,2.574,0,0,0-.4.63q-.251.534-.75,1.686a38.764,38.764,0,0,0,4.7-.74.96.96,0,0,1,.153-.021c.05,0,.09.039.119.119q.131.9.131.979c0,.145-.1.235-.294.271q-2.478.435-5.425.729a19.5,19.5,0,0,1-2.272,3.316l.022.054a4.684,4.684,0,0,1,2.783-.968,2.558,2.558,0,0,1,2.8,2.61q2.066-.924,3.468-1.6a6.217,6.217,0,0,0,1.7-1.142,4.49,4.49,0,0,1,1.087,1.294.526.526,0,0,1,.076.239c0,.145-.1.236-.293.272a5.882,5.882,0,0,0-1.229.359q-.8.336-2.533,1.022-1.369.543-2.185.891v3.74a.248.248,0,0,1-.239.272,5.064,5.064,0,0,1-.968.087c-.131,0-.2-.091-.2-.272q0-2.065.021-3.207-3.652,1.826-3.653,3.7a1.524,1.524,0,0,0,1.066,1.479,7.711,7.711,0,0,0,2.739.369,42.042,42.042,0,0,0,5.306-.434.254.254,0,0,1,.065-.011c.087,0,.148.054.185.163a5.852,5.852,0,0,1,.13,1.087c0,.174-.058.275-.174.3a43.625,43.625,0,0,1-5.512.316q-5.142,0-5.142-3.186a3.847,3.847,0,0,1,1.239-2.783,13.868,13.868,0,0,1,3.686-2.4,2.435,2.435,0,0,0-.522-1.7,1.868,1.868,0,0,0-1.348-.4,6.164,6.164,0,0,0-3.653,1.805q-.663.63-2.12,2.174a.261.261,0,0,1-.185.12.212.212,0,0,1-.141-.076,5.589,5.589,0,0,1-.783-.87.436.436,0,0,1-.055-.152.264.264,0,0,1,.1-.163,23.9,23.9,0,0,0,5.164-6.187q-1.154.066-2.414.066-.806,0-1.728-.033a.223.223,0,0,1-.24-.217,8.451,8.451,0,0,1-.13-1.109q1.163.054,2.37.054,1.391,0,2.794-.076a22.544,22.544,0,0,0,.793-2.229,3.808,3.808,0,0,0,.186-1.054Z"/>
        <path id="パス_2210" data-name="パス 2210" d="M360.714,122.611a.333.333,0,0,1-.174.271.946.946,0,0,0-.337.555,19.617,19.617,0,0,1-5.056,9.665,1.009,1.009,0,0,1-.315.217c-.051,0-.152-.087-.3-.26a2.259,2.259,0,0,0-.739-.653,17.38,17.38,0,0,0,5.294-9.415h-2.24l-1.946.044a.154.154,0,0,1-.174-.174v-.892c0-.137.058-.206.174-.206l1.946.043h2.2a1.129,1.129,0,0,0,.4-.043.737.737,0,0,1,.271-.087c.117,0,.308.127.577.38C360.572,122.339,360.714,122.524,360.714,122.611Zm9.882-4.893c0,.131-.091.221-.271.272a3.416,3.416,0,0,0-.881.555,31.519,31.519,0,0,1-4.61,2.978v1.783h.4l2.066-.043c.109,0,.163.058.163.174v.8c0,.116-.054.174-.163.174l-2.066-.043h-.4v2h.664l2.272-.043c.123,0,.185.058.185.174v.783c0,.116-.062.173-.185.173l-2.272-.043h-.664v2.1H366.3l2.761-.043a.154.154,0,0,1,.174.174v.8a.154.154,0,0,1-.174.174l-2.761-.043h-1.468l.044,2.424a1.8,1.8,0,0,1-.468,1.4,4.122,4.122,0,0,1-2.468.478q-.315,0-.695-.011a.752.752,0,0,1-.4-.065,1.531,1.531,0,0,1-.152-.4,3.114,3.114,0,0,0-.467-.957,16.678,16.678,0,0,0,2.294.13,1.333,1.333,0,0,0,.826-.184.792.792,0,0,0,.217-.631V130.58H362.1l-2.762.043q-.207,0-.207-.174v-.8q0-.174.207-.174l2.762.043h1.467v-2.1h-.717l-2.294.043a.153.153,0,0,1-.174-.173V126.5a.154.154,0,0,1,.174-.174l2.294.043h.717v-2h-.489l-2.055.043c-.1,0-.152-.058-.152-.174v-.8c0-.116.051-.174.152-.174l2.055.043h.489v-.489a14.4,14.4,0,0,0-.152-2.544l1,.207a28.387,28.387,0,0,0,3.947-2.675h-7.578l-3.055.044a.154.154,0,0,1-.174-.174v-.946a.154.154,0,0,1,.174-.174l3.055.044h7.839a1.37,1.37,0,0,0,.619-.088.622.622,0,0,1,.25-.065q.184,0,.62.468A1.558,1.558,0,0,1,370.6,117.718Zm4.012,14.579a3.183,3.183,0,0,0-.826.729c-.131.181-.228.272-.294.272s-.174-.091-.326-.272a18.284,18.284,0,0,1-3.544-5.24,25.164,25.164,0,0,1-1.805-6.2.7.7,0,0,1-.011-.1c0-.065.1-.123.3-.174l.577-.152a.589.589,0,0,1,.174-.044c.05,0,.083.047.1.142a32.021,32.021,0,0,0,.772,3.435,25.25,25.25,0,0,0,2.565-2.783,4.848,4.848,0,0,0,.642-1.066,6.611,6.611,0,0,1,1.022.783c.137.131.206.239.206.326s-.079.192-.239.272a3.37,3.37,0,0,0-.924.826,35.128,35.128,0,0,1-2.849,2.892A16.08,16.08,0,0,0,374.608,132.3Z"/>
        <path id="パス_2211" data-name="パス 2211" d="M380.793,116.2a5.907,5.907,0,0,1,1.555.533c.2.109.294.217.294.326a.518.518,0,0,1-.087.294,2.265,2.265,0,0,0-.4.869,31.99,31.99,0,0,0-.673,5.121q-.012.456-.012.794a12.22,12.22,0,0,0,.1,1.717q.283-.553.87-1.685.6-1.163.783-1.511a2.988,2.988,0,0,0,.446.9.571.571,0,0,1,.1.282.711.711,0,0,1-.119.326,22.147,22.147,0,0,0-1.413,2.936,2.186,2.186,0,0,0-.153.717.508.508,0,0,1,.011.087.221.221,0,0,1-.163.229q-.284.054-1.065.152c-.1,0-.178-.076-.229-.229a12.5,12.5,0,0,1-.554-4.163,38.016,38.016,0,0,1,.522-5.23,17.382,17.382,0,0,0,.206-2.1C380.8,116.45,380.8,116.327,380.793,116.2Zm6.969.1a7.692,7.692,0,0,1,1.62.185c.232.043.348.149.348.315a1.012,1.012,0,0,1-.011.131,2.112,2.112,0,0,0-.065.6c0,.137,0,.286.011.445q.271,3.7.272,5.893,0,4.837-1.827,7.306a11.44,11.44,0,0,1-3.674,3.229.526.526,0,0,1-.272.1.484.484,0,0,1-.3-.142,3.008,3.008,0,0,0-1.13-.619,11.421,11.421,0,0,0,3.87-3.055,8.309,8.309,0,0,0,1.435-3.023,15.228,15.228,0,0,0,.391-3.718q0-2.554-.217-5.3A10.416,10.416,0,0,0,387.762,116.294Z"/>
        <path id="パス_2212" data-name="パス 2212" d="M414.158,129.166a.154.154,0,0,1-.174.174H412.93a.153.153,0,0,1-.174-.174V128h-6.274v3.229l.044,4.012a.154.154,0,0,1-.174.174H405.21a.153.153,0,0,1-.173-.174l.043-3.99V128H399.2v1.25a.154.154,0,0,1-.175.174H397.97a.154.154,0,0,1-.174-.174l.043-4.2v-2.088l-.043-2.837a.154.154,0,0,1,.174-.174l3.142.043h3.968v-1.783a18.522,18.522,0,0,0-.152-2.848q.706.033,1.533.109c.181.029.272.1.272.206a1.163,1.163,0,0,1-.109.4,8.229,8.229,0,0,0-.142,2.022V120h4.36l3.142-.043a.154.154,0,0,1,.174.174l-.043,2.522v2.338Zm-9.078-2.413v-5.5H399.2v5.5Zm7.676,0v-5.5h-6.274v5.5Z"/>
        <path id="パス_2213" data-name="パス 2213" d="M424.757,131.852v2.381h-2.424v-2.381Zm-.021-15.232-.511,12.688H422.8l-.424-12.688Z"/>
        <path id="パス_2214" data-name="パス 2214" d="M441.6,120.915a.154.154,0,0,1-.174.174l-2.783-.044h-.674a10.358,10.358,0,0,0,2.946,2.316,2.411,2.411,0,0,0-.652.674c-.065.116-.138.174-.218.174a.909.909,0,0,1-.358-.2,12.8,12.8,0,0,1-2.381-2.5q.01,1.129.076,2.326c.036.616.054.95.054,1a.154.154,0,0,1-.174.174h-.989a.154.154,0,0,1-.174-.174q0-.108.032-.587.089-1.434.1-2.663a14.274,14.274,0,0,1-3.958,3.99.868.868,0,0,1-.38.195c-.058,0-.142-.076-.25-.228a2.242,2.242,0,0,0-.6-.62,14.114,14.114,0,0,0,3.783-3.076,7.561,7.561,0,0,0,.652-.805h-1.1l-2.783.044c-.1,0-.152-.058-.152-.174v-.783c0-.131.05-.2.152-.2l2.783.044h1.783v-2.74a8.817,8.817,0,0,0-.152-1.783q.729.033,1.337.12c.159.021.239.094.239.217a1.177,1.177,0,0,1-.108.359,3.547,3.547,0,0,0-.109,1.13v2.7h1.272l2.783-.044c.116,0,.174.065.174.2Zm.326,7.219a.153.153,0,0,1-.173.173l-.24-.01q-.74-.022-1.631-.033a10.622,10.622,0,0,1-1.761,3.468q1.011.6,1.8,1.163c.079.051.119.1.119.153a.432.432,0,0,1-.141.228l-.38.467q-.186.24-.261.24a.317.317,0,0,1-.163-.087q-.936-.729-1.772-1.294a13,13,0,0,1-4.817,2.587,1.376,1.376,0,0,1-.315.066c-.116,0-.232-.113-.348-.337a2.132,2.132,0,0,0-.554-.642,11.936,11.936,0,0,0,4.936-2.316,18.4,18.4,0,0,0-2.186-1.065,7.952,7.952,0,0,1-.511.707c-.123.159-.221.239-.293.239a1.192,1.192,0,0,1-.326-.087l-.425-.174c-.181-.065-.271-.127-.271-.185a.344.344,0,0,1,.076-.152,10.974,10.974,0,0,0,.978-1.3q.543-.848,1-1.674l-2.74.043a.153.153,0,0,1-.174-.173v-.783a.154.154,0,0,1,.174-.174l2.826.043h.446q.131-.228.359-.717a5.474,5.474,0,0,0,.424-1.283,7.249,7.249,0,0,1,1.207.348c.145.051.217.127.217.228a.375.375,0,0,1-.174.261,3.654,3.654,0,0,0-.543.848l-.152.315h2.783l2.827-.043a.153.153,0,0,1,.173.174Zm-7.23-9.535a.245.245,0,0,1,.033.1c0,.043-.073.108-.217.195l-.489.24a.757.757,0,0,1-.25.119c-.051,0-.1-.047-.131-.141a9.055,9.055,0,0,0-1.24-2.174.363.363,0,0,1-.076-.153c0-.05.069-.112.207-.184l.489-.251a.509.509,0,0,1,.185-.065c.036,0,.08.029.13.087A9.317,9.317,0,0,1,434.693,118.6Zm3.914,9.665h-3q-.588,1.054-1.022,1.783a21.057,21.057,0,0,1,2.468,1.087A7.752,7.752,0,0,0,438.607,128.264Zm2.7-11.361a.282.282,0,0,1-.131.228,1.544,1.544,0,0,0-.359.4,13.63,13.63,0,0,1-1.13,1.675c-.131.145-.236.217-.316.217a.682.682,0,0,1-.315-.13,1.808,1.808,0,0,0-.576-.25,15.318,15.318,0,0,0,1.315-2,2.766,2.766,0,0,0,.283-.826,7.184,7.184,0,0,1,1.033.467C441.238,116.765,441.3,116.838,441.3,116.9Zm10.219,17.08a2.777,2.777,0,0,0-.663.891c-.109.188-.2.283-.272.283a.916.916,0,0,1-.315-.174,23.778,23.778,0,0,1-4.186-4.295,15.285,15.285,0,0,1-5.338,4.567,1.127,1.127,0,0,1-.359.13q-.119,0-.315-.315a2.135,2.135,0,0,0-.663-.685,14.034,14.034,0,0,0,5.925-4.86,19.958,19.958,0,0,1-2.207-6.056,18.322,18.322,0,0,1-1.337,2.208c-.116.159-.2.239-.261.239s-.156-.08-.315-.239a2.312,2.312,0,0,0-.7-.49,19.3,19.3,0,0,0,3.544-7.762,9.434,9.434,0,0,0,.315-2.012q.75.186,1.24.359c.2.073.293.163.293.272a.78.78,0,0,1-.217.37,3.625,3.625,0,0,0-.359,1.054q-.479,1.719-.739,2.468h3.881l2.446-.043a.154.154,0,0,1,.174.174v.891a.154.154,0,0,1-.174.174c-.022,0-.1,0-.239-.011q-.707-.021-1.565-.032a19,19,0,0,1-2.294,8.48A20.643,20.643,0,0,0,451.523,133.983Zm-3.7-12.894H444.2l-.282.739a21.624,21.624,0,0,0,2.131,6.5A18.785,18.785,0,0,0,447.827,121.089Z"/>
        <path id="パス_2215" data-name="パス 2215" d="M474.168,134.657a.153.153,0,0,1-.173.174l-2.87-.044h-13.58l-2.881.044a.154.154,0,0,1-.174-.174v-.783a.154.154,0,0,1,.174-.174l2.881.043H463.5v-1.315h-3.892l-3.142.043c-.1,0-.152-.065-.152-.195V131.6c0-.116.05-.174.152-.174l3.142.043H463.5v-1.315h-2.685l-3.12.043a.155.155,0,0,1-.175-.174l.044-1.674v-1.783l-.044-1.718a.154.154,0,0,1,.175-.174l3.12.044h6.9l3.121-.044a.154.154,0,0,1,.174.174l-.044,1.7v1.805l.044,1.674a.154.154,0,0,1-.174.174l-3.121-.043h-2.99v1.315h4.338l3.121-.043c.137,0,.206.058.206.174v.674c0,.13-.069.195-.206.195l-3.121-.043h-4.338v1.315h6.394l2.87-.043a.153.153,0,0,1,.173.174Zm-.108-11.3c0,.116-.051.174-.152.174l-2.914-.044H457.632l-2.892.044c-.123,0-.184-.058-.184-.174V122.6c0-.1.061-.152.184-.152l2.892.021h13.362l2.914-.021a.134.134,0,0,1,.152.152Zm-2.675-2.218a.154.154,0,0,1-.174.174l-3.164-.044H460.5l-3.163.044c-.131,0-.2-.051-.2-.152l.044-1.631v-1.653l-.044-1.62c0-.115.065-.173.2-.173l3.163.043h7.545l3.164-.043a.154.154,0,0,1,.174.173l-.043,1.62v1.631Zm-1.239-2.881v-1.174H458.4v1.174Zm0,2.1v-1.25H458.4v1.25Zm-6.643,6.654V125.59h-4.718v1.424Zm0,2.272V127.84h-4.718v1.446Zm6.219-2.272V125.59h-4.991v1.424Zm0,2.272V127.84h-4.991v1.446Z"/>
        <path id="パス_2216" data-name="パス 2216" d="M485.387,117.338a.481.481,0,0,1-.174.315,1.882,1.882,0,0,0-.4.674,48.677,48.677,0,0,1-2.4,4.555,13.7,13.7,0,0,1,2.1,3.077A5.059,5.059,0,0,1,484.92,128q0,2.979-3.251,3.1c-.094.007-.167.01-.217.01-.123,0-.2-.028-.24-.086a1.227,1.227,0,0,1-.1-.327,1.855,1.855,0,0,0-.424-.913c.188.015.376.022.565.022q2.37,0,2.37-1.8a4.384,4.384,0,0,0-.576-2.066,19.375,19.375,0,0,0-2.022-2.913,40.416,40.416,0,0,0,2.565-5.349h-3.5v13l.043,4.566a.154.154,0,0,1-.174.174h-1.033a.154.154,0,0,1-.174-.174l.044-4.566v-9.524l-.044-4.555a.154.154,0,0,1,.174-.174l1.762.043h2.968a1.461,1.461,0,0,0,.532-.065.434.434,0,0,1,.2-.044c.138,0,.337.135.6.4S485.387,117.222,485.387,117.338Zm12.34,16.862a3.685,3.685,0,0,0-.7.87q-.185.315-.261.315a.681.681,0,0,1-.337-.152,14.2,14.2,0,0,1-6.523-9.828h-2.25v7.436a28.657,28.657,0,0,0,4.033-1.359,4.537,4.537,0,0,0-.12.87.948.948,0,0,1-.075.456.818.818,0,0,1-.349.142q-2.629.935-5.99,1.783a2.652,2.652,0,0,0-.837.293.575.575,0,0,1-.294.131c-.087,0-.152-.065-.2-.2a7.163,7.163,0,0,1-.381-1.272,17.363,17.363,0,0,0,1.914-.315l.978-.2V120.6l-.043-3.957a.153.153,0,0,1,.174-.174l2.8.043h3.566l2.588-.043a.154.154,0,0,1,.174.174l-.044,2.4v3.827l.044,2.4a.154.154,0,0,1-.174.174l-2.588-.043h-1.717a14.934,14.934,0,0,0,1.315,3.718,23.035,23.035,0,0,0,2.631-2.185,3.554,3.554,0,0,0,.642-.848,5.3,5.3,0,0,1,.946.848.608.608,0,0,1,.151.271c0,.1-.09.174-.271.24a5.72,5.72,0,0,0-1.065.782,28.1,28.1,0,0,1-2.436,1.914A12.417,12.417,0,0,0,497.727,134.2Zm-3.479-13.862v-2.674H487.66v2.674Zm0,3.958v-2.827H487.66V124.3Z"/>
        <path id="パス_2217" data-name="パス 2217" d="M520.089,133.211a4.059,4.059,0,0,0-.315.935.835.835,0,0,1-.152.413.683.683,0,0,1-.38.076q-1.425.044-2.1.043-6.48-.01-8.9-1.228a5.251,5.251,0,0,1-1.848-1.522,10.183,10.183,0,0,1-.935-1.544,11.58,11.58,0,0,1-3.272,4.479,1.033,1.033,0,0,1-.316.218c-.051,0-.152-.091-.3-.272a2.149,2.149,0,0,0-.761-.6,10.633,10.633,0,0,0,4.294-7.752,7.243,7.243,0,0,0,.076-.946c0-.094,0-.192-.01-.293.383.051.815.13,1.293.239.225.058.337.141.337.25a.965.965,0,0,1-.152.348,1.176,1.176,0,0,0-.228.554,20.206,20.206,0,0,1-.49,2.273,7.394,7.394,0,0,0,1.6,2.533,5.932,5.932,0,0,0,2.5,1.3v-9.436h-2.4l-3.056.043q-.2,0-.2-.174v-.946c0-.115.065-.174.2-.174l3.056.044h6.186l3.054-.044a.154.154,0,0,1,.175.174v.946a.154.154,0,0,1-.175.174l-3.054-.043h-2.447v3.729h3.316l2.185-.044a.154.154,0,0,1,.175.174v.946a.154.154,0,0,1-.175.174l-2.185-.043h-3.316v4.805a33.855,33.855,0,0,0,5.034.293Q517.893,133.319,520.089,133.211Zm-.4-10.959a.164.164,0,0,1-.185.185H518.48c-.116,0-.173-.062-.173-.185v-3.066H503.119v3.066a.164.164,0,0,1-.185.185h-1.022c-.116,0-.174-.062-.174-.185l.043-2.283v-.7l-.043-1.185c0-.1.058-.152.174-.152l3.076.043h4.806v-.315a11.316,11.316,0,0,0-.152-2.272,14.265,14.265,0,0,1,1.445.119c.182.022.272.08.272.174a1.3,1.3,0,0,1-.141.4,7.268,7.268,0,0,0-.087,1.576v.315h5.284l3.087-.043c.123,0,.185.051.185.152l-.043,1.033v.848Z"/>
        <path id="パス_2218" data-name="パス 2218" d="M529.406,131.852v2.381h-2.425v-2.381Zm-.022-15.232-.511,12.688h-1.424l-.424-12.688Z"/>
        <path id="パス_2219" data-name="パス 2219" d="M538.483,127.079q.348.174.978.544.12.054.12.141a.25.25,0,0,1-.055.141,3.45,3.45,0,0,0-.6,1.74q0,2.718,5.7,2.718a27.88,27.88,0,0,0,6.393-.642.621.621,0,0,1,.13-.021c.087,0,.145.058.175.173a8.437,8.437,0,0,1,.206,1.153v.054c0,.116-.1.2-.294.239a34.03,34.03,0,0,1-6.74.577q-6.926,0-6.925-4.186A4.731,4.731,0,0,1,538.483,127.079Zm.62-8.3a26.575,26.575,0,0,0,5.566.5q2.61,0,4.925-.2h.076a.218.218,0,0,1,.239.207,6.727,6.727,0,0,1,.066,1,.309.309,0,0,1-.316.337,14.346,14.346,0,0,0-5.762,2.533.579.579,0,0,1-.348.131.5.5,0,0,1-.282-.087,2.546,2.546,0,0,0-.914-.446,29.456,29.456,0,0,1,3.838-2.229q-.99.087-2.414.087a21.95,21.95,0,0,1-4.522-.4c-.13-.022-.2-.123-.2-.305Q539.059,119.535,539.1,118.784Zm10.491-1.762.8-.587a.22.22,0,0,1,.12-.043.2.2,0,0,1,.12.054,9.59,9.59,0,0,1,2.511,2.686.172.172,0,0,1,.043.108.187.187,0,0,1-.076.142l-.652.532a.2.2,0,0,1-.131.055.194.194,0,0,1-.163-.1A9.138,9.138,0,0,0,549.594,117.022Zm1.957-1.5.718-.554a.247.247,0,0,1,.141-.055.17.17,0,0,1,.1.044,11.768,11.768,0,0,1,2.544,2.6.22.22,0,0,1,.032.109.2.2,0,0,1-.1.152l-.609.544a.166.166,0,0,1-.119.054c-.051,0-.1-.036-.141-.109A9.972,9.972,0,0,0,551.551,115.522Z"/>
        <path id="パス_2220" data-name="パス 2220" d="M577.578,124.633c0,.123-.091.235-.272.337a3.18,3.18,0,0,0-.794.739,18.874,18.874,0,0,1-2.881,2.762c-.152.13-.257.2-.316.2a1.379,1.379,0,0,1-.369-.25,4.441,4.441,0,0,0-.967-.532,13.673,13.673,0,0,0,3.163-2.762h-6.186V130l.022,3.044a1.972,1.972,0,0,1-.577,1.63,5.364,5.364,0,0,1-2.717.424h-.468c-.246,0-.391-.025-.435-.076a1.011,1.011,0,0,1-.141-.391,4.561,4.561,0,0,0-.446-1.1,22.49,22.49,0,0,0,2.316.141,1.179,1.179,0,0,0,.815-.206.931.931,0,0,0,.185-.664v-7.686h-5.632l-2.967.044a.154.154,0,0,1-.175-.174v-1.077a.154.154,0,0,1,.175-.174l2.967.044h6.991a23.529,23.529,0,0,0-4.7-3.381c-.079-.044-.119-.076-.119-.1a.93.93,0,0,1,.163-.239l.446-.511c.079-.087.141-.131.185-.131a.239.239,0,0,1,.119.054,25.39,25.39,0,0,1,2.838,1.751,28.552,28.552,0,0,0,4.914-3.294h-8.752l-3.131.043c-.109,0-.163-.058-.163-.174v-1.033c0-.115.054-.173.163-.173l3.131.043h9.328a1.672,1.672,0,0,0,.543-.065,1.963,1.963,0,0,1,.305-.109c.137,0,.37.163.7.489s.489.573.489.74q0,.185-.315.3a2.558,2.558,0,0,0-.772.467,30.243,30.243,0,0,1-5.349,3.556q.4.325,1.337,1.163c.051.043.076.076.076.1a1.1,1.1,0,0,1-.2.206l-.3.294h5.784a1.258,1.258,0,0,0,.565-.087.668.668,0,0,1,.261-.087,1.7,1.7,0,0,1,.718.424Q577.578,124.426,577.578,124.633Z"/>
        <path id="パス_2221" data-name="パス 2221" d="M590.188,126.709a.447.447,0,0,1,.033.142c0,.08-.1.148-.283.206l-.511.163a.933.933,0,0,1-.218.044c-.065,0-.108-.047-.13-.142q-.325-1-.424-1.282l-2.142.217v5.969l.044,3.25q0,.153-.174.153h-1.011q-.174,0-.174-.153l.043-3.25v-5.86l-2.446.185a2.43,2.43,0,0,0-.848.174.663.663,0,0,1-.25.086c-.094,0-.167-.094-.218-.282q-.087-.338-.228-1.229.707.066,1.4.066h.272q.793-1.034,1.674-2.316a31.256,31.256,0,0,0-3.284-3.425.232.232,0,0,1-.1-.152c0-.044.057-.127.174-.25l.38-.468c.094-.108.163-.163.206-.163s.084.033.142.1l.848.826q.827-1.283,1.468-2.522a5.713,5.713,0,0,0,.587-1.511q.6.24,1.239.554c.167.08.25.178.25.294,0,.08-.065.16-.2.239a1.307,1.307,0,0,0-.38.468q-1.175,1.946-2.142,3.316.762.761,1.49,1.63.825-1.326,1.445-2.381a10.254,10.254,0,0,0,.892-1.891,9.186,9.186,0,0,1,1.229.619.334.334,0,0,1,.2.272c0,.094-.072.189-.217.283a4.175,4.175,0,0,0-.783.978q-1.838,2.936-3.718,5.436,2.152-.118,3.925-.261a17.321,17.321,0,0,0-.87-1.717.272.272,0,0,1-.044-.12c0-.058.087-.123.262-.2l.4-.152a.6.6,0,0,1,.239-.076c.058,0,.112.04.163.12A22.4,22.4,0,0,1,590.188,126.709Zm-6.262,1.533a1.032,1.032,0,0,1-.109.261,2.059,2.059,0,0,0-.163.653,18.7,18.7,0,0,1-1.087,4.337c-.058.211-.124.316-.2.316a.836.836,0,0,1-.337-.174,1.75,1.75,0,0,0-.761-.337,17.052,17.052,0,0,0,1.207-4.393,4.667,4.667,0,0,0,.054-.695c0-.094,0-.218-.011-.37a9.162,9.162,0,0,1,1.087.174C583.821,128.057,583.926,128.134,583.926,128.242Zm6.208,3.936a.37.37,0,0,1,.011.087c0,.109-.091.192-.272.25l-.533.152a.977.977,0,0,1-.25.054c-.058,0-.1-.054-.131-.163a23.383,23.383,0,0,0-1.163-4.272.406.406,0,0,1-.032-.131c0-.079.087-.141.26-.185l.468-.13a.886.886,0,0,1,.185-.033c.072,0,.137.055.2.163A21.9,21.9,0,0,1,590.134,132.178Zm10.089-12.753q-.044.565-.044,1.7a73.135,73.135,0,0,1-.717,10.8,5.51,5.51,0,0,1-.968,2.6,2.285,2.285,0,0,1-1.815.761,17.384,17.384,0,0,1-2.066-.108.726.726,0,0,1-.424-.12,1.227,1.227,0,0,1-.13-.413,3.4,3.4,0,0,0-.359-1,19.305,19.305,0,0,0,2.891.3,1.207,1.207,0,0,0,1.1-.8,6.8,6.8,0,0,0,.468-1.707,70.5,70.5,0,0,0,.62-10.927h-6.5a17.751,17.751,0,0,1-1.87,2.892c-.123.167-.228.25-.315.25s-.181-.076-.326-.228a2.753,2.753,0,0,0-.718-.533,15.911,15.911,0,0,0,3.229-5.675,8.87,8.87,0,0,0,.424-1.967,9.549,9.549,0,0,1,1.381.358c.21.073.316.163.316.272a.623.623,0,0,1-.2.391,2.767,2.767,0,0,0-.566,1.077q-.228.717-.76,1.935h4.751l2.4-.044A.173.173,0,0,1,600.223,119.425Zm-4.61,8.839a.351.351,0,0,1,.054.141c0,.058-.076.131-.228.218l-.62.348a.853.853,0,0,1-.293.141c-.044,0-.087-.043-.13-.13a18.45,18.45,0,0,0-2.7-4.262.207.207,0,0,1-.076-.131c0-.05.076-.123.229-.217l.554-.337a.451.451,0,0,1,.206-.1c.036,0,.08.033.131.1A17.767,17.767,0,0,1,595.613,128.264Z"/>
        <path id="パス_2222" data-name="パス 2222" d="M607.408,116.979a4.649,4.649,0,0,1,1.588.576.421.421,0,0,1,.228.337.509.509,0,0,1-.1.261,4.058,4.058,0,0,0-.359,1.12A43.046,43.046,0,0,0,607.7,127.7a35.773,35.773,0,0,0,.152,3.914q.3-.783,1.565-3.632a3.89,3.89,0,0,0,.5.914.453.453,0,0,1,.1.25.589.589,0,0,1-.077.239,20.005,20.005,0,0,0-1.326,3.511q-.043.424-.044.674a2.228,2.228,0,0,0,.022.327.6.6,0,0,1,.011.108.217.217,0,0,1-.13.185,4.942,4.942,0,0,1-1,.283.288.288,0,0,1-.1.022c-.079,0-.141-.066-.184-.2a18.973,18.973,0,0,1-.848-6.556,55.7,55.7,0,0,1,.956-8.556,10.962,10.962,0,0,0,.142-1.653A4.11,4.11,0,0,0,607.408,116.979Zm10.263,11.981q-.152-3.24-.152-6.2-1.576.087-2.8.087-1.109,0-2.163-.065a.208.208,0,0,1-.239-.2,8.375,8.375,0,0,1-.087-1.185q1.26.087,2.587.087,1.347,0,2.664-.087l.022-2.555a8.809,8.809,0,0,0-.218-1.979,8.233,8.233,0,0,1,1.707.305c.166.072.25.163.25.272a.771.771,0,0,1-.087.315,2.8,2.8,0,0,0-.185,1.065q-.044.772-.044,2.468,1.7-.164,3.512-.5a.5.5,0,0,1,.109-.022q.1,0,.12.174a5.181,5.181,0,0,1,.087.881c0,.152-.051.243-.153.272a28.66,28.66,0,0,1-3.675.532q.033,3.685.207,6.719a16.228,16.228,0,0,1,3.914,2.305.176.176,0,0,1,.087.13.5.5,0,0,1-.044.153,4.126,4.126,0,0,1-.6.978.178.178,0,0,1-.141.1.207.207,0,0,1-.13-.076,14.7,14.7,0,0,0-3.11-2.044q-.141,3-3.729,3a4.108,4.108,0,0,1-2.631-.75,2.159,2.159,0,0,1-.837-1.783,2.309,2.309,0,0,1,1.131-2.034,4.093,4.093,0,0,1,2.294-.619A10.669,10.669,0,0,1,617.671,128.96Zm0,1.348a8.944,8.944,0,0,0-2.424-.37,2.584,2.584,0,0,0-1.566.413,1.21,1.21,0,0,0-.5,1.012,1.083,1.083,0,0,0,.642,1.011,3.244,3.244,0,0,0,1.489.293q2.359,0,2.359-1.935Z"/>
        <path id="パス_2223" data-name="パス 2223" d="M633.815,121.317q.043-1.718.044-2.294a10.283,10.283,0,0,0-.174-2.087,7.268,7.268,0,0,1,1.783.326.361.361,0,0,1,.272.337.691.691,0,0,1-.109.293,2.656,2.656,0,0,0-.272,1.131q-.054.663-.087,2.044a21.463,21.463,0,0,0,3.262-.935.515.515,0,0,1,.152-.033c.08,0,.127.062.141.185a7.64,7.64,0,0,1,.088.946c0,.13-.084.225-.251.283a23.319,23.319,0,0,1-3.468.913q-.033,1.25-.032,2.674,0,.806.01,1.827a14.071,14.071,0,0,1,5.817-1.7,4.393,4.393,0,0,1,3.348,1.272,3.713,3.713,0,0,1,1.012,2.663,3.757,3.757,0,0,1-1.425,3.2,5.229,5.229,0,0,1-3.207.9,5.341,5.341,0,0,1-1.783-.272c-.181-.05-.283-.242-.3-.576a3.264,3.264,0,0,0-.359-1.022,5.667,5.667,0,0,0,2.381.468,3.362,3.362,0,0,0,2.348-.772,2.8,2.8,0,0,0-.108-4.012,3.393,3.393,0,0,0-2.175-.642,13.41,13.41,0,0,0-5.545,1.87q0,1.12.12,3.4c.015.377.043.838.087,1.381.029.377.043.624.043.739,0,.29-.083.461-.25.511a4.284,4.284,0,0,1-.935.153q-.131,0-.315-.207c-.007-.015-.091-.112-.25-.293-.094-.109-.185-.211-.272-.305a18.172,18.172,0,0,0-3.229-2.49q-.184.109-.761.49a.581.581,0,0,1-.315.152c-.1,0-.214-.083-.337-.25a8.007,8.007,0,0,1-.685-1.348,11.5,11.5,0,0,0,2.164-.783q1.129-.543,3.6-1.957-.021-1.587-.022-4.871a35.009,35.009,0,0,1-4.065.24.386.386,0,0,1-.425-.337,6.2,6.2,0,0,1-.141-1.044c.391.022.794.032,1.207.032A29.713,29.713,0,0,0,633.815,121.317Zm.022,7.61q-.217.12-2.848,1.718,2.577,1.489,2.772,1.6a.222.222,0,0,0,.12.044c.065,0,.1-.066.1-.2q-.012-.271-.066-1.587Q633.882,129.6,633.837,128.927Zm7.513-8.262a8.756,8.756,0,0,1,.532-.935c.066-.124.145-.185.24-.185h.065a7.839,7.839,0,0,1,4.414,2.337.272.272,0,0,1,.065.152.229.229,0,0,1-.065.142,6.291,6.291,0,0,1-.718.913.169.169,0,0,1-.282,0A8,8,0,0,0,641.35,120.665Z"/>
        <path id="パス_2224" data-name="パス 2224" d="M670.268,129.6c0,.116-.051.174-.152.174l-2.9-.043h-6.252v2.207l.044,3.316a.154.154,0,0,1-.174.174h-1.12a.153.153,0,0,1-.173-.174l.043-3.316v-2.207h-5.828l-2.88.043a.153.153,0,0,1-.174-.174v-.946c0-.13.057-.195.174-.195l2.88.043h5.828v-2.816h-2.827l-3.164.044a.153.153,0,0,1-.173-.174l.043-2.348v-4.143l-.043-2.315a.153.153,0,0,1,.173-.174l3.164.043h7.436l3.186-.043a.154.154,0,0,1,.174.174l-.044,2.315v4.143l.044,2.348a.154.154,0,0,1-.174.174l-3.186-.044h-3.229V128.5h6.252l2.9-.043c.1,0,.152.065.152.195Zm-4.121-9.089v-2.685H654.8v2.685Zm0,3.969V121.7H654.8v2.784Z"/>
        <path id="パス_2225" data-name="パス 2225" d="M684.412,120.871a17.982,17.982,0,0,0,.76-2.533,5.328,5.328,0,0,0,.142-1.142,4.085,4.085,0,0,0-.033-.511,6.846,6.846,0,0,1,1.718.674.374.374,0,0,1,.217.316.5.5,0,0,1-.13.3,2.971,2.971,0,0,0-.446.87l-.359.935q-.218.587-.424,1.109a6.742,6.742,0,0,1,4.773,2.055,5.738,5.738,0,0,1,1.468,4.022,5.967,5.967,0,0,1-2.25,4.827,10.83,10.83,0,0,1-4.545,2.077,1.057,1.057,0,0,1-.2.022.481.481,0,0,1-.38-.25,2.765,2.765,0,0,0-.935-.816,10.18,10.18,0,0,0,5.131-2.218,5.04,5.04,0,0,0,.413-7.066,5.113,5.113,0,0,0-3.848-1.512,39.093,39.093,0,0,1-3.457,6.784,13.3,13.3,0,0,0,1.25,1.533,3.844,3.844,0,0,1-.739.751.309.309,0,0,1-.185.065.342.342,0,0,1-.239-.12q-.544-.586-.957-1.13-2.1,2.467-3.849,2.467a2.033,2.033,0,0,1-1.685-.869,3.807,3.807,0,0,1-.652-2.338q0-3.25,3.185-5.99-.261-1.011-.717-3a10.2,10.2,0,0,0-.642-2.076,6.725,6.725,0,0,1,1.609.228.344.344,0,0,1,.272.348.936.936,0,0,1-.011.119,1.205,1.205,0,0,0-.011.164,6.824,6.824,0,0,0,.1.88q.272,1.479.554,2.609A11.558,11.558,0,0,1,684.412,120.871Zm-5.893,3.61a7.443,7.443,0,0,0-1.685,2.359,5.388,5.388,0,0,0-.522,2.229,2.482,2.482,0,0,0,.359,1.424.885.885,0,0,0,.728.424q1.326,0,2.99-2.164A21.526,21.526,0,0,1,678.519,124.481Zm1.087-.848a19.825,19.825,0,0,0,1.674,4.011,31.64,31.64,0,0,0,2.707-5.566A9.508,9.508,0,0,0,679.606,123.633Z"/>
        <path id="パス_2226" data-name="パス 2226" d="M699.881,117.338a6.743,6.743,0,0,1,1.457.6c.21.123.315.243.315.358a.693.693,0,0,1-.152.381,3.4,3.4,0,0,0-.446,1.174,33.934,33.934,0,0,0-1.043,7.687,18.022,18.022,0,0,0,.337,3.827q.164-.381.826-1.892.467-1.021.815-1.87a10.038,10.038,0,0,0,.533.891.3.3,0,0,1,.12.218.927.927,0,0,1-.109.359q-.946,2.174-1.435,3.533a1.312,1.312,0,0,0-.087.554l.043.49a.185.185,0,0,1-.152.206,5.649,5.649,0,0,1-1,.218c-.116,0-.2-.073-.25-.218a13.937,13.937,0,0,1-.772-3.207,24.1,24.1,0,0,1-.229-3.251,41,41,0,0,1,.914-7.588A14.734,14.734,0,0,0,699.881,117.338Zm4.871,11.285,1.206-.087a.049.049,0,0,1,.033-.011q.12,0,.12.228.1,2.446,4.055,2.446a34.538,34.538,0,0,0,4.381-.3.751.751,0,0,1,.087-.011c.1,0,.149.076.163.228q.066.795.066,1.044c0,.109-.015.174-.044.2a.55.55,0,0,1-.25.076,35.3,35.3,0,0,1-3.979.239,11,11,0,0,1-3.174-.359,3.767,3.767,0,0,1-1.729-1.043A3.679,3.679,0,0,1,704.752,128.623Zm.783-7.154q0-.957.021-1.218a.294.294,0,0,1,.261-.315,30.226,30.226,0,0,1,4.719-.4q2.163,0,3.163.109c.225.021.337.1.337.228q0,.707-.021,1.044c0,.137-.055.206-.163.206h-.087q-1.077-.119-3.578-.119A27.572,27.572,0,0,0,705.535,121.469Z"/>
        <path id="パス_2227" data-name="パス 2227" d="M724.538,131.852v2.381h-2.425v-2.381Zm-.022-15.232-.511,12.688h-1.424l-.424-12.688Z"/>
      </g>
    </g>
  </g>
</svg>
