<svg xmlns="http://www.w3.org/2000/svg" viewBox="0 0 320 92"><defs><style>.cls-1{fill:#eff0e5;}.cls-2{fill:#006b81;}</style></defs><g id="レイヤー_2" data-name="レイヤー 2"><g id="レイヤー_2-2" data-name="レイヤー 2"><rect class="cls-1" width="320" height="92"/><path class="cls-2" d="M313.17,6.83V85.17H6.83V6.83H313.17m1.71-1.71H5.12V86.88H314.88V5.12Z"/><path class="cls-2" d="M310.61,9.39V82.61H9.39V9.39H310.61m.86-.86H8.53V83.47H311.47V8.53Z"/><path class="cls-2" d="M101.56,65.61v-37a2.71,2.71,0,0,0-1.18-2.4,1.54,1.54,0,0,1-.82-1.29V23.55c0-.48.27-.72.82-.72h11.28l3.55,22.78,3.51-22.78h11.41a.59.59,0,0,1,.68.66v1.43a1.6,1.6,0,0,1-.81,1.29,2.77,2.77,0,0,0-1.19,2.4v37A2.75,2.75,0,0,0,130,68.05a1.51,1.51,0,0,1,.78,1.25v1.41c0,.47-.27.71-.81.71h-9.4a.58.58,0,0,1-.66-.65V69.3a1.56,1.56,0,0,1,.78-1.25,2.81,2.81,0,0,0,1.21-2.44V27.72l-6.74,43.7H112.7L106,27.72V65.61a2.78,2.78,0,0,0,1.18,2.44A1.5,1.5,0,0,1,108,69.3v1.4q0,.72-.81.72h-7c-.46,0-.69-.21-.69-.65V69.3a1.54,1.54,0,0,1,.82-1.25A2.81,2.81,0,0,0,101.56,65.61Z"/><path class="cls-2" d="M158.94,71.42h-21.4a.66.66,0,0,1-.75-.75V69.3c0-.44.34-.92,1-1.44a2.71,2.71,0,0,0,.9-2.25v-37a2.8,2.8,0,0,0-1.15-2.44,1.51,1.51,0,0,1-.78-1.25v-1.5c0-.39.25-.59.75-.59H153.6q.43,0,1.65-.09c.73-.07,1.19-.1,1.38-.1.69,0,1,.19,1,.57v9.18a1.54,1.54,0,0,1-.14.86c-.09.1-.36.14-.8.14h-1.15c-.5,0-.78-.29-.85-.87a13.14,13.14,0,0,0-1.23-4.17c-.59-1.16-1.79-1.74-3.58-1.74H146V44.3h1.44a2.5,2.5,0,0,0,1.84-.52,9.57,9.57,0,0,0,1.25-3.23,4.16,4.16,0,0,1,.35-1,1,1,0,0,1,.56-.09h1.38q.81,0,.81.78V52.05a.66.66,0,0,1-.75.75h-1.44a.81.81,0,0,1-.66-.24,5.44,5.44,0,0,1-.5-1.45,5.25,5.25,0,0,0-1.21-2.7,3,3,0,0,0-1.82-.49H146V67.71h4.22a4,4,0,0,0,3.25-1.11q.92-1.11,2.25-6.08c.21-.75.59-1.13,1.13-1.13h1.34a.69.69,0,0,1,.78.78Z"/><path class="cls-2" d="M183.17,49.14V28.62A2.75,2.75,0,0,0,182,26.21a1.52,1.52,0,0,1-.81-1.28V23.55q0-.72.81-.72h7.07a.59.59,0,0,1,.68.66v1.43a1.61,1.61,0,0,1-.78,1.29,2.75,2.75,0,0,0-1.22,2.4v42c0,.67-.3,1-.9,1h-1.38a1.34,1.34,0,0,1-1.32-1l-13-34.06v29a2.75,2.75,0,0,0,1.2,2.44,1.51,1.51,0,0,1,.8,1.25v1.41c0,.47-.27.71-.81.71h-7c-.45,0-.68-.21-.68-.65V69.3a1.55,1.55,0,0,1,.81-1.25,2.79,2.79,0,0,0,1.19-2.44v-37a2.7,2.7,0,0,0-1.19-2.4,1.55,1.55,0,0,1-.81-1.29V23.55q0-.72.81-.72h6.6a1.94,1.94,0,0,1,1,.17,1.94,1.94,0,0,1,.5.83Z"/><path class="cls-2" d="M197.88,71.42h-1.57q-.78,0-.78-.84V58.8c0-.79.28-1.19.85-1.19h1.34a.69.69,0,0,1,.7.36,13.56,13.56,0,0,1,.49,2.49q1.28,8.17,5.84,8.18a4.25,4.25,0,0,0,3.74-2.06,8.92,8.92,0,0,0,1.36-5A11.27,11.27,0,0,0,208.39,56a39.92,39.92,0,0,0-5.61-7,57.87,57.87,0,0,1-4.57-5.24,16.09,16.09,0,0,1-2.19-4.2,15.18,15.18,0,0,1-.83-5.16,13.45,13.45,0,0,1,2.61-8.53,7.82,7.82,0,0,1,6.36-3.34,8.4,8.4,0,0,1,3.69,1,3.26,3.26,0,0,0,1.18.44,1.24,1.24,0,0,0,.69-.25,1.79,1.79,0,0,1,.94-.23h1.15c.61,0,.91.29.91.85V34.61q0,.78-.69.78H210.6a.81.81,0,0,1-.74-.29,14.1,14.1,0,0,1-.61-2.27q-1.47-6.78-4.78-6.78a3.36,3.36,0,0,0-2.86,1.5A5.79,5.79,0,0,0,200.53,31a10,10,0,0,0,1.27,4.67,30.58,30.58,0,0,0,5,6.27,36.87,36.87,0,0,1,6.7,8.73,18.18,18.18,0,0,1,1.86,8.17,14.57,14.57,0,0,1-3.11,9.66,9.36,9.36,0,0,1-7.39,3.72,12.57,12.57,0,0,1-4.47-1,3.58,3.58,0,0,0-1.16-.35,1.66,1.66,0,0,0-.81.32A1.27,1.27,0,0,1,197.88,71.42Z"/></g></g></svg>