<svg id="グループ_343" data-name="グループ 343" xmlns="http://www.w3.org/2000/svg" xmlns:xlink="http://www.w3.org/1999/xlink" width="375" height="108" viewBox="0 0 375 108">
  <defs>
    <clipPath id="clip-path">
      <rect id="長方形_28" data-name="長方形 28" width="375" height="108" fill="none"/>
    </clipPath>
  </defs>
  <rect id="長方形_26" data-name="長方形 26" width="375" height="108" fill="#d65323"/>
  <path id="パス_314" data-name="パス 314" d="M363.828,96.828H11.172V11.172H363.828ZM365,10H10V98H365Z" fill="#fffffe"/>
  <path id="パス_315" data-name="パス 315" d="M103.044,81.45V30.192h9.365v44.8h12.4V81.45Z" fill="#fff"/>
  <path id="パス_316" data-name="パス 316" d="M131.988,81.45l10.251-51.258h10L162.489,81.45H153.82l-2.025-11.834h-8.923L140.783,81.45Zm11.833-17.782h6.961L147.3,42.152Z" fill="#fff"/>
  <g id="グループ_62" data-name="グループ 62">
    <g id="グループ_61" data-name="グループ 61" clip-path="url(#clip-path)">
      <path id="パス_317" data-name="パス 317" d="M170.83,81.45V30.192h12.086q6.266,0,9.777,1.709a9.966,9.966,0,0,1,5,5.252,23.41,23.41,0,0,1,1.486,8.986V64.87a25.059,25.059,0,0,1-1.486,9.271,10.367,10.367,0,0,1-4.936,5.505q-3.45,1.8-9.461,1.8Zm9.365-6.518h2.848q3.228,0,4.619-1.139a5.035,5.035,0,0,0,1.709-3.322,38.129,38.129,0,0,0,.316-5.348V45.506a22.8,22.8,0,0,0-.443-5,4.278,4.278,0,0,0-1.835-2.784,8.659,8.659,0,0,0-4.493-.886H180.2Z" fill="#fff"/>
      <rect id="長方形_27" data-name="長方形 27" width="9.239" height="51.258" transform="translate(208.5 30.192)" fill="#fff"/>
      <path id="パス_318" data-name="パス 318" d="M227.408,81.45V30.192h21.516v6.581H236.773V51.518h9.556v6.518h-9.556V74.995H249.05V81.45Z" fill="#fff"/>
      <path id="パス_319" data-name="パス 319" d="M270.515,82.146a15.139,15.139,0,0,1-7.72-1.8,11.348,11.348,0,0,1-4.683-5.284,22.681,22.681,0,0,1-1.772-8.542l8.037-1.583a24.8,24.8,0,0,0,.727,5.253A7.6,7.6,0,0,0,266.94,73.7a4.4,4.4,0,0,0,3.259,1.234,3.655,3.655,0,0,0,3.227-1.361,5.883,5.883,0,0,0,.949-3.448,9.327,9.327,0,0,0-1.519-5.506,23.75,23.75,0,0,0-4.049-4.3l-6.455-5.695a19.379,19.379,0,0,1-4.335-5.221,14.382,14.382,0,0,1-1.614-7.119q0-6.075,3.544-9.366t9.682-3.29a14.377,14.377,0,0,1,6.012,1.107,9.57,9.57,0,0,1,3.828,3.069,13.87,13.87,0,0,1,2.12,4.461,26.386,26.386,0,0,1,.886,5.284L274.5,44.937a27.309,27.309,0,0,0-.538-4.3,6,6,0,0,0-1.456-2.974,4.088,4.088,0,0,0-3.069-1.076,3.88,3.88,0,0,0-3.2,1.361,5.188,5.188,0,0,0-1.108,3.386,7.765,7.765,0,0,0,1.076,4.271,16.686,16.686,0,0,0,3.1,3.449l6.391,5.632a26.508,26.508,0,0,1,5.411,6.233,15.918,15.918,0,0,1,2.246,8.638,12.985,12.985,0,0,1-1.614,6.518,11.551,11.551,0,0,1-4.493,4.461,13.558,13.558,0,0,1-6.739,1.614" fill="#fff"/>
    </g>
  </g>
</svg>
