<svg xmlns="http://www.w3.org/2000/svg" viewBox="0 0 320 92"><defs><style>.cls-1{fill:#eff0e5;}.cls-2{fill:#932f21;}</style></defs><g id="レイヤー_2" data-name="レイヤー 2"><g id="レイヤー_2-2" data-name="レイヤー 2"><rect class="cls-1" width="320" height="92"/><path class="cls-2" d="M313.17,6.83V85.17H6.83V6.83H313.17m1.71-1.71H5.12V86.88H314.88V5.12Z"/><path class="cls-2" d="M310.61,9.39V82.61H9.39V9.39H310.61m.86-.86H8.53V83.47H311.47V8.53Z"/><path class="cls-2" d="M82.92,65.61v-37a2.72,2.72,0,0,0-1.19-2.4,1.55,1.55,0,0,1-.81-1.29V23.55q0-.72.81-.72h9.75q.69,0,.69.66v1.43a1.6,1.6,0,0,1-.81,1.29,2.77,2.77,0,0,0-1.19,2.4v39.1h2.66a4.64,4.64,0,0,0,3.64-1.46,10.34,10.34,0,0,0,1.92-5,9.88,9.88,0,0,1,.36-1.55c.07-.13.25-.2.55-.2h1.46c.57,0,.85.23.85.69V71.42H81.7c-.69,0-1-.31-1-.93V69.3a1.49,1.49,0,0,1,.91-1.25A2.68,2.68,0,0,0,82.92,65.61Z"/><path class="cls-2" d="M116.82,29l-.3-2.12c-.09-.69-.14-1.07-.14-1.16s.15-.38.47-.53l5.29-2.46a.53.53,0,0,1,.28-.07c.29,0,.48.19.57.56l8.46,42.38a5,5,0,0,0,.55,1.66,4,4,0,0,0,1.27,1.06,1.21,1.21,0,0,1,.72,1v1.37q0,.75-.6.75H123q-.84,0-.84-.75V69.3c0-.48.34-.89,1-1.22a2,2,0,0,0,1.22-1.78,5,5,0,0,0-.06-.72L123,59.05h-8.16l-1.31,6.28a3.08,3.08,0,0,0-.09.6c0,.62.46,1.31,1.39,2.06.6.5.9.94.9,1.31v1.37q0,.75-.9.75h-6.53c-.73,0-1.1-.25-1.1-.75V69.05a1.2,1.2,0,0,1,.69-1.06,3.9,3.9,0,0,0,1.69-2.66ZM119,39l-3.27,16h6.47Z"/><path class="cls-2" d="M139.74,24.92V23.3c0-.31.24-.47.72-.47h8.13a14.58,14.58,0,0,1,11.59,5.61q4.73,5.61,4.72,18.2a52.82,52.82,0,0,1-1.42,12.42,19.33,19.33,0,0,1-4.56,9.15q-3.15,3.21-10.58,3.21h-8c-.38,0-.57-.17-.57-.53V69.3a1.55,1.55,0,0,1,.79-1.25,2.88,2.88,0,0,0,1.15-2.44v-37a2.61,2.61,0,0,0-1-2.31A1.81,1.81,0,0,1,139.74,24.92Zm9.16,1.63V67.8a7.12,7.12,0,0,0,4.84-1.5q1.72-1.5,2.5-6.56A75.75,75.75,0,0,0,157,48.11a82.68,82.68,0,0,0-.6-11.25A26.54,26.54,0,0,0,155,30.6a6.49,6.49,0,0,0-2.21-3A8,8,0,0,0,148.9,26.55Z"/><path class="cls-2" d="M179.79,65.61A2.77,2.77,0,0,0,181,68.05a1.5,1.5,0,0,1,.81,1.25v1.41c0,.47-.27.71-.81.71h-9.75c-.46,0-.69-.21-.69-.65V69.3a1.55,1.55,0,0,1,.81-1.25,2.82,2.82,0,0,0,1.19-2.44v-37a2.72,2.72,0,0,0-1.19-2.4,1.55,1.55,0,0,1-.81-1.29V23.55q0-.72.81-.72h9.75q.69,0,.69.66v1.43a1.6,1.6,0,0,1-.81,1.29,2.77,2.77,0,0,0-1.19,2.4Z"/><path class="cls-2" d="M209.93,71.42h-21.4a.66.66,0,0,1-.75-.75V69.3c0-.44.34-.92,1-1.44a2.71,2.71,0,0,0,.9-2.25v-37a2.8,2.8,0,0,0-1.15-2.44,1.51,1.51,0,0,1-.78-1.25v-1.5c0-.39.25-.59.75-.59h16.06q.43,0,1.65-.09c.73-.07,1.19-.1,1.38-.1.69,0,1,.19,1,.57v9.18a1.54,1.54,0,0,1-.14.86c-.09.1-.36.14-.8.14h-1.15c-.5,0-.78-.29-.85-.87a13.14,13.14,0,0,0-1.23-4.17c-.59-1.16-1.79-1.74-3.58-1.74H197V44.3h1.44a2.5,2.5,0,0,0,1.84-.52,9.57,9.57,0,0,0,1.25-3.23,4.16,4.16,0,0,1,.35-1,1,1,0,0,1,.56-.09h1.38q.81,0,.81.78V52.05a.66.66,0,0,1-.75.75H202.4a.81.81,0,0,1-.66-.24,5.44,5.44,0,0,1-.5-1.45,5.25,5.25,0,0,0-1.21-2.7,3,3,0,0,0-1.82-.49H197V67.71h4.22a4,4,0,0,0,3.25-1.11q.91-1.11,2.25-6.08c.21-.75.59-1.13,1.13-1.13h1.34a.69.69,0,0,1,.78.78Z"/><path class="cls-2" d="M218.43,71.42h-1.56q-.78,0-.78-.84V58.8c0-.79.28-1.19.84-1.19h1.34A.71.71,0,0,1,219,58a15.08,15.08,0,0,1,.48,2.49c.86,5.45,2.8,8.18,5.85,8.18A4.24,4.24,0,0,0,229,66.58a8.84,8.84,0,0,0,1.36-5A11.26,11.26,0,0,0,229,56a39.92,39.92,0,0,0-5.61-7,58.35,58.35,0,0,1-4.58-5.24,16.09,16.09,0,0,1-2.19-4.2,15.43,15.43,0,0,1-.83-5.16,13.45,13.45,0,0,1,2.61-8.53,7.82,7.82,0,0,1,6.36-3.34,8.33,8.33,0,0,1,3.69,1,3.29,3.29,0,0,0,1.19.44,1.24,1.24,0,0,0,.68-.25,1.82,1.82,0,0,1,.94-.23h1.16c.6,0,.9.29.9.85V34.61c0,.52-.23.78-.68.78h-1.44c-.38,0-.62-.1-.73-.29a13,13,0,0,1-.61-2.27q-1.47-6.78-4.79-6.78a3.34,3.34,0,0,0-2.85,1.5A5.79,5.79,0,0,0,221.09,31a10,10,0,0,0,1.26,4.67A31.29,31.29,0,0,0,227.4,42a36.61,36.61,0,0,1,6.7,8.73A18.18,18.18,0,0,1,236,58.86a14.52,14.52,0,0,1-3.11,9.66,9.35,9.35,0,0,1-7.39,3.72,12.57,12.57,0,0,1-4.47-1,3.55,3.55,0,0,0-1.15-.35,1.72,1.72,0,0,0-.82.32A1.23,1.23,0,0,1,218.43,71.42Z"/></g></g></svg>