<svg width="375" height="108" viewBox="0 0 375 108" fill="none" xmlns="http://www.w3.org/2000/svg">
<path d="M375 0H0V108H375V0Z" fill="#2E4358"/>
<path d="M114.39 81.45L115.28 30.19H124.96L132.24 65.69L139.83 30.19H149.2L150.15 81.45H143.19L142.43 45.82L135.15 81.45H129.52L122.12 45.7L121.42 81.45H114.4H114.39Z" fill="white"/>
<path d="M159.61 81.45V30.19H181.13V36.77H168.98V51.51H178.54V58.03H168.98V74.99H181.26V81.44H159.62L159.61 81.45Z" fill="white"/>
<path d="M189.57 81.45V30.19H196.09L208.56 59.43V30.19H216.28V81.45H210.08L197.55 50.82V81.45H189.58H189.57Z" fill="white"/>
<path d="M239.46 82.15C236.38 82.15 233.81 81.55 231.74 80.35C229.67 79.15 228.11 77.39 227.06 75.07C226.01 72.75 225.41 69.9 225.29 66.53L233.33 64.95C233.41 66.93 233.66 68.68 234.06 70.2C234.46 71.72 235.07 72.89 235.9 73.71C236.72 74.53 237.81 74.94 239.16 74.94C240.68 74.94 241.75 74.49 242.39 73.58C243.02 72.67 243.34 71.52 243.34 70.13C243.34 67.89 242.83 66.06 241.82 64.62C240.81 63.19 239.46 61.75 237.77 60.32L231.32 54.62C229.51 53.06 228.06 51.32 226.99 49.4C225.91 47.48 225.38 45.11 225.38 42.28C225.38 38.23 226.56 35.11 228.92 32.91C231.28 30.72 234.51 29.62 238.6 29.62C241 29.62 243.01 29.99 244.61 30.73C246.21 31.47 247.49 32.49 248.44 33.8C249.39 35.11 250.1 36.6 250.56 38.26C251.02 39.93 251.32 41.69 251.45 43.54L243.48 44.93C243.4 43.33 243.22 41.89 242.94 40.63C242.67 39.36 242.18 38.37 241.48 37.66C240.78 36.94 239.76 36.58 238.41 36.58C237.06 36.58 235.95 37.03 235.21 37.94C234.47 38.85 234.1 39.98 234.1 41.33C234.1 43.06 234.46 44.48 235.18 45.6C235.9 46.72 236.93 47.87 238.28 49.05L244.67 54.68C246.78 56.45 248.58 58.53 250.08 60.91C251.58 63.29 252.33 66.17 252.33 69.55C252.33 72 251.79 74.17 250.72 76.07C249.65 77.97 248.15 79.46 246.23 80.53C244.31 81.61 242.06 82.14 239.49 82.14L239.46 82.15Z" fill="white"/>
</svg>
