<svg width="375" height="108" viewBox="0 0 375 108" fill="none" xmlns="http://www.w3.org/2000/svg">
<path d="M375 0H0V108H375V0Z" fill="#8B2F5B"/>
<path d="M103.04 81.45V30.19H112.41V74.99H124.81V81.44H103.04V81.45Z" fill="white"/>
<path d="M131.99 81.45L142.24 30.19H152.24L162.49 81.45H153.82L151.8 69.62H142.88L140.79 81.45H131.99ZM143.82 63.67H150.78L147.3 42.15L143.82 63.67Z" fill="white"/>
<path d="M170.83 81.45V30.19H182.92C187.1 30.19 190.36 30.76 192.7 31.9C195.04 33.04 196.71 34.79 197.7 37.15C198.69 39.51 199.19 42.51 199.19 46.14V64.87C199.19 68.58 198.69 71.67 197.7 74.14C196.71 76.61 195.06 78.44 192.76 79.65C190.46 80.85 187.31 81.45 183.3 81.45H170.83ZM180.2 74.93H183.05C185.2 74.93 186.74 74.55 187.67 73.79C188.6 73.03 189.17 71.92 189.38 70.47C189.59 69.01 189.7 67.23 189.7 65.12V45.5C189.7 43.43 189.55 41.77 189.26 40.5C188.96 39.23 188.35 38.31 187.43 37.72C186.5 37.13 185 36.83 182.94 36.83H180.22V74.93H180.2Z" fill="white"/>
<path d="M208.5 81.45V30.19H217.74V81.45H208.5Z" fill="white"/>
<path d="M227.41 81.45V30.19H248.93V36.77H236.78V51.51H246.34V58.03H236.78V74.99H249.06V81.44H227.42L227.41 81.45Z" fill="white"/>
<path d="M270.51 82.15C267.43 82.15 264.86 81.55 262.79 80.35C260.72 79.15 259.16 77.39 258.11 75.07C257.06 72.75 256.46 69.9 256.34 66.53L264.38 64.95C264.46 66.93 264.71 68.68 265.11 70.2C265.51 71.72 266.12 72.89 266.95 73.71C267.77 74.53 268.86 74.94 270.21 74.94C271.73 74.94 272.8 74.49 273.44 73.58C274.07 72.67 274.39 71.52 274.39 70.13C274.39 67.89 273.88 66.06 272.87 64.62C271.86 63.19 270.51 61.75 268.82 60.32L262.37 54.62C260.56 53.06 259.11 51.32 258.04 49.4C256.96 47.48 256.43 45.11 256.43 42.28C256.43 38.23 257.61 35.11 259.97 32.91C262.33 30.72 265.56 29.62 269.65 29.62C272.05 29.62 274.06 29.99 275.66 30.73C277.26 31.47 278.54 32.49 279.49 33.8C280.44 35.11 281.15 36.6 281.61 38.26C282.07 39.93 282.37 41.69 282.5 43.54L274.53 44.93C274.45 43.33 274.27 41.89 273.99 40.63C273.72 39.36 273.23 38.37 272.53 37.66C271.83 36.94 270.81 36.58 269.46 36.58C268.11 36.58 267 37.03 266.26 37.94C265.52 38.85 265.15 39.98 265.15 41.33C265.15 43.06 265.51 44.48 266.23 45.6C266.95 46.72 267.98 47.87 269.33 49.05L275.72 54.68C277.83 56.45 279.63 58.53 281.13 60.91C282.63 63.29 283.38 66.17 283.38 69.55C283.38 72 282.84 74.17 281.77 76.07C280.7 77.97 279.2 79.46 277.28 80.53C275.36 81.61 273.11 82.14 270.54 82.14L270.51 82.15Z" fill="white"/>
</svg>
