<svg xmlns="http://www.w3.org/2000/svg" width="375" height="108" viewBox="0 0 375 108">
  <g id="アートワーク_3" data-name="アートワーク 3" transform="translate(187.5 54)">
    <g id="グループ_354" data-name="グループ 354" transform="translate(-187.5 -54)">
      <g id="グループ_352" data-name="グループ 352">
        <rect id="長方形_99" data-name="長方形 99" width="375" height="108" fill="#003b50"/>
        <path id="パス_2228" data-name="パス 2228" d="M364,11V97H11V11H364m1-1H10V98H365V10Z" fill="#003b50"/>
        <path id="パス_2229" data-name="パス 2229" d="M363.828,11.172V96.828H11.172V11.172H363.828M365,10H10V98H365V10Z" fill="#fffffe"/>
      </g>
      <g id="グループ_353" data-name="グループ 353">
        <path id="パス_2230" data-name="パス 2230" d="M114.386,81.45l.886-51.258h9.682l7.277,35.5,7.594-35.5h9.365l.95,51.258h-6.961l-.76-35.627L135.142,81.45H129.51l-7.4-35.754-.7,35.754Z" fill="#fff"/>
        <path id="パス_2231" data-name="パス 2231" d="M159.613,81.45V30.192h21.516v6.581h-12.15V51.518h9.555v6.518h-9.555V75h12.276V81.45Z" fill="#fff"/>
        <path id="パス_2232" data-name="パス 2232" d="M189.57,81.45V30.192h6.518l12.467,29.236V30.192h7.72V81.45h-6.2l-12.53-30.628V81.45Z" fill="#fff"/>
        <path id="パス_2233" data-name="パス 2233" d="M239.461,82.146a15.139,15.139,0,0,1-7.72-1.8,11.349,11.349,0,0,1-4.683-5.284,22.682,22.682,0,0,1-1.772-8.543l8.037-1.582a24.8,24.8,0,0,0,.727,5.253,7.6,7.6,0,0,0,1.836,3.512,4.4,4.4,0,0,0,3.259,1.234,3.655,3.655,0,0,0,3.227-1.361,5.884,5.884,0,0,0,.949-3.449,9.326,9.326,0,0,0-1.519-5.505,23.724,23.724,0,0,0-4.05-4.3L231.3,54.619a19.379,19.379,0,0,1-4.335-5.221,14.381,14.381,0,0,1-1.614-7.119q0-6.075,3.544-9.366t9.682-3.291a14.38,14.38,0,0,1,6.012,1.108,9.577,9.577,0,0,1,3.828,3.069,13.87,13.87,0,0,1,2.12,4.461,26.375,26.375,0,0,1,.886,5.284l-7.973,1.393a27.308,27.308,0,0,0-.538-4.3,6,6,0,0,0-1.456-2.974,4.088,4.088,0,0,0-3.069-1.076,3.883,3.883,0,0,0-3.2,1.361,5.193,5.193,0,0,0-1.107,3.386,7.765,7.765,0,0,0,1.076,4.271,16.686,16.686,0,0,0,3.1,3.449l6.391,5.632a26.508,26.508,0,0,1,5.411,6.233,15.919,15.919,0,0,1,2.246,8.638,12.988,12.988,0,0,1-1.614,6.518,11.558,11.558,0,0,1-4.493,4.461A13.558,13.558,0,0,1,239.461,82.146Z" fill="#fff"/>
      </g>
    </g>
  </g>
</svg>
