<svg xmlns="http://www.w3.org/2000/svg" width="352.264" height="200.719" viewBox="0 0 352.264 200.719">
  <g id="アートワーク_4" data-name="アートワーク 4" transform="translate(176.132 99.202)">
    <g id="グループ_363" data-name="グループ 363" transform="translate(-176.132 -99.202)">
      <g id="グループ_356" data-name="グループ 356">
        <g id="グループ_355" data-name="グループ 355">
          <path id="パス_2234" data-name="パス 2234" d="M24.68,46.027v7.9L37.02,67.252V80.085L24.68,66.758v39.364H15.671V60.835L0,86.378v-17.4L27.4,24.433H0V15.3H15.671V0H25.05V15.3H43.683ZM40.721,3.455h63.55v9.132H40.721ZM42.2,104.888V55.652h61.082v49.236Zm5.553-86.625H97.484v31.59H47.755ZM68.116,64.537H51.333V75.026H68.116ZM51.333,83.787V96H68.116V83.787Zm37.02-42.7V27.024H56.886V41.091Zm5.8,33.935V64.537H77V75.026ZM77,96H94.152V83.787H77Z" fill="#c1272d"/>
          <path id="パス_2235" data-name="パス 2235" d="M255.8,25.3l-2.221,2.344H240.87L267.03.617h12.587L265.056,15.672V52.691H255.8Zm42.819,19.99v9.625h47.508V63.55H297.879l-.616.37,18.016,15.918,23.445-14.314V76.383l-16.288,9.872,22.335,19.867H331.2L289.242,68.856,271.473,79.715V90.451L290.723,78.6v9.872l-28.382,17.276V85.268L241.857,97.854V87.612L281.1,63.55H241.857V54.912h47.508V45.287Zm13.327-29.245,34.181-4.072v8.884l-26.777,3.209L345.141,52.2H332.554L308,25.42l-37.883,4.566V20.978l30.479-3.7L285.293.617h12.586Zm22.705-4.319H322.559L313.3,1.6H325.4Z" fill="#c1272d"/>
        </g>
      </g>
      <g id="グループ_358" data-name="グループ 358">
        <g id="グループ_357" data-name="グループ 357">
          <path id="パス_2236" data-name="パス 2236" d="M133.866,48.068V44.623L140.9,33.76q.772-1.2,1.459-2.285a12.4,12.4,0,0,0,1.125-2.268,7.334,7.334,0,0,0,.439-2.584,4.378,4.378,0,0,0-.562-2.426,1.965,1.965,0,0,0-1.758-.844,2.376,2.376,0,0,0-1.758.633,3.29,3.29,0,0,0-.861,1.653,10.254,10.254,0,0,0-.229,2.25v1.195h-4.781V27.818a12.068,12.068,0,0,1,.756-4.447,6.252,6.252,0,0,1,2.408-3.006,7.735,7.735,0,0,1,4.324-1.09,7.132,7.132,0,0,1,5.485,1.969,7.756,7.756,0,0,1,1.828,5.484,9.7,9.7,0,0,1-.492,3.182,13.56,13.56,0,0,1-1.3,2.725q-.81,1.3-1.758,2.672l-5.836,8.859h8.649v3.9Z" fill="#c1272d"/>
          <path id="パス_2237" data-name="パス 2237" d="M161.158,48.49a7.473,7.473,0,0,1-4.131-1.055,6.527,6.527,0,0,1-2.461-2.917,10.487,10.487,0,0,1-.826-4.29V27.607a11.212,11.212,0,0,1,.791-4.377,6.308,6.308,0,0,1,2.426-2.935,8.892,8.892,0,0,1,8.4,0,6.314,6.314,0,0,1,2.426,2.935,11.23,11.23,0,0,1,.791,4.377V40.228a10.5,10.5,0,0,1-.826,4.29,6.54,6.54,0,0,1-2.461,2.917A7.475,7.475,0,0,1,161.158,48.49Zm0-4.183a1.936,1.936,0,0,0,1.617-.668,3.644,3.644,0,0,0,.7-1.618,10.221,10.221,0,0,0,.176-1.863V27.678a12.111,12.111,0,0,0-.158-1.951,3.5,3.5,0,0,0-.686-1.635,2.378,2.378,0,0,0-3.3,0,3.5,3.5,0,0,0-.685,1.635,12,12,0,0,0-.158,1.951v12.48a9.3,9.3,0,0,0,.193,1.863,3.769,3.769,0,0,0,.721,1.618A1.893,1.893,0,0,0,161.158,44.307Z" fill="#c1272d"/>
          <path id="パス_2238" data-name="パス 2238" d="M173.6,48.068V44.623l7.031-10.863q.772-1.2,1.459-2.285a12.4,12.4,0,0,0,1.125-2.268,7.334,7.334,0,0,0,.44-2.584A4.369,4.369,0,0,0,183.1,24.2a1.964,1.964,0,0,0-1.758-.844,2.372,2.372,0,0,0-1.757.633,3.3,3.3,0,0,0-.862,1.653,10.257,10.257,0,0,0-.228,2.25v1.195h-4.782V27.818a12.068,12.068,0,0,1,.756-4.447,6.254,6.254,0,0,1,2.409-3.006,7.732,7.732,0,0,1,4.324-1.09,7.131,7.131,0,0,1,5.484,1.969,7.756,7.756,0,0,1,1.828,5.484,9.7,9.7,0,0,1-.492,3.182,13.56,13.56,0,0,1-1.3,2.725q-.809,1.3-1.758,2.672l-5.835,8.859h8.648v3.9Z" fill="#c1272d"/>
          <path id="パス_2239" data-name="パス 2239" d="M200.624,48.49a8.165,8.165,0,0,1-4.307-1,5.753,5.753,0,0,1-2.373-2.847,11.555,11.555,0,0,1-.738-4.307V39.35h4.816v.843a12.081,12.081,0,0,0,.247,2.285,2.54,2.54,0,0,0,.791,1.442,2.393,2.393,0,0,0,1.6.492,2.271,2.271,0,0,0,1.635-.527,2.825,2.825,0,0,0,.738-1.547,13.189,13.189,0,0,0,.194-2.426,7.171,7.171,0,0,0-.686-3.428,2.948,2.948,0,0,0-2.654-1.353h-.809v-3.9h.738a3.2,3.2,0,0,0,2.672-1.037,5.5,5.5,0,0,0,.739-3.216,6.029,6.029,0,0,0-.545-2.813,2.153,2.153,0,0,0-2.092-1.019,2,2,0,0,0-2.022,1.125,7.487,7.487,0,0,0-.545,2.917V28.24h-4.816V26.869a9.084,9.084,0,0,1,.861-4.131,5.93,5.93,0,0,1,2.514-2.6,8.3,8.3,0,0,1,4.008-.9,8.615,8.615,0,0,1,4.078.879,5.873,5.873,0,0,1,2.514,2.549,8.859,8.859,0,0,1,.861,4.1,7.463,7.463,0,0,1-1.055,4.148,4.843,4.843,0,0,1-2.707,2.109,4.676,4.676,0,0,1,1.969,1.213,5.869,5.869,0,0,1,1.318,2.25,10.427,10.427,0,0,1,.475,3.358,13.008,13.008,0,0,1-.721,4.517,6.065,6.065,0,0,1-2.355,3.041A7.709,7.709,0,0,1,200.624,48.49Z" fill="#c1272d"/>
        </g>
      </g>
      <g id="グループ_359" data-name="グループ 359">
        <path id="パス_2240" data-name="パス 2240" d="M352.264,124.791q-19.919,0-39.838.006-30.084,0-60.169,0-28.659-.007-57.318-.027h-.847c.155-.223.255-.381.368-.528,1.007-1.307,2-2.623,3.038-3.9a1.244,1.244,0,0,1,.825-.445q25.959-.031,51.917-.017c5.727,0,11.453.032,17.179.033q41.865.006,83.728.005c.372,0,.744.05,1.117.076Z" fill="#d65323"/>
        <path id="パス_2241" data-name="パス 2241" d="M2.045,119.989c.322-.026.644-.076.966-.076q15.189-.006,30.378,0,25.125.025,50.249.069,23.439.024,46.878.029,4.313,0,8.626.013h.676c.272,1.633.536,3.22.815,4.9h-.884q-27.34-.006-54.679-.015-19.164-.009-38.327-.036-21.937-.029-43.874-.072c-.275,0-.549,0-.824-.006Z" fill="#b49664"/>
        <path id="パス_2242" data-name="パス 2242" d="M149.845,70.322c.206,2.409.229,4.849.649,7.22a123.89,123.89,0,0,0,10.9,33.087c.856,1.745,1.886,3.4,2.893,5.205-1,.22-2.024.482-3.061.666-2.064.367-2.079.356-3.087-1.509a125.008,125.008,0,0,1-9.753-24.746,91.6,91.6,0,0,1-3.105-14.471c-.221-1.806-.261-3.634-.384-5.452Z" fill="#b49664"/>
        <path id="パス_2243" data-name="パス 2243" d="M208.515,70.322a123.606,123.606,0,0,1-4.24,28.778l-4.552-1.869c.406-1.753.849-3.534,1.229-5.329a112.41,112.41,0,0,0,2.638-20.385c.01-.4-.017-.8-.027-1.195Z" fill="#d65323"/>
        <path id="パス_2244" data-name="パス 2244" d="M149.985,103.388c.639,1.563,1.26,3.029,1.82,4.517.071.189-.116.546-.282.741a15.071,15.071,0,0,0-3.8,10.3c.093,5.572,2.642,9.638,7.719,11.989a21.689,21.689,0,0,0,12.965,1.494,1.881,1.881,0,0,1,1.216.264c1.487.96,2.931,1.986,4.507,3.068-.591.228-1.118.469-1.668.638a26.033,26.033,0,0,1-19.74-1.343,16.781,16.781,0,0,1-9.76-14.046,19.612,19.612,0,0,1,6.541-17.237C149.626,103.656,149.769,103.558,149.985,103.388Z" fill="#d65323"/>
        <path id="パス_2245" data-name="パス 2245" d="M165.542,125.7c1.721-.582,3.338-1.146,4.971-1.655a.991.991,0,0,1,.739.276,36.639,36.639,0,0,0,9.045,6.1c6.923,3.065,13.716,2.821,20.269-1.126a7.461,7.461,0,0,0,1.588-1.247,2.07,2.07,0,0,1,1.734-.65c1.424.038,2.85.009,4.276.013.241,0,.482.027.834.047a18.071,18.071,0,0,1-3.335,4.054,21.991,21.991,0,0,1-12.744,5.588,26.089,26.089,0,0,1-14.748-2.227,45.862,45.862,0,0,1-10.034-6.775C167.261,127.332,166.423,126.52,165.542,125.7Z" fill="#b49664"/>
        <path id="パス_2246" data-name="パス 2246" d="M182.987,110.355l-3.3-3.66c.9-.819,1.746-1.652,2.655-2.413a20.653,20.653,0,0,1,9.16-4.7,16.3,16.3,0,0,1,17.579,8.283,21.878,21.878,0,0,1,2.509,9.012,2.213,2.213,0,0,1-.042.357h-4.717c-.282-1.367-.459-2.735-.851-4.038-1.449-4.816-4.472-8-9.576-8.894a11.118,11.118,0,0,0-6.975,1.136,23.084,23.084,0,0,0-6.128,4.633C183.213,110.151,183.122,110.229,182.987,110.355Z" fill="#b49664"/>
        <path id="パス_2247" data-name="パス 2247" d="M159.438,99.749a13.952,13.952,0,0,1,4.489-.06,19.642,19.642,0,0,1,10.7,5.644c2.694,2.559,5.172,5.347,7.744,8.036,1.4,1.46,2.79,2.923,4.279,4.484l-3.286,3.559c-1.02-1.009-2.017-1.938-2.948-2.928-2.567-2.73-5.039-5.553-7.683-8.206a36.547,36.547,0,0,0-4.7-3.82,11.362,11.362,0,0,0-6.24-2.076.8.8,0,0,1-.594-.365C160.6,102.646,160.053,101.255,159.438,99.749Z" fill="#d65323"/>
        <path id="パス_2248" data-name="パス 2248" d="M179.972,127.529a51.934,51.934,0,0,0,16.578-20.537,8.433,8.433,0,0,1,4.344,2.334c-.756,1.452-1.474,2.954-2.3,4.4a56.882,56.882,0,0,1-12.513,15.3,1.231,1.231,0,0,1-1.354.312C183.2,128.749,181.665,128.171,179.972,127.529Z" fill="#d65323"/>
        <path id="パス_2249" data-name="パス 2249" d="M150.7,119.984c7.821-.509,15.584-.881,22.39-5.482l3.212,3.592c-.387.3-.72.589-1.079.839a27.636,27.636,0,0,1-11.19,4.437c-3.556.625-7.171.916-10.755,1.39a1.26,1.26,0,0,1-1.489-.864A10.43,10.43,0,0,1,150.7,119.984Z" fill="#b49664"/>
      </g>
      <g id="グループ_361" data-name="グループ 361">
        <g id="グループ_360" data-name="グループ 360">
          <path id="パス_2250" data-name="パス 2250" d="M26.964,183.891V145.922H33.9V179.11h9.187v4.781Z" fill="#42210b"/>
          <path id="パス_2251" data-name="パス 2251" d="M48.606,183.891,56.2,145.922h7.406L71.2,183.891H64.778l-1.5-8.765h-6.61l-1.546,8.765Zm8.766-13.172h5.156L59.95,154.782Z" fill="#42210b"/>
          <path id="パス_2252" data-name="パス 2252" d="M77.607,183.891V145.922H86.56a16.862,16.862,0,0,1,7.242,1.266,7.378,7.378,0,0,1,3.7,3.891,17.325,17.325,0,0,1,1.1,6.656V171.61a18.545,18.545,0,0,1-1.1,6.867,7.672,7.672,0,0,1-3.656,4.078,15.271,15.271,0,0,1-7.008,1.336Zm6.937-4.828h2.11a5.437,5.437,0,0,0,3.422-.844,3.725,3.725,0,0,0,1.265-2.461,28.108,28.108,0,0,0,.235-3.961V157.266a16.92,16.92,0,0,0-.328-3.7,3.175,3.175,0,0,0-1.36-2.062,6.409,6.409,0,0,0-3.328-.657H84.544Z" fill="#42210b"/>
          <path id="パス_2253" data-name="パス 2253" d="M105.765,183.891V145.922h6.843v37.969Z" fill="#42210b"/>
          <path id="パス_2254" data-name="パス 2254" d="M120.023,183.891V145.922h15.938V150.8h-9v10.922h7.078v4.828h-7.078V179.11h9.094v4.781Z" fill="#42210b"/>
          <path id="パス_2255" data-name="パス 2255" d="M152.184,184.407a11.227,11.227,0,0,1-5.719-1.336A8.417,8.417,0,0,1,143,179.157a16.793,16.793,0,0,1-1.312-6.328l5.953-1.172a18.287,18.287,0,0,0,.539,3.89,5.635,5.635,0,0,0,1.359,2.6,3.266,3.266,0,0,0,2.414.914,2.707,2.707,0,0,0,2.391-1.008,4.357,4.357,0,0,0,.7-2.554,6.914,6.914,0,0,0-1.125-4.079,17.616,17.616,0,0,0-3-3.187l-4.781-4.219a14.36,14.36,0,0,1-3.211-3.867,10.654,10.654,0,0,1-1.2-5.273,9,9,0,0,1,2.625-6.938,10.132,10.132,0,0,1,7.172-2.437,10.641,10.641,0,0,1,4.453.82,7.084,7.084,0,0,1,2.836,2.273,10.27,10.27,0,0,1,1.571,3.305,19.58,19.58,0,0,1,.656,3.914l-5.906,1.031a20.2,20.2,0,0,0-.4-3.187,4.425,4.425,0,0,0-1.078-2.2,3.027,3.027,0,0,0-2.273-.8,2.873,2.873,0,0,0-2.367,1.008,3.843,3.843,0,0,0-.821,2.507,5.749,5.749,0,0,0,.8,3.164,12.308,12.308,0,0,0,2.3,2.555l4.734,4.172a19.615,19.615,0,0,1,4.008,4.617,11.793,11.793,0,0,1,1.664,6.4,9.62,9.62,0,0,1-1.2,4.828,8.558,8.558,0,0,1-3.328,3.3A10.048,10.048,0,0,1,152.184,184.407Z" fill="#42210b"/>
          <path id="パス_2256" data-name="パス 2256" d="M182.792,183.891V145.922h6.938V179.11h9.187v4.781Z" fill="#42210b"/>
          <path id="パス_2257" data-name="パス 2257" d="M205.3,183.891V145.922h6.844v37.969Z" fill="#42210b"/>
          <path id="パス_2258" data-name="パス 2258" d="M219.561,183.891V145.922h4.828l9.234,21.657V145.922h5.719v37.969h-4.594L225.467,161.2v22.687Z" fill="#42210b"/>
          <path id="パス_2259" data-name="パス 2259" d="M246.8,183.891V145.922h15.938V150.8h-9v10.922h7.078v4.828h-7.078V179.11h9.093v4.781Z" fill="#42210b"/>
          <path id="パス_2260" data-name="パス 2260" d="M294.288,184.407a11.85,11.85,0,0,1-6.562-1.547,7.9,7.9,0,0,1-3.235-4.406,23.162,23.162,0,0,1-.89-6.844V145.922h6.75v26.485a22.6,22.6,0,0,0,.234,3.351,4.709,4.709,0,0,0,1.1,2.532,4.065,4.065,0,0,0,5.25,0,5.089,5.089,0,0,0,1.078-2.532,20.779,20.779,0,0,0,.257-3.351V145.922h6.7V171.61a23.192,23.192,0,0,1-.891,6.844,7.945,7.945,0,0,1-3.211,4.406A11.833,11.833,0,0,1,294.288,184.407Z" fill="#42210b"/>
          <path id="パス_2261" data-name="パス 2261" d="M312.25,183.891V145.922h11.156a10.788,10.788,0,0,1,5.555,1.266,7.516,7.516,0,0,1,3.141,3.68,15.153,15.153,0,0,1,1.007,5.836,12.245,12.245,0,0,1-1.265,5.976,7.545,7.545,0,0,1-3.539,3.305,12.893,12.893,0,0,1-5.367,1.031h-3.75v16.875Zm6.938-21.75h2.625a6.524,6.524,0,0,0,2.929-.539,2.88,2.88,0,0,0,1.453-1.734,10.478,10.478,0,0,0,.4-3.211,15.04,15.04,0,0,0-.3-3.352,2.883,2.883,0,0,0-1.312-1.9,6.321,6.321,0,0,0-3.164-.61h-2.625Z" fill="#42210b"/>
        </g>
      </g>
      <g id="グループ_362" data-name="グループ 362">
        <line id="線_27" data-name="線 27" x2="172.82" transform="translate(2.045 198.403)" fill="none" stroke="#b49664" stroke-miterlimit="10" stroke-width="4.632"/>
        <line id="線_28" data-name="線 28" x2="172.82" transform="translate(179.443 198.403)" fill="none" stroke="#d65323" stroke-miterlimit="10" stroke-width="4.632"/>
      </g>
    </g>
  </g>
</svg>
