<svg width="559" height="294" viewBox="0 0 559 294" fill="none" xmlns="http://www.w3.org/2000/svg">
<path d="M248.637 27.3933V24.1229L255.317 13.8017C255.807 13.0416 256.267 12.3215 256.707 11.6314C257.137 10.9413 257.497 10.2212 257.777 9.48114C258.057 8.73105 258.197 7.92095 258.197 7.03084C258.197 6.03072 258.017 5.26063 257.667 4.73056C257.307 4.2005 256.757 3.93047 255.997 3.93047C255.287 3.93047 254.727 4.13049 254.327 4.53054C253.927 4.93059 253.657 5.45065 253.507 6.10073C253.357 6.75081 253.287 7.46089 253.287 8.24099V9.38112H248.747V8.18098C248.747 6.58079 248.987 5.17062 249.467 3.96047C249.947 2.75032 250.707 1.79021 251.757 1.10012C252.807 0.41004 254.177 0.0599976 255.867 0.0599976C258.187 0.0599976 259.917 0.680073 261.077 1.93022C262.237 3.18038 262.817 4.91058 262.817 7.14085C262.817 8.25099 262.657 9.26111 262.347 10.1612C262.037 11.0613 261.627 11.9214 261.107 12.7515C260.597 13.5716 260.037 14.4217 259.437 15.2918L253.897 23.7129H262.117V27.4233H248.657L248.637 27.3933Z" fill="#C1272D"/>
<path d="M274.578 27.7934C272.998 27.7934 271.688 27.4633 270.658 26.7932C269.618 26.1232 268.848 25.2031 268.318 24.0229C267.798 22.8428 267.528 21.4826 267.528 19.9524V7.95096C267.528 6.37077 267.778 4.9806 268.278 3.79046C268.778 2.60031 269.548 1.6702 270.578 1.00012C271.608 0.33004 272.948 0 274.568 0C276.188 0 277.528 0.33004 278.558 1.00012C279.598 1.6702 280.358 2.60031 280.858 3.79046C281.358 4.9806 281.608 6.37077 281.608 7.95096V19.9424C281.608 21.4826 281.348 22.8328 280.828 24.0129C280.308 25.1931 279.528 26.1132 278.488 26.7832C277.448 27.4533 276.148 27.7834 274.568 27.7834L274.578 27.7934ZM274.578 23.8229C275.268 23.8229 275.778 23.6129 276.118 23.1928C276.448 22.7728 276.678 22.2527 276.788 21.6526C276.898 21.0525 276.958 20.4625 276.958 19.8824V8.02097C276.958 7.4009 276.908 6.78082 276.808 6.17075C276.708 5.56067 276.488 5.04061 276.158 4.62056C275.828 4.20051 275.298 3.99048 274.588 3.99048C273.878 3.99048 273.348 4.20051 273.018 4.62056C272.688 5.04061 272.468 5.56067 272.368 6.17075C272.268 6.78082 272.218 7.4009 272.218 8.02097V19.8824C272.218 20.4625 272.278 21.0525 272.398 21.6526C272.518 22.2527 272.748 22.7628 273.078 23.1928C273.408 23.6129 273.908 23.8229 274.578 23.8229Z" fill="#C1272D"/>
<path d="M286.417 27.3933V24.1229L293.097 13.8017C293.587 13.0416 294.047 12.3215 294.487 11.6314C294.917 10.9413 295.277 10.2212 295.557 9.48114C295.837 8.73105 295.977 7.92095 295.977 7.03084C295.977 6.03072 295.797 5.26063 295.447 4.73056C295.087 4.2005 294.537 3.93047 293.777 3.93047C293.067 3.93047 292.507 4.13049 292.107 4.53054C291.707 4.93059 291.437 5.45065 291.287 6.10073C291.137 6.75081 291.067 7.46089 291.067 8.24099V9.38112H286.527V8.18098C286.527 6.58079 286.767 5.17062 287.247 3.96047C287.727 2.75032 288.487 1.79021 289.537 1.10012C290.587 0.41004 291.957 0.0599976 293.647 0.0599976C295.967 0.0599976 297.697 0.680073 298.857 1.93022C300.017 3.18038 300.597 4.91058 300.597 7.14085C300.597 8.25099 300.437 9.26111 300.127 10.1612C299.817 11.0613 299.407 11.9214 298.887 12.7515C298.377 13.5716 297.817 14.4217 297.217 15.2918L291.677 23.7129H299.897V27.4233H286.437L286.417 27.3933Z" fill="#C1272D"/>
<path d="M311.447 27.3933V20.7425H303.367V16.802L310.417 0.330017H315.797V17.062H318.567V20.7325H315.797V27.3833H311.457L311.447 27.3933ZM307.237 17.072H311.447V5.31062L307.237 17.072Z" fill="#C1272D"/>
<path d="M352.548 132.296C352.668 127.605 356.518 123.755 361.208 123.755C365.898 123.755 369.868 127.605 369.868 132.296H398.138C401.748 132.296 404.758 135.306 404.758 138.917C404.758 142.527 401.748 145.538 398.138 145.538H366.018C366.018 145.658 359.978 145.778 359.858 145.778L355.288 150.348V169.861H356.368C358.418 169.861 359.978 171.541 359.978 173.471C359.978 175.521 358.418 177.081 356.368 177.081H354.318C353.118 179.002 351.068 180.092 348.668 180.092C345.058 180.092 342.048 177.201 342.048 173.471V163.58L338.678 166.95C336.028 169.601 331.938 169.601 329.298 166.95C326.768 164.42 326.768 160.209 329.298 157.569L341.328 145.538H330.378C326.768 145.538 323.758 142.647 323.758 138.917C323.758 135.186 326.768 132.296 330.378 132.296H352.548Z" fill="#B7282C"/>
<path d="M387.428 165.4C390.438 165.4 392.838 167.93 392.838 170.811C392.838 173.691 390.428 176.221 387.428 176.221C376.118 176.221 366.978 167.08 366.978 155.889C366.978 152.879 369.388 150.478 372.388 150.478C375.388 150.478 377.798 152.889 377.798 155.889C377.798 161.18 382.128 165.39 387.418 165.39L387.428 165.4Z" fill="#B7282C"/>
<path d="M342.527 122.515C342.527 126.815 339.108 130.246 334.798 130.246C330.488 130.246 327.068 126.825 327.068 122.515V103.853C323.977 106.393 319.448 106.283 316.578 103.413C313.488 100.432 313.488 95.4616 316.578 92.4812L336.777 72.2788C339.757 69.1884 344.728 69.1884 347.708 72.2788C350.688 75.2591 350.688 80.1197 347.708 83.2101L342.518 88.4007V122.515H342.527Z" fill="#C1272D"/>
<path d="M395.068 128.756H392.308C375.638 128.756 362.068 115.174 362.068 98.5119V96.6917H354.788C352.908 96.6917 351.478 95.1415 351.478 93.3813C351.478 91.5011 352.908 90.0709 354.788 90.0709H362.068V84.5903C362.068 80.3997 365.488 76.8593 369.798 76.8593C374.108 76.8593 377.528 80.3897 377.528 84.5903V90.0709H402.718C404.598 90.0709 406.028 91.5011 406.028 93.3813C406.028 95.1515 404.598 96.6917 402.718 96.6917H377.528V98.5119C377.528 106.463 383.818 112.974 391.768 113.304V112.204C391.768 110.323 393.198 108.893 395.078 108.893C396.848 108.893 398.388 110.323 398.388 112.204V114.084C401.038 115.294 402.808 117.944 402.808 121.035C402.808 125.335 399.388 128.766 395.078 128.766L395.068 128.756Z" fill="#C1272D"/>
<path d="M397.188 86.7705C401.578 86.7705 405.138 83.2107 405.138 78.8195C405.138 74.4283 401.578 70.8686 397.188 70.8686C392.797 70.8686 389.238 74.4283 389.238 78.8195C389.238 83.2107 392.797 86.7705 397.188 86.7705Z" fill="#C1272D"/>
<path d="M388.387 161.67C392.11 161.67 395.127 158.652 395.127 154.929C395.127 151.206 392.11 148.188 388.387 148.188C384.665 148.188 381.647 151.206 381.647 154.929C381.647 158.652 384.665 161.67 388.387 161.67Z" fill="#B7282C"/>
<path d="M153.188 133.006C153.188 128.466 156.848 124.815 161.378 124.815C172.218 124.815 180.918 115.994 180.918 105.273V103.382H157.848C155.828 103.382 154.068 101.622 154.068 99.602C154.068 97.4618 155.828 95.8216 157.848 95.8216H181.798C183.188 93.1712 185.958 91.411 189.108 91.411C193.648 91.411 197.298 95.0715 197.298 99.602V105.273C197.298 113.724 194.398 121.405 189.488 127.585L195.288 133.386C197.558 135.656 197.558 139.187 195.288 141.457C193.148 143.727 189.488 143.727 187.348 141.457L185.708 139.947V164.15C185.708 169.07 181.798 172.971 176.888 172.971C171.978 172.971 168.068 169.06 168.068 164.15V140.577C165.928 140.957 163.658 141.207 161.388 141.207C156.848 141.207 153.198 137.547 153.198 133.016L153.188 133.006ZM175.878 72.7488C180.918 72.7488 184.958 76.9093 184.958 81.9499C184.958 86.9905 180.928 90.901 175.878 90.901C170.828 90.901 166.798 86.8705 166.798 81.9499C166.798 77.0293 170.958 72.7488 175.878 72.7488ZM255.798 164.15C255.798 169.07 251.768 172.971 246.978 172.971C243.448 172.971 240.427 170.951 238.908 167.93H216.598C215.208 170.961 212.188 172.971 208.658 172.971C203.738 172.971 199.838 169.06 199.838 164.15V135.906C199.838 131.116 203.748 127.085 208.658 127.085C212.188 127.085 215.208 129.226 216.598 132.126H238.908C240.418 129.226 243.448 127.085 246.978 127.085C251.768 127.085 255.798 131.116 255.798 135.906V164.15ZM205.628 103.132C205.628 99.222 208.778 96.2016 212.558 96.2016C215.078 96.2016 217.218 97.4618 218.478 99.352H237.138C238.398 97.4618 240.418 96.2016 242.938 96.2016C246.717 96.2016 249.868 99.232 249.868 103.132V117.754C249.868 121.665 246.717 124.685 242.938 124.685C240.418 124.685 238.398 123.425 237.138 121.535H218.478C217.218 123.425 215.078 124.685 212.558 124.685C208.778 124.685 205.628 121.655 205.628 117.754V103.132ZM215.708 75.2691H239.908C244.318 75.2691 248.098 78.9295 248.098 83.4601C248.098 87.9906 244.318 91.6511 239.908 91.6511H215.708C211.168 91.6511 207.518 87.9906 207.518 83.4601C207.518 78.9295 211.178 75.2691 215.708 75.2691ZM222.138 139.687H217.478V146.238H222.138V139.687ZM217.478 160.359H222.138V153.809H217.478V160.359ZM236.008 106.903H219.498V113.964H236.008V106.903ZM238.148 139.677H233.488V146.228H238.148V139.677ZM233.488 160.349H238.148V153.799H233.488V160.349Z" fill="#C1272D"/>
<path d="M132.578 179.572C140.108 187.973 156.618 194.834 156.618 194.834C130.268 160.269 130.138 129.246 132.278 116.324L128.498 115.064C128.358 115.494 115.118 160.079 132.578 179.582V179.572Z" fill="#C1272D"/>
<path d="M114.958 107.533C114.338 118.794 121.168 135.326 121.168 135.326C126.978 92.2512 148.818 70.2285 159.468 62.5976L157.688 59.0371C157.278 59.2472 116.398 81.4098 114.958 107.543V107.533Z" fill="#8B2F5B"/>
<path d="M153.427 44.1353C145.027 51.6662 138.167 68.1782 138.167 68.1782C172.727 41.8251 203.747 41.695 216.667 43.8353L217.927 40.0548C217.497 39.9148 172.917 26.6732 153.417 44.1353H153.427Z" fill="#C1272D"/>
<path d="M225.457 26.5132C214.197 25.8931 197.667 32.724 197.667 32.724C240.737 38.5347 262.757 60.3773 270.387 71.0286L273.947 69.2484C273.737 68.8383 251.577 27.9534 225.447 26.5132H225.457Z" fill="#8B2F5B"/>
<path d="M271.217 85.2203C268.157 96.0816 271.217 113.694 271.217 113.694C286.277 72.9288 312.397 56.1968 324.457 51.0662L323.497 47.2057C323.057 47.3257 278.327 60.0373 271.217 85.2203Z" fill="#C1272D"/>
<path d="M396.728 30.2637C385.868 27.2033 368.258 30.2637 368.258 30.2637C409.018 45.3255 425.748 71.4487 430.878 83.5101L434.738 82.55C434.618 82.1099 421.908 37.3745 396.728 30.2637Z" fill="#C1272D"/>
<path d="M451.678 155.779C454.738 144.918 451.678 127.305 451.678 127.305C436.618 168.07 410.498 184.802 398.438 189.933L399.398 193.793C399.838 193.673 444.568 180.962 451.678 155.779Z" fill="#C1272D"/>
<path d="M272.708 159.369C278.218 169.21 292.838 179.502 292.838 179.502C274.658 140.017 281.298 109.723 286.208 97.5718L282.798 95.5216C282.568 95.9116 259.928 136.537 272.708 159.369Z" fill="#8B2F5B"/>
<path d="M322.587 31.7438C312.747 37.2545 302.458 51.8763 302.458 51.8763C341.938 33.6941 372.228 40.3349 384.378 45.2455L386.428 41.835C386.038 41.605 345.417 18.9623 322.587 31.7438Z" fill="#8B2F5B"/>
<path d="M450.198 81.6399C444.688 71.7987 430.068 61.5074 430.068 61.5074C448.248 100.992 441.608 131.286 436.698 143.437L440.108 145.488C440.338 145.098 462.978 104.473 450.198 81.6399Z" fill="#8B2F5B"/>
<path d="M454.438 219.777C458.038 218.336 463.748 216.606 470.898 216.586C478.068 216.566 483.808 218.286 487.448 219.727C487.738 219.837 487.968 219.487 487.748 219.267C485.708 217.256 482.418 213.876 471.208 201.974C471.098 201.854 470.908 201.854 470.798 201.974L454.138 219.327C453.928 219.547 454.168 219.897 454.448 219.777H454.438Z" fill="#8B2F5B"/>
<path d="M419.598 219.777C423.198 218.336 428.908 216.606 436.058 216.586C443.238 216.566 448.968 218.286 452.608 219.727C452.888 219.837 453.128 219.477 452.908 219.267C450.858 217.246 447.538 213.836 436.208 201.804C436.188 201.774 436.138 201.774 436.118 201.804L419.298 219.317C419.088 219.537 419.318 219.887 419.608 219.777H419.598Z" fill="#C7B06A"/>
<path d="M471.198 239.119C471.088 238.999 470.898 238.999 470.788 239.119L454.128 256.471C453.918 256.691 454.158 257.041 454.438 256.921C458.038 255.481 463.748 253.751 470.898 253.731C478.068 253.711 483.808 255.431 487.448 256.871C487.738 256.981 487.968 256.631 487.748 256.411C485.708 254.401 482.418 251.02 471.208 239.119H471.198Z" fill="#C7B06A"/>
<path d="M506.828 239.119C506.718 238.999 506.528 238.999 506.418 239.119L489.758 256.471C489.548 256.691 489.788 257.041 490.068 256.921C493.668 255.481 499.378 253.751 506.528 253.731C513.698 253.711 519.438 255.431 523.078 256.871C523.368 256.981 523.598 256.631 523.378 256.411C521.338 254.401 518.047 251.02 506.837 239.119H506.828Z" fill="#8B2F5B"/>
<path d="M436.368 239.119C436.258 238.999 436.068 238.999 435.958 239.119L419.298 256.471C419.088 256.691 419.328 257.041 419.608 256.921C423.208 255.481 428.918 253.751 436.068 253.731C443.238 253.711 448.978 255.431 452.618 256.871C452.908 256.981 453.138 256.631 452.918 256.411C450.878 254.401 447.588 251.02 436.378 239.119H436.368Z" fill="#B7282C"/>
<path d="M470.277 238.009C468.257 236.009 465.097 232.728 453.757 220.567C453.657 220.467 453.497 220.457 453.397 220.567L436.767 238.059C436.587 238.249 436.787 238.559 437.037 238.459C440.597 237.009 446.307 235.228 453.477 235.208C460.687 235.188 466.427 236.959 470.017 238.419C470.267 238.519 470.477 238.209 470.287 238.019L470.277 238.009Z" fill="#8B2F5B"/>
<path d="M505.128 238.129C503.118 236.149 500.138 233.078 488.338 220.417C488.268 220.337 488.138 220.337 488.068 220.417L471.198 238.159C471.058 238.299 471.218 238.539 471.398 238.459C474.938 236.989 480.748 235.118 488.098 235.098C495.498 235.078 501.358 236.949 504.918 238.419C505.108 238.499 505.258 238.259 505.118 238.119L505.128 238.129Z" fill="#B7282C"/>
<path d="M435.838 238.129C433.828 236.149 430.848 233.078 419.048 220.417C418.978 220.337 418.848 220.337 418.778 220.417L401.908 238.159C401.768 238.299 401.928 238.539 402.108 238.459C405.648 236.989 411.458 235.118 418.808 235.098C426.208 235.078 432.068 236.949 435.628 238.419C435.818 238.499 435.968 238.259 435.828 238.119L435.838 238.129Z" fill="#8B2F5B"/>
<path d="M104.178 219.777C100.578 218.336 94.8678 216.606 87.7178 216.586C80.5478 216.566 74.8078 218.286 71.1678 219.727C70.8778 219.837 70.6478 219.487 70.8678 219.267C72.9078 217.256 76.1978 213.876 87.4078 201.974C87.5178 201.854 87.7078 201.854 87.8178 201.974L104.478 219.327C104.688 219.547 104.448 219.897 104.168 219.777H104.178Z" fill="#8B2F5B"/>
<path d="M139.017 219.777C135.417 218.336 129.707 216.606 122.557 216.586C115.377 216.566 109.647 218.286 106.007 219.727C105.727 219.837 105.487 219.477 105.707 219.267C107.757 217.246 111.077 213.836 122.407 201.804C122.427 201.774 122.477 201.774 122.497 201.804L139.317 219.317C139.527 219.537 139.297 219.887 139.007 219.777H139.017Z" fill="#C7B06A"/>
<path d="M87.4178 239.119C87.5278 238.999 87.7178 238.999 87.8278 239.119L104.488 256.471C104.698 256.691 104.458 257.041 104.178 256.921C100.578 255.481 94.8678 253.751 87.7178 253.731C80.5478 253.711 74.8078 255.431 71.1678 256.871C70.8778 256.981 70.6478 256.631 70.8678 256.411C72.9078 254.401 76.1978 251.02 87.4078 239.119H87.4178Z" fill="#C7B06A"/>
<path d="M51.7874 239.119C51.8974 238.999 52.0874 238.999 52.1974 239.119L68.8574 256.471C69.0674 256.691 68.8274 257.041 68.5474 256.921C64.9474 255.481 59.2374 253.751 52.0874 253.731C44.9174 253.711 39.1774 255.431 35.5374 256.871C35.2474 256.981 35.0174 256.631 35.2374 256.411C37.2774 254.401 40.5674 251.02 51.7774 239.119H51.7874Z" fill="#8B2F5B"/>
<path d="M122.248 239.119C122.358 238.999 122.548 238.999 122.658 239.119L139.318 256.471C139.528 256.691 139.288 257.041 139.008 256.921C135.408 255.481 129.698 253.751 122.548 253.731C115.378 253.711 109.638 255.431 105.998 256.871C105.708 256.981 105.478 256.631 105.698 256.411C107.738 254.401 111.028 251.02 122.238 239.119H122.248Z" fill="#B7282C"/>
<path d="M471.198 276.174C471.088 276.053 470.898 276.053 470.788 276.174L454.128 293.526C453.918 293.746 454.158 294.096 454.438 293.976C458.038 292.535 463.748 290.805 470.898 290.785C478.068 290.765 483.808 292.485 487.448 293.926C487.738 294.036 487.968 293.686 487.748 293.466C485.708 291.455 482.418 288.075 471.208 276.174H471.198Z" fill="#C7B06A"/>
<path d="M506.828 276.174C506.718 276.053 506.528 276.053 506.418 276.174L489.758 293.526C489.548 293.746 489.788 294.096 490.068 293.976C493.668 292.535 499.378 290.805 506.528 290.785C513.698 290.765 519.438 292.485 523.078 293.926C523.368 294.036 523.598 293.686 523.378 293.466C521.338 291.455 518.047 288.075 506.837 276.174H506.828Z" fill="#8B2F5B"/>
<path d="M541.977 276.174C541.867 276.053 541.677 276.053 541.567 276.174L524.907 293.526C524.697 293.746 524.937 294.096 525.217 293.976C528.817 292.535 534.527 290.805 541.677 290.785C548.847 290.765 554.587 292.485 558.227 293.926C558.517 294.036 558.747 293.686 558.527 293.466C556.487 291.455 553.197 288.075 541.987 276.174H541.977Z" fill="#B7282C"/>
<path d="M436.368 276.174C436.258 276.053 436.068 276.053 435.958 276.174L419.298 293.526C419.088 293.746 419.328 294.096 419.608 293.976C423.208 292.535 428.918 290.805 436.068 290.785C443.238 290.765 448.978 292.485 452.618 293.926C452.908 294.036 453.138 293.686 452.918 293.466C450.878 291.455 447.588 288.075 436.378 276.174H436.368Z" fill="#B7282C"/>
<path d="M87.4178 276.174C87.5278 276.053 87.7178 276.053 87.8278 276.174L104.488 293.526C104.698 293.746 104.458 294.096 104.178 293.976C100.578 292.535 94.8678 290.805 87.7178 290.785C80.5478 290.765 74.8078 292.485 71.1678 293.926C70.8778 294.036 70.6478 293.686 70.8678 293.466C72.9078 291.455 76.1978 288.075 87.4078 276.174H87.4178Z" fill="#C7B06A"/>
<path d="M51.7874 276.174C51.8974 276.053 52.0874 276.053 52.1974 276.174L68.8574 293.526C69.0674 293.746 68.8274 294.096 68.5474 293.976C64.9474 292.535 59.2374 290.805 52.0874 290.785C44.9174 290.765 39.1774 292.485 35.5374 293.926C35.2474 294.036 35.0174 293.686 35.2374 293.466C37.2774 291.455 40.5674 288.075 51.7774 276.174H51.7874Z" fill="#8B2F5B"/>
<path d="M16.6375 276.174C16.7475 276.053 16.9375 276.053 17.0475 276.174L33.7075 293.526C33.9175 293.746 33.6775 294.096 33.3975 293.976C29.7975 292.535 24.0875 290.805 16.9375 290.785C9.76753 290.765 4.02753 292.485 0.387526 293.926C0.0975257 294.036 -0.132474 293.686 0.0875257 293.466C2.12753 291.455 5.41753 288.075 16.6275 276.174H16.6375Z" fill="#B7282C"/>
<path d="M122.248 276.174C122.358 276.053 122.548 276.053 122.658 276.174L139.318 293.526C139.528 293.746 139.288 294.096 139.008 293.976C135.408 292.535 129.698 290.805 122.548 290.785C115.378 290.765 109.638 292.485 105.998 293.926C105.708 294.036 105.478 293.686 105.698 293.466C107.738 291.455 111.028 288.075 122.238 276.174H122.248Z" fill="#B7282C"/>
<path d="M88.3374 238.009C90.3574 236.009 93.5174 232.728 104.857 220.567C104.957 220.467 105.117 220.457 105.217 220.567L121.847 238.059C122.027 238.249 121.827 238.559 121.577 238.459C118.017 237.009 112.307 235.228 105.137 235.208C97.9274 235.188 92.1874 236.959 88.5974 238.419C88.3474 238.519 88.1374 238.209 88.3274 238.019L88.3374 238.009Z" fill="#8B2F5B"/>
<path d="M53.4873 238.129C55.4973 236.149 58.4773 233.078 70.2773 220.417C70.3473 220.337 70.4773 220.337 70.5473 220.417L87.4173 238.159C87.5573 238.299 87.3973 238.539 87.2173 238.459C83.6773 236.989 77.8673 235.118 70.5173 235.098C63.1173 235.078 57.2573 236.949 53.6973 238.419C53.5073 238.499 53.3573 238.259 53.4973 238.119L53.4873 238.129Z" fill="#B7282C"/>
<path d="M122.778 238.129C124.788 236.149 127.768 233.078 139.568 220.417C139.638 220.337 139.768 220.337 139.838 220.417L156.708 238.159C156.848 238.299 156.688 238.539 156.508 238.459C152.968 236.989 147.158 235.118 139.808 235.098C132.408 235.078 126.548 236.949 122.988 238.419C122.798 238.499 122.648 238.259 122.788 238.119L122.778 238.129Z" fill="#8B2F5B"/>
<path d="M470.277 275.063C468.257 273.063 465.097 269.783 453.757 257.621C453.657 257.521 453.497 257.511 453.397 257.621L436.767 275.113C436.587 275.303 436.787 275.613 437.037 275.513C440.597 274.063 446.307 272.283 453.477 272.263C460.687 272.243 466.427 274.013 470.017 275.473C470.267 275.573 470.477 275.263 470.287 275.073L470.277 275.063Z" fill="#8B2F5B"/>
<path d="M505.128 275.183C503.118 273.203 500.138 270.133 488.338 257.471C488.268 257.391 488.138 257.391 488.068 257.471L471.198 275.213C471.058 275.353 471.218 275.593 471.398 275.513C474.938 274.043 480.748 272.173 488.098 272.153C495.498 272.133 501.358 274.003 504.918 275.473C505.108 275.553 505.258 275.313 505.118 275.173L505.128 275.183Z" fill="#B7282C"/>
<path d="M541.227 275.183C539.217 273.203 536.237 270.133 524.437 257.471C524.367 257.391 524.237 257.391 524.167 257.471L507.297 275.213C507.157 275.353 507.317 275.593 507.497 275.513C511.037 274.043 516.847 272.173 524.197 272.153C531.597 272.133 537.457 274.003 541.017 275.473C541.207 275.553 541.357 275.313 541.217 275.173L541.227 275.183Z" fill="#C7B06A"/>
<path d="M435.838 275.183C433.828 273.203 430.848 270.133 419.048 257.471C418.978 257.391 418.848 257.391 418.778 257.471L401.908 275.213C401.768 275.353 401.928 275.593 402.108 275.513C405.648 274.043 411.458 272.173 418.808 272.153C426.208 272.133 432.068 274.003 435.628 275.473C435.818 275.553 435.968 275.313 435.828 275.173L435.838 275.183Z" fill="#8B2F5B"/>
<path d="M88.3374 275.063C90.3574 273.063 93.5174 269.783 104.857 257.621C104.957 257.521 105.117 257.511 105.217 257.621L121.847 275.113C122.027 275.303 121.827 275.613 121.577 275.513C118.017 274.063 112.307 272.283 105.137 272.263C97.9274 272.243 92.1874 274.013 88.5974 275.473C88.3474 275.573 88.1374 275.263 88.3274 275.073L88.3374 275.063Z" fill="#8B2F5B"/>
<path d="M53.4873 275.183C55.4973 273.203 58.4773 270.133 70.2773 257.471C70.3473 257.391 70.4773 257.391 70.5473 257.471L87.4173 275.213C87.5573 275.353 87.3973 275.593 87.2173 275.513C83.6773 274.043 77.8673 272.173 70.5173 272.153C63.1173 272.133 57.2573 274.003 53.6973 275.473C53.5073 275.553 53.3573 275.313 53.4973 275.173L53.4873 275.183Z" fill="#B7282C"/>
<path d="M17.3877 275.183C19.3977 273.203 22.3777 270.133 34.1777 257.471C34.2477 257.391 34.3777 257.391 34.4477 257.471L51.3177 275.213C51.4577 275.353 51.2977 275.593 51.1177 275.513C47.5777 274.043 41.7677 272.173 34.4177 272.153C27.0177 272.133 21.1577 274.003 17.5977 275.473C17.4077 275.553 17.2577 275.313 17.3977 275.173L17.3877 275.183Z" fill="#C7B06A"/>
<path d="M122.778 275.183C124.788 273.203 127.768 270.133 139.568 257.471C139.638 257.391 139.768 257.391 139.838 257.471L156.708 275.213C156.848 275.353 156.688 275.593 156.508 275.513C152.968 274.043 147.158 272.173 139.808 272.153C132.408 272.133 126.548 274.003 122.988 275.473C122.798 275.553 122.648 275.313 122.788 275.173L122.778 275.183Z" fill="#8B2F5B"/>
<path d="M151.028 173.531L147.468 175.311C147.608 175.591 157.978 194.714 172.848 207.295L183.108 199.604C165.918 190.913 155.728 180.102 151.028 173.531Z" fill="#8B2F5B"/>
<path d="M260.397 190.563L269.847 198.594C277.377 190.513 283.247 176.391 283.247 176.391C275.387 182.382 267.717 187.003 260.407 190.563H260.397Z" fill="#C1272D"/>
<path d="M291.877 157.499L288.157 158.419C288.237 158.709 293.817 178.352 304.867 193.233L317.077 189.163C302.387 177.251 294.957 164.74 291.877 157.499Z" fill="#C1272D"/>
<path d="M389.468 199.174L391.508 212.416C394.628 211.796 397.598 210.785 400.308 209.265C410.148 203.755 420.438 189.133 420.438 189.133C409.318 194.253 398.928 197.404 389.468 199.174Z" fill="#8B2F5B"/>
<path d="M355.738 244.04C355.458 243.809 355.188 243.629 354.918 243.499C355.088 243.9 355.138 244.34 355.048 244.77C355.018 244.93 354.968 245.09 354.908 245.24C355.828 245.59 355.768 247.65 355.828 248.14C355.898 248.66 356.418 248.78 356.418 248.78C357.378 247.78 356.598 244.76 355.728 244.03L355.738 244.04ZM255.328 265.792C255.328 265.792 255.358 265.782 255.378 265.772C255.508 265.792 255.638 265.792 255.778 265.792C255.928 265.792 256.088 265.782 256.248 265.762C257.368 265.592 258.978 264.322 259.008 262.852C259.008 262.852 258.088 263.842 257.268 264.212C256.938 264.362 256.668 264.402 256.428 264.402C256.408 264.402 256.378 264.402 256.358 264.402C256.318 264.142 256.208 263.892 255.978 263.672C255.628 263.342 255.408 263.272 255.178 263.272C255.018 263.272 254.858 263.302 254.638 263.302C254.458 263.302 254.248 263.282 253.968 263.202C252.868 262.892 253.398 260.101 252.678 259.851C252.678 259.851 254.158 259.791 255.158 258.821C254.748 258.551 254.198 258.311 253.948 257.961C253.558 257.431 253.498 256.901 253.378 256.321C253.248 256.181 252.978 255.871 252.868 255.701C251.738 255.891 251.018 256.581 250.468 257.391C249.708 258.521 249.848 262.012 250.598 263.162C251.278 264.212 253.468 265.852 254.938 265.852C255.078 265.852 255.208 265.842 255.338 265.802L255.328 265.792ZM259.938 264.922C260.218 265.072 260.828 265.572 261.758 265.572C261.888 265.572 262.018 265.572 262.148 265.552C264.198 265.302 265.588 264.272 265.438 262.912C265.438 262.892 265.438 262.882 265.438 262.882V262.912C265.468 263.092 265.668 264.062 267.028 264.072C267.118 264.442 267.408 264.572 267.788 264.572C268.318 264.572 268.988 264.312 269.468 264.032C269.368 264.802 269.888 265.142 269.828 265.582C269.118 266.032 269.128 267.082 269.718 267.562C269.968 267.762 270.298 267.862 270.628 267.862C271.458 267.862 272.338 267.232 272.138 266.032C271.938 264.852 272.528 263.032 271.428 262.082C270.768 261.512 270.098 261.222 268.788 261.102C267.478 260.982 266.638 260.412 266.638 260.412C266.638 260.412 267.088 258.371 265.548 257.881C264.798 257.641 264.188 257.481 263.758 257.381C263.618 257.941 263.318 258.321 262.918 258.781C262.678 259.051 262.348 259.221 261.978 259.191C261.508 259.191 261.048 258.971 260.668 258.721C260.228 259.351 259.498 259.701 258.558 259.741C258.498 259.741 258.438 259.741 258.378 259.741C258.118 259.741 257.858 259.721 257.598 259.671C257.368 259.781 257.148 259.831 256.908 259.831C256.778 259.831 256.638 259.811 256.508 259.781C255.368 260.021 255.008 260.111 254.198 260.822C254.268 261.422 254.298 262.352 254.598 262.442C254.798 262.502 255.298 262.202 255.378 262.202C255.638 262.202 255.878 262.422 256.128 262.542C256.408 262.682 256.638 262.702 256.868 262.632C256.948 262.602 256.658 260.702 257.138 260.452C257.218 260.412 257.848 261.502 257.638 262.562C257.728 262.732 257.668 262.932 257.968 263.142C258.368 262.812 258.928 262.092 259.198 262.132C259.468 262.172 259.558 262.682 259.508 263.062C259.468 263.442 259.408 264.032 259.288 264.412C259.358 264.482 259.598 264.742 259.938 264.922ZM258.958 265.232C258.708 265.672 258.378 266.222 257.878 266.652C257.528 266.952 257.318 267.032 257.098 267.032C256.988 267.032 256.878 267.012 256.748 266.992C256.688 266.802 256.578 266.782 256.418 266.802C256.368 266.812 255.908 266.872 255.728 266.872C255.608 266.872 255.058 266.912 254.878 266.912C253.808 266.912 252.438 266.292 251.418 265.452C251.238 266.532 251.418 267.232 251.938 267.742C252.578 268.352 254.058 268.823 255.178 268.823C255.708 268.823 256.158 268.713 256.388 268.462C256.698 268.462 257.028 268.392 257.378 268.212C258.188 267.782 259.318 266.712 259.278 265.392L258.948 265.222L258.958 265.232ZM322.608 243.699C322.188 243.92 322.108 243.889 322.098 244.07C322.098 244.25 322.728 244.23 323.048 244.11C323.288 244.02 325.008 243.639 325.648 242.909C326.288 242.179 326.388 241.139 326.118 240.229C326.028 239.939 325.848 239.659 325.618 239.399C325.618 239.369 325.618 239.339 325.618 239.309C325.648 238.619 325.298 238.659 324.878 238.159C324.458 237.659 323.958 237.259 323.288 236.589C322.628 235.919 320.858 234.868 319.818 235.048C318.988 235.198 318.738 235.358 318.098 235.438C318.298 236.249 318.058 237.459 317.938 237.819C317.718 238.469 317.338 238.939 317.408 239.129C317.858 239.299 318.358 239.379 318.708 239.299C319.128 239.199 319.078 239.209 319.458 239.079C319.838 238.939 320.698 238.749 321.088 238.849C321.468 238.949 321.568 239.129 321.728 239.339C322.258 240.049 323.158 240.429 323.958 240.459C324.358 241.059 324.358 241.839 324.108 242.439C323.818 243.119 323.018 243.479 322.598 243.699H322.608ZM338.898 223.077C338.248 222.017 337.798 220.707 337.558 219.547C336.458 214.916 336.088 210.055 332.738 206.995C331.328 205.615 329.428 204.585 328.048 206.515C323.968 212.266 326.828 220.197 332.408 223.867C332.908 224.187 332.768 225.007 332.208 225.167C330.278 225.767 327.828 226.997 325.848 227.378C323.538 227.828 321.198 227.638 318.978 227.287C316.588 226.737 314.148 228.438 313.308 230.698C313.168 230.658 313.028 230.638 312.878 230.628C312.388 230.628 311.898 230.838 311.558 231.328C310.698 232.588 311.578 233.468 311.948 234.628C310.878 235.629 309.978 236.549 309.618 238.029C309.268 239.509 310.198 240.849 310.188 242.259C310.188 243.91 309.418 245.05 310.378 246.72C311.208 248.16 312.578 249.08 314.198 249.57C314.158 249.49 314.128 249.4 314.088 249.32C313.818 248.69 313.558 248.09 313.178 247.6C312.988 247.35 312.808 247.13 312.648 246.93C311.898 246.01 311.298 245.27 311.188 243.759C310.758 243.339 310.538 242.829 310.498 242.179C310.478 241.879 310.708 241.619 311.008 241.599C311.278 241.579 311.568 241.809 311.588 242.109C311.618 242.549 311.748 242.829 312.068 243.079C312.188 243.179 312.268 243.329 312.268 243.479C312.318 244.79 312.738 245.31 313.498 246.24C313.668 246.45 313.858 246.68 314.048 246.94C314.508 247.54 314.808 248.23 315.088 248.89C315.408 249.64 315.718 250.35 316.238 250.9C317.208 251.6 318.368 252.11 319.418 251.93C319.678 252.251 320.168 252.431 320.968 252.521C322.248 252.681 325.328 251.91 325.098 249.7C324.568 250.37 323.578 251.11 322.808 251.38C322.038 251.65 321.398 251.28 320.888 251.01C320.858 251 320.828 250.98 320.798 250.97C320.858 250.73 320.808 250.48 320.688 250.24C318.168 250.06 315.448 247.15 314.748 245.76C314.298 244.87 314.178 244.27 314.088 243.839C314.028 243.559 313.988 243.359 313.878 243.159C313.648 242.749 313.468 242.449 313.308 242.189C312.958 241.609 312.698 241.189 312.388 240.249C312.298 239.959 312.448 239.659 312.738 239.559C313.028 239.469 313.328 239.619 313.428 239.909C313.698 240.729 313.898 241.059 314.238 241.619C314.398 241.889 314.598 242.199 314.828 242.629C315.018 242.969 315.078 243.279 315.148 243.619C315.238 244.04 315.328 244.51 315.718 245.27C316.308 246.43 318.488 248.73 320.398 249.11C321.058 249.12 321.738 249.15 322.218 248.8C322.478 248.88 322.758 248.93 323.038 248.97C324.098 249.1 326.268 248.83 327.138 247.77C328.008 246.71 327.938 245.7 327.728 244.43C327.448 245.35 327.338 246.16 326.598 246.87C325.848 247.58 324.268 247.39 323.438 247.22C323.248 247.18 323.028 247.13 322.818 247.08C322.608 246.02 321.308 245.56 320.078 245.59C319.348 245.61 318.848 244.67 318.038 244.84C317.748 243.93 317.718 242.909 317.528 242.129C317.338 241.349 317.028 240.219 316.058 238.739C315.978 238.569 316.008 238.379 316.128 238.239C316.718 237.569 316.998 236.709 316.928 235.829C316.788 234.068 316.228 233.348 314.418 232.618C314.178 232.518 314.068 232.248 314.158 232.008C314.258 231.768 314.528 231.658 314.768 231.748C315.798 232.168 316.578 232.618 317.098 233.348C317.978 232.838 318.968 232.528 320.008 232.538C322.058 232.488 324.038 232.908 325.958 232.658C327.898 232.408 329.848 231.998 331.718 231.418C333.558 230.828 335.508 230.108 336.878 228.988C337.108 228.798 337.428 228.788 337.668 228.938C338.388 229.398 339.378 229.148 340.018 228.448C341.848 226.487 339.968 224.987 338.888 223.097L338.898 223.077ZM269.418 268.472C269.098 268.853 268.458 269.153 267.598 269.393C266.968 269.573 266.108 269.473 266.218 269.723C266.328 269.973 267.458 270.243 268.458 270.093C269.628 269.913 270.848 269.323 271.358 268.682C271.118 268.753 270.878 268.793 270.628 268.793C270.188 268.793 269.768 268.683 269.408 268.472H269.418ZM261.138 252.551C259.768 251.91 257.488 250.85 256.308 250.82C256.298 250.82 256.278 250.82 256.268 250.82C255.188 250.82 254.018 251.82 253.528 252.761C253.158 253.481 253.498 254.811 254.238 255.531C254.308 255.601 254.358 255.691 254.378 255.791C254.458 256.271 254.698 256.811 255.038 257.271C255.348 257.701 255.858 258.151 256.478 258.431C256.728 258.541 257.228 258.681 257.278 258.641C257.328 258.591 256.908 258.261 256.778 258.131C256.258 257.611 255.918 257.101 255.778 256.511C255.728 256.291 255.838 256.071 256.048 255.981C256.268 255.891 256.458 255.731 256.598 255.541C256.828 255.231 257.168 254.271 256.648 253.411C256.548 253.251 256.558 253.061 256.648 252.911C256.348 252.471 255.978 252.131 255.558 252.141C255.448 252.141 255.348 252.06 255.338 251.94C255.338 251.83 255.418 251.73 255.538 251.72C256.128 251.69 256.628 252.121 257.008 252.691C257.178 252.681 257.348 252.761 257.438 252.911C258.048 253.911 258.758 254.111 259.508 254.321C259.718 254.381 259.928 254.441 260.118 254.511C260.358 254.601 260.478 254.861 260.398 255.101C260.068 256.041 260.418 257.161 260.688 257.471C261.008 257.841 261.608 258.241 261.998 258.241C262.128 258.241 262.188 258.191 262.228 258.151C262.748 257.551 262.988 257.281 262.898 256.241C262.768 255.371 262.198 253.051 261.138 252.551ZM259.218 255.471C258.928 255.351 258.388 255.311 257.768 255.311C257.748 255.311 257.728 255.311 257.708 255.311C257.608 255.631 257.468 255.911 257.328 256.091C257.168 256.301 256.978 256.481 256.768 256.631C256.888 256.991 257.078 257.311 257.448 257.621C257.818 257.931 258.248 258.051 258.828 258.051C259.078 257.751 259.318 257.431 259.498 257.111C259.358 256.631 259.298 256.071 259.358 255.531C259.318 255.511 259.268 255.491 259.228 255.471H259.218ZM227.048 203.635C226.948 208.825 224.868 213.816 220.328 216.696L224.448 218.496C226.068 216.656 227.048 214.366 227.368 211.836C228.008 207.495 227.098 201.504 233.528 202.044C230.148 201.254 228.288 202.064 227.048 203.635ZM357.038 196.084C358.528 196.124 359.698 196.174 360.648 196.434C357.418 195.334 354.108 194.484 350.858 193.823C350.858 193.823 351.448 194.424 352.488 194.944C353.538 195.504 354.998 196.054 357.038 196.074V196.084ZM384.938 213.486C384.648 212.316 384.248 211.286 383.808 210.375C383.708 210.125 383.628 209.885 383.548 209.665C383.488 209.475 383.438 209.295 383.388 209.115C383.318 208.865 383.268 208.615 383.218 208.375C383.068 207.525 383.108 206.575 383.178 205.165C383.228 204.215 383.328 203.265 383.278 202.284C383.238 201.274 383.058 200.174 382.528 198.994C381.278 196.194 379.658 195.224 378.128 194.203C376.578 193.223 374.758 192.633 372.718 191.883C374.548 193.043 375.788 194.233 376.068 194.834C376.678 196.074 375.858 197.234 376.518 199.094C377.228 200.994 379.268 202.915 378.458 203.155C377.708 203.335 375.428 200.494 375.088 198.924C374.978 198.334 375.088 197.534 374.898 196.494C374.718 195.444 374.208 194.193 372.788 192.813C370.098 190.273 367.478 190.033 362.888 189.713C368.588 191.373 366.868 192.953 367.978 194.584C368.488 195.384 369.358 196.264 370.108 196.984C370.828 197.744 371.408 198.374 371.348 198.694C371.268 199.054 370.138 198.424 368.908 197.594C367.688 196.734 366.348 195.684 366.038 194.884C365.768 194.153 365.508 193.393 364.938 192.653C364.368 191.903 363.458 191.233 361.888 190.803C360.328 190.373 358.118 190.053 355.778 191.383C357.878 192.073 358.568 193.413 360.628 193.783C362.498 194.173 362.638 195.834 362.448 195.824C361.018 195.744 359.788 194.834 357.638 193.723C355.698 192.763 353.918 192.773 352.718 193.043C351.498 193.343 350.858 193.823 350.858 193.823C361.378 193.493 376.478 201.414 382.388 210.125C383.198 211.726 383.758 213.436 383.828 215.176C383.388 213.506 382.608 211.946 381.598 210.625C376.668 203.775 369.208 199.434 361.248 196.634C361.508 196.744 361.758 196.884 361.978 197.054C362.118 197.154 360.958 198.354 359.408 197.564C357.648 196.744 356.438 197.594 354.578 197.414C355.898 199.524 357.398 200.204 358.628 200.714C361.048 201.704 362.378 200.794 363.718 200.174C364.448 199.834 366.038 200.084 367.358 200.574C368.688 201.034 369.718 201.734 369.458 201.954C369.218 202.174 368.428 202.024 367.498 201.864C366.548 201.744 365.458 201.574 364.598 201.754C362.808 202.184 362.768 204.095 358.658 202.164C361.488 204.465 362.588 206.015 365.428 206.375C368.438 206.825 369.968 205.355 371.048 205.015C372.458 204.575 375.698 205.795 375.528 206.635C375.398 207.415 373.398 205.975 371.558 206.185C369.818 206.365 369.098 207.605 367.948 207.755C367.428 207.815 366.178 207.505 364.728 206.875C365.978 207.905 366.868 208.955 367.908 209.655C368.938 210.395 369.858 211.136 372.008 211.256C372.968 211.306 373.788 211.196 374.618 211.046C375.468 210.886 376.248 210.695 377.048 210.605C378.308 210.465 379.078 210.545 379.748 210.815C379.858 210.855 379.958 210.906 380.048 210.956C380.268 211.076 380.458 211.226 380.648 211.406C380.788 211.536 380.928 211.686 381.078 211.846C381.388 212.356 381.678 212.926 381.928 213.546C381.908 214.356 381.868 215.166 381.808 215.976C381.138 216.896 380.288 217.666 379.338 218.136C377.748 218.926 375.878 218.876 374.078 217.286C373.748 219.817 375.788 221.727 377.998 223.097C378.648 223.497 379.318 223.857 379.948 224.167C379.718 224.707 379.458 225.237 379.178 225.737C378.888 226.297 378.568 226.817 378.218 227.297C377.208 227.678 376.148 227.738 375.158 227.478C373.588 227.057 372.198 225.787 371.508 223.567C371.048 225.027 371.048 227.368 371.188 229.528C371.238 230.298 371.308 231.058 371.378 231.738C370.488 231.908 369.578 231.968 368.658 231.938C367.868 231.288 367.248 230.448 366.858 229.508C366.178 227.858 366.218 225.897 367.368 224.147C365.808 223.767 363.498 225.477 361.628 227.257C361.058 227.808 360.528 228.358 360.068 228.868C359.738 228.628 359.408 228.378 359.088 228.118C358.628 227.768 358.178 227.398 357.738 227.027C357.488 226.017 357.448 224.967 357.658 223.947C357.998 222.327 358.988 220.787 360.878 219.617C358.698 217.986 356.148 218.306 353.678 219.397C353.008 219.697 352.338 220.047 351.698 220.437C350.958 219.487 350.238 218.516 349.518 217.546C349.398 216.396 349.408 215.166 349.678 214.076C350.138 212.196 351.348 210.745 353.968 210.926C352.038 207.845 348.618 208.335 346.058 209.605C345.338 209.965 344.688 210.375 344.158 210.796C343.368 209.915 342.528 209.065 341.638 208.245C341.308 207.155 341.078 205.965 341.118 204.865C341.188 202.985 342.068 201.364 344.678 200.924C342.048 198.344 338.858 199.614 336.658 201.454C336.048 201.974 335.508 202.534 335.078 203.065C334.298 202.554 333.518 202.094 332.738 201.674C332.228 200.694 331.748 199.644 331.478 198.584C331.008 196.764 331.118 194.924 332.618 193.333C329.358 191.723 326.508 193.783 324.958 196.514C324.578 197.184 324.278 197.894 324.068 198.594C323.078 198.424 322.098 198.314 321.118 198.264C320.278 197.604 319.478 196.874 318.838 196.044C317.698 194.594 317.038 192.873 317.478 190.803C313.488 191.383 312.268 194.043 312.258 197.144C312.258 197.874 312.318 198.624 312.428 199.384C311.218 199.764 310.038 200.224 308.868 200.774C307.668 200.684 306.468 200.504 305.448 200.104C303.678 199.414 302.498 198.074 302.978 195.424C299.548 197.004 299.368 200.564 300.628 203.465C300.928 204.155 301.308 204.805 301.748 205.395C300.828 206.165 299.938 206.985 299.068 207.855C297.918 208.185 296.718 208.385 295.648 208.275C293.908 208.105 292.458 207.115 291.928 204.505C289.228 206.715 290.418 210.185 292.218 212.576C292.708 213.226 293.238 213.796 293.748 214.236C293.238 214.956 292.748 215.706 292.268 216.466C291.318 216.836 290.248 217.166 289.168 217.326C287.168 217.626 285.178 217.326 284.048 215.646C282.408 218.146 284.048 220.757 286.028 222.827C286.558 223.387 287.118 223.907 287.638 224.377C287.028 225.227 286.378 225.997 285.708 226.667C284.728 226.767 283.768 226.587 282.898 226.157C281.408 225.427 280.178 223.967 279.598 221.957C279.618 223.607 279.138 225.417 278.498 227.267C278.258 227.958 277.988 228.658 277.718 229.358C276.618 229.098 275.488 228.598 274.318 227.818C273.818 226.777 273.598 225.627 273.728 224.547C273.938 222.817 275.028 221.257 277.288 220.567C275.838 218.966 272.748 219.687 270.328 220.737C269.578 221.057 268.898 221.417 268.338 221.737C267.658 220.757 267.038 219.737 266.438 218.686C266.438 217.496 266.638 216.316 267.138 215.346C267.908 213.826 269.398 212.816 271.958 213.066C270.868 210.225 267.458 210.025 264.698 210.595C263.898 210.765 263.158 210.986 262.548 211.236C262.138 210.455 261.708 209.675 261.268 208.905C261.368 207.875 261.558 206.745 261.888 205.685C262.518 203.725 263.658 202.044 265.668 201.794C264.058 198.604 260.378 199.074 257.628 200.354C256.898 200.694 256.228 201.094 255.678 201.494C254.988 200.764 254.278 200.084 253.558 199.444C253.298 198.394 253.138 197.324 253.188 196.254C253.268 194.544 253.898 192.863 255.588 191.443C252.348 189.393 249.718 190.533 247.648 192.763C247.148 193.303 246.678 193.913 246.238 194.554C245.078 193.993 243.898 193.523 242.698 193.123C241.898 192.223 241.148 191.243 240.688 190.243C239.898 188.503 239.968 186.703 242.148 185.132C238.508 183.812 235.998 186.553 234.908 189.403C234.628 190.143 234.438 190.893 234.348 191.583C233.148 191.523 231.948 191.533 230.748 191.613C229.688 191.083 228.668 190.443 227.908 189.683C226.598 188.353 226.068 186.643 227.478 184.402C227.018 184.432 226.598 184.502 226.208 184.612C225.718 185.892 225.098 187.293 224.328 188.823C224.048 189.383 223.748 189.953 223.438 190.503C223.658 191.023 223.848 191.543 224.018 192.083C225.908 195.174 226.998 198.894 227.108 202.585C228.488 201.454 230.438 201.054 233.588 202.034C231.468 202.114 229.148 203.075 228.858 205.405C228.498 207.485 228.788 209.715 228.598 211.966C228.568 212.526 228.498 213.096 228.388 213.666C234.308 211.296 240.498 212.976 244.818 220.617C245.548 222.067 246.338 223.537 247.178 224.997C246.398 220.617 246.668 215.956 248.738 211.976C249.278 211.106 250.358 210.235 251.618 210.135C252.848 210.055 253.868 210.475 254.728 210.926C258.138 212.796 259.738 216.846 260.338 220.487C261.588 225.637 257.948 230.878 260.058 235.799C260.498 236.649 260.658 238.159 260.028 238.999C259.788 239.369 259.518 239.689 259.228 239.989C264.798 244.73 271.488 247.88 279.308 247.75C290.098 247.7 299.308 239.749 303.648 230.598C307.248 222.887 312.448 212.176 321.938 212.766C322.778 212.856 323.598 213.026 324.418 213.266C324.348 211.816 324.528 210.355 324.988 208.915C325.548 207.075 326.388 205.005 328.258 204.005C330.268 202.905 332.738 204.295 334.038 205.685C337.738 209.185 338.188 214.556 339.188 219.187C339.568 221.757 341.048 223.047 342.168 225.437C342.448 226.207 342.418 227.027 342.148 227.788C345.428 231.468 349.398 234.648 354.018 236.859C370.808 244.62 384.088 235.989 384.878 220.457C384.928 220.217 384.988 219.977 385.028 219.737C385.458 217.576 385.378 215.306 384.938 213.496V213.486ZM345.408 242.899C345.608 242.779 345.858 242.659 346.148 242.569C345.718 241.419 344.678 240.419 344.678 240.419C344.678 240.419 344.478 239.699 344.768 238.609C345.018 237.669 345.598 236.059 346.288 234.658C344.868 233.568 343.508 232.368 342.208 231.058C341.798 232.198 341.478 233.178 341.298 233.828C340.668 236.149 339.918 237.669 340.408 239.679C340.738 241.009 341.698 241.959 342.448 242.929C343.218 242.669 344.318 242.649 345.408 242.899ZM341.788 248.68C341.788 248.68 341.788 248.67 341.788 248.66C341.788 248.67 341.788 248.68 341.788 248.69C341.788 248.69 341.798 248.68 341.808 248.67L341.788 248.68ZM262.338 252.321C263.428 253.551 263.788 255.811 263.828 256.121C263.828 256.121 263.828 256.141 263.828 256.151C263.828 256.251 263.838 256.351 263.848 256.441C264.018 256.481 264.218 256.531 264.448 256.591C265.398 255.111 266.458 253.441 268.358 252.131C269.968 251.02 271.328 250.02 272.038 249.18C270.168 248.74 268.298 248.05 266.598 247.29L266.118 247.59C264.168 248.65 262.968 250.76 262.338 252.331V252.321ZM353.728 255.361C353.598 255.421 353.448 255.421 353.318 255.361C353.188 255.301 353.088 255.191 353.048 255.051C352.828 254.281 352.538 254.081 351.848 254.201C351.058 254.351 350.198 255.221 349.938 255.541C349.848 255.651 349.718 255.711 349.568 255.721C349.398 255.721 349.288 255.661 349.198 255.561C348.678 254.991 347.878 254.431 347.568 254.551C347.408 254.611 347.228 254.581 347.088 254.471C346.948 254.361 346.888 254.191 346.908 254.021C346.908 254.021 347.108 252.711 347.288 251.39C347.308 251.25 347.388 251.12 347.508 251.04C347.748 250.89 347.928 250.69 348.068 250.44C348.838 248.97 348.068 247.32 348.068 247.3C347.978 247.1 348.028 246.87 348.188 246.72C348.348 246.58 348.588 246.56 348.778 246.68C348.778 246.68 349.128 246.8 349.908 246.59C350.798 246.34 351.278 245.57 351.288 245.56C351.428 245.34 351.708 245.26 351.938 245.38C352.448 245.66 352.988 245.7 353.428 245.49C353.788 245.32 354.038 244.99 354.118 244.57C354.178 244.24 354.118 243.92 353.928 243.639C353.638 243.229 353.088 242.949 352.368 242.849C350.718 242.599 349.648 243.89 349.608 243.94C349.438 244.15 349.128 244.18 348.918 244.01C347.318 242.709 345.878 243.759 345.818 243.799C345.698 243.89 345.548 243.92 345.398 243.88C344.848 243.739 344.338 243.679 343.898 243.679C343.108 243.679 342.558 243.859 342.398 244.04C341.688 244.82 342.028 246.9 342.588 248.05C342.668 248.21 342.768 248.38 342.868 248.54C342.938 248.66 342.958 248.8 342.928 248.93C342.898 249.06 342.808 249.17 342.688 249.24C342.638 249.26 342.598 249.29 342.558 249.33C341.728 250.04 341.098 251.76 341.538 254.001C342.018 256.431 343.078 258.471 344.318 259.341C346.108 260.592 349.138 261.262 350.208 260.191C350.318 260.081 350.488 260.031 350.638 260.061C350.828 260.091 351.048 260.111 351.348 260.121C351.948 260.121 352.638 260.041 353.498 259.451C353.468 259.451 353.428 259.471 353.398 259.471C352.888 259.581 352.318 259.571 351.758 259.551C351.538 259.551 351.328 259.551 351.118 259.551C350.848 259.551 350.638 259.351 350.618 259.091C350.598 258.831 350.498 258.621 350.308 258.461C350.038 258.241 349.628 258.151 349.198 258.201C348.368 258.311 347.998 258.771 347.988 258.791C347.898 258.911 347.758 258.981 347.608 258.981C347.458 258.981 347.318 258.921 347.218 258.811C346.428 257.891 345.008 256.641 344.318 256.791C344.168 256.821 344.008 256.781 343.898 256.681C343.788 256.581 343.718 256.431 343.738 256.271C343.738 256.251 343.868 254.551 342.918 253.591C342.728 253.401 343.208 253.201 343.408 252.831C343.878 251.98 343.928 251.78 344.128 251.42C344.228 251.23 344.438 251.13 344.658 251.18C344.868 251.22 345.028 251.4 345.048 251.61C345.048 251.71 345.078 251.81 345.108 251.91C345.158 252.141 345.218 252.401 345.158 252.671C344.708 254.641 345.158 255.751 346.688 256.491C348.038 257.151 349.978 257.231 351.518 256.691C351.608 256.661 351.678 256.621 351.758 256.571L351.938 256.481C352.068 256.411 352.228 256.411 352.358 256.481C352.478 256.541 353.258 256.751 354.128 256.121C354.488 255.861 354.898 255.341 355.028 254.771C355.128 254.321 355.078 253.211 354.888 253.241C354.698 253.271 354.638 254.151 354.408 254.501C354.208 254.811 354.088 255.191 353.768 255.351L353.728 255.361ZM230.498 233.338C230.028 233.338 229.568 233.358 229.108 233.378C229.108 233.378 228.558 230.988 228.118 229.428C227.678 227.868 226.588 226.787 224.838 225.957C223.988 225.547 222.938 225.327 221.858 225.327C220.728 225.327 219.558 225.567 218.528 226.087C216.878 226.917 215.308 229.308 216.018 230.738C215.998 231.088 216.038 231.468 216.148 231.878C216.578 233.378 218.348 235.098 220.048 235.098H220.058C218.778 234.298 218.478 233.448 218.188 232.298C218.148 232.148 218.128 231.988 218.108 231.838C219.478 231.828 220.168 230.478 219.488 229.088C219.488 229.088 220.118 228.528 220.788 228.528C221.048 228.528 221.318 228.618 221.548 228.848C221.968 229.268 222.398 229.418 222.908 229.418C223.418 229.418 224.008 229.258 224.718 229.078C223.598 230.098 223.968 230.968 224.478 232.998C224.988 235.028 227.148 237.699 229.168 238.659C229.838 238.979 230.598 239.099 231.198 239.099C232.428 239.099 233.188 238.919 233.188 238.919C234.748 238.479 236.118 236.669 235.148 235.268C234.028 233.638 232.278 233.358 230.498 233.358V233.338ZM213.838 224.247C212.458 223.617 211.328 223.447 210.328 223.447C209.218 223.447 208.278 223.657 207.318 223.657C206.178 223.657 205.028 223.367 203.578 222.077C204.778 225.507 202.938 228.888 201.448 228.888C201.898 227.418 201.528 224.707 200.628 223.807C199.698 226.527 197.358 227.418 197.358 227.418C197.358 227.418 199.178 226.037 196.258 224.447C192.068 225.487 186.848 229.438 186.098 231.328C184.078 235.168 180.478 234.488 178.658 233.078C177.688 232.328 178.018 231.788 178.138 230.898C177.498 230.438 177.658 229.708 177.698 229.488C177.848 228.618 178.928 230.798 182.568 230.648C182.568 230.648 182.578 230.648 182.588 230.648C181.818 229.788 182.208 227.728 182.508 227.678C182.718 227.638 182.378 229.248 184.038 229.488C184.808 229.598 185.358 229.298 186.158 228.698C186.738 228.018 187.408 227.167 188.358 226.147C189.398 225.037 190.248 224.267 191.028 223.667C190.788 223.117 191.268 220.847 189.768 220.117C189.208 220.237 188.648 220.277 188.088 220.157C187.538 220.547 186.198 221.077 183.728 221.837C182.048 222.347 181.128 224.647 178.938 225.337C178.908 225.767 179.048 226.277 179.508 226.867C179.728 227.147 180.448 227.668 180.388 227.748C180.328 227.828 179.448 227.568 178.978 227.418C177.848 227.047 177.488 226.397 177.198 225.517C176.338 225.447 175.538 225.207 175.048 224.947C174.798 224.807 174.538 224.187 174.358 223.607C173.908 223.517 173.538 223.347 173.228 223.137C172.998 222.977 172.798 222.807 172.638 222.627C172.798 223.417 173.168 224.357 173.948 225.367C172.208 224.937 171.558 223.427 171.528 223.357C171.498 223.287 171.438 223.237 171.368 223.227C171.298 223.217 171.218 223.237 171.168 223.297C171.128 223.347 170.158 224.477 171.788 227.297C168.908 226.167 169.378 223.467 169.398 223.347C169.408 223.287 169.398 223.217 169.348 223.167C169.308 223.117 169.248 223.087 169.188 223.087C169.118 223.087 167.628 223.177 167.198 226.057C166.178 224.907 166.128 223.967 166.918 222.317C166.958 222.227 166.938 222.127 166.868 222.057C166.798 221.997 166.688 221.987 166.608 222.037C166.238 222.267 165.738 222.317 165.188 222.167C164.638 222.017 164.098 221.687 163.728 221.287C164.988 221.517 166.308 221.087 167.208 220.677C167.318 220.947 167.478 221.197 167.688 221.387C168.808 222.457 170.458 222.537 171.778 221.927C171.818 221.897 171.858 221.877 171.898 221.847C172.158 221.907 172.418 221.927 172.658 221.927C172.978 221.927 173.238 221.887 173.288 221.887C174.398 221.717 175.098 221.347 175.428 220.747C175.878 219.937 175.478 219.016 175.238 218.466C175.008 217.936 174.638 217.566 174.108 217.366C172.818 216.866 171.078 217.646 170.998 217.676L171.388 218.526C171.788 218.346 173.008 217.936 173.778 218.236C174.058 218.346 174.258 218.536 174.378 218.826C174.608 219.357 174.818 219.917 174.608 220.287C174.428 220.607 173.928 220.837 173.138 220.957C172.878 220.997 172.438 221.017 172.108 220.937C171.968 219.867 171.038 219.567 170.208 221.077C169.528 221.097 168.808 221.077 168.348 220.677C167.458 220.017 167.278 217.886 168.718 217.656C168.828 214.176 173.168 213.866 174.768 215.586C174.768 215.586 175.248 214.646 176.108 214.286C176.808 214.566 177.978 215.246 178.218 216.226L179.128 216.006C178.858 214.896 177.858 214.116 176.978 213.666C177.138 213.046 177.858 212.476 178.598 212.516C179.218 212.996 179.918 213.786 180.388 214.416L181.138 213.866C180.748 213.336 180.188 212.676 179.598 212.136C179.968 211.686 180.558 211.426 181.118 211.466C181.598 211.866 182.018 212.396 182.108 212.756L183.008 212.516C182.868 211.976 182.418 211.396 181.928 210.936C182.278 209.865 182.728 210.035 182.728 210.035C182.728 210.035 182.218 208.625 181.638 206.375C181.058 204.125 183.668 203.835 187.378 203.615C191.078 203.395 189.208 201.654 193.118 199.974C193.388 199.864 193.668 199.764 193.948 199.694C194.388 199.584 194.848 199.514 195.308 199.494C195.618 198.384 196.048 197.374 196.558 196.594C198.578 192.743 202.358 191.793 206.208 191.013C206.138 191.773 206.098 192.593 206.068 193.413C205.968 196.064 204.298 198.534 203.368 199.904C203.218 200.134 203.078 200.324 202.978 200.494C202.448 201.334 201.958 201.444 200.968 201.644C199.678 201.914 197.908 202.274 195.988 204.575C195.618 205.015 195.588 205.645 195.918 206.115L196.138 206.435C196.198 206.515 196.288 206.565 196.398 206.565C196.408 206.565 196.428 206.565 196.438 206.565C196.558 206.545 196.648 206.475 196.688 206.365C196.758 206.175 197.038 205.785 197.198 205.595C197.768 204.915 198.318 204.445 198.828 204.105V204.345C199.938 204.345 201.158 204.995 201.788 205.925C202.078 206.355 202.368 207.025 202.078 207.785L202.968 208.125C203.318 207.225 203.178 206.255 202.578 205.375C201.978 204.495 200.988 203.825 199.938 203.535C200.408 203.365 200.858 203.265 201.288 203.185C202.338 202.965 203.328 202.765 204.178 201.534L204.208 201.614C204.868 201.394 205.528 201.424 206.118 201.724C206.738 202.034 207.268 202.655 207.468 203.285L208.378 202.995C208.098 202.114 207.398 201.304 206.548 200.874C206.008 200.604 205.438 200.484 204.858 200.524C205.868 199.024 207.548 196.424 207.648 193.463C207.728 191.153 207.888 188.683 208.698 188.683C208.798 188.683 208.918 188.713 209.048 188.773C210.258 189.323 210.388 189.633 209.728 193.103C209.468 194.454 209.138 196.844 209.848 197.694C210.028 197.914 210.268 198.024 210.538 198.024C211.098 198.024 211.798 197.524 212.678 196.504C213.378 195.694 214.188 194.934 215.048 194.123C216.278 192.963 217.558 191.773 218.598 190.313C221.228 186.643 222.908 182.082 224.138 178.742C224.818 176.891 225.668 174.581 226.048 174.461C226.988 177.221 225.808 182.322 222.888 188.103C219.378 195.064 213.908 201.564 210.168 203.235C208.408 204.015 208.218 204.965 208.048 205.795C207.928 206.385 207.828 206.895 207.148 207.365C206.948 207.505 206.568 207.635 206.168 207.765C206.118 207.785 206.078 207.795 206.028 207.815C206.378 206.775 206.398 205.505 206.068 204.435C205.788 203.565 205.298 202.945 204.668 202.695L204.308 203.585C204.668 203.735 204.968 204.135 205.158 204.735C205.518 205.865 205.368 207.335 204.808 208.215L204.908 208.275C204.568 208.455 204.268 208.675 204.048 208.965C203.598 209.575 203.468 210.075 203.368 210.485C203.208 211.136 203.128 211.456 201.518 211.786C201.518 211.786 200.938 211.976 200.578 212.026C200.468 212.046 200.378 212.116 200.338 212.206C200.298 212.306 200.308 212.416 200.368 212.506L200.568 212.796C200.808 213.136 201.198 213.336 201.608 213.336C201.688 213.336 201.778 213.336 201.858 213.306C204.008 212.866 204.568 212.136 204.888 210.856C204.968 210.535 205.038 210.255 205.308 209.895C205.488 209.645 206.198 209.425 206.658 209.265C207.168 209.095 207.658 208.945 208.058 208.665C208.528 208.335 208.848 207.975 209.068 207.615C210.108 207.715 211.268 207.945 212.538 208.315C206.548 210.375 204.698 214.336 204.698 214.336C204.698 214.336 208.978 211.026 214.178 211.026C214.638 211.026 215.098 211.056 215.568 211.106C210.758 212.836 209.098 214.016 208.438 215.726C208.438 215.726 208.808 215.726 209.398 215.726C211.398 215.726 215.988 215.836 218.088 216.746C217.448 216.646 216.768 216.606 216.068 216.606C211.348 216.606 205.818 218.516 205.818 218.516C205.818 218.516 206.118 218.506 206.638 218.506C209.028 218.506 215.948 218.746 218.228 221.407C215.008 220.417 211.258 219.947 208.498 219.947C207.018 219.947 205.818 220.087 205.138 220.347C206.648 222.787 212.518 221.157 213.828 224.247H213.838ZM189.498 211.386C188.308 210.826 187.138 210.165 186.298 210.165C185.458 210.165 184.868 211.086 184.478 212.446C185.488 213.616 185.978 214.036 187.188 213.826C188.388 213.616 189.218 212.566 189.488 211.386H189.498ZM194.918 218.366C194.248 218.116 193.208 218.686 192.008 219.267C192.378 220.417 192.098 222.237 191.698 223.177C192.638 222.537 193.498 222.107 194.528 221.567C196.608 220.477 196.298 218.876 194.918 218.366ZM223.048 191.133C222.998 191.223 222.948 191.313 222.898 191.403C224.688 198.114 224.038 207.445 216.908 210.325L219.698 210.655L215.878 212.026C212.748 213.146 211.128 213.996 210.248 214.786C212.128 214.816 214.688 214.936 216.688 215.346C217.388 215.116 217.878 214.886 218.578 214.496C226.728 210.015 226.718 198.854 223.048 191.123V191.133ZM218.958 220.797L219.838 221.827C221.008 221.297 222.078 220.647 223.028 219.877C223.498 219.497 223.928 219.097 224.318 218.656L218.318 217.756C217.458 218.106 216.448 218.466 215.578 218.746C217.098 219.267 218.228 219.947 218.948 220.797H218.958ZM204.028 185.462C202.578 184.802 202.308 186.913 202.188 190.423C202.188 190.523 202.188 190.613 202.168 190.713C203.068 190.423 203.998 190.193 204.908 189.993C205.538 186.673 205.458 186.113 204.028 185.462ZM215.588 208.235C222.078 206.305 223.108 198.544 222.708 192.333C222.668 192.203 222.618 192.073 222.578 191.943C221.858 193.153 221.088 194.324 220.298 195.444C220.068 196.914 219.638 198.334 218.978 199.634C217.438 202.755 214.818 205.235 211.898 207.165C212.198 207.235 212.498 207.325 212.808 207.415L215.598 208.235H215.588ZM219.178 186.363C219.108 186.293 219.038 186.213 218.968 186.143C219.018 186.253 219.068 186.363 219.118 186.473C219.138 186.433 219.158 186.403 219.178 186.363ZM214.078 185.802C213.798 186.253 213.508 186.693 213.198 187.113C213.028 187.353 212.838 187.593 212.658 187.823C213.388 187.323 213.848 186.663 214.078 185.802ZM258.658 238.289C258.968 237.659 258.858 237.299 258.478 236.499C256.628 233.188 257.598 229.138 258.118 225.747C258.678 221.817 257.718 217.446 255.318 214.296C254.148 213.036 251.728 211.186 250.378 213.156C248.048 217.296 247.748 223.037 248.878 227.708C249.268 229.528 250.688 230.888 251.168 232.708L250.888 232.838C249.178 233.598 247.328 233.308 245.738 232.728C244.178 231.988 242.768 231.238 240.988 231.408C238.618 231.538 236.338 232.338 234.088 233.118C234.768 233.468 235.398 233.978 235.928 234.738C236.448 235.488 236.558 236.409 236.238 237.309C236.178 237.479 236.098 237.649 236.008 237.809C236.508 237.719 236.998 237.619 237.468 237.509C241.008 236.979 244.288 239.129 247.478 240.229C251.048 241.299 256.458 241.919 258.668 238.299L258.658 238.289ZM211.158 195.844C211.248 195.744 211.358 195.634 211.468 195.494C212.228 194.614 213.068 193.823 213.958 192.993C215.138 191.893 216.358 190.753 217.308 189.423C217.588 189.033 217.858 188.633 218.118 188.223C218.158 188.013 218.188 187.793 218.208 187.583C218.088 187.283 217.968 186.993 217.828 186.713C217.578 186.203 217.708 185.592 218.118 185.212C217.628 182.462 215.828 179.812 213.088 177.912C215.498 181.112 217.308 187.263 212.418 189.413C212.168 189.513 211.918 189.613 211.658 189.703C211.778 190.633 211.578 191.823 211.268 193.413C211.038 194.604 210.988 195.404 210.988 195.924C211.048 195.894 211.098 195.874 211.158 195.844ZM219.318 232.838C219.408 233.118 219.518 233.348 219.788 233.668C220.168 233.468 220.448 233.198 220.498 232.818C220.498 232.818 221.238 234.158 222.358 234.648C222.358 234.648 222.358 234.648 222.368 234.648C222.818 234.668 223.298 234.708 223.768 234.778C223.788 234.668 223.818 234.568 223.858 234.468C223.618 233.968 223.438 233.498 223.328 233.068C223.058 232.018 222.838 231.158 222.948 230.358C222.928 230.358 222.918 230.358 222.898 230.358C222.198 230.358 221.598 230.138 221.078 229.698C220.928 229.668 220.778 229.638 220.628 229.608C220.758 230.318 220.898 231.018 220.548 231.588C220.288 232.008 219.758 232.628 219.318 232.828V232.838ZM230.968 240.589C230.128 240.589 228.938 240.139 228.228 239.799C226.708 239.079 225.288 237.459 224.518 235.649C224.408 235.749 224.268 235.789 224.118 235.769C223.108 235.599 221.928 235.528 221.198 235.589C221.078 235.599 220.948 235.619 220.828 235.639C220.658 235.879 220.368 236.029 220.068 236.029C219.968 236.029 219.858 236.029 219.758 236.009C218.938 236.429 218.208 237.159 217.608 238.129C216.728 239.569 216.668 241.299 217.458 242.359C217.518 242.439 217.588 242.519 217.648 242.589C217.738 242.689 217.788 242.819 217.778 242.949C217.778 243.099 218.018 243.649 218.508 244.19C218.958 244.68 219.448 244.96 219.838 244.96C220.768 244.97 221.478 244.74 221.888 244.27C222.068 244.07 222.168 243.85 222.218 243.659C221.938 243.769 221.628 243.88 221.348 243.94C220.568 244.12 219.838 243.97 219.438 243.539C219.348 243.439 219.298 243.309 219.308 243.179C219.318 243.049 219.388 242.929 219.488 242.849C219.658 242.719 219.908 242.299 219.908 241.789C219.908 241.279 219.158 241.029 219.148 241.029C218.908 240.959 218.768 240.719 218.828 240.479C218.858 240.369 219.028 239.769 219.978 239.349C220.578 239.079 220.938 238.239 220.938 238.239C221.028 238.019 221.268 237.899 221.498 237.969C221.498 237.969 222.798 238.349 223.988 238.709C224.408 238.839 225.008 238.739 225.678 238.439C225.738 238.409 225.808 238.399 225.868 238.399C225.958 238.399 226.048 238.429 226.128 238.479C226.258 238.569 226.338 238.719 226.338 238.879C226.338 239.039 226.308 239.189 226.248 239.329C225.928 240.159 227.108 240.799 227.348 240.909C228.128 241.289 229.008 241.449 229.018 241.449C229.168 241.479 229.298 241.579 229.368 241.719C229.428 241.859 229.418 242.029 229.338 242.159C229.158 242.459 228.698 243.409 229.008 243.869C229.088 243.99 229.108 244.13 229.068 244.27C229.028 244.4 228.928 244.51 228.798 244.57C228.768 244.58 228.038 244.91 227.738 245.95C227.428 247.01 228.298 247.82 228.648 248.04C228.778 248.12 229.128 248.16 229.408 248.01C229.638 247.89 229.768 247.66 229.778 247.33C229.818 246.3 230.208 245.75 230.498 245.35C230.728 245.03 230.808 244.91 230.768 244.68C230.518 243.289 231.388 241.999 231.428 241.949C231.488 241.869 231.568 241.809 231.658 241.769C232.418 241.509 233.118 240.709 233.668 239.749C233.608 239.769 233.558 239.789 233.498 239.809C233.218 239.929 232.198 240.599 230.958 240.599L230.968 240.589ZM218.248 198.134C215.658 201.304 212.968 203.745 210.798 204.715C209.778 205.165 209.718 205.475 209.588 206.145C209.548 206.315 209.508 206.515 209.448 206.725C209.658 206.745 209.868 206.775 210.078 206.815C213.798 204.575 216.398 201.984 217.828 199.064C217.978 198.764 218.118 198.454 218.248 198.134ZM221.188 171.351C220.218 170.421 219.158 174.821 217.038 179.912C217.868 180.982 218.498 182.132 218.918 183.322C220.908 178.882 222.148 174.191 221.178 171.351H221.188ZM227.258 247.94C227.088 248.43 226.818 248.91 226.078 249.24C225.858 249.34 225.618 249.37 225.388 249.37C224.768 249.37 224.178 249.11 223.908 249.11C223.808 249.11 223.748 249.15 223.758 249.25C223.768 249.65 224.998 250.38 226.308 250.38C226.508 250.38 226.708 250.36 226.908 250.32C227.748 250.16 228.488 249.65 228.938 249.03C228.658 249.03 228.378 248.95 228.158 248.82C227.858 248.63 227.518 248.33 227.248 247.93L227.258 247.94ZM209.578 220.947C209.468 220.987 209.358 221.017 209.248 221.057C209.278 221.057 209.308 221.057 209.338 221.067C211.248 221.357 213.388 221.687 214.438 223.357C215.768 223.177 217.068 222.867 218.298 222.447L217.948 222.337C215.028 221.437 211.888 221.037 209.578 220.937V220.947ZM216.928 237.209C217.568 236.289 216.918 234.918 216.618 234.398C215.958 233.718 215.468 232.918 215.248 232.148C215.138 231.748 215.078 231.348 215.078 230.958C214.838 231.108 214.638 231.248 214.478 231.388C213.548 232.238 212.968 235.368 213.978 236.519C214.018 236.969 214.178 237.509 214.548 238.039C214.918 238.569 215.458 239.069 216.088 239.419C216.168 239.039 216.298 238.649 216.468 238.279C216.398 238.179 216.338 238.069 216.288 237.959C216.258 237.899 216.238 237.829 216.208 237.769C216.458 237.699 216.698 237.539 216.928 237.209ZM351.488 249.56C351.688 250.31 351.878 251.03 350.948 251.69C350.838 251.35 350.508 251.07 349.858 250.95C349.588 250.9 349.138 251.05 348.678 251.32C348.548 251.49 348.388 251.65 348.218 251.78C348.118 252.481 348.018 253.171 347.948 253.631C348.278 253.701 348.608 253.861 348.898 254.061C349.558 253.801 350.188 253.491 350.498 253.151C350.528 253.111 350.568 253.071 350.598 253.031C350.938 252.941 351.298 252.771 351.548 252.561C352.548 251.72 352.318 250.03 351.498 249.57L351.488 249.56Z" fill="#AD8F47"/>
<path d="M167.318 280.894V253.601H172.308V277.454H178.908V280.894H167.318Z" fill="#42210B"/>
<path d="M182.998 280.894L188.458 253.601H193.778L199.238 280.894H194.618L193.538 274.593H188.788L187.678 280.894H182.998ZM189.298 271.423H193.008L191.158 259.961L189.308 271.423H189.298Z" fill="#42210B"/>
<path d="M203.988 280.894V253.601H210.428C212.648 253.601 214.388 253.901 215.638 254.511C216.888 255.121 217.768 256.051 218.298 257.311C218.828 258.571 219.088 260.161 219.088 262.092V272.063C219.088 274.043 218.828 275.683 218.298 277.004C217.768 278.314 216.898 279.294 215.668 279.934C214.448 280.574 212.768 280.894 210.628 280.894H203.988ZM208.978 277.424H210.498C211.648 277.424 212.468 277.224 212.958 276.814C213.448 276.403 213.758 275.823 213.868 275.043C213.978 274.273 214.038 273.323 214.038 272.193V261.752C214.038 260.652 213.958 259.761 213.798 259.091C213.638 258.421 213.318 257.921 212.818 257.611C212.328 257.301 211.528 257.141 210.428 257.141H208.978V277.424Z" fill="#42210B"/>
<path d="M224.387 280.894V253.601H229.307V280.894H224.387Z" fill="#42210B"/>
<path d="M234.798 280.894V253.601H246.258V257.101H239.788V264.952H244.878V268.423H239.788V277.454H246.328V280.894H234.808H234.798Z" fill="#42210B"/>
<path d="M258.058 281.264C256.418 281.264 255.048 280.944 253.948 280.304C252.848 279.664 252.018 278.724 251.458 277.494C250.898 276.263 250.578 274.743 250.518 272.943L254.798 272.103C254.838 273.163 254.968 274.093 255.188 274.903C255.398 275.713 255.728 276.333 256.168 276.773C256.608 277.214 257.188 277.434 257.898 277.434C258.708 277.434 259.278 277.194 259.618 276.713C259.958 276.233 260.128 275.623 260.128 274.873C260.128 273.683 259.858 272.703 259.318 271.943C258.778 271.183 258.058 270.413 257.158 269.653L253.718 266.622C252.748 265.792 251.988 264.862 251.408 263.842C250.838 262.822 250.548 261.552 250.548 260.051C250.548 257.891 251.178 256.231 252.438 255.061C253.698 253.891 255.418 253.311 257.588 253.311C258.868 253.311 259.938 253.511 260.788 253.901C261.638 254.291 262.318 254.841 262.828 255.531C263.338 256.231 263.708 257.021 263.958 257.911C264.208 258.801 264.358 259.741 264.428 260.722L260.178 261.462C260.138 260.612 260.038 259.841 259.888 259.171C259.738 258.501 259.488 257.971 259.118 257.591C258.748 257.211 258.198 257.021 257.488 257.021C256.778 257.021 256.178 257.261 255.788 257.741C255.398 258.221 255.198 258.821 255.198 259.541C255.198 260.462 255.388 261.222 255.768 261.812C256.148 262.412 256.698 263.022 257.418 263.652L260.818 266.652C261.938 267.592 262.898 268.703 263.698 269.973C264.498 271.243 264.898 272.773 264.898 274.573C264.898 275.873 264.608 277.034 264.038 278.044C263.468 279.054 262.668 279.844 261.648 280.424C260.628 280.994 259.428 281.284 258.058 281.284V281.264Z" fill="#42210B"/>
<path d="M280.058 280.894V253.601H285.048V277.454H291.648V280.894H280.058Z" fill="#42210B"/>
<path d="M296.387 280.894V253.601H301.307V280.894H296.387Z" fill="#42210B"/>
<path d="M306.798 280.894V253.601H310.268L316.908 269.173V253.601H321.018V280.894H317.718L311.048 264.582V280.894H306.798Z" fill="#42210B"/>
<path d="M326.538 280.894V253.601H337.998V257.101H331.528V264.952H336.618V268.423H331.528V277.454H338.068V280.894H326.548H326.538Z" fill="#42210B"/>
<path d="M360.668 281.264C358.648 281.264 357.078 280.894 355.948 280.154C354.828 279.414 354.048 278.354 353.628 276.984C353.198 275.613 352.988 273.973 352.988 272.063V253.601H357.838V272.643C357.838 273.493 357.898 274.303 358.008 275.053C358.118 275.803 358.388 276.413 358.798 276.874C359.218 277.334 359.838 277.564 360.668 277.564C361.548 277.564 362.178 277.334 362.568 276.874C362.958 276.413 363.218 275.803 363.338 275.053C363.458 274.303 363.528 273.493 363.528 272.643V253.601H368.348V272.063C368.348 273.973 368.138 275.613 367.708 276.984C367.278 278.354 366.508 279.414 365.398 280.154C364.288 280.894 362.708 281.264 360.668 281.264Z" fill="#42210B"/>
<path d="M373.728 280.894V253.601H381.748C383.388 253.601 384.718 253.901 385.738 254.511C386.758 255.121 387.508 256.001 387.998 257.151C388.478 258.311 388.718 259.711 388.718 261.342C388.718 263.112 388.418 264.552 387.808 265.642C387.198 266.732 386.358 267.522 385.268 268.022C384.178 268.512 382.888 268.763 381.408 268.763H378.708V280.894H373.718H373.728ZM378.718 265.262H380.608C381.508 265.262 382.208 265.132 382.718 264.872C383.228 264.612 383.568 264.202 383.758 263.622C383.948 263.052 384.048 262.282 384.048 261.312C384.048 260.342 383.978 259.521 383.828 258.901C383.678 258.281 383.368 257.831 382.888 257.541C382.408 257.251 381.648 257.101 380.618 257.101H378.728V265.252L378.718 265.262Z" fill="#42210B"/>
</svg>
