<svg width="559" height="294" viewBox="0 0 559 294" fill="none" xmlns="http://www.w3.org/2000/svg">
<path d="M248.638 27.3898V24.1198L255.318 13.7998C255.808 13.0398 256.268 12.3198 256.708 11.6298C257.138 10.9398 257.498 10.2198 257.778 9.4798C258.058 8.7298 258.198 7.9198 258.198 7.0298C258.198 6.0298 258.018 5.2598 257.668 4.7298C257.308 4.1998 256.758 3.9298 255.998 3.9298C255.288 3.9298 254.728 4.1298 254.328 4.5298C253.928 4.9298 253.658 5.4498 253.508 6.0998C253.358 6.7498 253.288 7.4598 253.288 8.2398V9.3798H248.748V8.1798C248.748 6.5798 248.988 5.1698 249.468 3.9498C249.948 2.7398 250.708 1.7798 251.758 1.0898C252.808 0.399805 254.178 0.0498047 255.868 0.0498047C258.188 0.0498047 259.918 0.669805 261.078 1.9198C262.238 3.1698 262.818 4.8998 262.818 7.1298C262.818 8.2398 262.658 9.2498 262.348 10.1498C262.038 11.0498 261.628 11.9198 261.108 12.7398C260.598 13.5598 260.038 14.4098 259.438 15.2798L253.898 23.6998H262.118V27.4098H248.658L248.638 27.3898Z" fill="#C1272D"/>
<path d="M274.578 27.79C272.998 27.79 271.688 27.46 270.658 26.79C269.618 26.12 268.848 25.2 268.318 24.02C267.798 22.84 267.528 21.48 267.528 19.95V7.95C267.528 6.37 267.778 4.98 268.278 3.79C268.778 2.6 269.548 1.67 270.578 1C271.608 0.33 272.948 0 274.568 0C276.188 0 277.528 0.33 278.558 1C279.598 1.67 280.358 2.6 280.858 3.79C281.358 4.98 281.608 6.37 281.608 7.95V19.94C281.608 21.48 281.348 22.83 280.828 24.01C280.308 25.19 279.528 26.11 278.488 26.78C277.448 27.45 276.148 27.78 274.568 27.78L274.578 27.79ZM274.578 23.82C275.268 23.82 275.778 23.61 276.118 23.19C276.458 22.77 276.678 22.25 276.788 21.65C276.898 21.05 276.958 20.46 276.958 19.88V8.02C276.958 7.4 276.908 6.78 276.808 6.17C276.708 5.56 276.488 5.04 276.158 4.62C275.828 4.2 275.298 3.99 274.588 3.99C273.878 3.99 273.348 4.2 273.018 4.62C272.688 5.04 272.468 5.56 272.368 6.17C272.268 6.78 272.218 7.4 272.218 8.02V19.88C272.218 20.46 272.278 21.05 272.398 21.65C272.518 22.25 272.748 22.76 273.078 23.19C273.408 23.62 273.908 23.82 274.578 23.82Z" fill="#C1272D"/>
<path d="M286.417 27.3898V24.1198L293.097 13.7998C293.587 13.0398 294.047 12.3198 294.487 11.6298C294.917 10.9398 295.277 10.2198 295.557 9.4798C295.837 8.7298 295.977 7.9198 295.977 7.0298C295.977 6.0298 295.797 5.2598 295.447 4.7298C295.087 4.1998 294.537 3.9298 293.777 3.9298C293.067 3.9298 292.507 4.1298 292.107 4.5298C291.707 4.9298 291.437 5.4498 291.287 6.0998C291.137 6.7498 291.067 7.4598 291.067 8.2398V9.3798H286.527V8.1798C286.527 6.5798 286.767 5.1698 287.247 3.9498C287.727 2.7398 288.487 1.7798 289.537 1.0898C290.587 0.399805 291.957 0.0498047 293.647 0.0498047C295.967 0.0498047 297.697 0.669805 298.857 1.9198C300.017 3.1698 300.597 4.8998 300.597 7.1298C300.597 8.2398 300.437 9.2498 300.127 10.1498C299.817 11.0498 299.407 11.9198 298.887 12.7398C298.377 13.5598 297.817 14.4098 297.217 15.2798L291.677 23.6998H299.897V27.4098H286.437L286.417 27.3898Z" fill="#C1272D"/>
<path d="M311.448 27.3901V20.7401H303.368V16.8001L310.418 0.330078H315.798V17.0601H318.568V20.7301H315.798V27.3801H311.458L311.448 27.3901ZM307.238 17.0701H311.448V5.31008L307.238 17.0701Z" fill="#C1272D"/>
<path d="M352.548 132.28C352.668 127.59 356.518 123.74 361.208 123.74C365.898 123.74 369.868 127.59 369.868 132.28H398.138C401.748 132.28 404.758 135.29 404.758 138.9C404.758 142.51 401.748 145.52 398.138 145.52H366.018C366.018 145.64 359.978 145.76 359.858 145.76L355.288 150.33V169.84H356.368C358.418 169.84 359.978 171.52 359.978 173.45C359.978 175.5 358.418 177.06 356.368 177.06H354.318C353.118 178.98 351.068 180.07 348.668 180.07C345.058 180.07 342.048 177.18 342.048 173.45V163.56L338.678 166.93C336.028 169.58 331.938 169.58 329.298 166.93C326.658 164.28 326.768 160.19 329.298 157.55L341.328 145.52H330.378C326.768 145.52 323.758 142.63 323.758 138.9C323.758 135.17 326.768 132.28 330.378 132.28H352.548Z" fill="#B7282C"/>
<path d="M387.428 165.38C390.438 165.38 392.838 167.91 392.838 170.79C392.838 173.67 390.428 176.2 387.428 176.2C376.118 176.2 366.978 167.06 366.978 155.87C366.978 152.86 369.388 150.46 372.388 150.46C375.388 150.46 377.798 152.87 377.798 155.87C377.798 161.16 382.128 165.37 387.418 165.37L387.428 165.38Z" fill="#B7282C"/>
<path d="M342.527 122.5C342.527 126.8 339.108 130.23 334.798 130.23C330.488 130.23 327.068 126.81 327.068 122.5V103.84C323.977 106.38 319.448 106.27 316.578 103.4C313.488 100.42 313.488 95.4501 316.578 92.4701L336.777 72.2701C339.757 69.1801 344.728 69.1801 347.708 72.2701C350.688 75.2501 350.688 80.1101 347.708 83.2001L342.518 88.3901V122.5H342.527Z" fill="#C1272D"/>
<path d="M395.068 128.74H392.308C375.638 128.74 362.068 115.16 362.068 98.5001V96.6801H354.788C352.908 96.6801 351.478 95.1301 351.478 93.3701C351.478 91.4901 352.908 90.0601 354.788 90.0601H362.068V84.5801C362.068 80.3901 365.488 76.8501 369.798 76.8501C374.108 76.8501 377.528 80.3801 377.528 84.5801V90.0601H402.718C404.598 90.0601 406.028 91.4901 406.028 93.3701C406.028 95.1401 404.598 96.6801 402.718 96.6801H377.528V98.5001C377.528 106.45 383.818 112.96 391.768 113.29V112.19C391.768 110.31 393.198 108.88 395.078 108.88C396.848 108.88 398.388 110.31 398.388 112.19V114.07C401.038 115.28 402.808 117.93 402.808 121.02C402.808 125.32 399.388 128.75 395.078 128.75L395.068 128.74Z" fill="#C1272D"/>
<path d="M397.188 86.7599C401.578 86.7599 405.138 83.2005 405.138 78.8099C405.138 74.4192 401.578 70.8599 397.188 70.8599C392.797 70.8599 389.238 74.4192 389.238 78.8099C389.238 83.2005 392.797 86.7599 397.188 86.7599Z" fill="#C1272D"/>
<path d="M388.388 161.65C392.11 161.65 395.128 158.632 395.128 154.91C395.128 151.188 392.11 148.17 388.388 148.17C384.665 148.17 381.648 151.188 381.648 154.91C381.648 158.632 384.665 161.65 388.388 161.65Z" fill="#B7282C"/>
<path d="M153.188 132.99C153.188 128.45 156.848 124.8 161.378 124.8C172.218 124.8 180.918 115.98 180.918 105.26V103.37H157.848C155.828 103.37 154.068 101.61 154.068 99.5902C154.068 97.4502 155.828 95.8102 157.848 95.8102H181.798C183.188 93.1602 185.958 91.4002 189.108 91.4002C193.648 91.4002 197.298 95.0602 197.298 99.5902V105.26C197.298 113.71 194.398 121.39 189.488 127.57L195.288 133.37C197.558 135.64 197.558 139.17 195.288 141.44C193.148 143.71 189.488 143.71 187.348 141.44L185.708 139.93V164.13C185.708 169.05 181.798 172.95 176.888 172.95C171.978 172.95 168.068 169.04 168.068 164.13V140.56C165.928 140.94 163.658 141.19 161.388 141.19C156.848 141.19 153.198 137.53 153.198 133L153.188 132.99ZM175.878 72.7402C180.918 72.7402 184.958 76.9002 184.958 81.9402C184.958 86.9802 180.928 90.8902 175.878 90.8902C170.828 90.8902 166.798 86.8602 166.798 81.9402C166.798 77.0202 170.958 72.7402 175.878 72.7402ZM255.798 164.13C255.798 169.05 251.768 172.95 246.978 172.95C243.448 172.95 240.427 170.93 238.908 167.91H216.598C215.208 170.94 212.188 172.95 208.658 172.95C203.738 172.95 199.838 169.04 199.838 164.13V135.89C199.838 131.1 203.748 127.07 208.658 127.07C212.188 127.07 215.208 129.21 216.598 132.11H238.908C240.418 129.21 243.448 127.07 246.978 127.07C251.768 127.07 255.798 131.1 255.798 135.89V164.13ZM205.628 103.12C205.628 99.2102 208.778 96.1902 212.558 96.1902C215.078 96.1902 217.218 97.4502 218.478 99.3402H237.138C238.398 97.4502 240.418 96.1902 242.938 96.1902C246.717 96.1902 249.868 99.2202 249.868 103.12V117.74C249.868 121.65 246.717 124.67 242.938 124.67C240.418 124.67 238.398 123.41 237.138 121.52H218.478C217.218 123.41 215.078 124.67 212.558 124.67C208.778 124.67 205.628 121.65 205.628 117.74V103.12ZM215.708 75.2602H239.908C244.318 75.2602 248.098 78.9202 248.098 83.4502C248.098 87.9802 244.318 91.6402 239.908 91.6402H215.708C211.168 91.6402 207.518 87.9802 207.518 83.4502C207.518 78.9202 211.178 75.2602 215.708 75.2602ZM222.138 139.67H217.478V146.22H222.138V139.67ZM217.478 160.34H222.138V153.79H217.478V160.34ZM236.008 106.89H219.498V113.95H236.008V106.89ZM238.148 139.66H233.488V146.21H238.148V139.66ZM233.488 160.33H238.148V153.78H233.488V160.33Z" fill="#C1272D"/>
<path d="M132.578 179.55C140.108 187.95 156.618 194.81 156.618 194.81C130.268 160.25 130.138 129.23 132.278 116.31L128.498 115.05C128.358 115.48 115.118 160.06 132.578 179.56V179.55Z" fill="#C1272D"/>
<path d="M114.958 107.52C114.338 118.78 121.168 135.31 121.168 135.31C126.978 92.2403 148.818 70.2203 159.468 62.5903L157.688 59.0303C157.278 59.2403 116.398 81.4003 114.958 107.53V107.52Z" fill="#2E4358"/>
<path d="M153.427 44.13C145.027 51.66 138.167 68.17 138.167 68.17C172.727 41.82 203.747 41.69 216.667 43.83L217.927 40.05C217.497 39.91 172.917 26.67 153.417 44.13H153.427Z" fill="#C1272D"/>
<path d="M225.457 26.51C214.197 25.89 197.667 32.72 197.667 32.72C240.737 38.53 262.757 60.37 270.387 71.02L273.947 69.24C273.737 68.83 251.577 27.95 225.447 26.51H225.457Z" fill="#2E4358"/>
<path d="M271.218 85.2102C268.158 96.0702 271.218 113.68 271.218 113.68C286.278 72.9202 312.398 56.1902 324.458 51.0602L323.498 47.2002C323.058 47.3202 278.328 60.0302 271.218 85.2102Z" fill="#C1272D"/>
<path d="M396.728 30.2599C385.868 27.1999 368.258 30.2599 368.258 30.2599C409.018 45.3199 425.748 71.4399 430.878 83.4999L434.738 82.5399C434.618 82.0999 421.908 37.3699 396.728 30.2599Z" fill="#C1272D"/>
<path d="M451.678 155.76C454.738 144.9 451.678 127.29 451.678 127.29C436.618 168.05 410.498 184.78 398.438 189.91L399.398 193.77C399.838 193.65 444.568 180.94 451.678 155.76Z" fill="#C1272D"/>
<path d="M272.708 159.35C278.218 169.19 292.837 179.48 292.837 179.48C274.657 140 281.298 109.71 286.208 97.5598L282.798 95.5098C282.568 95.8998 259.928 136.52 272.708 159.35Z" fill="#2E4358"/>
<path d="M322.587 31.7401C312.747 37.2501 302.458 51.8701 302.458 51.8701C341.938 33.6901 372.228 40.3301 384.378 45.2401L386.428 41.8301C386.038 41.6001 345.417 18.9601 322.587 31.7401Z" fill="#2E4358"/>
<path d="M450.198 81.63C444.688 71.79 430.068 61.5 430.068 61.5C448.248 100.98 441.608 131.27 436.698 143.42L440.108 145.47C440.338 145.08 462.978 104.46 450.198 81.63Z" fill="#2E4358"/>
<path d="M454.438 219.75C458.038 218.31 463.748 216.58 470.898 216.56C478.068 216.54 483.808 218.26 487.448 219.7C487.738 219.81 487.968 219.46 487.748 219.24C485.708 217.23 482.418 213.85 471.208 201.95C471.098 201.83 470.908 201.83 470.798 201.95L454.138 219.3C453.928 219.52 454.168 219.87 454.448 219.75H454.438Z" fill="#2E4358"/>
<path d="M419.598 219.75C423.198 218.31 428.908 216.58 436.058 216.56C443.238 216.54 448.968 218.26 452.608 219.7C452.888 219.81 453.128 219.45 452.908 219.24C450.858 217.22 447.538 213.81 436.208 201.78C436.188 201.75 436.138 201.75 436.118 201.78L419.298 219.29C419.088 219.51 419.318 219.86 419.608 219.75H419.598Z" fill="#C7B06A"/>
<path d="M471.198 239.09C471.088 238.97 470.898 238.97 470.788 239.09L454.128 256.44C453.918 256.66 454.158 257.01 454.438 256.89C458.038 255.45 463.748 253.72 470.898 253.7C478.068 253.68 483.808 255.4 487.448 256.84C487.738 256.95 487.968 256.6 487.748 256.38C485.708 254.37 482.418 250.99 471.208 239.09H471.198Z" fill="#C7B06A"/>
<path d="M506.828 239.09C506.718 238.97 506.528 238.97 506.418 239.09L489.758 256.44C489.548 256.66 489.788 257.01 490.068 256.89C493.668 255.45 499.378 253.72 506.528 253.7C513.698 253.68 519.438 255.4 523.078 256.84C523.368 256.95 523.598 256.6 523.378 256.38C521.338 254.37 518.047 250.99 506.837 239.09H506.828Z" fill="#2E4358"/>
<path d="M436.368 239.09C436.258 238.97 436.068 238.97 435.958 239.09L419.298 256.44C419.088 256.66 419.328 257.01 419.608 256.89C423.208 255.45 428.918 253.72 436.068 253.7C443.238 253.68 448.978 255.4 452.618 256.84C452.908 256.95 453.138 256.6 452.918 256.38C450.878 254.37 447.588 250.99 436.378 239.09H436.368Z" fill="#B7282C"/>
<path d="M470.278 237.98C468.258 235.98 465.098 232.7 453.758 220.54C453.658 220.44 453.498 220.43 453.398 220.54L436.768 238.03C436.588 238.22 436.788 238.53 437.038 238.43C440.598 236.98 446.308 235.2 453.478 235.18C460.688 235.16 466.428 236.93 470.018 238.39C470.268 238.49 470.478 238.18 470.288 237.99L470.278 237.98Z" fill="#2E4358"/>
<path d="M505.128 238.1C503.118 236.12 500.138 233.05 488.338 220.39C488.268 220.31 488.138 220.31 488.068 220.39L471.198 238.13C471.058 238.27 471.218 238.51 471.398 238.43C474.938 236.96 480.748 235.09 488.098 235.07C495.498 235.05 501.358 236.92 504.918 238.39C505.108 238.47 505.258 238.23 505.118 238.09L505.128 238.1Z" fill="#B7282C"/>
<path d="M435.838 238.1C433.828 236.12 430.848 233.05 419.048 220.39C418.978 220.31 418.848 220.31 418.778 220.39L401.908 238.13C401.768 238.27 401.928 238.51 402.108 238.43C405.648 236.96 411.458 235.09 418.808 235.07C426.208 235.05 432.068 236.92 435.628 238.39C435.818 238.47 435.968 238.23 435.828 238.09L435.838 238.1Z" fill="#2E4358"/>
<path d="M104.178 219.75C100.578 218.31 94.8676 216.58 87.7176 216.56C80.5476 216.54 74.8076 218.26 71.1676 219.7C70.8776 219.81 70.6476 219.46 70.8676 219.24C72.9076 217.23 76.1976 213.85 87.4076 201.95C87.5176 201.83 87.7076 201.83 87.8176 201.95L104.478 219.3C104.688 219.52 104.448 219.87 104.168 219.75H104.178Z" fill="#2E4358"/>
<path d="M139.017 219.75C135.417 218.31 129.707 216.58 122.557 216.56C115.377 216.54 109.647 218.26 106.007 219.7C105.727 219.81 105.487 219.45 105.707 219.24C107.757 217.22 111.077 213.81 122.407 201.78C122.427 201.75 122.477 201.75 122.497 201.78L139.317 219.29C139.527 219.51 139.297 219.86 139.007 219.75H139.017Z" fill="#C7B06A"/>
<path d="M87.4176 239.09C87.5276 238.97 87.7176 238.97 87.8276 239.09L104.488 256.44C104.698 256.66 104.458 257.01 104.178 256.89C100.578 255.45 94.8676 253.72 87.7176 253.7C80.5476 253.68 74.8076 255.4 71.1676 256.84C70.8776 256.95 70.6476 256.6 70.8676 256.38C72.9076 254.37 76.1976 250.99 87.4076 239.09H87.4176Z" fill="#C7B06A"/>
<path d="M51.7875 239.09C51.8976 238.97 52.0875 238.97 52.1975 239.09L68.8575 256.44C69.0675 256.66 68.8275 257.01 68.5476 256.89C64.9475 255.45 59.2376 253.72 52.0876 253.7C44.9176 253.68 39.1775 255.4 35.5375 256.84C35.2475 256.95 35.0176 256.6 35.2376 256.38C37.2776 254.37 40.5676 250.99 51.7776 239.09H51.7875Z" fill="#2E4358"/>
<path d="M122.248 239.09C122.358 238.97 122.548 238.97 122.658 239.09L139.318 256.44C139.528 256.66 139.288 257.01 139.008 256.89C135.408 255.45 129.698 253.72 122.548 253.7C115.378 253.68 109.638 255.4 105.998 256.84C105.708 256.95 105.478 256.6 105.698 256.38C107.738 254.37 111.028 250.99 122.238 239.09H122.248Z" fill="#B7282C"/>
<path d="M471.198 276.14C471.088 276.02 470.898 276.02 470.788 276.14L454.128 293.49C453.918 293.71 454.158 294.06 454.438 293.94C458.038 292.5 463.748 290.77 470.898 290.75C478.068 290.73 483.808 292.45 487.448 293.89C487.738 294 487.968 293.65 487.748 293.43C485.708 291.42 482.418 288.04 471.208 276.14H471.198Z" fill="#C7B06A"/>
<path d="M506.828 276.14C506.718 276.02 506.528 276.02 506.418 276.14L489.758 293.49C489.548 293.71 489.788 294.06 490.068 293.94C493.668 292.5 499.378 290.77 506.528 290.75C513.698 290.73 519.438 292.45 523.078 293.89C523.368 294 523.598 293.65 523.378 293.43C521.338 291.42 518.047 288.04 506.837 276.14H506.828Z" fill="#2E4358"/>
<path d="M541.977 276.14C541.867 276.02 541.678 276.02 541.568 276.14L524.908 293.49C524.698 293.71 524.938 294.06 525.218 293.94C528.818 292.5 534.527 290.77 541.677 290.75C548.847 290.73 554.587 292.45 558.227 293.89C558.517 294 558.748 293.65 558.528 293.43C556.488 291.42 553.197 288.04 541.987 276.14H541.977Z" fill="#B7282C"/>
<path d="M436.368 276.14C436.258 276.02 436.068 276.02 435.958 276.14L419.298 293.49C419.088 293.71 419.328 294.06 419.608 293.94C423.208 292.5 428.918 290.77 436.068 290.75C443.238 290.73 448.978 292.45 452.618 293.89C452.908 294 453.138 293.65 452.918 293.43C450.878 291.42 447.588 288.04 436.378 276.14H436.368Z" fill="#B7282C"/>
<path d="M87.4176 276.14C87.5276 276.02 87.7176 276.02 87.8276 276.14L104.488 293.49C104.698 293.71 104.458 294.06 104.178 293.94C100.578 292.5 94.8676 290.77 87.7176 290.75C80.5476 290.73 74.8076 292.45 71.1676 293.89C70.8776 294 70.6476 293.65 70.8676 293.43C72.9076 291.42 76.1976 288.04 87.4076 276.14H87.4176Z" fill="#C7B06A"/>
<path d="M51.7875 276.14C51.8976 276.02 52.0875 276.02 52.1975 276.14L68.8575 293.49C69.0675 293.71 68.8275 294.06 68.5476 293.94C64.9475 292.5 59.2376 290.77 52.0876 290.75C44.9176 290.73 39.1775 292.45 35.5375 293.89C35.2475 294 35.0176 293.65 35.2376 293.43C37.2776 291.42 40.5676 288.04 51.7776 276.14H51.7875Z" fill="#2E4358"/>
<path d="M16.6375 276.14C16.7475 276.02 16.9375 276.02 17.0475 276.14L33.7075 293.49C33.9175 293.71 33.6775 294.06 33.3975 293.94C29.7975 292.5 24.0875 290.77 16.9375 290.75C9.76753 290.73 4.02753 292.45 0.387526 293.89C0.0975257 294 -0.132474 293.65 0.0875257 293.43C2.12753 291.42 5.41753 288.04 16.6275 276.14H16.6375Z" fill="#B7282C"/>
<path d="M122.248 276.14C122.358 276.02 122.548 276.02 122.658 276.14L139.318 293.49C139.528 293.71 139.288 294.06 139.008 293.94C135.408 292.5 129.698 290.77 122.548 290.75C115.378 290.73 109.638 292.45 105.998 293.89C105.708 294 105.478 293.65 105.698 293.43C107.738 291.42 111.028 288.04 122.238 276.14H122.248Z" fill="#B7282C"/>
<path d="M88.3375 237.98C90.3575 235.98 93.5175 232.7 104.858 220.54C104.958 220.44 105.118 220.43 105.218 220.54L121.848 238.03C122.028 238.22 121.828 238.53 121.578 238.43C118.018 236.98 112.308 235.2 105.138 235.18C97.9275 235.16 92.1875 236.93 88.5975 238.39C88.3475 238.49 88.1375 238.18 88.3275 237.99L88.3375 237.98Z" fill="#2E4358"/>
<path d="M53.4875 238.1C55.4975 236.12 58.4775 233.05 70.2775 220.39C70.3475 220.31 70.4775 220.31 70.5475 220.39L87.4175 238.13C87.5575 238.27 87.3975 238.51 87.2175 238.43C83.6775 236.96 77.8675 235.09 70.5175 235.07C63.1175 235.05 57.2575 236.92 53.6975 238.39C53.5075 238.47 53.3575 238.23 53.4975 238.09L53.4875 238.1Z" fill="#B7282C"/>
<path d="M122.778 238.1C124.788 236.12 127.768 233.05 139.568 220.39C139.638 220.31 139.768 220.31 139.838 220.39L156.708 238.13C156.848 238.27 156.688 238.51 156.508 238.43C152.968 236.96 147.158 235.09 139.808 235.07C132.408 235.05 126.548 236.92 122.988 238.39C122.798 238.47 122.648 238.23 122.788 238.09L122.778 238.1Z" fill="#2E4358"/>
<path d="M470.278 275.03C468.258 273.03 465.098 269.75 453.758 257.59C453.658 257.49 453.498 257.48 453.398 257.59L436.768 275.08C436.588 275.27 436.788 275.58 437.038 275.48C440.598 274.03 446.308 272.25 453.478 272.23C460.688 272.21 466.428 273.98 470.018 275.44C470.268 275.54 470.478 275.23 470.288 275.04L470.278 275.03Z" fill="#2E4358"/>
<path d="M505.128 275.15C503.118 273.17 500.138 270.1 488.338 257.44C488.268 257.36 488.138 257.36 488.068 257.44L471.198 275.18C471.058 275.32 471.218 275.56 471.398 275.48C474.938 274.01 480.748 272.14 488.098 272.12C495.498 272.1 501.358 273.97 504.918 275.44C505.108 275.52 505.258 275.28 505.118 275.14L505.128 275.15Z" fill="#B7282C"/>
<path d="M541.228 275.15C539.218 273.17 536.238 270.1 524.438 257.44C524.368 257.36 524.238 257.36 524.168 257.44L507.298 275.18C507.158 275.32 507.318 275.56 507.498 275.48C511.038 274.01 516.848 272.14 524.198 272.12C531.598 272.1 537.458 273.97 541.018 275.44C541.208 275.52 541.358 275.28 541.218 275.14L541.228 275.15Z" fill="#C7B06A"/>
<path d="M435.838 275.15C433.828 273.17 430.848 270.1 419.048 257.44C418.978 257.36 418.848 257.36 418.778 257.44L401.908 275.18C401.768 275.32 401.928 275.56 402.108 275.48C405.648 274.01 411.458 272.14 418.808 272.12C426.208 272.1 432.068 273.97 435.628 275.44C435.818 275.52 435.968 275.28 435.828 275.14L435.838 275.15Z" fill="#2E4358"/>
<path d="M88.3375 275.03C90.3575 273.03 93.5175 269.75 104.858 257.59C104.958 257.49 105.118 257.48 105.218 257.59L121.848 275.08C122.028 275.27 121.828 275.58 121.578 275.48C118.018 274.03 112.308 272.25 105.138 272.23C97.9275 272.21 92.1875 273.98 88.5975 275.44C88.3475 275.54 88.1375 275.23 88.3275 275.04L88.3375 275.03Z" fill="#2E4358"/>
<path d="M53.4875 275.15C55.4975 273.17 58.4775 270.1 70.2775 257.44C70.3475 257.36 70.4775 257.36 70.5475 257.44L87.4175 275.18C87.5575 275.32 87.3975 275.56 87.2175 275.48C83.6775 274.01 77.8675 272.14 70.5175 272.12C63.1175 272.1 57.2575 273.97 53.6975 275.44C53.5075 275.52 53.3575 275.28 53.4975 275.14L53.4875 275.15Z" fill="#B7282C"/>
<path d="M17.3876 275.15C19.3976 273.17 22.3776 270.1 34.1776 257.44C34.2476 257.36 34.3776 257.36 34.4476 257.44L51.3176 275.18C51.4576 275.32 51.2976 275.56 51.1176 275.48C47.5776 274.01 41.7676 272.14 34.4176 272.12C27.0176 272.1 21.1576 273.97 17.5976 275.44C17.4076 275.52 17.2576 275.28 17.3976 275.14L17.3876 275.15Z" fill="#C7B06A"/>
<path d="M122.778 275.15C124.788 273.17 127.768 270.1 139.568 257.44C139.638 257.36 139.768 257.36 139.838 257.44L156.708 275.18C156.848 275.32 156.688 275.56 156.508 275.48C152.968 274.01 147.158 272.14 139.808 272.12C132.408 272.1 126.548 273.97 122.988 275.44C122.798 275.52 122.648 275.28 122.788 275.14L122.778 275.15Z" fill="#2E4358"/>
<path d="M356.128 244.37C355.848 244.14 355.578 243.96 355.308 243.83C355.478 244.23 355.528 244.67 355.438 245.1C355.408 245.26 355.358 245.42 355.298 245.57C356.218 245.92 356.158 247.98 356.218 248.47C356.288 248.99 356.808 249.11 356.808 249.11C357.768 248.11 356.988 245.09 356.118 244.36L356.128 244.37ZM255.718 266.12C255.718 266.12 255.748 266.11 255.768 266.1C255.898 266.12 256.028 266.12 256.168 266.12C256.318 266.12 256.478 266.11 256.638 266.09C257.758 265.92 259.368 264.65 259.398 263.18C259.398 263.18 258.478 264.17 257.658 264.54C257.328 264.69 257.058 264.73 256.818 264.73C256.798 264.73 256.768 264.73 256.748 264.73C256.708 264.47 256.598 264.22 256.368 264C256.018 263.67 255.798 263.6 255.568 263.6C255.408 263.6 255.248 263.63 255.028 263.63C254.848 263.63 254.638 263.61 254.358 263.53C253.258 263.22 253.788 260.43 253.068 260.18C253.068 260.18 254.548 260.12 255.548 259.15C255.138 258.88 254.588 258.64 254.338 258.29C253.948 257.76 253.888 257.23 253.768 256.65C253.638 256.51 253.368 256.2 253.258 256.03C252.128 256.22 251.408 256.91 250.858 257.72C250.098 258.85 250.238 262.34 250.988 263.49C251.668 264.54 253.858 266.18 255.328 266.18C255.468 266.18 255.598 266.17 255.728 266.13L255.718 266.12ZM260.328 265.25C260.608 265.4 261.218 265.9 262.148 265.9C262.278 265.9 262.408 265.9 262.538 265.88C264.588 265.63 265.978 264.6 265.828 263.24C265.828 263.22 265.828 263.21 265.828 263.21V263.24C265.858 263.42 266.058 264.39 267.418 264.4C267.508 264.77 267.798 264.9 268.178 264.9C268.708 264.9 269.378 264.64 269.858 264.36C269.758 265.13 270.278 265.47 270.218 265.91C269.508 266.36 269.518 267.41 270.108 267.89C270.358 268.09 270.688 268.19 271.018 268.19C271.848 268.19 272.728 267.56 272.528 266.36C272.328 265.18 272.918 263.36 271.818 262.41C271.158 261.84 270.488 261.55 269.178 261.43C267.868 261.31 267.028 260.74 267.028 260.74C267.028 260.74 267.478 258.7 265.938 258.21C265.188 257.97 264.578 257.81 264.148 257.71C264.008 258.27 263.708 258.65 263.308 259.11C263.068 259.38 262.738 259.55 262.368 259.52C261.898 259.52 261.438 259.3 261.058 259.05C260.618 259.68 259.888 260.03 258.948 260.07C258.888 260.07 258.828 260.07 258.768 260.07C258.508 260.07 258.248 260.05 257.988 260C257.758 260.11 257.538 260.16 257.298 260.16C257.168 260.16 257.028 260.14 256.898 260.11C255.758 260.35 255.398 260.44 254.588 261.15C254.658 261.75 254.688 262.68 254.988 262.77C255.188 262.83 255.688 262.53 255.768 262.53C256.028 262.53 256.268 262.75 256.518 262.87C256.798 263.01 257.028 263.03 257.258 262.96C257.338 262.93 257.048 261.03 257.528 260.78C257.608 260.74 258.238 261.83 258.028 262.89C258.118 263.06 258.058 263.26 258.358 263.47C258.758 263.14 259.318 262.42 259.588 262.46C259.858 262.5 259.948 263.01 259.898 263.39C259.858 263.77 259.798 264.36 259.678 264.74C259.748 264.81 259.988 265.07 260.328 265.25ZM259.348 265.56C259.098 266 258.768 266.55 258.268 266.98C257.918 267.28 257.708 267.36 257.488 267.36C257.378 267.36 257.268 267.34 257.138 267.32C257.078 267.13 256.968 267.11 256.808 267.13C256.758 267.14 256.298 267.2 256.118 267.2C255.998 267.2 255.448 267.24 255.268 267.24C254.198 267.24 252.828 266.62 251.808 265.78C251.628 266.86 251.808 267.56 252.328 268.07C252.968 268.68 254.448 269.15 255.568 269.15C256.098 269.15 256.548 269.04 256.778 268.79C257.088 268.79 257.418 268.72 257.768 268.54C258.578 268.11 259.708 267.04 259.668 265.72L259.338 265.55L259.348 265.56ZM322.998 244.03C322.578 244.25 322.498 244.22 322.488 244.4C322.488 244.58 323.118 244.56 323.438 244.44C323.678 244.35 325.398 243.97 326.038 243.24C326.678 242.51 326.778 241.47 326.508 240.56C326.418 240.27 326.238 239.99 326.008 239.73C326.008 239.7 326.008 239.67 326.008 239.64C326.038 238.95 325.688 238.99 325.268 238.49C324.848 237.99 324.348 237.59 323.678 236.92C323.018 236.25 321.248 235.2 320.208 235.38C319.378 235.53 319.128 235.69 318.488 235.77C318.688 236.58 318.448 237.79 318.328 238.15C318.108 238.8 317.728 239.27 317.798 239.46C318.248 239.63 318.748 239.71 319.098 239.63C319.518 239.53 319.468 239.54 319.848 239.41C320.228 239.27 321.088 239.08 321.478 239.18C321.858 239.28 321.958 239.46 322.118 239.67C322.648 240.38 323.548 240.76 324.348 240.79C324.748 241.39 324.748 242.17 324.498 242.77C324.208 243.45 323.408 243.81 322.988 244.03H322.998ZM339.288 223.41C338.638 222.35 338.188 221.04 337.948 219.88C336.848 215.25 336.478 210.39 333.128 207.33C331.718 205.95 329.818 204.92 328.438 206.85C324.358 212.6 327.218 220.53 332.798 224.2C333.298 224.52 333.158 225.34 332.598 225.5C330.668 226.1 328.218 227.33 326.238 227.71C323.928 228.16 321.588 227.97 319.368 227.62C316.978 227.07 314.538 228.77 313.698 231.03C313.558 230.99 313.418 230.97 313.268 230.96C312.778 230.96 312.288 231.17 311.948 231.66C311.088 232.92 311.968 233.8 312.338 234.96C311.268 235.96 310.368 236.88 310.008 238.36C309.658 239.84 310.588 241.18 310.578 242.59C310.578 244.24 309.808 245.38 310.768 247.05C311.598 248.49 312.968 249.41 314.588 249.9C314.548 249.82 314.518 249.73 314.478 249.65C314.208 249.02 313.948 248.42 313.568 247.93C313.378 247.68 313.198 247.46 313.038 247.26C312.288 246.34 311.688 245.6 311.578 244.09C311.148 243.67 310.928 243.16 310.888 242.51C310.868 242.21 311.098 241.95 311.398 241.93C311.668 241.91 311.958 242.14 311.978 242.44C312.008 242.88 312.138 243.16 312.458 243.41C312.578 243.51 312.658 243.66 312.658 243.81C312.708 245.12 313.128 245.64 313.888 246.57C314.058 246.78 314.248 247.01 314.438 247.27C314.898 247.87 315.198 248.56 315.478 249.22C315.798 249.97 316.108 250.68 316.628 251.23C317.598 251.93 318.758 252.44 319.808 252.26C320.068 252.58 320.558 252.76 321.358 252.85C322.638 253.01 325.718 252.24 325.488 250.03C324.958 250.7 323.968 251.44 323.198 251.71C322.428 251.98 321.788 251.61 321.278 251.34C321.248 251.33 321.218 251.31 321.188 251.3C321.248 251.06 321.198 250.81 321.078 250.57C318.558 250.39 315.838 247.48 315.138 246.09C314.688 245.2 314.568 244.6 314.478 244.17C314.418 243.89 314.378 243.69 314.268 243.49C314.038 243.08 313.858 242.78 313.698 242.52C313.348 241.94 313.088 241.52 312.778 240.58C312.688 240.29 312.838 239.99 313.128 239.89C313.418 239.8 313.718 239.95 313.818 240.24C314.088 241.06 314.288 241.39 314.628 241.95C314.788 242.22 314.988 242.53 315.218 242.96C315.408 243.3 315.468 243.61 315.538 243.95C315.628 244.37 315.718 244.84 316.108 245.6C316.698 246.76 318.878 249.06 320.788 249.44C321.448 249.45 322.128 249.48 322.608 249.13C322.868 249.21 323.148 249.26 323.428 249.3C324.488 249.43 326.658 249.16 327.528 248.1C328.398 247.04 328.328 246.03 328.118 244.76C327.838 245.68 327.728 246.49 326.988 247.2C326.238 247.91 324.658 247.72 323.828 247.55C323.638 247.51 323.418 247.46 323.208 247.41C322.998 246.35 321.698 245.89 320.468 245.92C319.738 245.94 319.238 245 318.428 245.17C318.138 244.26 318.108 243.24 317.918 242.46C317.728 241.68 317.418 240.55 316.448 239.07C316.368 238.9 316.398 238.71 316.518 238.57C317.108 237.9 317.388 237.04 317.318 236.16C317.178 234.4 316.618 233.68 314.808 232.95C314.568 232.85 314.458 232.58 314.548 232.34C314.648 232.1 314.918 231.99 315.158 232.08C316.188 232.5 316.968 232.95 317.488 233.68C318.368 233.17 319.358 232.86 320.398 232.87C322.448 232.82 324.428 233.24 326.348 232.99C328.288 232.74 330.238 232.33 332.108 231.75C333.948 231.16 335.898 230.44 337.268 229.32C337.498 229.13 337.818 229.12 338.058 229.27C338.778 229.73 339.768 229.48 340.408 228.78C342.238 226.82 340.358 225.32 339.278 223.43L339.288 223.41ZM269.808 268.8C269.488 269.18 268.848 269.48 267.988 269.72C267.358 269.9 266.498 269.8 266.608 270.05C266.718 270.3 267.848 270.57 268.848 270.42C270.018 270.24 271.238 269.65 271.748 269.01C271.508 269.08 271.268 269.12 271.018 269.12C270.578 269.12 270.158 269.01 269.798 268.8H269.808ZM261.528 252.88C260.158 252.24 257.878 251.18 256.698 251.15C256.688 251.15 256.668 251.15 256.658 251.15C255.578 251.15 254.408 252.15 253.918 253.09C253.548 253.81 253.888 255.14 254.628 255.86C254.698 255.93 254.748 256.02 254.768 256.12C254.848 256.6 255.088 257.14 255.428 257.6C255.738 258.03 256.248 258.48 256.868 258.76C257.118 258.87 257.618 259.01 257.668 258.97C257.718 258.92 257.298 258.59 257.168 258.46C256.648 257.94 256.308 257.43 256.168 256.84C256.118 256.62 256.228 256.4 256.438 256.31C256.658 256.22 256.848 256.06 256.988 255.87C257.218 255.56 257.558 254.6 257.038 253.74C256.938 253.58 256.948 253.39 257.038 253.24C256.738 252.8 256.368 252.46 255.948 252.47C255.838 252.47 255.738 252.39 255.728 252.27C255.728 252.16 255.808 252.06 255.928 252.05C256.518 252.02 257.018 252.45 257.398 253.02C257.568 253.01 257.738 253.09 257.828 253.24C258.438 254.24 259.148 254.44 259.898 254.65C260.108 254.71 260.318 254.77 260.508 254.84C260.748 254.93 260.868 255.19 260.788 255.43C260.458 256.37 260.808 257.49 261.078 257.8C261.398 258.17 261.998 258.57 262.388 258.57C262.518 258.57 262.578 258.52 262.618 258.48C263.138 257.88 263.378 257.61 263.288 256.57C263.158 255.7 262.588 253.38 261.528 252.88ZM259.608 255.8C259.318 255.68 258.778 255.64 258.158 255.64C258.138 255.64 258.118 255.64 258.098 255.64C257.998 255.96 257.858 256.24 257.718 256.42C257.558 256.63 257.368 256.81 257.158 256.96C257.278 257.32 257.468 257.64 257.838 257.95C258.208 258.26 258.638 258.38 259.218 258.38C259.468 258.08 259.708 257.76 259.888 257.44C259.748 256.96 259.688 256.4 259.748 255.86C259.708 255.84 259.658 255.82 259.618 255.8H259.608ZM227.438 203.97C227.338 209.16 225.258 214.15 220.718 217.03L224.838 218.83C226.458 216.99 227.438 214.7 227.758 212.17C228.398 207.83 227.488 201.84 233.918 202.38C230.538 201.59 228.678 202.4 227.438 203.97ZM357.428 196.42C358.918 196.46 360.088 196.51 361.038 196.77C357.808 195.67 354.498 194.82 351.248 194.16C351.248 194.16 351.838 194.76 352.878 195.28C353.928 195.84 355.388 196.39 357.428 196.41V196.42ZM385.328 213.82C385.038 212.65 384.638 211.62 384.198 210.71C384.098 210.46 384.018 210.22 383.938 210C383.878 209.81 383.828 209.63 383.778 209.45C383.708 209.2 383.658 208.95 383.608 208.71C383.458 207.86 383.498 206.91 383.568 205.5C383.618 204.55 383.718 203.6 383.668 202.62C383.628 201.61 383.448 200.51 382.918 199.33C381.668 196.53 380.048 195.56 378.518 194.54C376.968 193.56 375.148 192.97 373.108 192.22C374.938 193.38 376.178 194.57 376.458 195.17C377.068 196.41 376.248 197.57 376.908 199.43C377.618 201.33 379.658 203.25 378.848 203.49C378.098 203.67 375.818 200.83 375.478 199.26C375.368 198.67 375.478 197.87 375.288 196.83C375.108 195.78 374.598 194.53 373.178 193.15C370.488 190.61 367.868 190.37 363.278 190.05C368.978 191.71 367.258 193.29 368.368 194.92C368.878 195.72 369.748 196.6 370.498 197.32C371.218 198.08 371.798 198.71 371.738 199.03C371.658 199.39 370.528 198.76 369.298 197.93C368.078 197.07 366.738 196.02 366.428 195.22C366.158 194.49 365.898 193.73 365.328 192.99C364.758 192.24 363.848 191.57 362.278 191.14C360.718 190.71 358.508 190.39 356.168 191.72C358.268 192.41 358.958 193.75 361.018 194.12C362.888 194.51 363.028 196.17 362.838 196.16C361.408 196.08 360.178 195.17 358.028 194.06C356.088 193.1 354.308 193.11 353.108 193.38C351.888 193.68 351.248 194.16 351.248 194.16C361.768 193.83 376.868 201.75 382.778 210.46C383.588 212.06 384.148 213.77 384.218 215.51C383.778 213.84 382.998 212.28 381.988 210.96C377.058 204.11 369.598 199.77 361.638 196.97C361.898 197.08 362.148 197.22 362.368 197.39C362.508 197.49 361.348 198.69 359.798 197.9C358.038 197.08 356.828 197.93 354.968 197.75C356.288 199.86 357.788 200.54 359.018 201.05C361.438 202.04 362.768 201.13 364.108 200.51C364.838 200.17 366.428 200.42 367.748 200.91C369.078 201.37 370.108 202.07 369.848 202.29C369.608 202.51 368.818 202.36 367.888 202.2C366.938 202.08 365.848 201.91 364.988 202.09C363.198 202.52 363.158 204.43 359.048 202.5C361.878 204.8 362.978 206.35 365.818 206.71C368.828 207.16 370.358 205.69 371.438 205.35C372.848 204.91 376.088 206.13 375.918 206.97C375.788 207.75 373.788 206.31 371.948 206.52C370.208 206.7 369.488 207.94 368.338 208.09C367.818 208.15 366.568 207.84 365.118 207.21C366.368 208.24 367.258 209.29 368.298 209.99C369.328 210.73 370.248 211.47 372.398 211.59C373.358 211.64 374.178 211.53 375.008 211.38C375.858 211.22 376.638 211.03 377.438 210.94C378.698 210.8 379.468 210.88 380.138 211.15C380.248 211.19 380.348 211.24 380.438 211.29C380.658 211.41 380.848 211.56 381.038 211.74C381.178 211.87 381.318 212.02 381.468 212.18C381.778 212.69 382.068 213.26 382.318 213.88C382.298 214.69 382.258 215.5 382.198 216.31C381.528 217.23 380.678 218 379.728 218.47C378.138 219.26 376.268 219.21 374.468 217.62C374.138 220.15 376.178 222.06 378.388 223.43C379.038 223.83 379.708 224.19 380.338 224.5C380.108 225.04 379.848 225.57 379.568 226.07C379.278 226.63 378.958 227.15 378.608 227.63C377.598 228.01 376.538 228.07 375.548 227.81C373.978 227.39 372.588 226.12 371.898 223.9C371.438 225.36 371.438 227.7 371.578 229.86C371.628 230.63 371.698 231.39 371.768 232.07C370.878 232.24 369.968 232.3 369.048 232.27C368.258 231.62 367.638 230.78 367.248 229.84C366.568 228.19 366.608 226.23 367.758 224.48C366.198 224.1 363.888 225.81 362.018 227.59C361.448 228.14 360.918 228.69 360.458 229.2C360.128 228.96 359.798 228.71 359.478 228.45C359.018 228.1 358.568 227.73 358.128 227.36C357.878 226.35 357.838 225.3 358.048 224.28C358.388 222.66 359.378 221.12 361.268 219.95C359.088 218.32 356.538 218.64 354.068 219.73C353.398 220.03 352.728 220.38 352.088 220.77C351.348 219.82 350.628 218.85 349.908 217.88C349.788 216.73 349.798 215.5 350.068 214.41C350.528 212.53 351.738 211.08 354.358 211.26C352.428 208.18 349.008 208.67 346.448 209.94C345.728 210.3 345.078 210.71 344.548 211.13C343.758 210.25 342.918 209.4 342.028 208.58C341.698 207.49 341.468 206.3 341.508 205.2C341.578 203.32 342.458 201.7 345.068 201.26C342.438 198.68 339.248 199.95 337.048 201.79C336.438 202.31 335.898 202.87 335.468 203.4C334.688 202.89 333.908 202.43 333.128 202.01C332.618 201.03 332.138 199.98 331.868 198.92C331.398 197.1 331.508 195.26 333.008 193.67C329.748 192.06 326.898 194.12 325.348 196.85C324.968 197.52 324.668 198.23 324.458 198.93C323.468 198.76 322.488 198.65 321.508 198.6C320.668 197.94 319.868 197.21 319.228 196.38C318.088 194.93 317.428 193.21 317.868 191.14C313.878 191.72 312.658 194.38 312.648 197.48C312.648 198.21 312.708 198.96 312.818 199.72C311.608 200.1 310.428 200.56 309.258 201.11C308.058 201.02 306.858 200.84 305.838 200.44C304.068 199.75 302.888 198.41 303.368 195.76C299.938 197.34 299.758 200.9 301.018 203.8C301.318 204.49 301.698 205.14 302.138 205.73C301.218 206.5 300.328 207.32 299.458 208.19C298.308 208.52 297.108 208.72 296.038 208.61C294.298 208.44 292.848 207.45 292.318 204.84C289.618 207.05 290.808 210.52 292.608 212.91C293.098 213.56 293.628 214.13 294.138 214.57C293.628 215.29 293.138 216.04 292.658 216.8C291.708 217.17 290.638 217.5 289.558 217.66C287.558 217.96 285.568 217.66 284.438 215.98C282.798 218.48 284.438 221.09 286.418 223.16C286.948 223.72 287.508 224.24 288.028 224.71C287.418 225.56 286.768 226.33 286.098 227C285.118 227.1 284.158 226.92 283.288 226.49C281.798 225.76 280.568 224.3 279.988 222.29C280.008 223.94 279.528 225.75 278.888 227.6C278.648 228.29 278.378 228.99 278.108 229.69C277.008 229.43 275.878 228.93 274.708 228.15C274.208 227.11 273.988 225.96 274.118 224.88C274.328 223.15 275.418 221.59 277.678 220.9C276.228 219.3 273.138 220.02 270.718 221.07C269.968 221.39 269.288 221.75 268.728 222.07C268.048 221.09 267.428 220.07 266.828 219.02C266.828 217.83 267.028 216.65 267.528 215.68C268.298 214.16 269.788 213.15 272.348 213.4C271.258 210.56 267.848 210.36 265.088 210.93C264.288 211.1 263.548 211.32 262.938 211.57C262.528 210.79 262.098 210.01 261.658 209.24C261.758 208.21 261.948 207.08 262.278 206.02C262.908 204.06 264.048 202.38 266.058 202.13C264.448 198.94 260.768 199.41 258.018 200.69C257.288 201.03 256.618 201.43 256.068 201.83C255.378 201.1 254.668 200.42 253.948 199.78C253.688 198.73 253.528 197.66 253.578 196.59C253.658 194.88 254.288 193.2 255.978 191.78C252.738 189.73 250.108 190.87 248.038 193.1C247.538 193.64 247.068 194.25 246.628 194.89C245.468 194.33 244.288 193.86 243.088 193.46C242.288 192.56 241.538 191.58 241.078 190.58C240.288 188.84 240.358 187.04 242.538 185.47C238.898 184.15 236.388 186.89 235.298 189.74C235.018 190.48 234.828 191.23 234.738 191.92C233.538 191.86 232.338 191.87 231.138 191.95C230.078 191.42 229.058 190.78 228.298 190.02C226.988 188.69 226.458 186.98 227.868 184.74C227.408 184.77 226.988 184.84 226.598 184.95C226.108 186.23 225.488 187.63 224.718 189.16C224.438 189.72 224.138 190.29 223.828 190.84C224.048 191.36 224.238 191.88 224.408 192.42C226.298 195.51 227.388 199.23 227.498 202.92C228.878 201.79 230.828 201.39 233.978 202.37C231.858 202.45 229.538 203.41 229.248 205.74C228.888 207.82 229.178 210.05 228.988 212.3C228.958 212.86 228.888 213.43 228.778 214C234.698 211.63 240.888 213.31 245.208 220.95C245.938 222.4 246.728 223.87 247.568 225.33C246.788 220.95 247.058 216.29 249.128 212.31C249.668 211.44 250.748 210.57 252.008 210.47C253.238 210.39 254.258 210.81 255.118 211.26C258.528 213.13 260.128 217.18 260.728 220.82C261.978 225.97 258.338 231.21 260.448 236.13C260.888 236.98 261.048 238.49 260.418 239.33C260.178 239.7 259.908 240.02 259.618 240.32C265.188 245.06 271.878 248.21 279.698 248.08C290.488 248.03 299.698 240.08 304.038 230.93C307.638 223.22 312.838 212.51 322.328 213.1C323.168 213.19 323.988 213.36 324.808 213.6C324.738 212.15 324.918 210.69 325.378 209.25C325.938 207.41 326.778 205.34 328.648 204.34C330.658 203.24 333.128 204.63 334.428 206.02C338.128 209.52 338.578 214.89 339.578 219.52C339.958 222.09 341.438 223.38 342.558 225.77C342.838 226.54 342.808 227.36 342.538 228.12C345.818 231.8 349.788 234.98 354.408 237.19C371.198 244.95 384.478 236.32 385.268 220.79C385.318 220.55 385.378 220.31 385.418 220.07C385.848 217.91 385.768 215.64 385.328 213.83V213.82ZM345.798 243.23C345.998 243.11 346.248 242.99 346.538 242.9C346.108 241.75 345.068 240.75 345.068 240.75C345.068 240.75 344.868 240.03 345.158 238.94C345.408 238 345.988 236.39 346.678 234.99C345.258 233.9 343.898 232.7 342.598 231.39C342.188 232.53 341.868 233.51 341.688 234.16C341.058 236.48 340.308 238 340.798 240.01C341.128 241.34 342.088 242.29 342.838 243.26C343.608 243 344.708 242.98 345.798 243.23ZM342.178 249.01C342.178 249.01 342.178 249 342.178 248.99C342.178 249 342.178 249.01 342.178 249.02C342.178 249.02 342.188 249.01 342.198 249L342.178 249.01ZM262.728 252.65C263.818 253.88 264.178 256.14 264.218 256.45C264.218 256.45 264.218 256.47 264.218 256.48C264.218 256.58 264.228 256.68 264.238 256.77C264.408 256.81 264.608 256.86 264.838 256.92C265.788 255.44 266.848 253.77 268.748 252.46C270.358 251.35 271.718 250.35 272.428 249.51C270.558 249.07 268.688 248.38 266.988 247.62L266.508 247.92C264.558 248.98 263.358 251.09 262.728 252.66V252.65ZM354.118 255.69C353.988 255.75 353.838 255.75 353.708 255.69C353.578 255.63 353.478 255.52 353.438 255.38C353.218 254.61 352.928 254.41 352.238 254.53C351.448 254.68 350.588 255.55 350.328 255.87C350.238 255.98 350.108 256.04 349.958 256.05C349.788 256.05 349.678 255.99 349.588 255.89C349.068 255.32 348.268 254.76 347.958 254.88C347.798 254.94 347.618 254.91 347.478 254.8C347.338 254.69 347.278 254.52 347.298 254.35C347.298 254.35 347.498 253.04 347.678 251.72C347.698 251.58 347.778 251.45 347.898 251.37C348.138 251.22 348.318 251.02 348.458 250.77C349.228 249.3 348.458 247.65 348.458 247.63C348.368 247.43 348.418 247.2 348.578 247.05C348.738 246.91 348.978 246.89 349.168 247.01C349.168 247.01 349.518 247.13 350.298 246.92C351.188 246.67 351.668 245.9 351.678 245.89C351.818 245.67 352.098 245.59 352.328 245.71C352.838 245.99 353.378 246.03 353.818 245.82C354.178 245.65 354.428 245.32 354.508 244.9C354.568 244.57 354.508 244.25 354.318 243.97C354.028 243.56 353.478 243.28 352.758 243.18C351.108 242.93 350.038 244.22 349.998 244.27C349.828 244.48 349.518 244.51 349.308 244.34C347.708 243.04 346.268 244.09 346.208 244.13C346.088 244.22 345.938 244.25 345.788 244.21C345.238 244.07 344.728 244.01 344.288 244.01C343.498 244.01 342.948 244.19 342.788 244.37C342.078 245.15 342.418 247.23 342.978 248.38C343.058 248.54 343.158 248.71 343.258 248.87C343.328 248.99 343.348 249.13 343.318 249.26C343.288 249.39 343.198 249.5 343.078 249.57C343.028 249.59 342.988 249.62 342.948 249.66C342.118 250.37 341.488 252.09 341.928 254.33C342.408 256.76 343.468 258.8 344.708 259.67C346.498 260.92 349.528 261.59 350.598 260.52C350.708 260.41 350.878 260.36 351.028 260.39C351.218 260.42 351.438 260.44 351.738 260.45C352.338 260.45 353.028 260.37 353.888 259.78C353.858 259.78 353.818 259.8 353.788 259.8C353.278 259.91 352.708 259.9 352.148 259.88C351.928 259.88 351.718 259.88 351.508 259.88C351.238 259.88 351.028 259.68 351.008 259.42C350.988 259.16 350.888 258.95 350.698 258.79C350.428 258.57 350.018 258.48 349.588 258.53C348.758 258.64 348.388 259.1 348.378 259.12C348.288 259.24 348.148 259.31 347.998 259.31C347.848 259.31 347.708 259.25 347.608 259.14C346.818 258.22 345.398 256.97 344.708 257.12C344.558 257.15 344.398 257.11 344.288 257.01C344.178 256.91 344.108 256.76 344.128 256.6C344.128 256.58 344.258 254.88 343.308 253.92C343.118 253.73 343.598 253.53 343.798 253.16C344.268 252.31 344.318 252.11 344.518 251.75C344.618 251.56 344.828 251.46 345.048 251.51C345.258 251.55 345.418 251.73 345.438 251.94C345.438 252.04 345.468 252.14 345.498 252.24C345.548 252.47 345.608 252.73 345.548 253C345.098 254.97 345.548 256.08 347.078 256.82C348.428 257.48 350.368 257.56 351.908 257.02C351.998 256.99 352.068 256.95 352.148 256.9L352.328 256.81C352.458 256.74 352.618 256.74 352.748 256.81C352.868 256.87 353.648 257.08 354.518 256.45C354.878 256.19 355.288 255.67 355.418 255.1C355.518 254.65 355.468 253.54 355.278 253.57C355.088 253.6 355.028 254.48 354.798 254.83C354.598 255.14 354.478 255.52 354.158 255.68L354.118 255.69ZM230.888 233.67C230.418 233.67 229.958 233.69 229.498 233.71C229.498 233.71 228.948 231.32 228.508 229.76C228.068 228.2 226.978 227.12 225.228 226.29C224.378 225.88 223.328 225.66 222.248 225.66C221.118 225.66 219.948 225.9 218.918 226.42C217.268 227.25 215.698 229.64 216.408 231.07C216.388 231.42 216.428 231.8 216.538 232.21C216.968 233.71 218.738 235.43 220.438 235.43H220.448C219.168 234.63 218.868 233.78 218.578 232.63C218.538 232.48 218.518 232.32 218.498 232.17C219.868 232.16 220.558 230.81 219.878 229.42C219.878 229.42 220.508 228.86 221.178 228.86C221.438 228.86 221.708 228.95 221.938 229.18C222.358 229.6 222.788 229.75 223.298 229.75C223.808 229.75 224.398 229.59 225.108 229.41C223.988 230.43 224.358 231.3 224.868 233.33C225.378 235.36 227.538 238.03 229.558 238.99C230.228 239.31 230.988 239.43 231.588 239.43C232.818 239.43 233.578 239.25 233.578 239.25C235.138 238.81 236.508 237 235.538 235.6C234.418 233.97 232.668 233.69 230.888 233.69V233.67ZM214.228 224.58C212.848 223.95 211.718 223.78 210.718 223.78C209.608 223.78 208.668 223.99 207.708 223.99C206.568 223.99 205.418 223.7 203.968 222.41C205.168 225.84 203.328 229.22 201.838 229.22C202.288 227.75 201.918 225.04 201.018 224.14C200.088 226.86 197.748 227.75 197.748 227.75C197.748 227.75 199.568 226.37 196.648 224.78C192.458 225.82 187.238 229.77 186.488 231.66C184.468 235.5 180.868 234.82 179.048 233.41C178.078 232.66 178.408 232.12 178.528 231.23C177.888 230.77 178.048 230.04 178.088 229.82C178.238 228.95 179.318 231.13 182.958 230.98C182.958 230.98 182.968 230.98 182.978 230.98C182.208 230.12 182.598 228.06 182.898 228.01C183.108 227.97 182.768 229.58 184.428 229.82C185.198 229.93 185.748 229.63 186.548 229.03C187.128 228.35 187.798 227.5 188.748 226.48C189.788 225.37 190.638 224.6 191.418 224C191.178 223.45 191.658 221.18 190.158 220.45C189.598 220.57 189.038 220.61 188.478 220.49C187.928 220.88 186.588 221.41 184.118 222.17C182.438 222.68 181.518 224.98 179.328 225.67C179.298 226.1 179.438 226.61 179.898 227.2C180.118 227.48 180.838 228 180.778 228.08C180.718 228.16 179.838 227.9 179.368 227.75C178.238 227.38 177.878 226.73 177.588 225.85C176.728 225.78 175.928 225.54 175.438 225.28C175.188 225.14 174.928 224.52 174.748 223.94C174.298 223.85 173.928 223.68 173.618 223.47C173.388 223.31 173.188 223.14 173.028 222.96C173.188 223.75 173.558 224.69 174.338 225.7C172.598 225.27 171.948 223.76 171.918 223.69C171.888 223.62 171.828 223.57 171.758 223.56C171.688 223.55 171.608 223.57 171.558 223.63C171.518 223.68 170.548 224.81 172.178 227.63C169.298 226.5 169.768 223.8 169.788 223.68C169.798 223.62 169.788 223.55 169.738 223.5C169.698 223.45 169.638 223.42 169.578 223.42C169.508 223.42 168.018 223.51 167.588 226.39C166.568 225.24 166.518 224.3 167.308 222.65C167.348 222.56 167.328 222.46 167.258 222.39C167.188 222.33 167.078 222.32 166.998 222.37C166.628 222.6 166.128 222.65 165.578 222.5C165.028 222.35 164.488 222.02 164.118 221.62C165.378 221.85 166.698 221.42 167.598 221.01C167.708 221.28 167.868 221.53 168.078 221.72C169.198 222.79 170.848 222.87 172.168 222.26C172.208 222.23 172.248 222.21 172.288 222.18C172.548 222.24 172.808 222.26 173.048 222.26C173.368 222.26 173.628 222.22 173.678 222.22C174.788 222.05 175.488 221.68 175.818 221.08C176.268 220.27 175.868 219.35 175.628 218.8C175.398 218.27 175.028 217.9 174.498 217.7C173.208 217.2 171.468 217.98 171.388 218.01L171.778 218.86C172.178 218.68 173.398 218.27 174.168 218.57C174.448 218.68 174.648 218.87 174.768 219.16C174.998 219.69 175.208 220.25 174.998 220.62C174.818 220.94 174.318 221.17 173.528 221.29C173.268 221.33 172.828 221.35 172.498 221.27C172.358 220.2 171.428 219.9 170.598 221.41C169.918 221.43 169.198 221.41 168.738 221.01C167.848 220.35 167.668 218.22 169.108 217.99C169.218 214.51 173.558 214.2 175.158 215.92C175.158 215.92 175.638 214.98 176.498 214.62C177.198 214.9 178.368 215.58 178.608 216.56L179.518 216.34C179.248 215.23 178.248 214.45 177.368 214C177.528 213.38 178.248 212.81 178.988 212.85C179.608 213.33 180.308 214.12 180.778 214.75L181.528 214.2C181.138 213.67 180.578 213.01 179.988 212.47C180.358 212.02 180.948 211.76 181.508 211.8C181.988 212.2 182.408 212.73 182.498 213.09L183.398 212.85C183.258 212.31 182.808 211.73 182.318 211.27C182.668 210.2 183.118 210.37 183.118 210.37C183.118 210.37 182.608 208.96 182.028 206.71C181.448 204.46 184.058 204.17 187.768 203.95C191.468 203.73 189.598 201.99 193.508 200.31C193.778 200.2 194.058 200.1 194.338 200.03C194.778 199.92 195.238 199.85 195.698 199.83C196.008 198.72 196.438 197.71 196.948 196.93C198.968 193.08 202.748 192.13 206.598 191.35C206.528 192.11 206.488 192.93 206.458 193.75C206.358 196.4 204.688 198.87 203.758 200.24C203.608 200.47 203.468 200.66 203.368 200.83C202.838 201.67 202.348 201.78 201.358 201.98C200.068 202.25 198.298 202.61 196.378 204.91C196.008 205.35 195.978 205.98 196.308 206.45L196.528 206.77C196.588 206.85 196.678 206.9 196.788 206.9C196.798 206.9 196.818 206.9 196.828 206.9C196.948 206.88 197.038 206.81 197.078 206.7C197.148 206.51 197.428 206.12 197.588 205.93C198.158 205.25 198.708 204.78 199.218 204.44V204.68C200.328 204.68 201.548 205.33 202.178 206.26C202.468 206.69 202.758 207.36 202.468 208.12L203.358 208.46C203.708 207.56 203.568 206.59 202.968 205.71C202.368 204.83 201.378 204.16 200.328 203.87C200.798 203.7 201.248 203.6 201.678 203.52C202.728 203.3 203.718 203.1 204.568 201.87L204.598 201.95C205.258 201.73 205.918 201.76 206.508 202.06C207.128 202.37 207.658 202.99 207.858 203.62L208.768 203.33C208.488 202.45 207.788 201.64 206.938 201.21C206.398 200.94 205.828 200.82 205.248 200.86C206.258 199.36 207.938 196.76 208.038 193.8C208.118 191.49 208.278 189.02 209.088 189.02C209.188 189.02 209.308 189.05 209.438 189.11C210.648 189.66 210.778 189.97 210.118 193.44C209.858 194.79 209.528 197.18 210.238 198.03C210.418 198.25 210.658 198.36 210.928 198.36C211.488 198.36 212.188 197.86 213.068 196.84C213.768 196.03 214.578 195.27 215.438 194.46C216.668 193.3 217.948 192.11 218.988 190.65C221.618 186.98 223.298 182.42 224.528 179.08C225.208 177.23 226.058 174.92 226.438 174.8C227.378 177.56 226.198 182.66 223.278 188.44C219.768 195.4 214.298 201.9 210.558 203.57C208.798 204.35 208.608 205.3 208.438 206.13C208.318 206.72 208.218 207.23 207.538 207.7C207.338 207.84 206.958 207.97 206.558 208.1C206.508 208.12 206.468 208.13 206.418 208.15C206.768 207.11 206.788 205.84 206.458 204.77C206.178 203.9 205.688 203.28 205.058 203.03L204.698 203.92C205.058 204.07 205.358 204.47 205.548 205.07C205.908 206.2 205.758 207.67 205.198 208.55L205.298 208.61C204.958 208.79 204.658 209.01 204.438 209.3C203.988 209.91 203.858 210.41 203.758 210.82C203.598 211.47 203.518 211.79 201.908 212.12C201.908 212.12 201.328 212.31 200.968 212.36C200.858 212.38 200.768 212.45 200.728 212.54C200.688 212.64 200.698 212.75 200.758 212.84L200.958 213.13C201.198 213.47 201.588 213.67 201.998 213.67C202.078 213.67 202.168 213.67 202.248 213.64C204.398 213.2 204.958 212.47 205.278 211.19C205.358 210.87 205.428 210.59 205.698 210.23C205.878 209.98 206.588 209.76 207.048 209.6C207.558 209.43 208.048 209.28 208.448 209C208.918 208.67 209.238 208.31 209.458 207.95C210.498 208.05 211.658 208.28 212.928 208.65C206.938 210.71 205.088 214.67 205.088 214.67C205.088 214.67 209.368 211.36 214.568 211.36C215.028 211.36 215.488 211.39 215.958 211.44C211.148 213.17 209.488 214.35 208.828 216.06C208.828 216.06 209.198 216.06 209.788 216.06C211.788 216.06 216.378 216.17 218.478 217.08C217.838 216.98 217.158 216.94 216.458 216.94C211.738 216.94 206.208 218.85 206.208 218.85C206.208 218.85 206.508 218.84 207.028 218.84C209.418 218.84 216.338 219.08 218.618 221.74C215.398 220.75 211.648 220.28 208.888 220.28C207.408 220.28 206.208 220.42 205.528 220.68C207.038 223.12 212.908 221.49 214.218 224.58H214.228ZM189.888 211.72C188.698 211.16 187.528 210.5 186.688 210.5C185.848 210.5 185.258 211.42 184.868 212.78C185.878 213.95 186.368 214.37 187.578 214.16C188.778 213.95 189.608 212.9 189.878 211.72H189.888ZM195.308 218.7C194.638 218.45 193.598 219.02 192.398 219.6C192.768 220.75 192.488 222.57 192.088 223.51C193.028 222.87 193.888 222.44 194.918 221.9C196.998 220.81 196.688 219.21 195.308 218.7ZM223.438 191.47C223.388 191.56 223.338 191.65 223.288 191.74C225.078 198.45 224.428 207.78 217.298 210.66L220.088 210.99L216.268 212.36C213.138 213.48 211.518 214.33 210.638 215.12C212.518 215.15 215.078 215.27 217.078 215.68C217.778 215.45 218.268 215.22 218.968 214.83C227.118 210.35 227.108 199.19 223.438 191.46V191.47ZM219.348 221.13L220.228 222.16C221.398 221.63 222.468 220.98 223.418 220.21C223.888 219.83 224.318 219.43 224.708 218.99L218.708 218.09C217.848 218.44 216.838 218.8 215.968 219.08C217.488 219.6 218.618 220.28 219.338 221.13H219.348ZM204.418 185.8C202.968 185.14 202.698 187.25 202.578 190.76C202.578 190.86 202.578 190.95 202.558 191.05C203.458 190.76 204.388 190.53 205.298 190.33C205.928 187.01 205.848 186.45 204.418 185.8ZM215.978 208.57C222.468 206.64 223.498 198.88 223.098 192.67C223.058 192.54 223.008 192.41 222.968 192.28C222.248 193.49 221.478 194.66 220.688 195.78C220.458 197.25 220.028 198.67 219.368 199.97C217.828 203.09 215.208 205.57 212.288 207.5C212.588 207.57 212.888 207.66 213.198 207.75L215.988 208.57H215.978ZM219.568 186.7C219.498 186.63 219.428 186.55 219.358 186.48C219.408 186.59 219.458 186.7 219.508 186.81C219.528 186.77 219.548 186.74 219.568 186.7ZM214.468 186.14C214.188 186.59 213.898 187.03 213.588 187.45C213.418 187.69 213.228 187.93 213.048 188.16C213.778 187.66 214.238 187 214.468 186.14ZM259.048 238.62C259.358 237.99 259.248 237.63 258.868 236.83C257.018 233.52 257.988 229.47 258.508 226.08C259.068 222.15 258.108 217.78 255.708 214.63C254.538 213.37 252.118 211.52 250.768 213.49C248.438 217.63 248.138 223.37 249.268 228.04C249.658 229.86 251.078 231.22 251.558 233.04L251.278 233.17C249.568 233.93 247.718 233.64 246.128 233.06C244.568 232.32 243.158 231.57 241.378 231.74C239.008 231.87 236.728 232.67 234.478 233.45C235.158 233.8 235.788 234.31 236.318 235.07C236.838 235.82 236.948 236.74 236.628 237.64C236.568 237.81 236.488 237.98 236.398 238.14C236.898 238.05 237.388 237.95 237.858 237.84C241.398 237.31 244.678 239.46 247.868 240.56C251.438 241.63 256.848 242.25 259.058 238.63L259.048 238.62ZM211.548 196.18C211.638 196.08 211.748 195.97 211.858 195.83C212.618 194.95 213.458 194.16 214.348 193.33C215.528 192.23 216.748 191.09 217.698 189.76C217.978 189.37 218.248 188.97 218.508 188.56C218.548 188.35 218.578 188.13 218.598 187.92C218.478 187.62 218.358 187.33 218.218 187.05C217.968 186.54 218.098 185.93 218.508 185.55C218.018 182.8 216.218 180.15 213.478 178.25C215.888 181.45 217.698 187.6 212.808 189.75C212.558 189.85 212.308 189.95 212.048 190.04C212.168 190.97 211.968 192.16 211.658 193.75C211.428 194.94 211.378 195.74 211.378 196.26C211.438 196.23 211.488 196.21 211.548 196.18ZM219.708 233.17C219.798 233.45 219.908 233.68 220.178 234C220.558 233.8 220.838 233.53 220.888 233.15C220.888 233.15 221.628 234.49 222.748 234.98C222.748 234.98 222.748 234.98 222.758 234.98C223.208 235 223.688 235.04 224.158 235.11C224.178 235 224.208 234.9 224.248 234.8C224.008 234.3 223.828 233.83 223.718 233.4C223.448 232.35 223.228 231.49 223.338 230.69C223.318 230.69 223.308 230.69 223.288 230.69C222.588 230.69 221.988 230.47 221.468 230.03C221.318 230 221.168 229.97 221.018 229.94C221.148 230.65 221.288 231.35 220.938 231.92C220.678 232.34 220.148 232.96 219.708 233.16V233.17ZM231.358 240.92C230.518 240.92 229.328 240.47 228.618 240.13C227.098 239.41 225.678 237.79 224.908 235.98C224.798 236.08 224.658 236.12 224.508 236.1C223.498 235.93 222.318 235.86 221.588 235.92C221.468 235.93 221.338 235.95 221.218 235.97C221.048 236.21 220.758 236.36 220.458 236.36C220.358 236.36 220.248 236.36 220.148 236.34C219.328 236.76 218.598 237.49 217.998 238.46C217.118 239.9 217.058 241.63 217.848 242.69C217.908 242.77 217.978 242.85 218.038 242.92C218.128 243.02 218.178 243.15 218.168 243.28C218.168 243.43 218.408 243.98 218.898 244.52C219.348 245.01 219.838 245.29 220.228 245.29C221.158 245.3 221.868 245.07 222.278 244.6C222.458 244.4 222.558 244.18 222.608 243.99C222.328 244.1 222.018 244.21 221.738 244.27C220.958 244.45 220.228 244.3 219.828 243.87C219.738 243.77 219.688 243.64 219.698 243.51C219.708 243.38 219.778 243.26 219.878 243.18C220.048 243.05 220.298 242.63 220.298 242.12C220.298 241.61 219.548 241.36 219.538 241.36C219.298 241.29 219.158 241.05 219.218 240.81C219.248 240.7 219.418 240.1 220.368 239.68C220.968 239.41 221.328 238.57 221.328 238.57C221.418 238.35 221.658 238.23 221.888 238.3C221.888 238.3 223.188 238.68 224.378 239.04C224.798 239.17 225.398 239.07 226.068 238.77C226.128 238.74 226.198 238.73 226.258 238.73C226.348 238.73 226.438 238.76 226.518 238.81C226.648 238.9 226.728 239.05 226.728 239.21C226.728 239.37 226.698 239.52 226.638 239.66C226.318 240.49 227.498 241.13 227.738 241.24C228.518 241.62 229.398 241.78 229.408 241.78C229.558 241.81 229.688 241.91 229.758 242.05C229.818 242.19 229.808 242.36 229.728 242.49C229.548 242.79 229.088 243.74 229.398 244.2C229.478 244.32 229.498 244.46 229.458 244.6C229.418 244.73 229.318 244.84 229.188 244.9C229.158 244.91 228.428 245.24 228.128 246.28C227.818 247.34 228.688 248.15 229.038 248.37C229.168 248.45 229.518 248.49 229.798 248.34C230.028 248.22 230.158 247.99 230.168 247.66C230.208 246.63 230.598 246.08 230.888 245.68C231.118 245.36 231.198 245.24 231.158 245.01C230.908 243.62 231.778 242.33 231.818 242.28C231.878 242.2 231.958 242.14 232.048 242.1C232.808 241.84 233.508 241.04 234.058 240.08C233.998 240.1 233.948 240.12 233.888 240.14C233.608 240.26 232.588 240.93 231.348 240.93L231.358 240.92ZM218.638 198.47C216.048 201.64 213.358 204.08 211.188 205.05C210.168 205.5 210.108 205.81 209.978 206.48C209.938 206.65 209.898 206.85 209.838 207.06C210.048 207.08 210.258 207.11 210.468 207.15C214.188 204.91 216.788 202.32 218.218 199.4C218.368 199.1 218.508 198.79 218.638 198.47ZM221.578 171.69C220.608 170.76 219.548 175.16 217.428 180.25C218.258 181.32 218.888 182.47 219.308 183.66C221.298 179.22 222.538 174.53 221.568 171.69H221.578ZM227.648 248.27C227.478 248.76 227.208 249.24 226.468 249.57C226.248 249.67 226.008 249.7 225.778 249.7C225.158 249.7 224.568 249.44 224.298 249.44C224.198 249.44 224.138 249.48 224.148 249.58C224.158 249.98 225.388 250.71 226.698 250.71C226.898 250.71 227.098 250.69 227.298 250.65C228.138 250.49 228.878 249.98 229.328 249.36C229.048 249.36 228.768 249.28 228.548 249.15C228.248 248.96 227.908 248.66 227.638 248.26L227.648 248.27ZM209.968 221.28C209.858 221.32 209.748 221.35 209.638 221.39C209.668 221.39 209.698 221.39 209.728 221.4C211.638 221.69 213.778 222.02 214.828 223.69C216.158 223.51 217.458 223.2 218.688 222.78L218.338 222.67C215.418 221.77 212.278 221.37 209.968 221.27V221.28ZM217.318 237.54C217.958 236.62 217.308 235.25 217.008 234.73C216.348 234.05 215.858 233.25 215.638 232.48C215.528 232.08 215.468 231.68 215.468 231.29C215.228 231.44 215.028 231.58 214.868 231.72C213.938 232.57 213.358 235.7 214.368 236.85C214.408 237.3 214.568 237.84 214.938 238.37C215.308 238.9 215.848 239.4 216.478 239.75C216.558 239.37 216.688 238.98 216.858 238.61C216.788 238.51 216.728 238.4 216.678 238.29C216.648 238.23 216.628 238.16 216.598 238.1C216.848 238.03 217.088 237.87 217.318 237.54ZM351.878 249.89C352.078 250.64 352.268 251.36 351.338 252.02C351.228 251.68 350.898 251.4 350.248 251.28C349.978 251.23 349.528 251.38 349.068 251.65C348.938 251.82 348.778 251.98 348.608 252.11C348.508 252.81 348.408 253.5 348.338 253.96C348.668 254.03 348.998 254.19 349.288 254.39C349.948 254.13 350.578 253.82 350.888 253.48C350.918 253.44 350.958 253.4 350.988 253.36C351.328 253.27 351.688 253.1 351.938 252.89C352.938 252.05 352.708 250.36 351.888 249.9L351.878 249.89Z" fill="#B1944B"/>
<path d="M151.028 173.51L147.468 175.29C147.608 175.57 157.978 194.69 172.848 207.27L183.108 199.58C165.918 190.89 155.728 180.08 151.028 173.51Z" fill="#2E4358"/>
<path d="M260.398 190.54L269.848 198.57C277.378 190.49 283.248 176.37 283.248 176.37C275.388 182.36 267.718 186.98 260.408 190.54H260.398Z" fill="#C1272D"/>
<path d="M291.877 157.48L288.157 158.4C288.237 158.69 293.817 178.33 304.867 193.21L317.077 189.14C302.387 177.23 294.957 164.72 291.877 157.48Z" fill="#C1272D"/>
<path d="M389.468 199.15L391.508 212.39C394.628 211.77 397.598 210.76 400.308 209.24C410.148 203.73 420.438 189.11 420.438 189.11C409.318 194.23 398.928 197.38 389.468 199.15Z" fill="#2E4358"/>
<path d="M178.868 280.86L179.338 253.57H184.488L188.358 272.47L192.398 253.57H197.388L197.898 280.86H194.188L193.788 261.89L189.908 280.86H186.908L182.968 261.82L182.598 280.86H178.858H178.868Z" fill="#42210B"/>
<path d="M203.287 280.86V253.57H214.747V257.07H208.277V264.92H213.367V268.39H208.277V277.42H214.817V280.86H203.297H203.287Z" fill="#42210B"/>
<path d="M219.557 280.86V253.57H223.027L229.667 269.14V253.57H233.777V280.86H230.477L223.807 264.55V280.86H219.557Z" fill="#42210B"/>
<path d="M246.447 281.23C244.807 281.23 243.437 280.91 242.337 280.27C241.237 279.63 240.407 278.69 239.847 277.46C239.287 276.23 238.967 274.71 238.907 272.91L243.187 272.07C243.227 273.13 243.357 274.06 243.577 274.87C243.787 275.68 244.117 276.3 244.557 276.74C244.997 277.18 245.577 277.4 246.287 277.4C247.097 277.4 247.667 277.16 248.007 276.68C248.347 276.2 248.517 275.58 248.517 274.84C248.517 273.65 248.247 272.67 247.707 271.91C247.167 271.15 246.447 270.38 245.547 269.62L242.107 266.59C241.137 265.76 240.377 264.83 239.797 263.81C239.227 262.79 238.937 261.52 238.937 260.02C238.937 257.86 239.567 256.2 240.827 255.03C242.087 253.86 243.807 253.28 245.977 253.28C247.257 253.28 248.327 253.48 249.177 253.87C250.027 254.26 250.707 254.81 251.217 255.5C251.727 256.19 252.097 256.99 252.347 257.88C252.597 258.77 252.747 259.71 252.817 260.69L248.567 261.43C248.527 260.58 248.427 259.81 248.277 259.14C248.127 258.47 247.877 257.94 247.507 257.56C247.137 257.18 246.587 256.99 245.877 256.99C245.167 256.99 244.567 257.23 244.177 257.71C243.787 258.19 243.587 258.79 243.587 259.51C243.587 260.43 243.777 261.19 244.157 261.78C244.537 262.38 245.087 262.99 245.807 263.62L249.207 266.62C250.327 267.56 251.287 268.67 252.087 269.94C252.887 271.21 253.287 272.74 253.287 274.54C253.287 275.84 252.997 277 252.427 278.01C251.857 279.02 251.057 279.81 250.037 280.39C249.017 280.96 247.817 281.25 246.447 281.25V281.23Z" fill="#42210B"/>
<path d="M268.448 280.86V253.57H273.438V277.42H280.038V280.86H268.448Z" fill="#42210B"/>
<path d="M284.768 280.86V253.57H289.688V280.86H284.768Z" fill="#42210B"/>
<path d="M295.177 280.86V253.57H298.647L305.287 269.14V253.57H309.397V280.86H306.097L299.427 264.55V280.86H295.177Z" fill="#42210B"/>
<path d="M314.917 280.86V253.57H326.377V257.07H319.907V264.92H324.997V268.39H319.907V277.42H326.447V280.86H314.927H314.917Z" fill="#42210B"/>
<path d="M349.048 281.23C347.028 281.23 345.458 280.86 344.328 280.12C343.208 279.38 342.428 278.32 342.008 276.95C341.578 275.58 341.368 273.94 341.368 272.03V253.57H346.218V272.61C346.218 273.46 346.278 274.27 346.388 275.02C346.498 275.77 346.768 276.38 347.178 276.84C347.598 277.3 348.218 277.53 349.048 277.53C349.928 277.53 350.558 277.3 350.948 276.84C351.338 276.38 351.598 275.77 351.718 275.02C351.838 274.27 351.908 273.46 351.908 272.61V253.57H356.728V272.03C356.728 273.94 356.518 275.58 356.088 276.95C355.658 278.32 354.888 279.38 353.778 280.12C352.668 280.86 351.088 281.23 349.048 281.23Z" fill="#42210B"/>
<path d="M362.118 280.86V253.57H370.138C371.778 253.57 373.108 253.87 374.128 254.48C375.148 255.09 375.898 255.97 376.388 257.13C376.868 258.29 377.108 259.69 377.108 261.32C377.108 263.09 376.808 264.53 376.198 265.62C375.588 266.71 374.748 267.5 373.658 268C372.568 268.49 371.278 268.74 369.798 268.74H367.098V280.87H362.108L362.118 280.86ZM367.108 265.23H368.998C369.898 265.23 370.598 265.1 371.108 264.84C371.618 264.58 371.958 264.17 372.148 263.59C372.338 263.02 372.438 262.25 372.438 261.28C372.438 260.31 372.368 259.49 372.218 258.87C372.068 258.25 371.758 257.8 371.278 257.51C370.798 257.22 370.038 257.07 369.008 257.07H367.118V265.22L367.108 265.23Z" fill="#42210B"/>
</svg>
