<svg xmlns="http://www.w3.org/2000/svg" viewBox="0 0 369 155"><defs><style>.cls-1{fill:#bd3622;}.cls-2{fill:#eff0e5;}.cls-3{fill:#006b81;}</style></defs><g id="レイヤー_2" data-name="レイヤー 2"><g id="レイヤー_2-2" data-name="レイヤー 2"><path class="cls-1" d="M160.63,27.18c-8.11,0-10.78.18-11.7.28-.28,0-1.66.18-1.93.18s-.46-.18-.83-.55L144.42,25c-.37-.37-.37-.46-.37-.64s.09-.19.28-.19c1.56,0,8.47.56,9.85.56,2.76,0,3.78,0,3.78-2.86,0-.92-.56-9.47-.65-10.39-.09-.56-.55-2.95-.55-3.41s.64-.64.92-.64c.46,0,8.19,1.75,8.19,3.31a23.08,23.08,0,0,1-1.38,1.93,6.7,6.7,0,0,0-1,4c0,7.36,0,8.19,2.86,8.19h2.48c1.75,0,1.84-.19,3.32-1.93.73-.83,1.29-1.48,1.93-1.48,1.47,0,5.62,5.16,5.62,6.44,0,.74-.28.83-2.21,1.38-1,.28-4.61,4.88-6.63,7.37s-4.15,5.15-6.26,7.63a2.66,2.66,0,0,0-.83,1.84c0,.74.27.74,3.22,1.2,4.24.55,7.64,3.77,7.64,7.18,0,2.11-1.47,3.86-2.85,3.86s-2-.74-3.41-3.77c-.64-1.57-2.39-4.88-3.87-4.88-.92,0-.92.28-.92,3.22,0,5.25.56,28.34.56,33,0,1.57-.37,4.7-4.06,4.7-2.85,0-2.85-1.75-2.85-3.13,0-.83.46-7,.55-8.28.09-2.58.55-18.22.55-20.06,0-1.11,0-6-.09-6.53s-.37-.92-.92-.92a29.85,29.85,0,0,0-2.49,1.84c-6.9,5.88-12.24,8.09-12.8,8.09-.18,0-.09-.37.56-.92C154.27,50.18,161,42.18,168,30.86c.92-1.47,1.29-2.21,1.29-2.76,0-.83-.92-.92-1.93-.92Zm51-13.8c4.05,0,4.51,0,5.53-1.47,1.38-1.94,2.21-2.49,2.85-2.49,1.47,0,6.54,4.69,6.54,5.25,0,.92-1.2,1.19-4.88,1.19h-29c-6.72,0-9.3,0-11.6.19-.37,0-1.66.27-1.94.27s-.55-.27-.82-.64l-1.75-2.12c-.37-.37-.46-.46-.46-.55s.18-.28.36-.28c.65,0,3.5.37,4.06.37,4.51.19,8.28.28,12.61.28ZM187.33,83.86c-.92,0-1.75,0-2.3,1.65-.65,1.94-1.38,4.24-4.15,4.24-2.48,0-2.48-1.66-2.48-3.22,0-3.41.27-20.43.27-24.29,0-1.29-.27-7.46-.27-8.84,0-.46,0-1.65,1.1-1.65a12,12,0,0,1,3.23,1.65,7.53,7.53,0,0,0,4.32,1.11h24.87c1.75,0,2.48-.19,3.13-1.29,1.1-1.66,1.47-2.21,2.21-2.21.18,0,6.9,2.85,6.9,5,0,.55-.27.64-1.93,2.21-.83.64-.83,6.07-.83,7.82,0,2.39.65,14,.65,16.65,0,2,0,6.44-4.42,6.44-2.58,0-2.67-1-2.86-2.94-.18-2.3-1.56-2.3-2.76-2.3ZM208,25.06c2,0,2.67-.64,3.13-1.28,1.1-1.57,1.38-2,2-2s6.82,3,6.82,4.6c0,.55-.19.65-1.94,2-.92.73-.92,2-.92,2.94,0,1.29.37,10.77.37,12.79,0,2.21-2.39,3.77-4.42,3.77-1.56,0-1.84-.64-2.48-2.21a2.45,2.45,0,0,0-2.67-1.56H192.49a3.68,3.68,0,0,0-3,1.2c-2.12,2.11-2.49,2.48-4,2.48-1.84,0-2.58-.74-2.58-2.58,0-.18.46-10.49.46-12.51,0-2.58-.09-4.88-.18-7.18,0-.46-.37-2.57-.37-3s.37-.55.74-.55a14.85,14.85,0,0,1,3.68,1.84,8,8,0,0,0,5.16,1.28ZM194,68.12c2.86,0,2.86-1.28,2.86-5.61s0-5.61-2.86-5.61h-6.08c-2.85,0-2.85,1.29-2.85,5.61s0,5.61,2.85,5.61Zm.28,13.35c2.67,0,2.67-.65,2.67-5.71,0-4.41,0-5.24-2.67-5.24H187.7c-2.67,0-2.67.64-2.67,5.7,0,4.42,0,5.25,2.67,5.25Zm-1.75-54c-2.77,0-2.77,1.47-2.77,6.71,0,6.81,0,7.55,2.77,7.55H208c2.85,0,2.85-1.38,2.85-6.72,0-6.81,0-7.54-2.85-7.54Zm19.52,54c3,0,3-.92,3-5.43,0-4.69,0-5.52-3-5.52h-6.35c-3,0-3,.92-3,5.43,0,4.69,0,5.52,3,5.52Zm.09-13.35c3,0,3-.73,3-7.54,0-2.58-.37-3.68-3-3.68h-6.44c-2.58,0-2.95,1-2.95,3.68,0,6.81,0,7.54,2.95,7.54Z"/><path class="cls-1" d="M286.79,57.82c-.56,0-1.94.09-1.94,1.1,0,2.21,7.28,11.51,10.22,11.51,1.57,0,10.13-7.27,10.87-9.67.19-.46.37-.82.92-.82s.74.18,2.76,1.93c4.7,3.86,4.88,3.95,4.88,4.87,0,1.2-1,1.2-3.49,1.2l-8.75,2.58c-3.69,1.1-4.15,1.19-4.15,1.93,0,.92,3.6,2.67,4.61,3.13,9.48,4.51,15.28,4.69,18.88,4.78,1.93,0,2.11,0,2.11.28-1.47.83-3.77,2.11-5,2.76s-6.63,5.34-6.81,5.34c-1.29,0-10.13-4.88-17.41-11.69-.27-.28-.37-.37-.64-.37s-.28.09-.46.19c-3.78,1.74-35.09,10.58-37.67,11.41-.73.27-3.95,2.3-4.88,2.3-.36,0-.64-.28-1.29-1.75-.46-1.2-3.68-7.18-3.68-7.27,0-.28.37-.37.55-.37a5.53,5.53,0,0,1,1.2.18,14.39,14.39,0,0,0,3.5.37c1.11,0,7.74-.37,9.3-.64,2.21-.46,2.21-1.11,2.21-6.81,0-1.56,0-2.76-1.1-2.76-.65,0-17.41,7.45-20.54,7.45-.37,0-.46-.09-.46-.27s1.29-.83,1.47-.92c13.17-6.72,18.14-10.31,27.91-17.58.64-.46,1.29-.92,1.29-1.56s-.74-.83-1.57-.83h-13c-1.57,0-8.38.09-11.61.28-.27,0-1.66.27-1.93.27s-.46-.27-.83-.64l-1.75-2.12c-.37-.46-.37-.46-.37-.64s.19-.19.28-.19c.55,0,3.41.28,4.05.28,2.67.18,7.46.37,12.62.37h19c2.68,0,2.68-1.84,2.68-3,0-5.89,0-6.53-.37-7.82a19,19,0,0,1-.83-1.84c0-.28.27-.37.64-.37s5.9,1.2,6.45,1.29c2.3.55,2.49.55,2.49,1.47a9.43,9.43,0,0,1-1.11,1.75c-.83,1.29-.83,1.66-.83,5,0,2.58,0,3.59,2.95,3.59h16.39a17.38,17.38,0,0,0,4.51-.28c.83-.46,4.05-4.69,5.16-4.69.46,0,8.56,4.88,8.56,6.16s-1.84,1.2-5,1.2Zm-33.15-31.1c-.46,0-10.41,6.81-12.16,6.81-.09,0-.28,0-.28-.28a30.24,30.24,0,0,1,3-2.94c10.5-11,13.08-14.91,15.1-19a7.3,7.3,0,0,0,.92-2.57c0-.28-.09-.56-.09-.83s.19-.28.55-.28,8.2,2.95,8.2,4.14c0,.55-.18.37-1.38,1.11-2.21,1.28-7.92,7.91-8.75,9,.09.37.09.46,2,1.29.55.19,2,.83,2,1.84,0,.65-.18.83-1.29,1.66s-1.29,1.75-1.29,3.4c0,2.85.56,15.46.56,18,0,2.39-1.38,3.68-5.25,3.68-1,0-1.29-.83-1.29-2.21,0-.37.18-2.67.18-3.13.19-5.34.19-9.57.19-18C254.56,27.92,254.47,26.72,253.64,26.72Zm47.6-4.6c2.68-.55,2.95-.64,3.5-1.2.65-.73,2.49-5.61,3.13-5.61,1,0,4.89,1.47,8.66,2.85.46.19,1.47.65,1.47,1.47,0,1.57-2.39,1.94-8.38,3.23l-17.31,3.68c-1.2.27-2,.36-2,1.38,0,2.57,12.15,12.6,19.15,12.6,1.66,0,2.39-.92,4.88-4,.37-.47,2.12-3.23,2.21-3.23s.37.19.37.74c0,4.14,0,5.34,1.29,7.73.27.46,2,2.67,2,3.22,0,1-1.1,2.94-5.34,2.94-7.46,0-20.26-4.78-29.1-16.93-1.1-1.47-1.75-2.39-3.22-2.39a4.3,4.3,0,0,0-1.2.19l-2.57.46A115.47,115.47,0,0,0,267.45,32c-.28.1-1.84.65-1.93.65-.28,0-.46-.19-.83-.46l-2.21-1.66c-.37-.27-.46-.46-.46-.64s2.21-.46,3.59-.65c5.71-.92,10.31-1.56,13.17-2.3l1.47-.36c.92-.19,1.75-.37,1.75-1.57,0-.27-3-8.92-3.5-10.67-.09-.37-1.2-4.33-1.38-4.79-.09-.27-1-1.28-1-1.65,0-.55.65-.55.93-.55s6.07,1.28,7.18,1.56c.46.09,1.2.37,1.2,1,0,.28-.56.92-.74,1.38a7,7,0,0,0-.37,1.66c0,3.31,2.4,9.48,2.67,10a2.47,2.47,0,0,0,2.58,1.56,6.38,6.38,0,0,0,1.66-.27ZM292.4,76c.19,0,.56-.09.56-.28s-.19-.37-.28-.46c-4.6-4.6-6.26-7.18-10-15.55-.18-.46-.46-1-1-1a1,1,0,0,0-.55.18c-.55.46-2.95,2.3-3.5,2.67-1.11.83-6.63,4.42-7.64,5.43s-1.11,1.84-1.11,9.11c0,2.58.19,3.4,2.67,3.4C272.7,79.53,289.73,76.59,292.4,76Zm6.91-56.59c-.92,0-1.47-.83-2.21-2.21A37.25,37.25,0,0,0,291,9.79l-.73-.46c0-.18.18-.18.64-.18.83,0,13,.46,11.42,7.72A3.69,3.69,0,0,1,299.31,19.45Z"/><path class="cls-1" d="M86.89,95.13C82.49,91,76.83,89.36,72.12,88a35.76,35.76,0,0,1-7-2.49,12.15,12.15,0,0,1-5.68-7.87l-.06-.25L59,75.47,57.05,75,56.79,75a12.17,12.17,0,0,1-7.88-5.67,35.76,35.76,0,0,1-2.49-7c-1.35-4.7-3-10.35-7.13-14.76,4.15-4.4,5.78-10.05,7.13-14.75a35.76,35.76,0,0,1,2.49-7,12.16,12.16,0,0,1,7.89-5.67l.25-.07L59,19.66l.45-1.92.06-.25a12.15,12.15,0,0,1,5.68-7.87,35.76,35.76,0,0,1,7-2.49c4.71-1.36,10.37-3,14.77-7.13C91.3,4.15,97,5.78,101.66,7.13a35.88,35.88,0,0,1,7,2.49,12.13,12.13,0,0,1,5.67,7.87,1.29,1.29,0,0,1,.06.25l.46,1.92,1.92.45.25.07a12.14,12.14,0,0,1,7.88,5.67,35.76,35.76,0,0,1,2.49,7c1.36,4.7,3,10.35,7.14,14.75-4.15,4.41-5.78,10.06-7.14,14.76a35.76,35.76,0,0,1-2.49,7A12.14,12.14,0,0,1,117,75l-.25.07-1.92.45-.46,1.92a1.29,1.29,0,0,1-.06.25,12.13,12.13,0,0,1-5.67,7.87,36.12,36.12,0,0,1-7,2.49C97,89.36,91.3,91,86.89,95.13Z"/><path class="cls-2" d="M68.22,61.79H56.66a.57.57,0,0,1-.65-.63,7.34,7.34,0,0,1,.92-3.68l3.76-6.63a43.07,43.07,0,0,0,2.54-5.13,11.83,11.83,0,0,0,.93-4.48,5.37,5.37,0,0,0-.71-2.9,2.13,2.13,0,0,0-1.86-1.11,2.31,2.31,0,0,0-1.52.51q-.63.51-.63.84c0,.09.12.23.35.41a2.13,2.13,0,0,1,1,1.77,2.06,2.06,0,0,1-.56,1.42,1.91,1.91,0,0,1-1.47.6,2,2,0,0,1-1.64-.69,2.71,2.71,0,0,1-.59-1.8,4.54,4.54,0,0,1,1.53-3.44,5.61,5.61,0,0,1,4-1.43,5.84,5.84,0,0,1,4.37,1.64,6.15,6.15,0,0,1,1.63,4.53,10.24,10.24,0,0,1-1.21,4.8A51,51,0,0,1,62.31,53a22.92,22.92,0,0,0-3.5,5.57h6a1.75,1.75,0,0,0,1.08-.28,1.91,1.91,0,0,0,.52-1c.11-.47.33-.7.65-.7h.77c.3,0,.44.13.44.4Z"/><path class="cls-2" d="M77.79,35.42c2,0,3.47,1.13,4.5,3.41s1.55,5.6,1.55,10-.52,7.79-1.57,10S79.78,62.16,78,62.16s-3.2-1.1-4.32-3.29S72,53.47,72,49.24q0-7.05,1.64-10.44C74.69,36.54,76.09,35.42,77.79,35.42ZM80,43.64q0-6.41-2-6.41-1.22,0-1.62,2a25.15,25.15,0,0,0-.4,4.94V54.49q0,5.92,2,5.93,1.08,0,1.56-1.56A25.08,25.08,0,0,0,80,52.72Z"/><path class="cls-2" d="M99.23,61.79H87.67a.57.57,0,0,1-.65-.63,7.33,7.33,0,0,1,.91-3.68l3.77-6.63a43.07,43.07,0,0,0,2.54-5.13,11.83,11.83,0,0,0,.93-4.48,5.37,5.37,0,0,0-.71-2.9,2.13,2.13,0,0,0-1.86-1.11,2.31,2.31,0,0,0-1.52.51q-.63.51-.63.84c0,.09.12.23.35.41a2.13,2.13,0,0,1,1,1.77,2.06,2.06,0,0,1-.56,1.42,1.91,1.91,0,0,1-1.47.6,2,2,0,0,1-1.64-.69,2.66,2.66,0,0,1-.59-1.8,4.54,4.54,0,0,1,1.53-3.44,5.61,5.61,0,0,1,4-1.43,5.84,5.84,0,0,1,4.37,1.64,6.15,6.15,0,0,1,1.63,4.53,10.24,10.24,0,0,1-1.21,4.8A51,51,0,0,1,93.32,53a22.92,22.92,0,0,0-3.5,5.57h5.94a1.76,1.76,0,0,0,1.09-.28,1.91,1.91,0,0,0,.52-1c.11-.47.33-.7.65-.7h.77c.29,0,.44.13.44.4Z"/><path class="cls-2" d="M115.28,61.79H103.72a.57.57,0,0,1-.65-.63,7.34,7.34,0,0,1,.92-3.68l3.76-6.63a43.07,43.07,0,0,0,2.54-5.13,11.83,11.83,0,0,0,.93-4.48,5.37,5.37,0,0,0-.71-2.9,2.12,2.12,0,0,0-1.86-1.11,2.31,2.31,0,0,0-1.52.51q-.63.51-.63.84c0,.09.12.23.35.41a2.13,2.13,0,0,1,1,1.77,2.06,2.06,0,0,1-.56,1.42,1.91,1.91,0,0,1-1.47.6,2,2,0,0,1-1.64-.69,2.71,2.71,0,0,1-.59-1.8,4.54,4.54,0,0,1,1.53-3.44,5.61,5.61,0,0,1,4-1.43,5.84,5.84,0,0,1,4.37,1.64,6.15,6.15,0,0,1,1.63,4.53,10.24,10.24,0,0,1-1.21,4.8A51,51,0,0,1,109.37,53a22.92,22.92,0,0,0-3.5,5.57h5.95a1.75,1.75,0,0,0,1.08-.28,1.91,1.91,0,0,0,.52-1c.11-.47.33-.7.65-.7h.77c.3,0,.44.13.44.4Z"/><path class="cls-2" d="M86.63,13.36A3.35,3.35,0,0,0,83.47,15l3.2,2.24,3.13-2.2A3.3,3.3,0,0,0,86.63,13.36Z"/><path class="cls-2" d="M86.63,10.6a7.34,7.34,0,0,1,6,2.63l.87-.61a9.77,9.77,0,0,0-13.73,0l.86.6A7.42,7.42,0,0,1,86.63,10.6Z"/><path class="cls-2" d="M86.63,12.27c2,0,3.67,1,4.17,2.25l.92-.65a6.58,6.58,0,0,0-10.16,0l.92.64C83,13.2,84.66,12.27,86.63,12.27Z"/><path class="cls-2" d="M77.71,17.88a3.34,3.34,0,0,0-3.16,1.67l3.19,2.24,3.14-2.2A3.32,3.32,0,0,0,77.71,17.88Z"/><path class="cls-2" d="M77.7,15.12a7.36,7.36,0,0,1,6,2.63l.87-.61a9.77,9.77,0,0,0-13.73,0l.86.6A7.4,7.4,0,0,1,77.7,15.12Z"/><path class="cls-2" d="M77.7,16.79c2,0,3.68,1,4.17,2.25l.93-.65a6.59,6.59,0,0,0-10.16-.05l.91.65C74.07,17.72,75.73,16.79,77.7,16.79Z"/><path class="cls-2" d="M96.05,17.88a3.35,3.35,0,0,0-3.16,1.67l3.2,2.24,3.13-2.2A3.3,3.3,0,0,0,96.05,17.88Z"/><path class="cls-2" d="M96.05,15.12a7.34,7.34,0,0,1,6,2.63l.87-.61a9.77,9.77,0,0,0-13.73,0l.86.6A7.42,7.42,0,0,1,96.05,15.12Z"/><path class="cls-2" d="M96.05,16.79c2,0,3.67,1,4.17,2.25l.92-.65A6.59,6.59,0,0,0,91,18.34l.92.65C92.42,17.72,94.08,16.79,96.05,16.79Z"/><path class="cls-2" d="M86.63,74.81a3.35,3.35,0,0,0-3.16,1.67l3.2,2.24,3.13-2.2A3.3,3.3,0,0,0,86.63,74.81Z"/><path class="cls-2" d="M86.63,72.05a7.34,7.34,0,0,1,6,2.63l.87-.61a9.77,9.77,0,0,0-13.73,0l.86.61A7.39,7.39,0,0,1,86.63,72.05Z"/><path class="cls-2" d="M86.63,73.73c2,0,3.67,1,4.17,2.24l.92-.64a6.57,6.57,0,0,0-10.16,0l.92.64C83,74.66,84.66,73.73,86.63,73.73Z"/><path class="cls-2" d="M77.71,79.33A3.34,3.34,0,0,0,74.55,81l3.19,2.24L80.88,81A3.32,3.32,0,0,0,77.71,79.33Z"/><path class="cls-2" d="M77.7,76.57a7.36,7.36,0,0,1,6,2.63l.87-.61a9.77,9.77,0,0,0-13.73,0l.86.6A7.4,7.4,0,0,1,77.7,76.57Z"/><path class="cls-2" d="M77.7,78.25c2,0,3.68,1,4.17,2.24l.93-.64a6.57,6.57,0,0,0-10.16,0l.91.64C74.07,79.17,75.73,78.25,77.7,78.25Z"/><path class="cls-2" d="M96.05,79.33A3.35,3.35,0,0,0,92.89,81l3.2,2.24L99.22,81A3.3,3.3,0,0,0,96.05,79.33Z"/><path class="cls-2" d="M96.05,76.57a7.34,7.34,0,0,1,6,2.63l.87-.61a9.77,9.77,0,0,0-13.73,0l.86.6A7.42,7.42,0,0,1,96.05,76.57Z"/><path class="cls-2" d="M96.05,78.25c2,0,3.67,1,4.17,2.24l.92-.64A6.57,6.57,0,0,0,91,79.8l.92.64C92.42,79.17,94.08,78.25,96.05,78.25Z"/><polygon class="cls-3" points="13.67 107.2 355.33 107.2 369 131.1 355.33 155 13.67 155 0 131.1 13.67 107.2"/><path class="cls-2" d="M88.5,142.51V119.38a1.71,1.71,0,0,0-.74-1.5,1,1,0,0,1-.51-.8v-.86q0-.45.51-.45h7L97,130l2.2-14.24h7.14c.28,0,.43.13.43.41v.9a1,1,0,0,1-.51.8,1.71,1.71,0,0,0-.74,1.5v23.13a1.68,1.68,0,0,0,.76,1.52,1,1,0,0,1,.49.79v.87q0,.45-.51.45h-5.88c-.28,0-.42-.13-.42-.41v-.92a1,1,0,0,1,.49-.78,1.73,1.73,0,0,0,.76-1.52V118.82L97,146.14H95.46L91.3,118.82v23.69A1.72,1.72,0,0,0,92,144a1,1,0,0,1,.51.78v.88q0,.45-.51.45H87.68c-.29,0-.43-.13-.43-.41v-.91a1,1,0,0,1,.51-.79A1.76,1.76,0,0,0,88.5,142.51Z"/><path class="cls-2" d="M124.62,146.14H111.23c-.32,0-.47-.15-.47-.46v-.86c0-.28.21-.58.64-.9a1.69,1.69,0,0,0,.57-1.41V119.38a1.73,1.73,0,0,0-.72-1.52.93.93,0,0,1-.49-.78v-.94c0-.25.15-.37.47-.37h10c.18,0,.52,0,1-.06l.86-.06c.43,0,.65.12.65.35v5.75a.92.92,0,0,1-.09.53c-.06.06-.22.09-.5.09h-.72c-.31,0-.49-.18-.53-.55a8.12,8.12,0,0,0-.77-2.6,2.27,2.27,0,0,0-2.24-1.09h-2.46v11.06h.9a1.61,1.61,0,0,0,1.15-.32,6.08,6.08,0,0,0,.78-2,2.63,2.63,0,0,1,.22-.6s.15-.06.35-.06h.86c.34,0,.51.16.51.49V134a.41.41,0,0,1-.47.47h-.9a.52.52,0,0,1-.41-.14,3.31,3.31,0,0,1-.32-.91,3.17,3.17,0,0,0-.76-1.69,1.81,1.81,0,0,0-1.13-.31h-.78v12.37h2.64a2.52,2.52,0,0,0,2-.69,13,13,0,0,0,1.41-3.8c.13-.47.36-.71.7-.71h.84a.43.43,0,0,1,.49.49Z"/><path class="cls-2" d="M140,132.21V119.39a1.7,1.7,0,0,0-.75-1.51,1,1,0,0,1-.5-.8v-.86c0-.3.17-.45.5-.45h4.42c.29,0,.43.13.43.41v.9a1,1,0,0,1-.49.8,1.73,1.73,0,0,0-.76,1.5v26.28c0,.41-.19.62-.57.62h-.86a.84.84,0,0,1-.82-.62l-8.11-21.3v18.15a1.7,1.7,0,0,0,.75,1.52,1,1,0,0,1,.5.79v.87c0,.3-.17.45-.5.45h-4.37c-.28,0-.43-.13-.43-.41v-.91A1,1,0,0,1,129,144a1.74,1.74,0,0,0,.74-1.52V119.38a1.69,1.69,0,0,0-.74-1.5,1,1,0,0,1-.51-.8v-.86q0-.45.51-.45h4.13a1.05,1.05,0,0,1,.6.11,1,1,0,0,1,.31.51Z"/><path class="cls-2" d="M149.44,146.14h-1c-.32,0-.48-.17-.48-.52v-7.37c0-.49.17-.74.52-.74h.84a.43.43,0,0,1,.44.22,7.82,7.82,0,0,1,.31,1.56q.79,5.11,3.65,5.12a2.67,2.67,0,0,0,2.34-1.29,5.55,5.55,0,0,0,.85-3.13,7.08,7.08,0,0,0-.91-3.52,25.65,25.65,0,0,0-3.51-4.37,36.86,36.86,0,0,1-2.86-3.27,9.94,9.94,0,0,1-1.37-2.63,9.5,9.5,0,0,1-.52-3.22,8.41,8.41,0,0,1,1.63-5.34,4.91,4.91,0,0,1,4-2.09,5.32,5.32,0,0,1,2.31.61,2,2,0,0,0,.74.28.77.77,0,0,0,.43-.16,1.17,1.17,0,0,1,.59-.14h.72c.38,0,.57.17.57.53v6.46c0,.33-.15.49-.43.49h-.9c-.24,0-.39-.06-.46-.18a8.75,8.75,0,0,1-.38-1.42q-.92-4.24-3-4.24a2.08,2.08,0,0,0-1.79.94,3.61,3.61,0,0,0-.68,2.17,6.22,6.22,0,0,0,.8,2.92,19.12,19.12,0,0,0,3.15,3.91,23.09,23.09,0,0,1,4.2,5.46,11.47,11.47,0,0,1,1.16,5.11,9.08,9.08,0,0,1-1.95,6,5.83,5.83,0,0,1-4.62,2.32A7.88,7.88,0,0,1,151,146a2.21,2.21,0,0,0-.72-.21,1,1,0,0,0-.51.19A.71.71,0,0,1,149.44,146.14Z"/><path class="cls-2" d="M174.75,142.51V119.38a1.69,1.69,0,0,0-.74-1.5,1,1,0,0,1-.51-.8v-.86q0-.45.51-.45h6.1c.29,0,.43.13.43.41v.9a1,1,0,0,1-.51.8,1.74,1.74,0,0,0-.74,1.5v24.44H181a2.88,2.88,0,0,0,2.28-.91,6.4,6.4,0,0,0,1.2-3.1,5.28,5.28,0,0,1,.23-1c0-.09.16-.13.34-.13h.92c.35,0,.53.14.53.43v7H174c-.43,0-.64-.19-.64-.58v-.74a1,1,0,0,1,.56-.79A1.65,1.65,0,0,0,174.75,142.51Z"/><path class="cls-2" d="M196.05,142.51a1.7,1.7,0,0,0,.75,1.52,1,1,0,0,1,.5.79v.87c0,.3-.17.45-.5.45h-6.1c-.29,0-.43-.13-.43-.41v-.91a1,1,0,0,1,.5-.79,1.74,1.74,0,0,0,.75-1.52V119.38a1.7,1.7,0,0,0-.75-1.5.94.94,0,0,1-.5-.8v-.86c0-.3.16-.45.5-.45h6.1c.29,0,.43.13.43.41v.9a1,1,0,0,1-.5.8,1.72,1.72,0,0,0-.75,1.5Z"/><path class="cls-2" d="M212.81,132.21V119.39a1.72,1.72,0,0,0-.74-1.51,1,1,0,0,1-.51-.8v-.86q0-.45.51-.45h4.42c.28,0,.43.13.43.41v.9a1,1,0,0,1-.49.8,1.71,1.71,0,0,0-.76,1.5v26.28c0,.41-.19.62-.57.62h-.86a.85.85,0,0,1-.83-.62l-8.11-21.3v18.15a1.7,1.7,0,0,0,.75,1.52,1,1,0,0,1,.5.79v.87c0,.3-.16.45-.5.45h-4.37c-.28,0-.42-.13-.42-.41v-.91a1,1,0,0,1,.51-.79,1.76,1.76,0,0,0,.74-1.52V119.38a1.71,1.71,0,0,0-.74-1.5,1,1,0,0,1-.51-.8v-.86c0-.3.16-.45.5-.45h4.13a1.11,1.11,0,0,1,.61.11,1.2,1.2,0,0,1,.31.51Z"/><path class="cls-2" d="M234.74,146.14H221.35a.41.41,0,0,1-.47-.46v-.86c0-.28.22-.58.65-.9a1.71,1.71,0,0,0,.56-1.41V119.38a1.73,1.73,0,0,0-.72-1.52.93.93,0,0,1-.49-.78v-.94c0-.25.16-.37.47-.37H231.4c.18,0,.53,0,1-.06l.86-.06c.44,0,.65.12.65.35v5.75a.92.92,0,0,1-.09.53c-.06.06-.22.09-.5.09h-.72c-.31,0-.49-.18-.53-.55a8.12,8.12,0,0,0-.77-2.6,2.27,2.27,0,0,0-2.24-1.09h-2.46v11.06h.9a1.61,1.61,0,0,0,1.15-.32,6.08,6.08,0,0,0,.78-2,2.63,2.63,0,0,1,.22-.6s.15-.06.35-.06h.86c.34,0,.51.16.51.49V134a.41.41,0,0,1-.47.47H230a.52.52,0,0,1-.41-.14,3.43,3.43,0,0,1-.31-.91,3.23,3.23,0,0,0-.77-1.69,1.81,1.81,0,0,0-1.13-.31h-.78v12.37h2.64a2.51,2.51,0,0,0,2-.69,13,13,0,0,0,1.41-3.8c.13-.47.36-.71.7-.71h.84a.43.43,0,0,1,.49.49Z"/><path class="cls-2" d="M261.76,139.1a7.87,7.87,0,0,1-1.78,5.46,6,6,0,0,1-4.66,2,6.2,6.2,0,0,1-4.71-1.95,7.17,7.17,0,0,1-1.84-5.11V119.38a1.68,1.68,0,0,0-.74-1.5,1,1,0,0,1-.51-.8v-.86q0-.45.51-.45h6.1c.29,0,.43.13.43.41v.9a1,1,0,0,1-.51.8,1.7,1.7,0,0,0-.74,1.5v20.3q0,4.06,2.7,4.06,3,0,2.95-4.76v-19.6a1.7,1.7,0,0,0-.74-1.5,1,1,0,0,1-.51-.8v-.86q0-.45.51-.45h4.36c.28,0,.43.13.43.41v.9a1,1,0,0,1-.51.8,1.68,1.68,0,0,0-.74,1.5Z"/><path class="cls-2" d="M272.74,132.18v10.33a1.71,1.71,0,0,0,.74,1.52,1,1,0,0,1,.51.79v.87q0,.45-.51.45h-6.1c-.28,0-.43-.13-.43-.41v-.91a1,1,0,0,1,.51-.79,1.74,1.74,0,0,0,.74-1.52V119.38a1.69,1.69,0,0,0-.74-1.5,1,1,0,0,1-.51-.8v-.86q0-.45.51-.45h5.28A9.29,9.29,0,0,1,279.4,118a7.84,7.84,0,0,1,2.35,6Q281.75,132.19,272.74,132.18Zm0-14.09v11.78a6.1,6.1,0,0,0,2.57-.4,2.87,2.87,0,0,0,1.3-1.6,10.41,10.41,0,0,0,.49-3.72,11.62,11.62,0,0,0-.45-3.74,3.12,3.12,0,0,0-1.35-1.75A5.67,5.67,0,0,0,272.74,118.09Z"/></g></g></svg>