<svg xmlns="http://www.w3.org/2000/svg" width="352.264" height="200.719" viewBox="0 0 352.264 200.719">
  <g id="アートワーク_7" data-name="アートワーク 7" transform="translate(176.132 99.201)">
    <g id="グループ_424" data-name="グループ 424" transform="translate(-176.132 -99.201)">
      <g id="グループ_417" data-name="グループ 417">
        <g id="グループ_416" data-name="グループ 416">
          <path id="パス_2688" data-name="パス 2688" d="M24.68,46.027v7.9L37.02,67.251V80.085L24.68,66.758v39.364H15.671V60.835L0,86.378v-17.4L27.4,24.433H0V15.3H15.671V0H25.05V15.3H43.683ZM40.721,3.455h63.55v9.131H40.721ZM42.2,104.888V55.652h61.082v49.236Zm5.553-86.625H97.484v31.59H47.755ZM68.116,64.537H51.333V75.026H68.116ZM51.333,83.787V96H68.116V83.787Zm37.02-42.7V27.024H56.886V41.091Zm5.8,33.935V64.537H77V75.026ZM77,96H94.152V83.787H77Z" fill="#003b50"/>
          <path id="パス_2689" data-name="パス 2689" d="M255.8,25.3l-2.221,2.345H240.87L267.03.617h12.587L265.056,15.671v37.02H255.8ZM298.62,45.287v9.625h47.508V63.55H297.879l-.616.37,18.016,15.918,23.445-14.314V76.383l-16.288,9.872,22.335,19.867H331.2L289.242,68.856,271.473,79.715V90.451L290.723,78.6v9.872l-28.382,17.275V85.268L241.857,97.854V87.612L281.1,63.55H241.857V54.912h47.508V45.287Zm13.327-29.245,34.181-4.073v8.885l-26.777,3.209L345.141,52.2H332.554L308,25.42l-37.883,4.566V20.978l30.479-3.7L285.293.617h12.586Zm22.705-4.319H322.559L313.3,1.6H325.4Z" fill="#003b50"/>
        </g>
      </g>
      <g id="グループ_419" data-name="グループ 419">
        <g id="グループ_418" data-name="グループ 418">
          <path id="パス_2690" data-name="パス 2690" d="M133.866,48.068V44.623L140.9,33.76q.772-1.2,1.459-2.285a12.34,12.34,0,0,0,1.125-2.268,7.334,7.334,0,0,0,.439-2.584,4.378,4.378,0,0,0-.562-2.426,1.964,1.964,0,0,0-1.758-.843,2.376,2.376,0,0,0-1.758.632,3.29,3.29,0,0,0-.861,1.653,10.261,10.261,0,0,0-.229,2.25v1.195h-4.781V27.818a12.068,12.068,0,0,1,.756-4.447,6.252,6.252,0,0,1,2.408-3.006,7.735,7.735,0,0,1,4.324-1.09,7.132,7.132,0,0,1,5.485,1.969,7.757,7.757,0,0,1,1.828,5.485,9.693,9.693,0,0,1-.492,3.181,13.56,13.56,0,0,1-1.3,2.725q-.81,1.3-1.758,2.672l-5.836,8.859h8.649v3.9Z" fill="#c1272d"/>
          <path id="パス_2691" data-name="パス 2691" d="M161.158,48.49a7.481,7.481,0,0,1-4.131-1.054,6.535,6.535,0,0,1-2.461-2.918,10.485,10.485,0,0,1-.826-4.289V27.607a11.219,11.219,0,0,1,.791-4.377,6.308,6.308,0,0,1,2.426-2.935,8.892,8.892,0,0,1,8.4,0,6.314,6.314,0,0,1,2.426,2.935,11.237,11.237,0,0,1,.791,4.377V40.229a10.5,10.5,0,0,1-.826,4.289,6.548,6.548,0,0,1-2.461,2.918A7.483,7.483,0,0,1,161.158,48.49Zm0-4.183a1.936,1.936,0,0,0,1.617-.668,3.644,3.644,0,0,0,.7-1.618,10.221,10.221,0,0,0,.176-1.863V27.678a12.121,12.121,0,0,0-.158-1.951,3.506,3.506,0,0,0-.686-1.635,2.378,2.378,0,0,0-3.3,0,3.5,3.5,0,0,0-.685,1.635,12.007,12.007,0,0,0-.158,1.951v12.48a9.3,9.3,0,0,0,.193,1.863,3.769,3.769,0,0,0,.721,1.618A1.893,1.893,0,0,0,161.158,44.307Z" fill="#c1272d"/>
          <path id="パス_2692" data-name="パス 2692" d="M173.6,48.068V44.623l7.031-10.863q.772-1.2,1.459-2.285a12.34,12.34,0,0,0,1.125-2.268,7.334,7.334,0,0,0,.44-2.584A4.369,4.369,0,0,0,183.1,24.2a1.963,1.963,0,0,0-1.758-.843,2.372,2.372,0,0,0-1.757.632,3.3,3.3,0,0,0-.862,1.653,10.263,10.263,0,0,0-.228,2.25v1.195h-4.782V27.818a12.068,12.068,0,0,1,.756-4.447,6.254,6.254,0,0,1,2.409-3.006,7.732,7.732,0,0,1,4.324-1.09,7.131,7.131,0,0,1,5.484,1.969,7.757,7.757,0,0,1,1.828,5.485,9.693,9.693,0,0,1-.492,3.181,13.56,13.56,0,0,1-1.3,2.725q-.809,1.3-1.758,2.672l-5.835,8.859h8.648v3.9Z" fill="#c1272d"/>
          <path id="パス_2693" data-name="パス 2693" d="M200.624,48.49a8.165,8.165,0,0,1-4.307-1,5.753,5.753,0,0,1-2.373-2.847,11.555,11.555,0,0,1-.738-4.307V39.35h4.816v.843a12.1,12.1,0,0,0,.247,2.286,2.54,2.54,0,0,0,.791,1.441,2.387,2.387,0,0,0,1.6.492,2.271,2.271,0,0,0,1.635-.527,2.825,2.825,0,0,0,.738-1.547,13.181,13.181,0,0,0,.194-2.426,7.171,7.171,0,0,0-.686-3.428,2.948,2.948,0,0,0-2.654-1.353h-.809v-3.9h.738a3.2,3.2,0,0,0,2.672-1.038,5.5,5.5,0,0,0,.739-3.216,6.029,6.029,0,0,0-.545-2.813,2.153,2.153,0,0,0-2.092-1.019,2,2,0,0,0-2.022,1.125,7.489,7.489,0,0,0-.545,2.918V28.24h-4.816V26.869a9.084,9.084,0,0,1,.861-4.131,5.93,5.93,0,0,1,2.514-2.6,8.3,8.3,0,0,1,4.008-.9,8.615,8.615,0,0,1,4.078.879,5.878,5.878,0,0,1,2.514,2.549,8.862,8.862,0,0,1,.861,4.1,7.463,7.463,0,0,1-1.055,4.148,4.834,4.834,0,0,1-2.707,2.109,4.686,4.686,0,0,1,1.969,1.213,5.869,5.869,0,0,1,1.318,2.25,10.436,10.436,0,0,1,.475,3.358,13.008,13.008,0,0,1-.721,4.517,6.065,6.065,0,0,1-2.355,3.041A7.717,7.717,0,0,1,200.624,48.49Z" fill="#c1272d"/>
        </g>
      </g>
      <g id="グループ_420" data-name="グループ 420">
        <path id="パス_2694" data-name="パス 2694" d="M352.264,124.791l-39.838.006q-30.084,0-60.169,0-28.659-.006-57.318-.026h-.847c.155-.224.255-.381.368-.528,1.007-1.307,2-2.623,3.038-3.906a1.242,1.242,0,0,1,.825-.444q25.959-.031,51.917-.017c5.727,0,11.453.032,17.179.033q41.865.006,83.728.005c.372,0,.744.05,1.117.076Z" fill="#003b50"/>
        <path id="パス_2695" data-name="パス 2695" d="M2.045,119.989c.322-.026.644-.076.966-.076q15.189-.006,30.378,0,25.125.027,50.249.07,23.439.024,46.878.029,4.313,0,8.626.013h.676l.815,4.9h-.884q-27.34-.006-54.679-.015-19.164-.009-38.327-.036-21.937-.03-43.874-.072c-.275,0-.549,0-.824-.006Z" fill="#b49664"/>
        <path id="パス_2696" data-name="パス 2696" d="M149.845,70.322c.206,2.409.229,4.849.649,7.22a123.89,123.89,0,0,0,10.9,33.087c.856,1.744,1.886,3.4,2.893,5.205-1,.22-2.024.482-3.061.666-2.064.367-2.079.356-3.087-1.509a125.056,125.056,0,0,1-9.753-24.746,91.6,91.6,0,0,1-3.105-14.471c-.221-1.806-.261-3.634-.384-5.452Z" fill="#b49664"/>
        <path id="パス_2697" data-name="パス 2697" d="M208.515,70.322a123.606,123.606,0,0,1-4.24,28.777l-4.552-1.868c.406-1.753.849-3.534,1.229-5.329a112.41,112.41,0,0,0,2.638-20.385c.01-.4-.017-.8-.027-1.195Z" fill="#003b50"/>
        <path id="パス_2698" data-name="パス 2698" d="M149.985,103.388c.639,1.563,1.26,3.029,1.82,4.517.071.188-.116.546-.282.741a15.071,15.071,0,0,0-3.8,10.3c.093,5.572,2.642,9.638,7.719,11.988a21.682,21.682,0,0,0,12.965,1.495,1.875,1.875,0,0,1,1.216.264c1.487.96,2.931,1.986,4.507,3.068-.591.228-1.118.469-1.668.638a26.033,26.033,0,0,1-19.74-1.343,16.781,16.781,0,0,1-9.76-14.047,19.614,19.614,0,0,1,6.541-17.237C149.626,103.656,149.769,103.558,149.985,103.388Z" fill="#003b50"/>
        <path id="パス_2699" data-name="パス 2699" d="M165.542,125.7c1.721-.582,3.338-1.147,4.971-1.656a.992.992,0,0,1,.739.277,36.667,36.667,0,0,0,9.045,6.1c6.923,3.065,13.716,2.82,20.269-1.126a7.461,7.461,0,0,0,1.588-1.247,2.07,2.07,0,0,1,1.734-.65c1.424.038,2.85.009,4.276.013.241,0,.482.026.834.047a18.071,18.071,0,0,1-3.335,4.054,21.984,21.984,0,0,1-12.744,5.587,26.08,26.08,0,0,1-14.748-2.226,45.862,45.862,0,0,1-10.034-6.775C167.261,127.332,166.423,126.52,165.542,125.7Z" fill="#b49664"/>
        <path id="パス_2700" data-name="パス 2700" d="M182.987,110.355l-3.3-3.661c.9-.818,1.746-1.651,2.655-2.412a20.653,20.653,0,0,1,9.16-4.7,16.3,16.3,0,0,1,17.579,8.283,21.878,21.878,0,0,1,2.509,9.011,2.21,2.21,0,0,1-.042.358h-4.717c-.282-1.367-.459-2.735-.851-4.038-1.449-4.817-4.472-8-9.576-8.894a11.124,11.124,0,0,0-6.975,1.135,23.108,23.108,0,0,0-6.128,4.634C183.213,110.151,183.122,110.229,182.987,110.355Z" fill="#b49664"/>
        <path id="パス_2701" data-name="パス 2701" d="M159.438,99.749a13.924,13.924,0,0,1,4.489-.06,19.635,19.635,0,0,1,10.7,5.644c2.694,2.559,5.172,5.347,7.744,8.036,1.4,1.46,2.79,2.923,4.279,4.484l-3.286,3.559c-1.02-1.01-2.017-1.938-2.948-2.928-2.567-2.73-5.039-5.553-7.683-8.206a36.638,36.638,0,0,0-4.7-3.821,11.361,11.361,0,0,0-6.24-2.075.8.8,0,0,1-.594-.366C160.6,102.646,160.053,101.255,159.438,99.749Z" fill="#003b50"/>
        <path id="パス_2702" data-name="パス 2702" d="M179.972,127.529a51.937,51.937,0,0,0,16.578-20.538,8.448,8.448,0,0,1,4.344,2.334c-.756,1.453-1.474,2.955-2.3,4.4a56.882,56.882,0,0,1-12.513,15.3,1.231,1.231,0,0,1-1.354.312C183.2,128.749,181.665,128.171,179.972,127.529Z" fill="#003b50"/>
        <path id="パス_2703" data-name="パス 2703" d="M150.7,119.984c7.821-.509,15.584-.881,22.39-5.483l3.212,3.593c-.387.3-.72.588-1.079.839a27.62,27.62,0,0,1-11.19,4.436c-3.556.626-7.171.917-10.755,1.391a1.261,1.261,0,0,1-1.489-.864A10.43,10.43,0,0,1,150.7,119.984Z" fill="#b49664"/>
      </g>
      <g id="グループ_422" data-name="グループ 422">
        <g id="グループ_421" data-name="グループ 421">
          <path id="パス_2704" data-name="パス 2704" d="M42.835,183.891l.657-37.969h7.172l5.39,26.3,5.625-26.3h6.938l.7,37.969H64.164L63.6,157.5,58.21,183.891H54.039l-5.485-26.484-.515,26.484Z" fill="#42210b"/>
          <path id="パス_2705" data-name="パス 2705" d="M76.6,183.891V145.922H92.532V150.8h-9v10.922H90.61v4.828H83.532V179.11h9.094v4.781Z" fill="#42210b"/>
          <path id="パス_2706" data-name="パス 2706" d="M99.02,183.891V145.922h4.828l9.234,21.657V145.922H118.8v37.969h-4.594L104.926,161.2v22.687Z" fill="#42210b"/>
          <path id="パス_2707" data-name="パス 2707" d="M136.219,184.407a11.23,11.23,0,0,1-5.719-1.336,8.419,8.419,0,0,1-3.468-3.914,16.8,16.8,0,0,1-1.313-6.328l5.953-1.172a18.415,18.415,0,0,0,.539,3.89,5.627,5.627,0,0,0,1.36,2.6,3.263,3.263,0,0,0,2.414.914,2.7,2.7,0,0,0,2.39-1.008,4.361,4.361,0,0,0,.7-2.555,6.91,6.91,0,0,0-1.125-4.078,17.583,17.583,0,0,0-3-3.187l-4.782-4.219a14.378,14.378,0,0,1-3.211-3.867,10.668,10.668,0,0,1-1.195-5.274,9,9,0,0,1,2.625-6.937,10.128,10.128,0,0,1,7.172-2.438,10.643,10.643,0,0,1,4.453.821,7.084,7.084,0,0,1,2.836,2.273,10.268,10.268,0,0,1,1.57,3.305,19.508,19.508,0,0,1,.657,3.914l-5.907,1.031a20.211,20.211,0,0,0-.4-3.187,4.441,4.441,0,0,0-1.078-2.2,3.027,3.027,0,0,0-2.274-.8,2.875,2.875,0,0,0-2.367,1.008,3.84,3.84,0,0,0-.82,2.507,5.749,5.749,0,0,0,.8,3.164,12.308,12.308,0,0,0,2.3,2.555l4.734,4.172a19.64,19.64,0,0,1,4.008,4.617,11.793,11.793,0,0,1,1.664,6.4,9.633,9.633,0,0,1-1.2,4.828,8.561,8.561,0,0,1-3.329,3.3A10.043,10.043,0,0,1,136.219,184.407Z" fill="#42210b"/>
          <path id="パス_2708" data-name="パス 2708" d="M166.828,183.891V145.922h6.938V179.11h9.187v4.781Z" fill="#42210b"/>
          <path id="パス_2709" data-name="パス 2709" d="M189.337,183.891V145.922h6.844v37.969Z" fill="#42210b"/>
          <path id="パス_2710" data-name="パス 2710" d="M203.6,183.891V145.922h4.828l9.235,21.657V145.922h5.718v37.969h-4.593L209.5,161.2v22.687Z" fill="#42210b"/>
          <path id="パス_2711" data-name="パス 2711" d="M230.84,183.891V145.922h15.937V150.8h-9v10.922h7.078v4.828h-7.078V179.11h9.094v4.781Z" fill="#42210b"/>
          <path id="パス_2712" data-name="パス 2712" d="M278.324,184.407a11.854,11.854,0,0,1-6.563-1.547,7.9,7.9,0,0,1-3.234-4.406,23.159,23.159,0,0,1-.891-6.844V145.922h6.75v26.485a22.6,22.6,0,0,0,.235,3.351,4.716,4.716,0,0,0,1.1,2.532,4.069,4.069,0,0,0,5.25,0,5.08,5.08,0,0,0,1.078-2.532,20.67,20.67,0,0,0,.258-3.351V145.922h6.7V171.61a23.2,23.2,0,0,1-.89,6.844,7.945,7.945,0,0,1-3.211,4.406A11.833,11.833,0,0,1,278.324,184.407Z" fill="#42210b"/>
          <path id="パス_2713" data-name="パス 2713" d="M296.286,183.891V145.922h11.156A10.79,10.79,0,0,1,313,147.188a7.509,7.509,0,0,1,3.14,3.68,15.134,15.134,0,0,1,1.008,5.836,12.247,12.247,0,0,1-1.266,5.976,7.536,7.536,0,0,1-3.539,3.305,12.906,12.906,0,0,1-5.367,1.031h-3.75v16.875Zm6.937-21.75h2.625a6.539,6.539,0,0,0,2.93-.539,2.883,2.883,0,0,0,1.453-1.734,10.486,10.486,0,0,0,.4-3.211,15.048,15.048,0,0,0-.3-3.352,2.88,2.88,0,0,0-1.313-1.9,6.318,6.318,0,0,0-3.164-.61h-2.625Z" fill="#42210b"/>
        </g>
      </g>
      <g id="グループ_423" data-name="グループ 423">
        <line id="線_33" data-name="線 33" x2="172.82" transform="translate(2.045 198.403)" fill="none" stroke="#b49664" stroke-miterlimit="10" stroke-width="4.632"/>
        <line id="線_34" data-name="線 34" x2="172.82" transform="translate(179.443 198.403)" fill="none" stroke="#003b50" stroke-miterlimit="10" stroke-width="4.632"/>
      </g>
    </g>
  </g>
</svg>
