<svg xmlns="http://www.w3.org/2000/svg" width="624.558" height="101.262" viewBox="0 0 624.558 101.262">
  <g id="アートワーク_5" data-name="アートワーク 5" transform="translate(312.279 50.631)">
    <g id="グループ_407" data-name="グループ 407" transform="translate(-312.279 -50.631)">
      <g id="グループ_406" data-name="グループ 406">
        <path id="パス_2481" data-name="パス 2481" d="M79.255,11.883l9.719,9.694-.768.768-9.731-9.694-9.668,9.694-.768-.768,9.668-9.694L68.089,2.266l.781-.781,9.6,9.618,9.617-9.618.781.781ZM71.526,9.97A1.927,1.927,0,0,1,73.452,11.9a1.783,1.783,0,0,1-.629,1.4,1.892,1.892,0,0,1-1.3.491A1.882,1.882,0,0,1,69.638,11.9a1.847,1.847,0,0,1,.616-1.422A1.806,1.806,0,0,1,71.526,9.97Zm6.949-6.961a1.83,1.83,0,0,1,1.422.629,1.845,1.845,0,0,1,.491,1.284,1.822,1.822,0,0,1-.629,1.41,1.849,1.849,0,0,1-1.284.491,1.818,1.818,0,0,1-1.41-.63,1.83,1.83,0,0,1-.491-1.271,1.908,1.908,0,0,1,1.9-1.913Zm0,13.923a1.819,1.819,0,0,1,1.422.641,1.876,1.876,0,0,1,.491,1.284,1.8,1.8,0,0,1-.629,1.411,1.879,1.879,0,0,1-1.284.478,1.836,1.836,0,0,1-1.41-.617,1.8,1.8,0,0,1-.491-1.272,1.856,1.856,0,0,1,.63-1.422A1.806,1.806,0,0,1,78.475,16.932ZM85.449,9.97a1.818,1.818,0,0,1,1.423.642A1.879,1.879,0,0,1,87.35,11.9a1.8,1.8,0,0,1-.617,1.4,1.924,1.924,0,0,1-2.707-.138,1.789,1.789,0,0,1-.491-1.259,1.83,1.83,0,0,1,.63-1.422A1.849,1.849,0,0,1,85.449,9.97Z"/>
        <path id="パス_2482" data-name="パス 2482" d="M114.611,2.9c0,.117-.067.175-.2.175l-3.437-.05h-6.8V6.395h1.976l3.336-.05a.178.178,0,0,1,.2.2l-.05,2.832V14.93l.05,2.832a.179.179,0,0,1-.2.2l-3.336-.051h-5.3l-3.311.051a.179.179,0,0,1-.2-.2l.051-2.832V9.378l-.051-2.832a.178.178,0,0,1,.2-.2l3.311.05h1.85V3.021H96.156l-3.411.05c-.135,0-.2-.058-.2-.175V1.75c0-.151.067-.227.2-.227l3.411.05h14.817l3.437-.05c.134,0,.2.076.2.227Zm-.277,3.763a.692.692,0,0,1-.126.39,7.286,7.286,0,0,0-.188,2.342v8.824l.05,4.948c0,.142-.068.214-.2.214h-1.2c-.134,0-.2-.072-.2-.214V21.879H94.658v1.284c0,.142-.067.214-.2.214H93.286c-.134,0-.2-.072-.2-.214l.051-4.9V9.341a21.2,21.2,0,0,0-.151-3.11q1.132.089,1.624.151c.243.025.365.118.365.277a2.225,2.225,0,0,1-.189.491,10.61,10.61,0,0,0-.126,2.279V20.456h17.813V9.366a19.233,19.233,0,0,0-.176-3.135q.957.051,1.7.151C114.221,6.407,114.334,6.5,114.334,6.659ZM102.7,11.342V7.679H98.837v3.663Zm0,5.287V12.576H98.837v4.053Zm5.464-5.287V7.679h-3.991v3.663Zm0,5.287V12.576h-3.991v4.053Z"/>
        <path id="パス_2483" data-name="パス 2483" d="M124.432,1.058a.453.453,0,0,1-.214.352,2.793,2.793,0,0,0-.566,1.032q-.782,2.04-1.65,3.789V19.223l.051,4.053c0,.134-.072.2-.214.2h-1.183a.179.179,0,0,1-.2-.2l.05-4.053V12.677q0-1.286.051-3.915a38.205,38.205,0,0,1-2.329,3.272c-.118.177-.218.265-.3.265s-.189-.113-.29-.34a3.366,3.366,0,0,0-.641-.906,26.745,26.745,0,0,0,5.236-9.076A8.438,8.438,0,0,0,122.62.252a10.832,10.832,0,0,1,1.523.516C124.335.86,124.432.957,124.432,1.058Zm16.944,19.537a3.838,3.838,0,0,0-.742.919c-.126.226-.239.34-.34.34a1.156,1.156,0,0,1-.353-.2,18.7,18.7,0,0,1-4.506-4.758,19.785,19.785,0,0,1-2.468-5.867h-1.158q-.705.58-1.246.982a9.615,9.615,0,0,1,2.543,3.814,10.343,10.343,0,0,1,.642,3.614q0,3.813-2.442,3.814-.819,0-1.587-.076a1.02,1.02,0,0,1-.49-.113.77.77,0,0,1-.126-.377,3.175,3.175,0,0,0-.391-1.058,16.014,16.014,0,0,0,2.266.2,1.074,1.074,0,0,0,1.033-.566,4.18,4.18,0,0,0,.34-1.964,11.408,11.408,0,0,0-.126-1.536,24.647,24.647,0,0,1-8.044,4.406,1.514,1.514,0,0,1-.328.076q-.138,0-.314-.315a3.289,3.289,0,0,0-.643-.818,22.757,22.757,0,0,0,9.014-4.671,6.877,6.877,0,0,0-.655-1.5,21.782,21.782,0,0,1-6.974,3.588,1.151,1.151,0,0,1-.34.1c-.084,0-.185-.1-.3-.3a3.374,3.374,0,0,0-.617-.781,21.815,21.815,0,0,0,7.591-3.625,11.6,11.6,0,0,0-1.045-1.2,20.242,20.242,0,0,1-5.224,2.417,1.968,1.968,0,0,1-.39.1q-.14,0-.289-.328a3.129,3.129,0,0,0-.592-.793,18.1,18.1,0,0,0,6.823-3.1h-1.033l-3.575.051a.178.178,0,0,1-.2-.2l.05-1.75V7.339q-.717.579-1.082.844a1.206,1.206,0,0,1-.39.226c-.06,0-.152-.105-.278-.315a2.229,2.229,0,0,0-.616-.642,15.941,15.941,0,0,0,5.3-5.488A7.082,7.082,0,0,0,128.737.34q.593.15,1.373.4.3.138.3.315c0,.117-.093.238-.277.364a3.177,3.177,0,0,0-.756,1l-.1.151h4.179a1.6,1.6,0,0,0,.567-.076.811.811,0,0,1,.226-.05,1.483,1.483,0,0,1,.73.428q.467.4.466.567,0,.2-.315.39a2.635,2.635,0,0,0-.591.616,11.312,11.312,0,0,1-1.31,1.587H135.4l3.587-.051a.179.179,0,0,1,.2.2l-.05,1.712V9.228l.05,1.648a.178.178,0,0,1-.2.2l-3.587-.051h-1.108a15.759,15.759,0,0,0,1.523,3.978,22.1,22.1,0,0,0,2.065-1.813,3.863,3.863,0,0,0,.818-1.107,6.411,6.411,0,0,1,1.2.78c.193.135.29.252.29.353,0,.134-.106.231-.315.289a2.536,2.536,0,0,0-.856.592,29.306,29.306,0,0,1-2.531,1.989A16.267,16.267,0,0,0,141.376,20.595ZM131.293,9.9V7.188h-4.784V9.9Zm2.09-6.093H128.46a20.143,20.143,0,0,1-1.925,2.228h5.035A15.172,15.172,0,0,0,133.383,3.8ZM137.751,9.9V7.188h-5.086V9.9Z"/>
        <path id="パス_2484" data-name="パス 2484" d="M146.165,2.14A5.39,5.39,0,0,1,148,2.807a.488.488,0,0,1,.264.39.6.6,0,0,1-.113.3,4.666,4.666,0,0,0-.416,1.3,49.855,49.855,0,0,0-1.233,9.756,41.442,41.442,0,0,0,.176,4.532q.353-.907,1.813-4.2a4.413,4.413,0,0,0,.579,1.058.535.535,0,0,1,.113.29.671.671,0,0,1-.088.276,23.057,23.057,0,0,0-1.535,4.066c-.034.327-.051.588-.051.781a2.484,2.484,0,0,0,.025.378.84.84,0,0,1,.013.126.249.249,0,0,1-.152.213,5.6,5.6,0,0,1-1.157.328.31.31,0,0,1-.114.025c-.092,0-.164-.075-.214-.227a22,22,0,0,1-.982-7.59A64.339,64.339,0,0,1,146.039,4.7a12.809,12.809,0,0,0,.164-1.913A4.84,4.84,0,0,0,146.165,2.14Zm11.883,13.873q-.176-3.752-.176-7.176-1.825.1-3.247.1-1.284,0-2.506-.076a.24.24,0,0,1-.277-.226,9.908,9.908,0,0,1-.1-1.372q1.459.1,3,.1,1.56,0,3.084-.1l.025-2.959a10.188,10.188,0,0,0-.252-2.291,9.567,9.567,0,0,1,1.977.352c.193.084.289.19.289.315a.89.89,0,0,1-.1.365,3.233,3.233,0,0,0-.215,1.234q-.05.894-.05,2.858,1.963-.189,4.067-.579a.525.525,0,0,1,.125-.026c.076,0,.122.068.139.2a5.9,5.9,0,0,1,.1,1.02c0,.177-.058.282-.176.315a33.051,33.051,0,0,1-4.255.617q.037,4.268.239,7.78a18.775,18.775,0,0,1,4.532,2.668.205.205,0,0,1,.1.151.572.572,0,0,1-.051.177,4.814,4.814,0,0,1-.692,1.133.207.207,0,0,1-.164.113.236.236,0,0,1-.15-.088,17.086,17.086,0,0,0-3.6-2.367q-.164,3.474-4.317,3.475a4.752,4.752,0,0,1-3.047-.869,2.5,2.5,0,0,1-.97-2.065,2.674,2.674,0,0,1,1.31-2.354,4.742,4.742,0,0,1,2.656-.717A12.318,12.318,0,0,1,158.048,16.013Zm0,1.56a10.344,10.344,0,0,0-2.807-.427,2.982,2.982,0,0,0-1.812.478,1.4,1.4,0,0,0-.579,1.17,1.252,1.252,0,0,0,.742,1.171,3.747,3.747,0,0,0,1.725.34q2.731,0,2.731-2.241Z"/>
        <path id="パス_2485" data-name="パス 2485" d="M188.723,12.349a.178.178,0,0,1-.2.2L185.11,12.5H170.244l-3.412.051a.179.179,0,0,1-.2-.2V11a.178.178,0,0,1,.2-.2l3.412.05H185.11l3.412-.05a.178.178,0,0,1,.2.2Z"/>
        <path id="パス_2486" data-name="パス 2486" d="M198.4,1.133q0,.163-.264.378a3.348,3.348,0,0,0-.453,1.007q-.73,2.127-1.448,3.738V19.223l.05,4.053a.178.178,0,0,1-.2.2h-1.2a.178.178,0,0,1-.2-.2l.05-4.053V12.8q0-2.468.025-3.726a36.58,36.58,0,0,1-2.19,3.261c-.118.176-.214.264-.29.264-.059,0-.151-.114-.277-.34a3.431,3.431,0,0,0-.642-.894,26.193,26.193,0,0,0,4.847-9.252,8.683,8.683,0,0,0,.34-1.788q.831.228,1.561.491C198.3.9,198.4,1.007,198.4,1.133Zm9,2.291a.189.189,0,0,1-.214.214L204.5,3.575h-1.536a23.858,23.858,0,0,1-.78,3.613h2.6a1.433,1.433,0,0,0,.642-.126.7.7,0,0,1,.315-.076q.227,0,.743.517c.31.285.466.508.466.667a.567.567,0,0,1-.151.327,2.159,2.159,0,0,0-.315.957,23.712,23.712,0,0,1-2.959,8.006,23.386,23.386,0,0,1-4.619,5.036,1.068,1.068,0,0,1-.366.2c-.067,0-.184-.114-.352-.34a3.167,3.167,0,0,0-.856-.717,18.476,18.476,0,0,0,5.828-6.521,19.019,19.019,0,0,0-2.379-2.241c-.1-.076-.151-.134-.151-.176a.564.564,0,0,1,.138-.24l.479-.616c.076-.1.142-.152.2-.152a.264.264,0,0,1,.164.076,16.2,16.2,0,0,1,2.191,1.964,21.416,21.416,0,0,0,1.346-5.212H201.72A18.376,18.376,0,0,1,198.573,14c-.143.168-.244.252-.3.252s-.173-.1-.34-.29a2.964,2.964,0,0,0-.768-.667,17.25,17.25,0,0,0,4.355-9.718h-.075l-2.682.063a.19.19,0,0,1-.214-.214V2.392c0-.134.072-.2.214-.2l2.682.051H204.5l2.681-.051c.143,0,.214.068.214.2Zm2.858-.227c0,.009-.043.16-.126.453A14.485,14.485,0,0,0,210,6.307v6.759l.05,3.274a.178.178,0,0,1-.2.2h-1.171a.178.178,0,0,1-.2-.2l.051-3.274V6.357a26.3,26.3,0,0,0-.151-3.525q.817.038,1.6.151C210.162,3.009,210.255,3.08,210.255,3.2ZM214.6,1.083a1.682,1.682,0,0,1-.151.49,8.949,8.949,0,0,0-.139,2.241V16.629l.025,3.94a2.449,2.449,0,0,1-.717,2.04,4.538,4.538,0,0,1-2.531.491h-.516c-.268,0-.427-.03-.478-.088a1.009,1.009,0,0,1-.164-.429,2.445,2.445,0,0,0-.516-1.157,18.518,18.518,0,0,0,2.09.125,1.437,1.437,0,0,0,1.007-.264,1.349,1.349,0,0,0,.277-.982V3.839a19.4,19.4,0,0,0-.176-3.122,16.3,16.3,0,0,1,1.674.126Q214.6.894,214.6,1.083Z"/>
        <path id="パス_2487" data-name="パス 2487" d="M218.2,6.533a24.83,24.83,0,0,0,3.2-.3q7.188-1.158,15.987-2.253h.088a.33.33,0,0,1,.352.214,5.794,5.794,0,0,1,.152,1.284c0,.185-.114.29-.34.315a11.66,11.66,0,0,0-3.764.768,11.49,11.49,0,0,0-4.96,3.612,7.209,7.209,0,0,0-1.687,4.507q0,5.237,7.5,5.854c.276.025.415.121.415.289a6.1,6.1,0,0,1-.151,1.234q-.075.365-.34.365h-.075a12.362,12.362,0,0,1-6.5-2.165,6.28,6.28,0,0,1-2.556-5.287q0-5.439,6.282-8.762l-.025-.051q-7.074,1.12-10.461,1.826a6.685,6.685,0,0,0-1.548.441,2.81,2.81,0,0,1-.491.176.414.414,0,0,1-.365-.227A15.216,15.216,0,0,1,218.2,6.533Zm15.773,3.941.957-.693a.186.186,0,0,1,.114-.038.275.275,0,0,1,.15.064,11.291,11.291,0,0,1,2.909,3.121.194.194,0,0,1,.05.114.187.187,0,0,1-.1.163l-.743.63a.283.283,0,0,1-.163.062.194.194,0,0,1-.177-.113A10.646,10.646,0,0,0,233.968,10.474Zm2.279-1.712.818-.655a.337.337,0,0,1,.164-.063.2.2,0,0,1,.126.05A13.977,13.977,0,0,1,240.3,11.1a.284.284,0,0,1,.038.126c0,.059-.042.118-.126.176l-.692.629a.222.222,0,0,1-.139.064c-.058,0-.117-.042-.176-.126A11.4,11.4,0,0,0,236.247,8.762Z"/>
        <path id="パス_2488" data-name="パス 2488" d="M253.475,5.362q-.014-.427-.025-1.359-.014-.6-.025-1.045a8.4,8.4,0,0,0-.252-1.725,12.415,12.415,0,0,1,1.951.29q.467.126.466.377a1.121,1.121,0,0,1-.176.466,1.612,1.612,0,0,0-.177.705q-.063.567-.063,2.191,2.871-.089,8.259-.088c.184,0,.276.1.276.289v1.1c0,.175-.109.264-.327.264q-2.4-.077-4.33-.076-2,0-3.878.076,0,3.285.026,5.01a10.69,10.69,0,0,1,.314,2.707q0,5.122-5.022,7.653a1.351,1.351,0,0,1-.592.227.733.733,0,0,1-.466-.2,3.385,3.385,0,0,0-1.183-.718q5.223-1.975,5.614-6.181a3.023,3.023,0,0,1-2.832,1.46,3.277,3.277,0,0,1-2.505-1.019,3.689,3.689,0,0,1-.907-2.606,3.449,3.449,0,0,1,3.538-3.588,3.113,3.113,0,0,1,2.417.869l-.051-3.512q-6.256.353-9.617.767a5.379,5.379,0,0,0-.756.177,1.725,1.725,0,0,1-.377.088c-.151,0-.252-.088-.3-.265a8.453,8.453,0,0,1-.416-1.636c.176.017.365.025.567.025q.654,0,2.681-.176Q248.791,5.64,253.475,5.362Zm-2.19,5.489a2.03,2.03,0,0,0-1.574.68,2.215,2.215,0,0,0-.566,1.561,2.173,2.173,0,0,0,.692,1.712,2,2,0,0,0,1.4.5,2.257,2.257,0,0,0,1.788-.781,2.207,2.207,0,0,0,.554-1.485,2.051,2.051,0,0,0-.73-1.649A2.311,2.311,0,0,0,251.285,10.851Z"/>
        <path id="パス_2489" data-name="パス 2489" d="M265.822,16.755a3.526,3.526,0,0,1,2.694,1.183A3.528,3.528,0,0,1,268.251,23a3.567,3.567,0,0,1-2.429.919,3.527,3.527,0,0,1-2.694-1.184,3.527,3.527,0,0,1,.265-5.06A3.567,3.567,0,0,1,265.822,16.755Zm0,1.284a2.23,2.23,0,0,0-1.712.755,2.263,2.263,0,0,0-.592,1.549,2.3,2.3,0,1,0,3.853-1.712A2.233,2.233,0,0,0,265.822,18.039Z"/>
        <path id="パス_2490" data-name="パス 2490" d="M301.011,20.645a2.039,2.039,0,0,1-.667,1.7q-.6.491-3.3.49a.9.9,0,0,1-.479-.075,1.245,1.245,0,0,1-.176-.441,3.072,3.072,0,0,0-.516-1.208q1.4.126,2.354.125a1.456,1.456,0,0,0,.944-.251.984.984,0,0,0,.214-.73V6.546h-7.741a15.4,15.4,0,0,0,3.021,5.7A16.353,16.353,0,0,0,299,15.622a3.22,3.22,0,0,0-.893.894c-.152.227-.265.34-.341.34a.961.961,0,0,1-.39-.2,16.605,16.605,0,0,1-4-3.65,15.645,15.645,0,0,1-2.291-4.394,9.538,9.538,0,0,1-.454,1.385,13.922,13.922,0,0,1-2.2,3.764A15.8,15.8,0,0,1,284.8,16.78a1.048,1.048,0,0,1-.365.2c-.067,0-.181-.1-.34-.3a3.794,3.794,0,0,0-.868-.882,13.736,13.736,0,0,0,4.1-3.172,11.762,11.762,0,0,0,1.85-3.084,12.181,12.181,0,0,0,.743-3h-7.012v12.5l.05,3.789c0,.143-.067.214-.2.214h-1.272c-.134,0-.2-.071-.2-.214l.05-3.915V9.228l-.05-3.979a.178.178,0,0,1,.2-.2l3.613.05h4.985q.076-1.2.076-2.392A15.263,15.263,0,0,0,290,.151q.894.038,1.725.151c.193.025.289.113.289.264,0,.017-.042.177-.125.479a9.2,9.2,0,0,0-.152,1.938A18.588,18.588,0,0,1,291.62,5.1H297.2l3.613-.05a.178.178,0,0,1,.2.2l-.05,4.079v7.188Z"/>
        <path id="パス_2491" data-name="パス 2491" d="M327.77,15.9a2.821,2.821,0,0,0-.642,1.033c-.118.294-.219.44-.3.44a1.614,1.614,0,0,1-.366-.126,37.9,37.9,0,0,1-3.839-1.964l-.025,1.964v2l.05,4.078a.189.189,0,0,1-.214.214H321.3c-.151,0-.226-.071-.226-.214V22.118H311.065v1.334c0,.126-.067.189-.2.189H309.7c-.142,0-.214-.063-.214-.189l.051-4.129V17.548l-.025-2.19a35.126,35.126,0,0,1-3.5,1.863,1.343,1.343,0,0,1-.415.151c-.1,0-.215-.139-.34-.415a2.837,2.837,0,0,0-.668-.869q6.723-2.757,9.769-6.659A7.184,7.184,0,0,0,315.446,7.7q.969.189,1.573.365c.193.076.29.172.29.289,0,.068-.072.143-.214.227l-.1.076A23.044,23.044,0,0,0,327.77,15.9Zm-1.31-7.88a.178.178,0,0,1-.2.2h-1.2a.178.178,0,0,1-.2-.2V4.431H307.351V8.019a.178.178,0,0,1-.2.2h-1.2a.178.178,0,0,1-.2-.2l.051-2.657v-.83l-.051-1.322a.178.178,0,0,1,.2-.2l3.563.05h5.627V2.883a12.086,12.086,0,0,0-.189-2.631q.755.025,1.674.125c.226.025.34.093.34.2a1.177,1.177,0,0,1-.151.466,6.961,6.961,0,0,0-.126,1.812v.2H322.7l3.562-.05a.178.178,0,0,1,.2.2l-.05,1.2v.956ZM313.469,6.772c0,.11-.121.223-.365.34a3.384,3.384,0,0,0-.717.642,17.5,17.5,0,0,1-4.3,3.336,1.006,1.006,0,0,1-.416.151c-.084,0-.2-.121-.34-.365a2.609,2.609,0,0,0-.743-.831,14.575,14.575,0,0,0,4.331-2.933A5.063,5.063,0,0,0,311.9,5.74a7,7,0,0,1,1.334.73C313.389,6.58,313.469,6.68,313.469,6.772Zm8.371,8.044a20.172,20.172,0,0,1-5.715-5.173,22.607,22.607,0,0,1-5.752,5.173q.515.026,2.731.026h5.929Q321.325,14.842,321.84,14.816Zm-.767,5.93V16.214H311.065v4.532Zm4.846-10.877a3.79,3.79,0,0,0-.654.957q-.177.415-.3.415a1.06,1.06,0,0,1-.364-.151,19.181,19.181,0,0,1-5.59-4.242.264.264,0,0,1-.075-.126q0-.063.252-.252l.616-.44a.435.435,0,0,1,.2-.1c.042,0,.089.034.139.1A15.88,15.88,0,0,0,325.919,9.869Z"/>
        <path id="パス_2492" data-name="パス 2492" d="M332.986,2.14a5.39,5.39,0,0,1,1.838.667.488.488,0,0,1,.264.39.588.588,0,0,1-.113.3,4.672,4.672,0,0,0-.415,1.3,49.792,49.792,0,0,0-1.234,9.756,41.7,41.7,0,0,0,.176,4.532q.352-.907,1.813-4.2a4.449,4.449,0,0,0,.579,1.058.527.527,0,0,1,.113.29.67.67,0,0,1-.088.276,23.058,23.058,0,0,0-1.535,4.066c-.034.327-.051.588-.051.781a2.484,2.484,0,0,0,.025.378.725.725,0,0,1,.013.126.249.249,0,0,1-.151.213,5.629,5.629,0,0,1-1.158.328.306.306,0,0,1-.114.025c-.092,0-.163-.075-.214-.227a22,22,0,0,1-.982-7.59A64.469,64.469,0,0,1,332.86,4.7a12.807,12.807,0,0,0,.164-1.913A4.843,4.843,0,0,0,332.986,2.14ZM344.87,16.013q-.177-3.752-.177-7.176-1.824.1-3.247.1-1.284,0-2.506-.076c-.168,0-.26-.075-.276-.226a9.763,9.763,0,0,1-.1-1.372q1.461.1,3,.1,1.562,0,3.084-.1l.025-2.959a10.245,10.245,0,0,0-.251-2.291,9.556,9.556,0,0,1,1.976.352c.193.084.29.19.29.315a.894.894,0,0,1-.1.365,3.239,3.239,0,0,0-.214,1.234q-.051.894-.051,2.858,1.964-.189,4.067-.579a.525.525,0,0,1,.125-.026c.076,0,.122.068.139.2a5.908,5.908,0,0,1,.1,1.02q0,.266-.177.315a33.023,33.023,0,0,1-4.255.617q.039,4.268.24,7.78a18.769,18.769,0,0,1,4.531,2.668.2.2,0,0,1,.1.151.591.591,0,0,1-.05.177,4.817,4.817,0,0,1-.693,1.133.207.207,0,0,1-.163.113.238.238,0,0,1-.151-.088,17.06,17.06,0,0,0-3.6-2.367q-.164,3.474-4.317,3.475a4.754,4.754,0,0,1-3.047-.869,2.5,2.5,0,0,1-.969-2.065,2.673,2.673,0,0,1,1.309-2.354,4.744,4.744,0,0,1,2.656-.717A12.334,12.334,0,0,1,344.87,16.013Zm0,1.56a10.35,10.35,0,0,0-2.807-.427,2.985,2.985,0,0,0-1.813.478,1.4,1.4,0,0,0-.579,1.17,1.252,1.252,0,0,0,.743,1.171,3.743,3.743,0,0,0,1.724.34q2.732,0,2.732-2.241Z"/>
        <path id="パス_2493" data-name="パス 2493" d="M376.621,2.9c0,.117-.067.175-.2.175l-3.437-.05h-6.8V6.395h1.976l3.336-.05a.178.178,0,0,1,.2.2l-.051,2.832V14.93l.051,2.832a.179.179,0,0,1-.2.2l-3.336-.051h-5.3l-3.31.051a.179.179,0,0,1-.2-.2l.051-2.832V9.378l-.051-2.832a.178.178,0,0,1,.2-.2l3.31.05h1.851V3.021h-6.546l-3.412.05c-.134,0-.2-.058-.2-.175V1.75c0-.151.067-.227.2-.227l3.412.05h14.816l3.437-.05c.135,0,.2.076.2.227Zm-.277,3.763a.692.692,0,0,1-.126.39,7.272,7.272,0,0,0-.189,2.342v8.824l.051,4.948c0,.142-.068.214-.2.214h-1.2c-.134,0-.2-.072-.2-.214V21.879H356.668v1.284c0,.142-.067.214-.2.214H355.3c-.134,0-.2-.072-.2-.214l.051-4.9V9.341a21.2,21.2,0,0,0-.151-3.11q1.133.089,1.624.151c.243.025.365.118.365.277a2.224,2.224,0,0,1-.189.491,10.609,10.609,0,0,0-.126,2.279V20.456H374.48V9.366a19.262,19.262,0,0,0-.175-3.135q.955.051,1.7.151C376.23,6.407,376.344,6.5,376.344,6.659Zm-11.632,4.683V7.679h-3.865v3.663Zm0,5.287V12.576h-3.865v4.053Zm5.463-5.287V7.679h-3.99v3.663Zm0,5.287V12.576h-3.99v4.053Z"/>
        <path id="パス_2494" data-name="パス 2494" d="M386.442,1.058a.453.453,0,0,1-.214.352,2.794,2.794,0,0,0-.566,1.032q-.781,2.04-1.65,3.789V19.223l.051,4.053c0,.134-.072.2-.214.2h-1.183a.179.179,0,0,1-.2-.2l.05-4.053V12.677q0-1.286.051-3.915a38.2,38.2,0,0,1-2.329,3.272c-.118.177-.218.265-.3.265s-.189-.113-.29-.34a3.348,3.348,0,0,0-.642-.906,26.747,26.747,0,0,0,5.237-9.076,8.364,8.364,0,0,0,.39-1.725,10.789,10.789,0,0,1,1.523.516C386.345.86,386.442.957,386.442,1.058Zm16.944,19.537a3.814,3.814,0,0,0-.742.919c-.126.226-.24.34-.34.34a1.156,1.156,0,0,1-.353-.2,18.723,18.723,0,0,1-4.507-4.758,19.811,19.811,0,0,1-2.467-5.867h-1.158q-.705.58-1.246.982a9.615,9.615,0,0,1,2.543,3.814,10.365,10.365,0,0,1,.641,3.614q0,3.813-2.442,3.814-.818,0-1.586-.076a1.03,1.03,0,0,1-.491-.113.792.792,0,0,1-.126-.377,3.173,3.173,0,0,0-.39-1.058,16,16,0,0,0,2.266.2,1.074,1.074,0,0,0,1.033-.566,4.182,4.182,0,0,0,.339-1.964,11.247,11.247,0,0,0-.126-1.536,24.626,24.626,0,0,1-8.044,4.406,1.511,1.511,0,0,1-.327.076q-.138,0-.315-.315a3.264,3.264,0,0,0-.642-.818,22.753,22.753,0,0,0,9.013-4.671,6.826,6.826,0,0,0-.654-1.5,21.782,21.782,0,0,1-6.974,3.588,1.151,1.151,0,0,1-.34.1c-.084,0-.185-.1-.3-.3a3.374,3.374,0,0,0-.617-.781,21.815,21.815,0,0,0,7.591-3.625,11.6,11.6,0,0,0-1.045-1.2,20.258,20.258,0,0,1-5.224,2.417,1.968,1.968,0,0,1-.39.1c-.093,0-.189-.109-.29-.328a3.126,3.126,0,0,0-.591-.793,18.09,18.09,0,0,0,6.822-3.1h-1.032l-3.575.051a.178.178,0,0,1-.2-.2l.05-1.75V7.339q-.719.579-1.083.844a1.2,1.2,0,0,1-.39.226c-.059,0-.151-.105-.277-.315a2.233,2.233,0,0,0-.617-.642,15.944,15.944,0,0,0,5.3-5.488A7.173,7.173,0,0,0,390.747.34q.592.15,1.373.4c.2.092.3.2.3.315s-.092.238-.276.364a3.147,3.147,0,0,0-.756,1l-.1.151h4.179a1.6,1.6,0,0,0,.567-.076.8.8,0,0,1,.226-.05,1.487,1.487,0,0,1,.73.428q.467.4.466.567,0,.2-.315.39a2.635,2.635,0,0,0-.591.616,11.312,11.312,0,0,1-1.31,1.587h2.166l3.587-.051a.179.179,0,0,1,.2.2l-.05,1.712V9.228l.05,1.648a.179.179,0,0,1-.2.2l-3.587-.051H396.3a15.721,15.721,0,0,0,1.523,3.978,22.233,22.233,0,0,0,2.065-1.813,3.9,3.9,0,0,0,.818-1.107,6.411,6.411,0,0,1,1.2.78c.193.135.289.252.289.353,0,.134-.105.231-.315.289a2.544,2.544,0,0,0-.855.592,29.306,29.306,0,0,1-2.531,1.989A16.255,16.255,0,0,0,403.386,20.595ZM393.3,9.9V7.188h-4.784V9.9Zm2.09-6.093H390.47a20.145,20.145,0,0,1-1.926,2.228h5.036A15.236,15.236,0,0,0,395.393,3.8ZM399.761,9.9V7.188h-5.086V9.9Z"/>
        <path id="パス_2495" data-name="パス 2495" d="M410.333,1.233a11.126,11.126,0,0,1,2.1.24q.315.075.315.327a1.9,1.9,0,0,1-.063.378,2.5,2.5,0,0,0-.063.528q.037.781.151,1.649a34.755,34.755,0,0,0,1.007,5.464q3.637-1.788,4.594-2.316a4.989,4.989,0,0,0,1.5-1.2,11.074,11.074,0,0,1,1.309,1.447.636.636,0,0,1,.113.34q0,.341-.428.39A9.406,9.406,0,0,0,418.6,9.3q-3.852,1.8-5.853,2.946a10.326,10.326,0,0,0-3.009,2.379,3.668,3.668,0,0,0-.806,2.291,2.359,2.359,0,0,0,1.788,2.366,13.686,13.686,0,0,0,4.267.466,49.326,49.326,0,0,0,6.635-.541.39.39,0,0,1,.087-.013.258.258,0,0,1,.265.24,11.344,11.344,0,0,1,.164,1.346v.064c0,.175-.122.272-.366.289a62.223,62.223,0,0,1-6.86.365,11.994,11.994,0,0,1-5.778-1.07,3.712,3.712,0,0,1-1.9-3.45,5.363,5.363,0,0,1,1.46-3.575,15.462,15.462,0,0,1,3.563-2.794,41.2,41.2,0,0,1-1.36-6.848A10.8,10.8,0,0,0,410.333,1.233Z"/>
        <path id="パス_2496" data-name="パス 2496" d="M449.176,17.888c0,.151-.072.227-.215.227l-3.373-.051H430.255l-3.361.051c-.134,0-.2-.076-.2-.227V16.881c0-.117.068-.176.2-.176l3.361.05H433.6V13.81H432.6l-3.613.05a.178.178,0,0,1-.2-.2v-.981a.178.178,0,0,1,.2-.2l3.613.05H433.6v-2.5h-.592l-3.663.049c-.151,0-.227-.066-.227-.2l.05-2.329V4.116l-.05-2.341c0-.134.076-.2.227-.2l3.663.051H442.7l3.676-.051c.126,0,.189.068.189.2l-.05,2.341V7.54l.05,2.329c0,.135-.063.2-.189.2l-3.676-.049h-.692v2.5h1.07l3.638-.05a.178.178,0,0,1,.2.2v.981a.178.178,0,0,1-.2.2l-3.638-.05h-1.07v2.945h3.575l3.373-.05c.143,0,.215.059.215.176Zm-13.8,1.825c0,.109-.113.2-.339.265a2.561,2.561,0,0,0-.718.465,17.5,17.5,0,0,1-5.576,2.984l-.353.1q-.138,0-.365-.416a2.546,2.546,0,0,0-.717-.843,16.465,16.465,0,0,0,5.664-2.681,4.28,4.28,0,0,0,.856-.844,6.543,6.543,0,0,1,1.31.667C435.3,19.521,435.378,19.621,435.378,19.713Zm1.6-14.539V2.857h-6.332V5.174Zm0,3.613V6.357h-6.332v2.43Zm3.537,3.738v-2.5H435.1v2.5Zm0,4.23V13.81H435.1v2.945Zm4.531-11.581V2.857h-6.621V5.174Zm0,3.613V6.357h-6.621v2.43Zm3.4,13.331a3.386,3.386,0,0,0-.692.894c-.159.277-.29.415-.39.415a1.81,1.81,0,0,1-.365-.075,18.812,18.812,0,0,1-6.408-3.525c-.075-.059-.113-.1-.113-.139,0-.05.088-.134.264-.251l.592-.416a.9.9,0,0,1,.3-.151.317.317,0,0,1,.164.075A16.136,16.136,0,0,0,448.445,22.118Z"/>
        <path id="パス_2497" data-name="パス 2497" d="M460.131,6.005q1.963-.266,3.588-.643a.579.579,0,0,1,.138-.025.177.177,0,0,1,.189.177q.089.491.139,1.107v.1c0,.118-.08.189-.239.214q-1.776.353-4.305.743a60.209,60.209,0,0,1-5.187,10.889.274.274,0,0,1-.214.151.429.429,0,0,1-.2-.075,5.545,5.545,0,0,1-1.033-.781.246.246,0,0,1-.113-.189.464.464,0,0,1,.088-.239,46.27,46.27,0,0,0,4.847-9.6q-1.939.189-3.248.189-.768,0-1.36-.051a.346.346,0,0,1-.314-.315,7.507,7.507,0,0,1-.152-1.283q1.1.1,2.04.1a33.356,33.356,0,0,0,3.5-.214,29.136,29.136,0,0,0,.769-3.008,8.719,8.719,0,0,0,.213-1.737V1.233a9.864,9.864,0,0,1,2.015.517.288.288,0,0,1,.226.289.563.563,0,0,1-.2.378,2.628,2.628,0,0,0-.365.806Q460.521,4.619,460.131,6.005ZM465.6,16.327q-.266-2.757-.315-5.048a8.9,8.9,0,0,0-.151-1.649,8.681,8.681,0,0,1,1.75.34c.193.051.289.151.289.3a1.494,1.494,0,0,1-.163.466,4.525,4.525,0,0,0-.1,1.208,43.953,43.953,0,0,0,.315,4.746,24.047,24.047,0,0,1,4.871,2.581c.11.067.164.134.164.2a.659.659,0,0,1-.063.213,7.566,7.566,0,0,1-.617,1.133.239.239,0,0,1-.188.126.334.334,0,0,1-.215-.1,15.444,15.444,0,0,0-3.927-2.455q.038,4.027-4.62,4.028a4.538,4.538,0,0,1-2.87-.881,2.713,2.713,0,0,1-1.121-2.266,2.814,2.814,0,0,1,1.4-2.455,5.319,5.319,0,0,1,2.983-.793A12.057,12.057,0,0,1,465.6,16.327Zm.025,1.548a8.469,8.469,0,0,0-2.53-.428,3.98,3.98,0,0,0-2.354.579,1.407,1.407,0,0,0-.63,1.171q0,1.8,2.656,1.8a2.909,2.909,0,0,0,2.317-.844,2.445,2.445,0,0,0,.566-1.662A4.516,4.516,0,0,0,465.62,17.875Zm1.183-10.8q.088-.151.378-.68c.126-.227.222-.395.29-.5.083-.135.167-.2.251-.2a.6.6,0,0,1,.189.038,17.54,17.54,0,0,1,5.061,2.429.309.309,0,0,1,.138.227.525.525,0,0,1-.088.239,6.836,6.836,0,0,1-.592,1.02c-.067.092-.13.138-.188.138a.44.44,0,0,1-.177-.075A16.635,16.635,0,0,0,466.8,7.075Z"/>
        <path id="パス_2498" data-name="パス 2498" d="M486.837,3.8q-2.1.327-6.445,1.158a4.726,4.726,0,0,0-.907.239,1.26,1.26,0,0,1-.478.126.461.461,0,0,1-.415-.315,8.226,8.226,0,0,1-.617-1.775,9.478,9.478,0,0,0,1.271.088,9.621,9.621,0,0,0,.995-.05q3.4-.352,6.42-.932a2.33,2.33,0,0,0,.793-.239.722.722,0,0,1,.365-.176.859.859,0,0,1,.466.2,6.909,6.909,0,0,1,1.108,1.083.726.726,0,0,1,.176.44.518.518,0,0,1-.39.492,3.2,3.2,0,0,0-1.209.906q-3.474,3.663-6.6,6.848l.075.076A10.05,10.05,0,0,1,487,10.121a5.922,5.922,0,0,1,4.6,1.8,5.46,5.46,0,0,1,1.409,3.877,5.807,5.807,0,0,1-2.505,4.973,9.98,9.98,0,0,1-6,1.649,5.345,5.345,0,0,1-3.55-1.02A2.527,2.527,0,0,1,480,19.374a2.406,2.406,0,0,1,.932-1.914,3.139,3.139,0,0,1,2.09-.717,4.2,4.2,0,0,1,3.021,1.157,4.983,4.983,0,0,1,1.359,2.632q3.777-1.323,3.777-4.784a3.963,3.963,0,0,0-1.473-3.248,4.662,4.662,0,0,0-3-.981,11.381,11.381,0,0,0-7.087,2.907q-.705.555-2.266,2.1a.482.482,0,0,1-.3.177.306.306,0,0,1-.214-.126,11.907,11.907,0,0,1-.957-1.019.241.241,0,0,1-.063-.152c0-.067.054-.146.164-.239a79.6,79.6,0,0,0,5.828-5.753Q485.15,5.79,486.837,3.8ZM485.83,20.9a3.793,3.793,0,0,0-1.045-2.077,2.431,2.431,0,0,0-1.712-.679,1.836,1.836,0,0,0-1.158.352,1.04,1.04,0,0,0-.415.857,1.473,1.473,0,0,0,.768,1.258,3.786,3.786,0,0,0,1.888.415A10.074,10.074,0,0,0,485.83,20.9Z"/>
        <path id="パス_2499" data-name="パス 2499" d="M505.226,13.608c-.009.042-.034.37-.076.982a1.06,1.06,0,0,1-.075.516,1.04,1.04,0,0,1-.366.252,47.181,47.181,0,0,1-5.287,2.53,6.165,6.165,0,0,0-.931.441.468.468,0,0,1-.34.15c-.084,0-.176-.083-.277-.251a6.539,6.539,0,0,1-.516-1.422,17.443,17.443,0,0,0,2.455-.668q.717-.264,1.082-.415V8.661h-.7l-2.392.05a.189.189,0,0,1-.214-.214V7.415c0-.135.072-.2.214-.2l2.392.051h.7V4.255a24.228,24.228,0,0,0-.188-3.538q.792.026,1.686.126.315.051.315.24a.693.693,0,0,1-.05.213c-.042.109-.072.193-.089.252a12.288,12.288,0,0,0-.151,2.644V7.264h.177l2.391-.051c.126,0,.189.067.189.2V8.5c0,.143-.063.214-.189.214l-2.391-.05h-.177v6.42Q503.779,14.451,505.226,13.608Zm15.408-1.989a.178.178,0,0,1-.2.2l-3.588-.05h-7.767c.159.043.348.1.566.176.2.068.332.114.391.139.176.067.264.159.264.277a.377.377,0,0,1-.189.289,1.812,1.812,0,0,0-.466.516l-.377.567h7.087l3.172-.05a.223.223,0,0,1,.252.252l-.227,2.58a28.08,28.08,0,0,1-.667,4.469,2.89,2.89,0,0,1-.969,1.649,2.593,2.593,0,0,1-1.561.415q-1.032,0-1.624-.05a.628.628,0,0,1-.39-.113,1.45,1.45,0,0,1-.152-.453,4.4,4.4,0,0,0-.44-1.071,13.483,13.483,0,0,0,2.48.215q.957,0,1.234-1.234a34.8,34.8,0,0,0,.692-5.35h-1.8a16.421,16.421,0,0,1-6.647,7.956.791.791,0,0,1-.39.176q-.138,0-.416-.314a2.453,2.453,0,0,0-.767-.592,14.451,14.451,0,0,0,6.7-7.226H512.54a18.846,18.846,0,0,1-6.345,6.332,2.224,2.224,0,0,1-.415.176q-.114,0-.378-.314a2.114,2.114,0,0,0-.756-.567,16.9,16.9,0,0,0,6.27-5.627h-2.581a17.276,17.276,0,0,1-4.079,3.676,1.332,1.332,0,0,1-.4.2q-.088,0-.366-.315a3.465,3.465,0,0,0-.83-.617,15.477,15.477,0,0,0,5.337-4.771,4.558,4.558,0,0,0,.655-1.4h-.113l-3.576.05c-.143,0-.213-.067-.213-.2V10.612c0-.134.07-.2.213-.2l3.576.05h8.308l3.588-.05a.178.178,0,0,1,.2.2Zm-2.707-2.908c0,.135-.071.2-.214.2l-3.059-.051h-4.2l-3.072.051a.178.178,0,0,1-.2-.2l.05-2.215V3.7l-.05-2.241a.178.178,0,0,1,.2-.2l3.072.05h4.2l3.059-.05c.143,0,.214.067.214.2l-.05,2.241V6.5Zm-1.5-4.23V2.518h-7.767V4.481Zm0,3.172V5.64h-7.767V7.653Z"/>
        <path id="パス_2500" data-name="パス 2500" d="M547.534,9.869a3.852,3.852,0,0,0-.718,1.032c-.126.278-.239.416-.34.416a.928.928,0,0,1-.4-.151,24.608,24.608,0,0,1-10.914-8.875,28.1,28.1,0,0,1-10.486,9.026,1.432,1.432,0,0,1-.39.151c-.076,0-.189-.121-.34-.365a3.445,3.445,0,0,0-.793-.919A23.251,23.251,0,0,0,533.724,1.46,6.577,6.577,0,0,0,534.441,0q.971.152,1.6.3.364.113.364.29a.385.385,0,0,1-.189.3l-.226.213A24.3,24.3,0,0,0,547.534,9.869Zm-4.872,13.18c0,.135-.076.2-.227.2h-1.221a.178.178,0,0,1-.2-.2V21.992H529.57v1.183c0,.126-.068.189-.2.189h-1.247q-.2,0-.2-.189l.05-4.481V16.6l-.05-2.9a.178.178,0,0,1,.2-.2l3.563.051H538.9l3.537-.051c.151,0,.227.067.227.2l-.051,2.53V18.6Zm-1.649-2.454v-5.64H529.57v5.64Zm-.466-10.537a.179.179,0,0,1-.2.2l-3.022-.051h-4.116l-3.021.051a.179.179,0,0,1-.2-.2V8.938a.179.179,0,0,1,.2-.2l3.021.051h4.116l3.022-.051a.179.179,0,0,1,.2.2Z"/>
        <path id="パス_2501" data-name="パス 2501" d="M556.708,8.145q.6-2.316.944-3.815a9.253,9.253,0,0,0,.239-2.064V1.851a11.506,11.506,0,0,1,2,.692.4.4,0,0,1,.264.365.434.434,0,0,1-.164.315,1.919,1.919,0,0,0-.428.843l-1.107,3.865a21.007,21.007,0,0,1,2.5-.177,2.991,2.991,0,0,1,2.619,1.1,5.384,5.384,0,0,1,.73,3.134,20.507,20.507,0,0,1-1.422,8.4,3.069,3.069,0,0,1-2.946,2.039,6.439,6.439,0,0,1-2.619-.466.432.432,0,0,1-.314-.44,4.675,4.675,0,0,0-.3-1.549,7.527,7.527,0,0,0,2.983.73,1.586,1.586,0,0,0,1.019-.3,2.791,2.791,0,0,0,.718-1.045,19.039,19.039,0,0,0,1.158-7.39,3.972,3.972,0,0,0-.428-2.2,1.564,1.564,0,0,0-1.346-.528,17.257,17.257,0,0,0-2.795.276,70.58,70.58,0,0,1-5.25,12.2.3.3,0,0,1-.264.164.426.426,0,0,1-.176-.038,5.411,5.411,0,0,1-1.033-.692.288.288,0,0,1-.113-.214.488.488,0,0,1,.063-.2,56.738,56.738,0,0,0,4.947-10.978q-1.4.2-3.411.567a3.306,3.306,0,0,0-1.133.327.621.621,0,0,1-.327.126.379.379,0,0,1-.34-.252,10,10,0,0,1-.592-1.749h.478a15.915,15.915,0,0,0,2.2-.139Q554.367,8.485,556.708,8.145Zm9.126-.781a10.831,10.831,0,0,1,1.158-.8.439.439,0,0,1,.139-.026.393.393,0,0,1,.251.126,14.284,14.284,0,0,1,4.155,6.244.891.891,0,0,1,.038.214.3.3,0,0,1-.114.227,4.908,4.908,0,0,1-1.057.692.455.455,0,0,1-.227.075c-.117,0-.189-.075-.214-.226A14.464,14.464,0,0,0,565.834,7.364Zm.743-4.066.957-.705a.223.223,0,0,1,.113-.037.251.251,0,0,1,.138.075,11.093,11.093,0,0,1,2.908,3.109.2.2,0,0,1,.051.126.219.219,0,0,1-.088.164l-.756.616a.236.236,0,0,1-.151.063.193.193,0,0,1-.176-.113A10.525,10.525,0,0,0,566.577,3.3Zm2.266-1.737.831-.642a.3.3,0,0,1,.163-.076.158.158,0,0,1,.114.051A13.715,13.715,0,0,1,572.884,3.9a.262.262,0,0,1,.05.139.271.271,0,0,1-.113.176l-.7.617a.18.18,0,0,1-.138.075c-.051,0-.105-.042-.165-.126A11.269,11.269,0,0,0,568.843,1.561Z"/>
        <path id="パス_2502" data-name="パス 2502" d="M167.1,39.9a6.643,6.643,0,0,1,2.026.466c.168.084.252.185.252.3a.587.587,0,0,1-.151.365,2.521,2.521,0,0,0-.34,1.032q-.164.9-.264,1.675a55.5,55.5,0,0,0,7.163-1.108.427.427,0,0,1,.1-.012c.1,0,.172.067.214.2a3.7,3.7,0,0,1,.126.969.29.29,0,0,1-.289.315,58.869,58.869,0,0,1-7.541,1.133q-.24,2.454-.264,3.689a17.977,17.977,0,0,1,4.7-.731,6.021,6.021,0,0,0,.466-2.165,5.888,5.888,0,0,1,1.435.705q.315.226.315.4a5.811,5.811,0,0,1-.277.516c-.051.092-.122.218-.214.378-.076.134-.134.243-.176.327a6.8,6.8,0,0,1,4.443,2.266,5.462,5.462,0,0,1,1.31,3.663,5.644,5.644,0,0,1-2.568,4.771,13.365,13.365,0,0,1-4.91,2,.983.983,0,0,1-.214.026.456.456,0,0,1-.4-.315,2.468,2.468,0,0,0-.906-.957,13.641,13.641,0,0,0,5.035-1.787,4.636,4.636,0,0,0,2.216-3.978,4.05,4.05,0,0,0-1.536-3.311,5.619,5.619,0,0,0-2.908-1.171,27.623,27.623,0,0,1-5,7.063q.087.327.541,1.447a.4.4,0,0,1,.038.151c0,.076-.055.156-.164.24a5.077,5.077,0,0,1-.957.515.519.519,0,0,1-.151.026c-.084,0-.147-.055-.189-.164a10.244,10.244,0,0,1-.44-1.234q-2.9,2.191-4.847,2.191a2.085,2.085,0,0,1-1.863-.881,3.062,3.062,0,0,1-.453-1.75,6.931,6.931,0,0,1,1.775-4.381,12.414,12.414,0,0,1,4.33-3.3q.063-1.662.214-4.129-1.989.1-3.172.1a6.876,6.876,0,0,1-1.209-.076.344.344,0,0,1-.34-.34q-.05-.327-.1-1.183,1.133.089,2.429.088,1.032,0,2.568-.063.189-1.625.24-2.266c.016-.26.025-.491.025-.692A4.406,4.406,0,0,0,167.1,39.9ZM166.579,51a9.913,9.913,0,0,0-3.563,3.134,5.122,5.122,0,0,0-.97,2.82q0,1.209,1.134,1.209,1.46,0,3.965-2.014A33.875,33.875,0,0,1,166.579,51Zm1.913,4.066a19.321,19.321,0,0,0,2.216-2.77,22.991,22.991,0,0,0,1.674-2.794,12.938,12.938,0,0,0-4.356.793A27.791,27.791,0,0,0,168.492,55.062Z"/>
        <path id="パス_2503" data-name="パス 2503" d="M187.141,39.9a6.878,6.878,0,0,1,1.8.617c.226.126.34.252.34.378a.6.6,0,0,1-.1.34,2.623,2.623,0,0,0-.466,1.007,37.1,37.1,0,0,0-.78,5.929c-.009.352-.013.659-.013.919a14.042,14.042,0,0,0,.114,1.989q.325-.642,1.007-1.951.691-1.347.906-1.75a3.458,3.458,0,0,0,.516,1.045.659.659,0,0,1,.113.327.833.833,0,0,1-.138.378,25.732,25.732,0,0,0-1.637,3.4,2.554,2.554,0,0,0-.176.83.591.591,0,0,1,.013.1.255.255,0,0,1-.189.265q-.328.063-1.234.176c-.117,0-.206-.089-.264-.264a14.466,14.466,0,0,1-.642-4.822,44,44,0,0,1,.6-6.055,20.083,20.083,0,0,0,.239-2.43C187.153,40.2,187.149,40.057,187.141,39.9Zm8.069.114a8.938,8.938,0,0,1,1.875.213q.4.077.4.366a1.409,1.409,0,0,1-.012.151,2.4,2.4,0,0,0-.076.692c0,.16,0,.331.013.516q.315,4.281.315,6.823,0,5.6-2.115,8.46a13.262,13.262,0,0,1-4.255,3.739.608.608,0,0,1-.315.113.561.561,0,0,1-.353-.164,3.482,3.482,0,0,0-1.309-.717,13.206,13.206,0,0,0,4.482-3.538,9.6,9.6,0,0,0,1.661-3.5,17.6,17.6,0,0,0,.454-4.306q0-2.958-.252-6.143A12.119,12.119,0,0,0,195.21,40.019Z"/>
        <path id="パス_2504" data-name="パス 2504" d="M212.614,55.087q-.126-2.165-.152-3.89-1.3.051-2.5.051-1.888,0-3.425-.126-.252,0-.289-.315a9.044,9.044,0,0,1-.076-1.309,35.732,35.732,0,0,0,4.205.227q1.069,0,2.026-.051l-.024-3.84q-1.437.064-2.682.063-2.228,0-4.142-.188a.281.281,0,0,1-.239-.252,10.775,10.775,0,0,1-.1-1.347,37.6,37.6,0,0,0,4.658.264q1.184,0,2.506-.062l-.026-2.708a6.478,6.478,0,0,0-.226-1.7,10.342,10.342,0,0,1,2.039.34.379.379,0,0,1,.29.378.407.407,0,0,1-.063.214,2.429,2.429,0,0,0-.3,1.184q-.025.313-.088,2.24a58.815,58.815,0,0,0,6.294-.856.893.893,0,0,1,.126-.012c.093,0,.147.067.164.2a9.454,9.454,0,0,1,.076,1.133q0,.252-.177.252a64.18,64.18,0,0,1-6.483.755q0,2.605.038,3.814a44.457,44.457,0,0,0,5.69-.742.409.409,0,0,1,.126-.026c.084,0,.138.051.164.152l.025,1.233c0,.151-.088.239-.265.265a48.191,48.191,0,0,1-5.69.692q0,1.774.177,4.267a20.746,20.746,0,0,1,6.885,3.324.321.321,0,0,1,.139.251.543.543,0,0,1-.038.189,2.954,2.954,0,0,1-.642,1.108.3.3,0,0,1-.226.138.334.334,0,0,1-.164-.063,19.983,19.983,0,0,0-5.879-3.273,3.671,3.671,0,0,1-1.284,3.223,7.265,7.265,0,0,1-6.886-.126,2.559,2.559,0,0,1-1.007-2.139,2.68,2.68,0,0,1,1.422-2.317,6.063,6.063,0,0,1,3.324-.831A15.44,15.44,0,0,1,212.614,55.087Zm.025,1.536a12.663,12.663,0,0,0-2.732-.327,4.957,4.957,0,0,0-2.543.528,1.261,1.261,0,0,0-.705,1.095q0,1.6,2.883,1.6a3.36,3.36,0,0,0,2.631-.806,2.623,2.623,0,0,0,.478-1.687C212.651,56.908,212.647,56.774,212.639,56.623Z"/>
        <path id="パス_2505" data-name="パス 2505" d="M237.1,44.034q-.014-.427-.025-1.359-.014-.6-.025-1.045A8.4,8.4,0,0,0,236.8,39.9a12.416,12.416,0,0,1,1.951.29q.466.126.466.377a1.121,1.121,0,0,1-.176.466,1.612,1.612,0,0,0-.177.705q-.063.567-.063,2.191,2.871-.088,8.259-.088c.184,0,.276.1.276.289v1.1c0,.176-.109.265-.327.265q-2.4-.076-4.33-.076-2,0-3.878.076,0,3.285.026,5.01a10.687,10.687,0,0,1,.314,2.706q0,5.124-5.022,7.654a1.351,1.351,0,0,1-.592.227.739.739,0,0,1-.466-.2,3.37,3.37,0,0,0-1.183-.718q5.223-1.977,5.614-6.181a3.023,3.023,0,0,1-2.832,1.46,3.276,3.276,0,0,1-2.505-1.019,3.689,3.689,0,0,1-.907-2.606,3.449,3.449,0,0,1,3.538-3.588,3.117,3.117,0,0,1,2.417.868l-.051-3.511q-6.256.353-9.617.767a5.378,5.378,0,0,0-.756.177,1.725,1.725,0,0,1-.377.088c-.152,0-.252-.088-.3-.265a8.475,8.475,0,0,1-.416-1.636c.176.017.365.025.566.025q.655,0,2.682-.176Q232.418,44.31,237.1,44.034Zm-2.19,5.489a2.03,2.03,0,0,0-1.574.68,2.216,2.216,0,0,0-.567,1.561,2.175,2.175,0,0,0,.693,1.712,2,2,0,0,0,1.4.5,2.256,2.256,0,0,0,1.788-.78,2.207,2.207,0,0,0,.554-1.486,2.053,2.053,0,0,0-.73-1.649A2.315,2.315,0,0,0,234.912,49.523Z"/>
        <path id="パス_2506" data-name="パス 2506" d="M260.985,44.085a33.161,33.161,0,0,1-1.384,6.659,20.508,20.508,0,0,1-2.015,4.608q-1.56,2.655-3.789,2.656a3.2,3.2,0,0,1-2.744-1.725,7.65,7.65,0,0,1-1.02-4.129,8.771,8.771,0,0,1,.882-3.789,9.525,9.525,0,0,1,2.114-2.9,10.876,10.876,0,0,1,7.73-2.858,9.348,9.348,0,0,1,7.074,2.606,7.891,7.891,0,0,1,2.128,5.7,8.1,8.1,0,0,1-2.278,5.842,12.04,12.04,0,0,1-5.917,3.146.872.872,0,0,1-.226.038.509.509,0,0,1-.441-.314,2.924,2.924,0,0,0-1.007-.957A11.069,11.069,0,0,0,266.3,55.6a7.14,7.14,0,0,0,1.838-5,6.186,6.186,0,0,0-2.191-4.921,6.633,6.633,0,0,0-4.468-1.6Zm-1.8.1a8.375,8.375,0,0,0-5.022,2.366,7.623,7.623,0,0,0-2.48,5.577,5.584,5.584,0,0,0,.78,3.2,1.619,1.619,0,0,0,1.309.831q1.321,0,2.392-1.888a22.823,22.823,0,0,0,1.989-4.847A27.2,27.2,0,0,0,259.185,44.186Z"/>
        <path id="パス_2507" data-name="パス 2507" d="M273.462,45.205a24.984,24.984,0,0,0,3.2-.3q7.188-1.158,15.987-2.254h.089a.33.33,0,0,1,.352.215,5.79,5.79,0,0,1,.151,1.283q0,.279-.34.315a11.724,11.724,0,0,0-3.764.768,11.506,11.506,0,0,0-4.96,3.613,7.213,7.213,0,0,0-1.686,4.507q0,5.237,7.5,5.854.416.038.416.289a6.178,6.178,0,0,1-.151,1.234c-.05.243-.164.365-.34.365h-.076a12.355,12.355,0,0,1-6.495-2.165,6.28,6.28,0,0,1-2.556-5.287q0-5.439,6.282-8.762l-.026-.051q-7.074,1.121-10.461,1.826a6.634,6.634,0,0,0-1.548.441,2.751,2.751,0,0,1-.491.176.415.415,0,0,1-.365-.227A15.558,15.558,0,0,1,273.462,45.205Zm15.774,3.941.957-.693a.183.183,0,0,1,.113-.038.28.28,0,0,1,.151.064,11.273,11.273,0,0,1,2.908,3.121.2.2,0,0,1,.051.113.188.188,0,0,1-.1.164l-.743.63a.288.288,0,0,1-.164.062.193.193,0,0,1-.176-.113A10.634,10.634,0,0,0,289.236,49.146Zm2.279-1.712.818-.655a.337.337,0,0,1,.164-.063.2.2,0,0,1,.126.05,13.977,13.977,0,0,1,2.945,3.009.3.3,0,0,1,.038.125c0,.059-.043.119-.126.177l-.692.629a.224.224,0,0,1-.139.064c-.059,0-.118-.042-.176-.126A11.434,11.434,0,0,0,291.515,47.434Z"/>
        <path id="パス_2508" data-name="パス 2508" d="M299.514,52.507q.4.2,1.133.629c.093.042.139.1.139.164a.287.287,0,0,1-.063.163,3.983,3.983,0,0,0-.692,2.015q0,3.146,6.6,3.147a32.328,32.328,0,0,0,7.4-.743.683.683,0,0,1,.151-.026c.1,0,.168.068.2.2a9.749,9.749,0,0,1,.24,1.335v.062c0,.135-.114.227-.34.277a39.483,39.483,0,0,1-7.8.667q-8.019,0-8.019-4.846A5.484,5.484,0,0,1,299.514,52.507Zm.718-9.606a30.679,30.679,0,0,0,6.445.579q3.021,0,5.7-.226h.088a.254.254,0,0,1,.277.239,7.941,7.941,0,0,1,.075,1.158.357.357,0,0,1-.364.391,16.578,16.578,0,0,0-6.672,2.933.677.677,0,0,1-.4.151.582.582,0,0,1-.328-.1A2.951,2.951,0,0,0,304,47.509a34.228,34.228,0,0,1,4.443-2.581q-1.145.1-2.794.1a25.369,25.369,0,0,1-5.237-.466c-.151-.025-.226-.142-.226-.352Q300.182,43.77,300.232,42.9Zm12.148-2.039.932-.679a.251.251,0,0,1,.138-.051.223.223,0,0,1,.138.063A11.093,11.093,0,0,1,316.5,43.3a.2.2,0,0,1,.05.126.216.216,0,0,1-.088.164l-.755.617a.233.233,0,0,1-.151.062.222.222,0,0,1-.189-.113A10.6,10.6,0,0,0,312.38,40.862Zm2.266-1.737.831-.642a.285.285,0,0,1,.163-.063.191.191,0,0,1,.113.05,13.617,13.617,0,0,1,2.946,3.009.2.2,0,0,1-.075.3l-.7.629a.192.192,0,0,1-.139.064c-.058,0-.113-.042-.163-.126A11.526,11.526,0,0,0,314.646,39.125Z"/>
        <path id="パス_2509" data-name="パス 2509" d="M341.752,41.718a.422.422,0,0,1-.289.428,4.6,4.6,0,0,0-.881.592,47.782,47.782,0,0,1-7.6,5.489v7.251l.05,3.247a3.442,3.442,0,0,1-.252,1.473,2.484,2.484,0,0,1-.567.693,3.225,3.225,0,0,1-1.85.616q-.742.076-2.757.076a.925.925,0,0,1-.491-.076,1.6,1.6,0,0,1-.163-.465,3.127,3.127,0,0,0-.542-1.259q1.233.126,3.487.125,1.422,0,1.423-1.573V50.14a20.263,20.263,0,0,0-.239-3.689q.289.051,1.523.177a40.944,40.944,0,0,0,6.344-4.583H326.206l-3.563.051c-.134,0-.2-.075-.2-.227V40.648a.178.178,0,0,1,.2-.2l3.563.05H339.4a1.771,1.771,0,0,0,.706-.1.592.592,0,0,1,.251-.075q.227,0,.768.541Q341.753,41.478,341.752,41.718Z"/>
        <path id="パス_2510" data-name="パス 2510" d="M350.841,47.333a.387.387,0,0,1-.2.314,1.1,1.1,0,0,0-.39.642A22.718,22.718,0,0,1,344.4,59.48a1.206,1.206,0,0,1-.365.252c-.059,0-.177-.1-.353-.3a2.6,2.6,0,0,0-.856-.755q4.431-3.826,6.131-10.9h-2.594l-2.253.05a.177.177,0,0,1-.2-.2V46.59c0-.159.067-.239.2-.239l2.253.05H348.9a1.32,1.32,0,0,0,.466-.05.867.867,0,0,1,.315-.1c.134,0,.357.147.667.44Q350.84,47.182,350.841,47.333Zm11.443-5.665q0,.227-.315.314a3.965,3.965,0,0,0-1.019.643,36.584,36.584,0,0,1-5.338,3.449v2.064h.466l2.392-.05q.189,0,.189.2v.932q0,.2-.189.2l-2.392-.05h-.466v2.316h.768l2.631-.05c.142,0,.214.067.214.2v.907c0,.134-.072.2-.214.2L356.38,52.9h-.768v2.43h1.7l3.2-.05a.178.178,0,0,1,.2.2v.931a.178.178,0,0,1-.2.2l-3.2-.05h-1.7l.051,2.807a2.079,2.079,0,0,1-.542,1.624,4.765,4.765,0,0,1-2.857.554q-.366,0-.806-.013a.867.867,0,0,1-.466-.075,1.747,1.747,0,0,1-.176-.466,3.588,3.588,0,0,0-.542-1.108,19.288,19.288,0,0,0,2.657.151,1.537,1.537,0,0,0,.956-.214.911.911,0,0,0,.252-.73V56.56h-1.7l-3.2.05c-.159,0-.239-.067-.239-.2v-.931c0-.135.08-.2.239-.2l3.2.05h1.7V52.9h-.831l-2.656.051a.178.178,0,0,1-.2-.2v-.907a.178.178,0,0,1,.2-.2l2.656.05h.831V49.372h-.566l-2.38.05c-.117,0-.176-.067-.176-.2v-.932c0-.134.059-.2.176-.2l2.38.05h.566v-.566a16.558,16.558,0,0,0-.176-2.946l1.158.239a32.848,32.848,0,0,0,4.57-3.1h-8.774l-3.538.05a.178.178,0,0,1-.2-.2v-1.1a.178.178,0,0,1,.2-.2l3.538.05h9.076a1.617,1.617,0,0,0,.717-.1.7.7,0,0,1,.29-.076q.215,0,.717.541A1.806,1.806,0,0,1,362.284,41.668Zm4.645,16.881a3.679,3.679,0,0,0-.957.844c-.151.21-.264.314-.34.314s-.2-.1-.377-.314a21.158,21.158,0,0,1-4.1-6.068,29.177,29.177,0,0,1-2.09-7.176.774.774,0,0,1-.012-.113c0-.076.117-.142.352-.2l.667-.176a.7.7,0,0,1,.2-.05c.059,0,.1.055.113.163a37.28,37.28,0,0,0,.894,3.979,29.247,29.247,0,0,0,2.971-3.223,5.669,5.669,0,0,0,.742-1.234,7.577,7.577,0,0,1,1.184.907.614.614,0,0,1,.239.377c0,.118-.093.223-.277.315a3.9,3.9,0,0,0-1.07.957,41.068,41.068,0,0,1-3.3,3.348A18.616,18.616,0,0,0,366.929,58.549Z"/>
        <path id="パス_2511" data-name="パス 2511" d="M379.61,39.9a10.768,10.768,0,0,1,1.661,1.234.532.532,0,0,1,.177.34.4.4,0,0,1-.252.34,3.4,3.4,0,0,0-.957.667q-5.337,4.9-7.6,7.327a.968.968,0,0,0-.365.642c0,.159.113.315.34.465a81.079,81.079,0,0,1,9.932,8.56c.109.118.164.2.164.252a.465.465,0,0,1-.139.265,10.458,10.458,0,0,1-.969.969.488.488,0,0,1-.252.126c-.076,0-.155-.059-.239-.176a68.67,68.67,0,0,0-9.718-8.787,2.136,2.136,0,0,1-1.007-1.624,2.63,2.63,0,0,1,.906-1.674q1.3-1.386,3.764-3.852,3.033-3.072,3.424-3.475A6.583,6.583,0,0,0,379.61,39.9Z"/>
        <path id="パス_2512" data-name="パス 2512" d="M396.433,45.293a32.412,32.412,0,0,0,4.1-1.057.329.329,0,0,1,.126-.025c.1,0,.159.067.176.2q.087.49.138,1.058v.1c0,.151-.088.248-.264.29q-2.594.705-4.671,1.057a116.65,116.65,0,0,1-4.947,13.91c-.059.135-.13.2-.214.2a.482.482,0,0,1-.176-.05,9.163,9.163,0,0,1-1.208-.567.236.236,0,0,1-.126-.214.305.305,0,0,1,.025-.113,83.483,83.483,0,0,0,4.821-12.891q-2.517.278-5.212.315c-.234,0-.373-.088-.415-.265-.084-.62-.151-1.091-.2-1.41q.49.051,1.624.051a36.994,36.994,0,0,0,4.645-.315q.465-1.774.755-3.248a11.941,11.941,0,0,0,.214-2.026,2.755,2.755,0,0,0-.025-.391,9.241,9.241,0,0,1,2.077.592.277.277,0,0,1,.2.277.741.741,0,0,1-.2.415,2.607,2.607,0,0,0-.415,1.007c-.11.362-.261.919-.453,1.675Q396.571,44.815,396.433,45.293Zm1.6,10.9a7.372,7.372,0,0,1,1.209-.126.264.264,0,0,1,.289.252,2.856,2.856,0,0,0,1.448,2.517,7.7,7.7,0,0,0,3.424.579,26.72,26.72,0,0,0,3.814-.339,1.24,1.24,0,0,1,.139-.013c.1,0,.159.063.176.189a7.9,7.9,0,0,1,.1,1.246.288.288,0,0,1-.29.327,20.581,20.581,0,0,1-3.373.265q-4.117,0-5.678-1.423A4.452,4.452,0,0,1,398.031,56.195Zm1.939-5.413a10.429,10.429,0,0,1-.088-1.372.385.385,0,0,1,.34-.39,20.678,20.678,0,0,1,4.507-.541,25.7,25.7,0,0,1,3.2.263c.235.034.365.126.39.278a7.674,7.674,0,0,1,.038.805c0,.126,0,.236-.013.327-.016.236-.088.353-.214.353a.544.544,0,0,1-.113-.013A20.312,20.312,0,0,0,404.7,50.2,22,22,0,0,0,399.97,50.782Zm4.3-8.409.944-.692a.22.22,0,0,1,.114-.038.277.277,0,0,1,.151.063,11.289,11.289,0,0,1,2.908,3.121.161.161,0,0,1,.05.114.184.184,0,0,1-.1.163l-.742.617a.247.247,0,0,1-.164.063.211.211,0,0,1-.176-.113A10.587,10.587,0,0,0,404.275,42.373Zm2.266-1.725.818-.642a.309.309,0,0,1,.164-.075.2.2,0,0,1,.126.05,14.026,14.026,0,0,1,2.946,3.008.3.3,0,0,1,.037.126.269.269,0,0,1-.125.189l-.693.617a.206.206,0,0,1-.138.076c-.059,0-.118-.042-.176-.126A11.593,11.593,0,0,0,406.541,40.648Z"/>
        <path id="パス_2513" data-name="パス 2513" d="M421.657,45.167q-.567-1.408-1.183-3.021a7.869,7.869,0,0,0-1.083-2.014,15.421,15.421,0,0,1,2.04-.227c.36,0,.541.131.541.391l-.013.289a1.6,1.6,0,0,0,.038.378,8.2,8.2,0,0,0,.466,1.725q.376,1.058.843,2.165a41.281,41.281,0,0,0,5.652-1.649.555.555,0,0,1,.151-.025.234.234,0,0,1,.214.163,5.08,5.08,0,0,1,.328,1.133.591.591,0,0,1,.013.1.214.214,0,0,1-.139.226q-2.3.782-5.577,1.549a24.751,24.751,0,0,0,4.28,6.319,5.211,5.211,0,0,0,.705.566c.118.068.176.143.176.227a.557.557,0,0,1-.075.29q-.264.441-.667,1.019-.215.266-.34.265a.875.875,0,0,1-.315-.151q-.227-.164-.919-.567a12.53,12.53,0,0,0-5.854-1.4,6.4,6.4,0,0,0-3.713.893,2.434,2.434,0,0,0-1.083,2.116q0,1.85,2.329,2.731a13.375,13.375,0,0,0,4.632.68,19.386,19.386,0,0,0,3.714-.315,7.592,7.592,0,0,1-.339,1.675.433.433,0,0,1-.328.264,28.678,28.678,0,0,1-2.971.126,12.846,12.846,0,0,1-6.42-1.36,4.088,4.088,0,0,1-2.266-3.688,3.876,3.876,0,0,1,2.1-3.563,8.485,8.485,0,0,1,4.292-.981,13.2,13.2,0,0,1,5.464,1.17,23.582,23.582,0,0,1-3.966-5.992q-2.518.427-5.552.642-1.257.089-1.825.088c-.134,0-.256,0-.364-.012-.126,0-.228-.1-.3-.3a7.362,7.362,0,0,1-.289-1.335q.68.026,1.271.025t1.284-.037A45.521,45.521,0,0,0,421.657,45.167Z"/>
        <path id="パス_2514" data-name="パス 2514" d="M435.463,42.738a6.37,6.37,0,0,1,2.039.541c.151.075.227.172.227.289a2.446,2.446,0,0,1-.1.466,8.971,8.971,0,0,0-.2,2.367,45.672,45.672,0,0,0,.365,5.854,10.654,10.654,0,0,0,1.145,3.94q.73,1.31,1.586,1.309,1.486,0,2.757-4.041a3.454,3.454,0,0,0,.844,1.284.624.624,0,0,1,.239.466.827.827,0,0,1-.025.189,8.16,8.16,0,0,1-1.687,2.946,2.961,2.961,0,0,1-2.165,1.1q-1.687,0-2.921-2.254a14.373,14.373,0,0,1-1.435-4.783,51.647,51.647,0,0,1-.466-7.188A12.931,12.931,0,0,0,435.463,42.738Zm13.2,3.222a11.89,11.89,0,0,1,1.133-.692.528.528,0,0,1,.227-.063.211.211,0,0,1,.151.063,15.262,15.262,0,0,1,5.035,8.925v.063a.325.325,0,0,1-.189.277,5.523,5.523,0,0,1-1.183.592.431.431,0,0,1-.1.013c-.134,0-.214-.076-.239-.227A15.509,15.509,0,0,0,448.668,45.96Z"/>
        <path id="パス_2515" data-name="パス 2515" d="M461.089,55.427a3.53,3.53,0,0,1,2.7,1.183,3.528,3.528,0,0,1-.265,5.061,3.569,3.569,0,0,1-2.43.919,3.526,3.526,0,0,1-2.693-1.184,3.528,3.528,0,0,1,.264-5.06A3.564,3.564,0,0,1,461.089,55.427Zm0,1.284a2.233,2.233,0,0,0-1.712.755,2.267,2.267,0,0,0-.591,1.549,2.3,2.3,0,1,0,3.852-1.712A2.229,2.229,0,0,0,461.089,56.711Z"/>
        <path id="パス_2516" data-name="パス 2516" d="M11.216,89.227l9.719,9.693-.768.768L10.436,90,.768,99.688,0,98.92l9.668-9.693L.05,79.609l.781-.78,9.6,9.618,9.617-9.618.781.78ZM3.487,87.313a1.852,1.852,0,0,1,1.435.643,1.843,1.843,0,0,1,.491,1.284,1.783,1.783,0,0,1-.629,1.4,1.9,1.9,0,0,1-1.3.491,1.821,1.821,0,0,1-1.41-.629A1.813,1.813,0,0,1,1.6,89.24a1.851,1.851,0,0,1,.616-1.423A1.806,1.806,0,0,1,3.487,87.313Zm6.949-6.96a1.907,1.907,0,1,1-1.41,3.184,1.906,1.906,0,0,1,1.41-3.184Zm0,13.922a1.818,1.818,0,0,1,1.422.642,1.876,1.876,0,0,1,.491,1.284,1.8,1.8,0,0,1-.629,1.41,1.875,1.875,0,0,1-1.284.478,1.836,1.836,0,0,1-1.41-.616A1.806,1.806,0,0,1,8.535,96.2a1.86,1.86,0,0,1,.63-1.423A1.806,1.806,0,0,1,10.436,94.275Zm6.974-6.962a1.817,1.817,0,0,1,1.423.643,1.878,1.878,0,0,1,.478,1.284,1.8,1.8,0,0,1-.617,1.4,1.924,1.924,0,0,1-2.707-.138A1.789,1.789,0,0,1,15.5,89.24a1.931,1.931,0,0,1,1.914-1.927Z"/>
        <path id="パス_2517" data-name="パス 2517" d="M46.9,82.089c0,.135-.063.2-.189.2l-3.6-.051H28.771v3.714a42.835,42.835,0,0,1-.541,7.73,20.846,20.846,0,0,1-2.341,6.369q-.214.34-.264.34c-.034,0-.144-.1-.328-.289a3.787,3.787,0,0,0-1.032-.743,18.246,18.246,0,0,0,2.442-6.295,41.853,41.853,0,0,0,.491-7.313l-.051-4.784a.178.178,0,0,1,.2-.2l3.663.05h4.872V79.534a11.164,11.164,0,0,0-.151-2.09,11.657,11.657,0,0,1,1.7.126q.315.039.315.2a1,1,0,0,1-.151.492,3.356,3.356,0,0,0-.138,1.246v1.309H43.11l3.6-.05q.189,0,.189.2Zm-.843,5.9c0,.135-.072.2-.215.2l-3.008-.05h-5.01v3.688h3.121l3.513-.05a.178.178,0,0,1,.2.2l-.05,2.228v2.027l.05,4.078a.178.178,0,0,1-.2.2h-1.2a.178.178,0,0,1-.2-.2v-.906H32.435v1.058a.156.156,0,0,1-.177.176h-1.17c-.135,0-.2-.059-.2-.176l.051-4.129v-1.8l-.051-2.556a.178.178,0,0,1,.2-.2l3.487.05H36.3V86.181a20.081,20.081,0,0,0-.151-3,14.047,14.047,0,0,1,1.649.164c.21.025.315.091.315.2a2.132,2.132,0,0,1-.164.516,8.9,8.9,0,0,0-.125,2.064v.617h5.01l3.008-.05c.143,0,.215.067.215.2Zm-3,10.021V93.205H32.435v4.809Z"/>
        <path id="パス_2518" data-name="パス 2518" d="M59.579,82.14a2.972,2.972,0,0,0-.668.818c-.134.26-.231.391-.289.391a.748.748,0,0,1-.328-.2,17.116,17.116,0,0,1-3.2-3.223,21.029,21.029,0,0,1-5.061,5.338.646.646,0,0,1-.3.176q-.113,0-.264-.34a3.108,3.108,0,0,0-.592-.869A16.987,16.987,0,0,0,54.216,78.6a3.077,3.077,0,0,0,.277-.793,7.648,7.648,0,0,1,1.435.515q.252.126.252.252c0,.093-.072.181-.215.265l-.1.075A13.354,13.354,0,0,0,59.579,82.14Zm-.1,8.46c0,.117-.067.175-.2.175l-2.845-.05H52.818l-2.832.05c-.134,0-.2-.058-.2-.175v-.983a.178.178,0,0,1,.2-.2l2.832.05h1.4V86.7H53.75l-2.266.063c-.159,0-.239-.072-.239-.214v-.957c0-.134.08-.2.239-.2l2.266.05h.466v-.39a12.33,12.33,0,0,0-.176-2.392,13.5,13.5,0,0,1,1.548.151c.209.025.314.1.314.214a1.563,1.563,0,0,1-.163.491,5.032,5.032,0,0,0-.126,1.41v.516h.466l2.291-.05a.178.178,0,0,1,.2.2v.957c0,.142-.067.214-.2.214L56.079,86.7h-.466v2.769h.818l2.845-.05a.178.178,0,0,1,.2.2Zm-.944,9.453c0,.135-.072.2-.215.2H57.262a.178.178,0,0,1-.2-.2v-.931h-4.6v1.259c0,.142-.068.214-.2.214H51.207a.189.189,0,0,1-.214-.214l.05-3.7V95.131l-.05-2.165a.178.178,0,0,1,.2-.2l2.4.025h2.329l2.4-.025a.178.178,0,0,1,.2.2l-.051,1.8V96.44Zm-1.473-2.165V94.049h-4.6v3.839ZM72.57,82.115a.178.178,0,0,1-.2.2l-3.336-.05H66.691v2.555h1.775l3.21-.05a.178.178,0,0,1,.2.2l-.05,3.6v5.854l.025,3.928a2.142,2.142,0,0,1-.516,1.624,3.448,3.448,0,0,1-2.14.44.858.858,0,0,1-.478-.075,1.017,1.017,0,0,1-.139-.39,2.726,2.726,0,0,0-.39-1.033q.969.077,1.523.076.717,0,.718-.907V94.351H66.691V96.39l.05,3.915c0,.142-.067.214-.2.214h-1.1c-.134,0-.2-.072-.2-.214l.05-3.915V94.351H61.882v2.24l.051,3.852a.179.179,0,0,1-.2.2h-1.07c-.151,0-.226-.067-.226-.2l.05-3.877V88.447l-.05-3.475c0-.134.075-.2.226-.2l3.172.05h1.46V82.266H63.317l-3.348.05a.178.178,0,0,1-.2-.2V81.082c0-.143.067-.214.2-.214l3.348.051h1.976v-.2a21.441,21.441,0,0,0-.176-3.147,15.314,15.314,0,0,1,1.549.151c.184.034.277.1.277.215a1.417,1.417,0,0,1-.1.465,9.136,9.136,0,0,0-.151,2.216v.3h2.341l3.336-.051c.134,0,.2.071.2.214Zm-7.277,6.848V86.08H61.882v2.883Zm0,4.179V90.171H61.882v2.971Zm5.137-4.179V86.08H66.691v2.883Zm0,4.179V90.171H66.691v2.971Zm.982-13.381a.246.246,0,0,1,.05.113c0,.042-.05.109-.151.2l-.592.466a.5.5,0,0,1-.239.126c-.042,0-.092-.042-.151-.126a13.568,13.568,0,0,0-1.913-2.014c-.068-.059-.1-.1-.1-.126,0-.05.05-.113.151-.189l.516-.378a.543.543,0,0,1,.226-.113.3.3,0,0,1,.164.076A14.816,14.816,0,0,1,71.412,79.761Z"/>
        <path id="パス_2519" data-name="パス 2519" d="M78.091,79.9a7.89,7.89,0,0,1,1.687.692q.365.214.365.416a.8.8,0,0,1-.177.44,3.953,3.953,0,0,0-.516,1.36,39.339,39.339,0,0,0-1.208,8.9,20.882,20.882,0,0,0,.39,4.431q.189-.439.957-2.19.542-1.184.944-2.165a11.435,11.435,0,0,0,.617,1.032.352.352,0,0,1,.138.251,1.068,1.068,0,0,1-.125.416Q80.066,96,79.5,97.573a1.545,1.545,0,0,0-.1.642l.05.567a.214.214,0,0,1-.176.239,6.333,6.333,0,0,1-1.158.251c-.135,0-.231-.084-.289-.251a16.075,16.075,0,0,1-.894-3.713,27.744,27.744,0,0,1-.265-3.765,47.489,47.489,0,0,1,1.058-8.786A17.072,17.072,0,0,0,78.091,79.9ZM83.73,92.966l1.4-.1a.051.051,0,0,1,.038-.012c.092,0,.138.087.138.264q.112,2.832,4.7,2.832a40.021,40.021,0,0,0,5.073-.352.891.891,0,0,1,.1-.013c.109,0,.172.088.189.265q.077.918.076,1.208c0,.126-.017.2-.051.227a.637.637,0,0,1-.289.088,40.683,40.683,0,0,1-4.607.277,12.788,12.788,0,0,1-3.677-.416,4.361,4.361,0,0,1-2-1.208A4.267,4.267,0,0,1,83.73,92.966Zm.907-8.283q0-1.108.025-1.411a.339.339,0,0,1,.3-.364,35.034,35.034,0,0,1,5.464-.466q2.5,0,3.663.126.39.038.39.264,0,.819-.025,1.209c0,.159-.063.239-.189.239h-.1q-1.248-.138-4.142-.138A31.839,31.839,0,0,0,84.637,84.683Z"/>
        <path id="パス_2520" data-name="パス 2520" d="M109.561,84.821a27.22,27.22,0,0,0,6.307-1.258.219.219,0,0,1,.075-.013.184.184,0,0,1,.164.113,8.126,8.126,0,0,1,.415,1.309v.063a.2.2,0,0,1-.163.2,34.106,34.106,0,0,1-6.773,1.259,68.376,68.376,0,0,0,.491,7.113,26.512,26.512,0,0,1,7.352,3.324.272.272,0,0,1,.151.214.435.435,0,0,1-.025.125,3.673,3.673,0,0,1-.768,1.259.272.272,0,0,1-.164.1.238.238,0,0,1-.125-.051,24.816,24.816,0,0,0-6.345-3.272q0,.414-.026.717a3.388,3.388,0,0,1-1.4,2.807,5.321,5.321,0,0,1-3.248.932,6.205,6.205,0,0,1-3.814-1.007,2.678,2.678,0,0,1-1.108-2.216,2.963,2.963,0,0,1,1.662-2.605,6.483,6.483,0,0,1,3.336-.819,18.587,18.587,0,0,1,2.782.176q-.415-4-.453-8.5l-.025-4.1a7.828,7.828,0,0,0-.239-2.115,10.548,10.548,0,0,1,2.039.34c.184.059.277.164.277.315a.581.581,0,0,1-.076.251,4.2,4.2,0,0,0-.252,1.348Q109.562,81.648,109.561,84.821ZM108.4,94.892a14.72,14.72,0,0,0-2.895-.3,4.744,4.744,0,0,0-2.644.629,1.5,1.5,0,0,0-.781,1.272q0,1.8,3.2,1.8a3.243,3.243,0,0,0,2.417-.844,2.678,2.678,0,0,0,.73-1.964A5.139,5.139,0,0,0,108.4,94.892Z"/>
        <path id="パス_2521" data-name="パス 2521" d="M124.948,78.577a6.873,6.873,0,0,1,1.8.617q.339.189.339.378a.6.6,0,0,1-.1.34,2.6,2.6,0,0,0-.466,1.007,37.222,37.222,0,0,0-.781,5.929c-.008.352-.012.659-.012.919a14.215,14.215,0,0,0,.113,1.989q.327-.642,1.007-1.951.693-1.347.906-1.75a3.506,3.506,0,0,0,.516,1.045.662.662,0,0,1,.114.327.833.833,0,0,1-.138.378,25.733,25.733,0,0,0-1.637,3.4,2.528,2.528,0,0,0-.176.83.572.572,0,0,1,.012.1.254.254,0,0,1-.189.264q-.327.063-1.233.177c-.118,0-.206-.089-.265-.264a14.5,14.5,0,0,1-.641-4.822,44,44,0,0,1,.6-6.055,20.082,20.082,0,0,0,.239-2.43C124.961,78.871,124.957,78.729,124.948,78.577Zm8.07.113a9,9,0,0,1,1.875.214q.4.077.4.366a1.4,1.4,0,0,1-.012.151,2.4,2.4,0,0,0-.076.692c0,.159,0,.331.013.516q.313,4.28.314,6.823,0,5.6-2.115,8.46a13.243,13.243,0,0,1-4.254,3.738.6.6,0,0,1-.315.114.561.561,0,0,1-.353-.164,3.482,3.482,0,0,0-1.309-.717,13.2,13.2,0,0,0,4.481-3.538,9.619,9.619,0,0,0,1.662-3.5,17.65,17.65,0,0,0,.454-4.306q0-2.958-.252-6.143A12.185,12.185,0,0,0,133.018,78.69Z"/>
        <path id="パス_2522" data-name="パス 2522" d="M153.432,80.188a.178.178,0,0,1-.2.2c-.024,0-.113,0-.264-.013q-.806-.025-1.75-.037v17.5l.051,2.757a.178.178,0,0,1-.2.2h-1.2a.178.178,0,0,1-.2-.2l.05-2.757V95.207a68.23,68.23,0,0,1-6.772,2.052,2.53,2.53,0,0,0-1.007.39.469.469,0,0,1-.34.151c-.093,0-.177-.092-.252-.277a15.591,15.591,0,0,1-.441-1.5q1.108-.138,2.115-.365l.517-.1V80.34c-.6.008-1.125.02-1.587.037l-.478.013a.178.178,0,0,1-.2-.2V79.144c0-.151.067-.227.2-.227l3.273.051h5.2l3.285-.051c.135,0,.2.076.2.227Zm-3.714,3.928V80.34h-4.682v3.776Zm0,5.111V85.451h-4.682v3.776Zm0,4.557V90.562h-4.682v4.62Q147.679,94.5,149.718,93.784Zm15.195,5.275a3.433,3.433,0,0,0-.907.919c-.126.21-.231.314-.314.314a.779.779,0,0,1-.378-.226,24.294,24.294,0,0,1-4.645-4.91,24.554,24.554,0,0,1-5.539,5.061.925.925,0,0,1-.416.2c-.084,0-.2-.121-.339-.365a2.809,2.809,0,0,0-.743-.818,19.728,19.728,0,0,0,6.1-5.489,26.3,26.3,0,0,1-3.4-10.6q-.742.012-1.321.038l-.4.012c-.143,0-.214-.067-.214-.2V81.875c0-.117.071-.176.214-.176l3.084.051h5.992a1.253,1.253,0,0,0,.566-.076.508.508,0,0,1,.3-.1q.213,0,.755.542.467.465.466.73,0,.1-.264.4a2.3,2.3,0,0,0-.3.981,24.646,24.646,0,0,1-3.612,9.643A22.349,22.349,0,0,0,164.913,99.059ZM161.74,83.147h-5.9a24.523,24.523,0,0,0,2.833,9.252A22.615,22.615,0,0,0,161.74,83.147Z"/>
        <path id="パス_2523" data-name="パス 2523" d="M175.357,89.126c.017.16.025.265.025.315,0,.176-.147.336-.44.478q-1.473.693-2.732,1.234v3.2l.025,3.915a4.29,4.29,0,0,1-.163,1.384,1.3,1.3,0,0,1-.5.63,3.278,3.278,0,0,1-1.976.453c-.236,0-.479,0-.731-.012a.888.888,0,0,1-.49-.076,1.273,1.273,0,0,1-.164-.416,3.96,3.96,0,0,0-.491-1.158,17.246,17.246,0,0,0,1.989.1.923.923,0,0,0,.818-.315,1.745,1.745,0,0,0,.189-.944V91.745q-1.184.466-1.775.68a3.26,3.26,0,0,0-.982.491.535.535,0,0,1-.34.176c-.1,0-.184-.075-.252-.227a10.6,10.6,0,0,1-.465-1.573,16.689,16.689,0,0,0,2.266-.6l1.548-.542v-5.64h-.856l-2.568.051c-.143,0-.214-.067-.214-.2V83.272a.189.189,0,0,1,.214-.213l2.568.05h.856V81.057a17.31,17.31,0,0,0-.2-3.147,15.4,15.4,0,0,1,1.674.151c.227.025.34.092.34.2a1.433,1.433,0,0,1-.164.516,8.714,8.714,0,0,0-.151,2.241v2.089h.34l2.568-.05c.159,0,.239.071.239.213v1.083c0,.135-.08.2-.239.2l-2.568-.051h-.34v5.049q1.636-.669,3.147-1.436a3.962,3.962,0,0,0-.025.466C175.332,88.745,175.34,88.925,175.357,89.126ZM190.489,99.2a3.466,3.466,0,0,0-.781.97c-.118.243-.218.365-.3.365a1.747,1.747,0,0,1-.441-.177,19.806,19.806,0,0,1-5.073-4.1,24.131,24.131,0,0,1-6.244,4.344,1.417,1.417,0,0,1-.39.126q-.189,0-.4-.366a2.781,2.781,0,0,0-.8-.818,20.265,20.265,0,0,0,6.886-4.494,22.642,22.642,0,0,1-3.79-8.837,31.937,31.937,0,0,1-1.46,8.309,17.233,17.233,0,0,1-3.7,5.954q-.252.252-.327.252-.151,0-.39-.29a2.643,2.643,0,0,0-.856-.693,15.384,15.384,0,0,0,4.569-8.144,47.519,47.519,0,0,0,1.032-9.4l.051-1.7-2.9.05c-.151,0-.226-.067-.226-.2V79.219c0-.134.075-.2.226-.2l3.147.05h5.98a1.954,1.954,0,0,0,.68-.075.6.6,0,0,1,.2-.076q.227,0,.743.466c.31.285.466.5.466.642a.431.431,0,0,1-.252.365.911.911,0,0,0-.415.591q-.453,2.166-1.335,5.149h3.16a1.177,1.177,0,0,0,.491-.075.956.956,0,0,1,.315-.076q.227,0,.742.516.441.466.441.643a.384.384,0,0,1-.177.3,1.8,1.8,0,0,0-.541.882,18.836,18.836,0,0,1-3.864,6.848A17.093,17.093,0,0,0,190.489,99.2Zm-3.047-11.758h-3.449l-.239.744c-.05.142-.126.213-.227.213a1.234,1.234,0,0,1-.2-.025l-.705-.1c-.261-.051-.391-.118-.391-.2a.619.619,0,0,1,.038-.164,65.074,65.074,0,0,0,2.027-7.414h-4.872q.567,8.309,4.519,13.469A16.562,16.562,0,0,0,187.442,87.439Z"/>
        <path id="パス_2524" data-name="パス 2524" d="M193.611,81.41a6.37,6.37,0,0,1,2.039.541c.152.075.227.172.227.289a2.366,2.366,0,0,1-.1.466,8.96,8.96,0,0,0-.2,2.367,45.852,45.852,0,0,0,.365,5.854,10.673,10.673,0,0,0,1.145,3.94q.73,1.31,1.587,1.309,1.485,0,2.757-4.041a3.453,3.453,0,0,0,.843,1.284.621.621,0,0,1,.239.466.774.774,0,0,1-.025.189A8.145,8.145,0,0,1,200.8,97.02a2.96,2.96,0,0,1-2.165,1.1q-1.687,0-2.921-2.254a14.4,14.4,0,0,1-1.435-4.783,51.809,51.809,0,0,1-.465-7.188A12.839,12.839,0,0,0,193.611,81.41Zm13.205,3.222a12.013,12.013,0,0,1,1.134-.692.511.511,0,0,1,.226-.063.205.205,0,0,1,.151.063,15.263,15.263,0,0,1,5.036,8.925v.063a.325.325,0,0,1-.189.277,5.554,5.554,0,0,1-1.184.592.429.429,0,0,1-.1.013c-.135,0-.214-.076-.24-.227A15.508,15.508,0,0,0,206.816,84.632Z"/>
        <path id="パス_2525" data-name="パス 2525" d="M215.377,81.989q2.127.2,4.947.2h9.127a2.876,2.876,0,0,0,1.3-.226.544.544,0,0,1,.3-.089.667.667,0,0,1,.366.114,6.3,6.3,0,0,1,1.158,1.057.587.587,0,0,1,.138.365.559.559,0,0,1-.214.428,2.469,2.469,0,0,0-.566.882,26.882,26.882,0,0,1-5.061,8.446,28.867,28.867,0,0,1-7.654,6.207.8.8,0,0,1-.44.15.548.548,0,0,1-.428-.2A4.279,4.279,0,0,0,217,98.455a24.9,24.9,0,0,0,8.334-6.37,23.629,23.629,0,0,0,4.847-8.246H220.3q-2.241,0-4.331.164h-.088q-.315,0-.378-.416c0-.066-.021-.344-.062-.83Q215.389,82.227,215.377,81.989ZM231,79.4l.906-.667a.24.24,0,0,1,.152-.064.28.28,0,0,1,.151.064,11.54,11.54,0,0,1,2.908,3.122.2.2,0,0,1,.05.125.219.219,0,0,1-.088.164l-.756.617a.233.233,0,0,1-.151.062.193.193,0,0,1-.176-.113A10.846,10.846,0,0,0,231,79.4Zm2.266-1.725.831-.642a.262.262,0,0,1,.164-.076.157.157,0,0,1,.113.051,13.816,13.816,0,0,1,2.945,3.021.236.236,0,0,1,.038.126.271.271,0,0,1-.113.176l-.705.617a.182.182,0,0,1-.139.076c-.058,0-.113-.042-.163-.126A11.519,11.519,0,0,0,233.265,77.671Z"/>
        <path id="パス_2526" data-name="パス 2526" d="M240.073,85.5q1.85.177,4.28.176h9.227a3.206,3.206,0,0,0,1.272-.176.883.883,0,0,1,.365-.126.561.561,0,0,1,.327.151,4.809,4.809,0,0,1,.956.919.723.723,0,0,1,.177.378c0,.1-.075.205-.227.315a2.2,2.2,0,0,0-.592.881,24.34,24.34,0,0,1-4.619,7.062,23.507,23.507,0,0,1-6.269,4.569.815.815,0,0,1-.366.114.472.472,0,0,1-.327-.164,4.49,4.49,0,0,0-1.447-.806q8.384-4.027,11.216-11.468h-9.769q-2.3,0-3.638.139h-.063q-.252,0-.327-.34A12.037,12.037,0,0,1,240.073,85.5Zm2.19-5.4q1.75.176,4.205.175h3.99q1.952,0,4-.125c.185,0,.277.1.277.3a5.414,5.414,0,0,1,.026.567q0,.339-.026.591c0,.227-.08.34-.239.34h-.088l-3.84-.051h-4.2q-2.166,0-3.663.1h-.063c-.143,0-.227-.121-.252-.365A12.342,12.342,0,0,1,242.263,80.1Z"/>
        <path id="パス_2527" data-name="パス 2527" d="M261.343,82.782q.642-.78,1.007-1.183a.35.35,0,0,1,.252-.139.433.433,0,0,1,.213.076,23.425,23.425,0,0,1,4.645,3.436.454.454,0,0,1,.152.277.443.443,0,0,1-.076.214,7.438,7.438,0,0,1-.881,1.108c-.084.1-.155.151-.214.151a.342.342,0,0,1-.2-.126A26.141,26.141,0,0,0,261.343,82.782Zm.616,13.532a15.975,15.975,0,0,0,2.707-1.057,46.726,46.726,0,0,0,7.453-4.8,43.7,43.7,0,0,0,6.961-6.937,8.593,8.593,0,0,0,.441,1.7.911.911,0,0,1,.087.352.9.9,0,0,1-.276.554,46.277,46.277,0,0,1-6.257,5.93,54.493,54.493,0,0,1-7.742,5.035,9.068,9.068,0,0,0-1.41.994.539.539,0,0,1-.352.177.476.476,0,0,1-.34-.2A9.289,9.289,0,0,1,261.959,96.314Z"/>
        <path id="パス_2528" data-name="パス 2528" d="M289.106,86.256a35.563,35.563,0,0,1,8.4,3.588c.151.067.227.155.227.264a.4.4,0,0,1-.038.151,8.794,8.794,0,0,1-.617,1.26c-.1.125-.189.188-.264.188a.459.459,0,0,1-.227-.088,27.06,27.06,0,0,0-7.5-3.449v5.979q0,.982.025,2.77.038,2.253.038,2.492a.383.383,0,0,1,.012.088c0,.16-.113.239-.34.239q-.264.025-.642.026c-.26,0-.483-.009-.667-.026q-.364,0-.365-.352.113-2.216.113-5.237V82.706a21.674,21.674,0,0,0-.289-4.129,9.59,9.59,0,0,1,2.127.34c.2.042.3.143.3.3a1.864,1.864,0,0,1-.114.466,12.779,12.779,0,0,0-.176,2.858Zm5.463-6.029.919-.668a.244.244,0,0,1,.151-.063.231.231,0,0,1,.139.063,11.293,11.293,0,0,1,2.908,3.122.194.194,0,0,1,.05.113.208.208,0,0,1-.1.164l-.742.629a.283.283,0,0,1-.164.063.211.211,0,0,1-.176-.113A10.533,10.533,0,0,0,294.569,80.227Zm2.266-1.725.831-.643a.261.261,0,0,1,.151-.075.2.2,0,0,1,.126.05,13.742,13.742,0,0,1,2.933,3.009.244.244,0,0,1,.05.126.268.268,0,0,1-.126.189l-.692.616a.208.208,0,0,1-.138.077q-.088,0-.177-.126A11.331,11.331,0,0,0,296.835,78.5Z"/>
        <path id="パス_2529" data-name="パス 2529" d="M309.141,85.488q.6-2.316.944-3.814a9.256,9.256,0,0,0,.239-2.065v-.415a11.557,11.557,0,0,1,2,.693.4.4,0,0,1,.264.364.433.433,0,0,1-.164.315,1.924,1.924,0,0,0-.428.844l-1.107,3.864A21.2,21.2,0,0,1,313.4,85.1a2.993,2.993,0,0,1,2.618,1.1,5.39,5.39,0,0,1,.73,3.135,20.51,20.51,0,0,1-1.422,8.4,3.069,3.069,0,0,1-2.946,2.039,6.456,6.456,0,0,1-2.619-.466.432.432,0,0,1-.314-.441,4.649,4.649,0,0,0-.3-1.548,7.531,7.531,0,0,0,2.983.73,1.591,1.591,0,0,0,1.02-.3,2.794,2.794,0,0,0,.717-1.045A19.028,19.028,0,0,0,315.02,89.3a3.97,3.97,0,0,0-.429-2.2,1.565,1.565,0,0,0-1.346-.529,17.273,17.273,0,0,0-2.795.277,70.581,70.581,0,0,1-5.25,12.2.3.3,0,0,1-.264.164.443.443,0,0,1-.176-.038,5.341,5.341,0,0,1-1.032-.693.285.285,0,0,1-.114-.213.487.487,0,0,1,.063-.2,56.763,56.763,0,0,0,4.948-10.977q-1.4.2-3.412.566a3.3,3.3,0,0,0-1.133.328.618.618,0,0,1-.327.125.379.379,0,0,1-.34-.251,10.062,10.062,0,0,1-.592-1.75h.478a15.927,15.927,0,0,0,2.2-.138Q306.8,85.829,309.141,85.488Zm9.126-.78a10.987,10.987,0,0,1,1.158-.806.471.471,0,0,1,.139-.025.393.393,0,0,1,.251.126,14.284,14.284,0,0,1,4.155,6.244.885.885,0,0,1,.038.214.3.3,0,0,1-.113.227,4.979,4.979,0,0,1-1.058.692.456.456,0,0,1-.227.075c-.117,0-.189-.075-.214-.226A14.464,14.464,0,0,0,318.267,84.708Zm.743-4.066.957-.705a.226.226,0,0,1,.113-.038.248.248,0,0,1,.138.076,11.094,11.094,0,0,1,2.908,3.109.2.2,0,0,1,.051.126.219.219,0,0,1-.088.164l-.756.616a.236.236,0,0,1-.151.063.193.193,0,0,1-.176-.113A10.514,10.514,0,0,0,319.01,80.642Zm2.266-1.738.831-.641a.3.3,0,0,1,.164-.076.158.158,0,0,1,.113.05,13.719,13.719,0,0,1,2.933,3.009.26.26,0,0,1,.05.139.267.267,0,0,1-.113.176l-.7.617a.18.18,0,0,1-.138.075c-.051,0-.105-.042-.164-.126A11.291,11.291,0,0,0,321.276,78.9Z"/>
        <path id="パス_2530" data-name="パス 2530" d="M349.341,95.232c0,.151-.072.226-.215.226l-3.373-.05H330.42l-3.361.05c-.134,0-.2-.075-.2-.226V94.225c0-.118.068-.176.2-.176l3.361.05h3.349V91.153h-1.007l-3.613.051a.178.178,0,0,1-.2-.2v-.981a.178.178,0,0,1,.2-.2l3.613.05h1.007V87.364h-.592l-3.663.05c-.151,0-.227-.066-.227-.2l.05-2.329V81.46l-.05-2.341c0-.135.076-.2.227-.2l3.663.051h9.693l3.676-.051c.126,0,.189.067.189.2l-.05,2.341v3.424l.05,2.329c0,.135-.063.2-.189.2l-3.676-.05h-.692v2.505h1.07l3.638-.05a.178.178,0,0,1,.2.2V91a.178.178,0,0,1-.2.2l-3.638-.051h-1.07V94.1h3.575l3.373-.05c.143,0,.215.058.215.176Zm-13.8,1.825q0,.164-.339.264a2.571,2.571,0,0,0-.718.466,17.5,17.5,0,0,1-5.576,2.984l-.353.1q-.138,0-.365-.416a2.55,2.55,0,0,0-.717-.844,16.447,16.447,0,0,0,5.664-2.68,4.28,4.28,0,0,0,.856-.844,6.541,6.541,0,0,1,1.31.667C335.464,96.864,335.543,96.965,335.543,97.057Zm1.6-14.539V80.2h-6.332v2.317Zm0,3.612V83.7h-6.332V86.13Zm3.537,3.739V87.364h-5.413v2.505Zm0,4.23V91.153h-5.413V94.1Zm4.531-11.581V80.2H338.59v2.317Zm0,3.612V83.7H338.59V86.13Zm3.4,13.332a3.4,3.4,0,0,0-.692.893c-.159.277-.29.416-.39.416a1.765,1.765,0,0,1-.365-.076,18.778,18.778,0,0,1-6.408-3.525c-.075-.058-.113-.1-.113-.138,0-.051.088-.134.264-.252l.592-.415a.9.9,0,0,1,.3-.151.309.309,0,0,1,.164.075A16.149,16.149,0,0,0,348.61,99.462Z"/>
        <path id="パス_2531" data-name="パス 2531" d="M360.3,83.349q1.964-.266,3.588-.643a.532.532,0,0,1,.138-.025.177.177,0,0,1,.189.176q.088.492.139,1.108v.1c0,.118-.08.189-.239.214q-1.776.353-4.3.742a60.19,60.19,0,0,1-5.187,10.89.274.274,0,0,1-.214.151.422.422,0,0,1-.2-.076,5.5,5.5,0,0,1-1.033-.78.246.246,0,0,1-.113-.189.47.47,0,0,1,.088-.24,46.239,46.239,0,0,0,4.847-9.6q-1.939.189-3.248.188-.768,0-1.36-.05a.348.348,0,0,1-.314-.315,7.507,7.507,0,0,1-.152-1.284q1.1.1,2.04.1a33.342,33.342,0,0,0,3.5-.214,29.1,29.1,0,0,0,.769-3.009,8.7,8.7,0,0,0,.213-1.737v-.277a9.863,9.863,0,0,1,2.015.517.288.288,0,0,1,.226.289.567.567,0,0,1-.2.378,2.619,2.619,0,0,0-.365.805Q360.686,81.964,360.3,83.349Zm5.464,10.322q-.266-2.757-.315-5.048a8.906,8.906,0,0,0-.151-1.649,8.762,8.762,0,0,1,1.75.339q.289.076.289.3a1.5,1.5,0,0,1-.163.466,4.52,4.52,0,0,0-.1,1.208,43.969,43.969,0,0,0,.315,4.746,24,24,0,0,1,4.871,2.581c.11.067.164.134.164.2a.663.663,0,0,1-.063.214,7.565,7.565,0,0,1-.617,1.133.239.239,0,0,1-.188.126.335.335,0,0,1-.215-.1,15.5,15.5,0,0,0-3.927-2.455q.037,4.029-4.62,4.029a4.538,4.538,0,0,1-2.87-.881,2.713,2.713,0,0,1-1.121-2.266,2.813,2.813,0,0,1,1.4-2.455,5.319,5.319,0,0,1,2.983-.793A12.057,12.057,0,0,1,365.76,93.671Zm.025,1.548a8.469,8.469,0,0,0-2.53-.428,3.973,3.973,0,0,0-2.354.579,1.406,1.406,0,0,0-.63,1.171q0,1.8,2.656,1.8a2.909,2.909,0,0,0,2.317-.843,2.445,2.445,0,0,0,.566-1.662A4.516,4.516,0,0,0,365.785,95.219Zm1.183-10.8c.059-.1.185-.327.378-.68.126-.226.222-.394.29-.5.083-.134.167-.2.251-.2a.622.622,0,0,1,.189.037,17.515,17.515,0,0,1,5.061,2.43.307.307,0,0,1,.138.227.525.525,0,0,1-.088.239,6.826,6.826,0,0,1-.592,1.019c-.067.093-.13.139-.188.139a.431.431,0,0,1-.177-.076A16.655,16.655,0,0,0,366.968,84.418Z"/>
        <path id="パス_2532" data-name="パス 2532" d="M380.263,78.577a6.877,6.877,0,0,1,1.8.617q.341.189.34.378a.6.6,0,0,1-.1.34,2.609,2.609,0,0,0-.466,1.007,37.094,37.094,0,0,0-.78,5.929c-.009.352-.013.659-.013.919a14.039,14.039,0,0,0,.114,1.989q.327-.642,1.007-1.951.691-1.347.906-1.75a3.482,3.482,0,0,0,.516,1.045.659.659,0,0,1,.113.327.833.833,0,0,1-.138.378,25.73,25.73,0,0,0-1.637,3.4,2.554,2.554,0,0,0-.176.83.588.588,0,0,1,.013.1.254.254,0,0,1-.189.264q-.327.063-1.234.177c-.117,0-.206-.089-.264-.264a14.466,14.466,0,0,1-.642-4.822,43.994,43.994,0,0,1,.6-6.055,20.082,20.082,0,0,0,.239-2.43C380.275,78.871,380.271,78.729,380.263,78.577Zm8.069.113a9.012,9.012,0,0,1,1.876.214q.4.077.4.366a1.408,1.408,0,0,1-.012.151,2.4,2.4,0,0,0-.076.692c0,.159,0,.331.013.516q.315,4.28.315,6.823,0,5.6-2.115,8.46a13.236,13.236,0,0,1-4.255,3.738.6.6,0,0,1-.315.114.556.556,0,0,1-.352-.164,3.485,3.485,0,0,0-1.31-.717,13.205,13.205,0,0,0,4.482-3.538,9.6,9.6,0,0,0,1.661-3.5,17.6,17.6,0,0,0,.454-4.306q0-2.958-.252-6.143A12.126,12.126,0,0,0,388.332,78.69Z"/>
        <path id="パス_2533" data-name="パス 2533" d="M405.735,93.759q-.126-2.166-.151-3.89-1.3.051-2.505.05-1.889,0-3.424-.125c-.168,0-.264-.106-.29-.315a9.215,9.215,0,0,1-.075-1.309,35.713,35.713,0,0,0,4.2.226q1.071,0,2.027-.05l-.025-3.84q-1.436.065-2.682.063-2.227,0-4.141-.188a.283.283,0,0,1-.239-.252,10.791,10.791,0,0,1-.1-1.347,37.572,37.572,0,0,0,4.658.264q1.184,0,2.505-.063l-.025-2.707a6.473,6.473,0,0,0-.227-1.7,10.28,10.28,0,0,1,2.04.34.377.377,0,0,1,.289.378.4.4,0,0,1-.063.214,2.44,2.44,0,0,0-.3,1.183q-.025.315-.088,2.241a58.816,58.816,0,0,0,6.294-.856.938.938,0,0,1,.126-.013c.092,0,.147.068.164.2a9.441,9.441,0,0,1,.075,1.132c0,.168-.059.252-.176.252a63.893,63.893,0,0,1-6.483.756q0,2.605.038,3.814a44.5,44.5,0,0,0,5.69-.742.409.409,0,0,1,.126-.026c.083,0,.138.05.163.152l.025,1.233c0,.151-.088.239-.264.265a48.189,48.189,0,0,1-5.69.692q0,1.774.176,4.267a20.751,20.751,0,0,1,6.886,3.324.324.324,0,0,1,.139.251.543.543,0,0,1-.038.189,2.967,2.967,0,0,1-.642,1.108.309.309,0,0,1-.227.138.34.34,0,0,1-.164-.063,19.944,19.944,0,0,0-5.878-3.273,3.674,3.674,0,0,1-1.284,3.223,7.265,7.265,0,0,1-6.886-.126,2.557,2.557,0,0,1-1.007-2.14,2.68,2.68,0,0,1,1.422-2.316,6.058,6.058,0,0,1,3.324-.831A15.419,15.419,0,0,1,405.735,93.759Zm.025,1.536a12.655,12.655,0,0,0-2.731-.327,4.955,4.955,0,0,0-2.543.528,1.26,1.26,0,0,0-.7,1.1q0,1.6,2.883,1.6a3.359,3.359,0,0,0,2.63-.805,2.623,2.623,0,0,0,.479-1.687C405.773,95.58,405.769,95.446,405.76,95.295Z"/>
        <path id="パス_2534" data-name="パス 2534" d="M430.224,82.706q-.014-.428-.025-1.359-.014-.6-.025-1.045a8.4,8.4,0,0,0-.252-1.725,12.414,12.414,0,0,1,1.951.29q.467.126.466.377a1.126,1.126,0,0,1-.176.466,1.612,1.612,0,0,0-.177.705q-.063.567-.063,2.19,2.871-.087,8.259-.087c.184,0,.276.1.276.289v1.1c0,.176-.109.265-.327.265q-2.4-.077-4.33-.076-2,0-3.878.076,0,3.285.026,5.01a10.688,10.688,0,0,1,.314,2.706q0,5.124-5.022,7.654a1.364,1.364,0,0,1-.592.227.739.739,0,0,1-.466-.2A3.37,3.37,0,0,0,425,98.845q5.223-1.977,5.614-6.181a3.023,3.023,0,0,1-2.832,1.46,3.276,3.276,0,0,1-2.505-1.02,3.685,3.685,0,0,1-.907-2.6,3.447,3.447,0,0,1,3.538-3.588,3.117,3.117,0,0,1,2.417.868l-.051-3.511q-6.256.351-9.617.767a5.507,5.507,0,0,0-.756.176,1.676,1.676,0,0,1-.377.089.307.307,0,0,1-.3-.265,8.473,8.473,0,0,1-.416-1.637,5.6,5.6,0,0,0,.567.026q.654,0,2.681-.176Q425.54,82.982,430.224,82.706Zm-2.19,5.489a2.028,2.028,0,0,0-1.574.68,2.22,2.22,0,0,0-.566,1.561,2.174,2.174,0,0,0,.692,1.711,2,2,0,0,0,1.4.5,2.256,2.256,0,0,0,1.788-.78,2.209,2.209,0,0,0,.554-1.486,2.051,2.051,0,0,0-.73-1.649A2.31,2.31,0,0,0,428.034,88.195Z"/>
        <path id="パス_2535" data-name="パス 2535" d="M442.57,94.1a3.53,3.53,0,0,1,2.7,1.183,3.531,3.531,0,0,1-.265,5.061,3.569,3.569,0,0,1-2.43.919,3.53,3.53,0,0,1-2.694-1.184,3.529,3.529,0,0,1,.265-5.06A3.562,3.562,0,0,1,442.57,94.1Zm0,1.284a2.233,2.233,0,0,0-1.712.755,2.267,2.267,0,0,0-.591,1.549,2.3,2.3,0,1,0,3.852-1.712A2.229,2.229,0,0,0,442.57,95.383Z"/>
        <path id="パス_2536" data-name="パス 2536" d="M459.345,91.179q.4.2,1.133.629c.092.042.138.1.138.164a.29.29,0,0,1-.063.163,3.993,3.993,0,0,0-.692,2.014q0,3.147,6.6,3.147a32.318,32.318,0,0,0,7.4-.742.7.7,0,0,1,.152-.026c.1,0,.167.068.2.2a9.759,9.759,0,0,1,.239,1.334v.063c0,.135-.113.227-.34.277a39.465,39.465,0,0,1-7.8.667q-8.021,0-8.019-4.846A5.477,5.477,0,0,1,459.345,91.179Zm.718-9.606a30.739,30.739,0,0,0,6.445.579q3.021,0,5.7-.226h.088a.254.254,0,0,1,.278.239,7.941,7.941,0,0,1,.075,1.158.356.356,0,0,1-.365.39,16.611,16.611,0,0,0-6.672,2.933.672.672,0,0,1-.4.152.578.578,0,0,1-.327-.1,2.942,2.942,0,0,0-1.057-.516A34.051,34.051,0,0,1,468.27,83.6q-1.146.1-2.794.1a25.363,25.363,0,0,1-5.237-.466c-.151-.025-.227-.142-.227-.352Q460.012,82.442,460.063,81.573Zm12.147-2.039.932-.68a.257.257,0,0,1,.138-.05.226.226,0,0,1,.139.063,11.108,11.108,0,0,1,2.908,3.109.207.207,0,0,1,.05.126.216.216,0,0,1-.088.164l-.755.617a.237.237,0,0,1-.151.062.22.22,0,0,1-.189-.113A10.587,10.587,0,0,0,472.21,79.534Zm2.267-1.737.83-.642a.287.287,0,0,1,.164-.063.188.188,0,0,1,.113.05,13.617,13.617,0,0,1,2.946,3.009.243.243,0,0,1,.037.125.235.235,0,0,1-.113.177l-.7.629a.193.193,0,0,1-.139.064c-.059,0-.113-.042-.164-.126A11.507,11.507,0,0,0,474.477,77.8Z"/>
        <path id="パス_2537" data-name="パス 2537" d="M501.583,80.39a.422.422,0,0,1-.29.428,4.6,4.6,0,0,0-.88.592,47.776,47.776,0,0,1-7.6,5.488v7.251l.05,3.248a3.442,3.442,0,0,1-.252,1.473,2.46,2.46,0,0,1-.566.693,3.231,3.231,0,0,1-1.851.616q-.742.075-2.756.076a.933.933,0,0,1-.491-.076,1.589,1.589,0,0,1-.164-.466,3.114,3.114,0,0,0-.541-1.258q1.233.126,3.487.125,1.422,0,1.422-1.573v-8.2a20.262,20.262,0,0,0-.239-3.689q.29.051,1.523.177a41.006,41.006,0,0,0,6.345-4.583h-12.74l-3.562.051c-.135,0-.2-.076-.2-.227V79.32a.178.178,0,0,1,.2-.2l3.562.05h13.193a1.762,1.762,0,0,0,.7-.1.6.6,0,0,1,.252-.075q.227,0,.768.541Q501.584,80.151,501.583,80.39Z"/>
        <path id="パス_2538" data-name="パス 2538" d="M510.671,86a.387.387,0,0,1-.2.315,1.1,1.1,0,0,0-.39.642,22.722,22.722,0,0,1-5.854,11.191,1.18,1.18,0,0,1-.365.252c-.059,0-.176-.1-.352-.3a2.6,2.6,0,0,0-.856-.755q4.429-3.827,6.13-10.9H506.19l-2.253.05a.178.178,0,0,1-.2-.2V85.262c0-.159.067-.24.2-.24l2.253.051h2.543a1.3,1.3,0,0,0,.466-.051.871.871,0,0,1,.314-.1q.2,0,.668.44C510.508,85.689,510.671,85.9,510.671,86Zm11.443-5.664c0,.151-.105.256-.314.314a3.964,3.964,0,0,0-1.02.642,36.487,36.487,0,0,1-5.338,3.45V86.81h.466l2.392-.05q.189,0,.189.2v.932q0,.2-.189.2l-2.392-.05h-.466V90.36h.768l2.631-.05c.143,0,.215.067.215.2v.906c0,.135-.072.2-.215.2l-2.631-.051h-.768V94h1.7l3.2-.05a.178.178,0,0,1,.2.2v.932a.178.178,0,0,1-.2.2l-3.2-.05h-1.7l.051,2.807a2.079,2.079,0,0,1-.541,1.624,4.767,4.767,0,0,1-2.858.554c-.243,0-.512,0-.8-.013a.865.865,0,0,1-.466-.075,1.772,1.772,0,0,1-.177-.466,3.565,3.565,0,0,0-.541-1.108,19.272,19.272,0,0,0,2.656.151,1.539,1.539,0,0,0,.957-.214.913.913,0,0,0,.252-.73v-2.53h-1.7l-3.2.05q-.24,0-.24-.2v-.932q0-.2.24-.2l3.2.05h1.7v-2.43h-.831l-2.656.051a.178.178,0,0,1-.2-.2v-.906a.178.178,0,0,1,.2-.2l2.656.05h.831V88.044H513.4l-2.379.05c-.118,0-.176-.067-.176-.2v-.932c0-.134.058-.2.176-.2l2.379.05h.567v-.566a16.533,16.533,0,0,0-.177-2.946l1.159.239a32.87,32.87,0,0,0,4.569-3.1h-8.774l-3.537.051a.178.178,0,0,1-.2-.2v-1.1a.178.178,0,0,1,.2-.2l3.537.05h9.076a1.6,1.6,0,0,0,.718-.1.712.712,0,0,1,.29-.075q.213,0,.717.541A1.8,1.8,0,0,1,522.114,80.34Zm4.646,16.881a3.662,3.662,0,0,0-.957.843q-.227.315-.34.315t-.378-.315a21.16,21.16,0,0,1-4.1-6.067,29.231,29.231,0,0,1-2.089-7.176.686.686,0,0,1-.013-.113c0-.076.118-.143.353-.2l.667-.176a.688.688,0,0,1,.2-.05c.058,0,.1.054.113.163a37.479,37.479,0,0,0,.893,3.978,29.147,29.147,0,0,0,2.971-3.222,5.66,5.66,0,0,0,.743-1.234,7.554,7.554,0,0,1,1.183.907.607.607,0,0,1,.24.377c0,.118-.093.223-.277.315a3.884,3.884,0,0,0-1.071.957,40.9,40.9,0,0,1-3.3,3.348A18.618,18.618,0,0,0,526.76,97.221Z"/>
        <path id="パス_2539" data-name="パス 2539" d="M539.44,78.577a10.675,10.675,0,0,1,1.662,1.234.53.53,0,0,1,.176.34.4.4,0,0,1-.251.34,3.355,3.355,0,0,0-.957.667q-5.337,4.9-7.6,7.326a.97.97,0,0,0-.364.642q0,.24.339.466a81.093,81.093,0,0,1,9.933,8.56c.108.118.163.2.163.252a.464.464,0,0,1-.138.264,10.452,10.452,0,0,1-.969.97.5.5,0,0,1-.252.126q-.114,0-.24-.177A68.609,68.609,0,0,0,531.22,90.8a2.139,2.139,0,0,1-1.007-1.624,2.629,2.629,0,0,1,.907-1.675q1.3-1.384,3.763-3.852,3.035-3.071,3.425-3.474A6.626,6.626,0,0,0,539.44,78.577Z"/>
        <path id="パス_2540" data-name="パス 2540" d="M556.263,83.965a32.367,32.367,0,0,0,4.1-1.057.333.333,0,0,1,.126-.025c.1,0,.159.067.176.2q.089.491.139,1.058v.1c0,.151-.088.248-.265.29q-2.594.705-4.67,1.057a116.891,116.891,0,0,1-4.947,13.91c-.059.135-.131.2-.214.2a.463.463,0,0,1-.176-.051,9.144,9.144,0,0,1-1.209-.566.237.237,0,0,1-.126-.214.3.3,0,0,1,.025-.113,83.385,83.385,0,0,0,4.822-12.891q-2.518.278-5.212.315-.352,0-.416-.265c-.084-.621-.15-1.091-.2-1.41q.491.051,1.624.051a36.967,36.967,0,0,0,4.645-.315q.467-1.774.756-3.248a12.058,12.058,0,0,0,.214-2.026,2.912,2.912,0,0,0-.025-.391,9.23,9.23,0,0,1,2.076.592.277.277,0,0,1,.2.277.738.738,0,0,1-.2.415,2.608,2.608,0,0,0-.415,1.007q-.164.542-.453,1.675Q556.4,83.486,556.263,83.965Zm1.6,10.9a7.362,7.362,0,0,1,1.208-.126.264.264,0,0,1,.29.252,2.854,2.854,0,0,0,1.448,2.517,7.713,7.713,0,0,0,3.424.579,26.733,26.733,0,0,0,3.814-.339,1.2,1.2,0,0,1,.139-.013c.1,0,.159.063.176.189a7.9,7.9,0,0,1,.1,1.246.288.288,0,0,1-.289.327,20.593,20.593,0,0,1-3.374.265q-4.116,0-5.677-1.423A4.449,4.449,0,0,1,557.862,94.867Zm1.939-5.413a10.422,10.422,0,0,1-.089-1.372.387.387,0,0,1,.34-.391,20.754,20.754,0,0,1,4.507-.541,25.735,25.735,0,0,1,3.2.264c.235.034.366.126.391.277a7.7,7.7,0,0,1,.038.806c0,.126-.005.235-.013.327-.017.236-.088.353-.214.353a.538.538,0,0,1-.113-.013,20.33,20.33,0,0,0-3.311-.289A22,22,0,0,0,559.8,89.454Zm4.3-8.409.944-.692a.222.222,0,0,1,.113-.039.277.277,0,0,1,.151.063,11.292,11.292,0,0,1,2.908,3.122.157.157,0,0,1,.05.114.186.186,0,0,1-.1.163l-.743.617a.245.245,0,0,1-.163.063.215.215,0,0,1-.177-.113A10.584,10.584,0,0,0,564.106,81.045Zm2.266-1.725.818-.642a.306.306,0,0,1,.164-.075.194.194,0,0,1,.125.05,13.977,13.977,0,0,1,2.946,3.008.291.291,0,0,1,.038.126.268.268,0,0,1-.126.189l-.692.617a.208.208,0,0,1-.139.075c-.058,0-.117-.041-.176-.125A11.589,11.589,0,0,0,566.372,79.32Z"/>
        <path id="パス_2541" data-name="パス 2541" d="M581.488,83.839q-.567-1.41-1.184-3.021a7.87,7.87,0,0,0-1.082-2.014,15.428,15.428,0,0,1,2.039-.227c.361,0,.541.131.541.391l-.012.289a1.551,1.551,0,0,0,.038.378,8.235,8.235,0,0,0,.465,1.724q.378,1.058.844,2.165a41.039,41.039,0,0,0,5.652-1.649.55.55,0,0,1,.151-.024.235.235,0,0,1,.214.163,5.121,5.121,0,0,1,.327,1.133.506.506,0,0,1,.013.1.214.214,0,0,1-.139.226q-2.3.782-5.576,1.548a24.713,24.713,0,0,0,4.28,6.32,5.3,5.3,0,0,0,.7.566c.117.068.176.143.176.227a.548.548,0,0,1-.076.29q-.264.441-.667,1.019c-.142.177-.256.265-.34.265a.875.875,0,0,1-.315-.151c-.15-.109-.457-.3-.918-.567a12.533,12.533,0,0,0-5.854-1.4,6.4,6.4,0,0,0-3.713.893,2.432,2.432,0,0,0-1.083,2.116q0,1.85,2.329,2.731a13.367,13.367,0,0,0,4.632.68,19.394,19.394,0,0,0,3.714-.315,7.591,7.591,0,0,1-.34,1.675.432.432,0,0,1-.327.264,28.691,28.691,0,0,1-2.971.126,12.843,12.843,0,0,1-6.42-1.36,4.086,4.086,0,0,1-2.266-3.688,3.874,3.874,0,0,1,2.1-3.563,8.491,8.491,0,0,1,4.293-.982,13.19,13.19,0,0,1,5.463,1.171,23.6,23.6,0,0,1-3.965-5.992q-2.519.428-5.552.642-1.258.089-1.825.088c-.134,0-.256,0-.365-.013-.126,0-.227-.1-.3-.3a7.287,7.287,0,0,1-.29-1.335q.68.025,1.272.025t1.283-.038A45.3,45.3,0,0,0,581.488,83.839Z"/>
        <path id="パス_2542" data-name="パス 2542" d="M595.293,81.41a6.384,6.384,0,0,1,2.04.541c.151.075.226.172.226.289a2.367,2.367,0,0,1-.1.466,8.959,8.959,0,0,0-.2,2.367,45.855,45.855,0,0,0,.365,5.854,10.671,10.671,0,0,0,1.146,3.94q.729,1.31,1.586,1.309,1.485,0,2.757-4.041a3.453,3.453,0,0,0,.843,1.284.62.62,0,0,1,.239.466.776.776,0,0,1-.025.189,8.147,8.147,0,0,1-1.687,2.946,2.958,2.958,0,0,1-2.165,1.1q-1.687,0-2.92-2.254a14.372,14.372,0,0,1-1.436-4.783,51.809,51.809,0,0,1-.465-7.188A12.844,12.844,0,0,0,595.293,81.41ZM608.5,84.632a11.889,11.889,0,0,1,1.133-.692.511.511,0,0,1,.226-.063.205.205,0,0,1,.151.063,15.257,15.257,0,0,1,5.036,8.925v.063a.325.325,0,0,1-.189.277,5.554,5.554,0,0,1-1.184.592.429.429,0,0,1-.1.013c-.134,0-.214-.076-.239-.227A15.52,15.52,0,0,0,608.5,84.632Z"/>
        <path id="パス_2543" data-name="パス 2543" d="M620.92,94.1a3.526,3.526,0,0,1,2.694,1.183,3.529,3.529,0,0,1-.264,5.061,3.571,3.571,0,0,1-2.43.919,3.528,3.528,0,0,1-2.694-1.184,3.527,3.527,0,0,1,.265-5.06A3.562,3.562,0,0,1,620.92,94.1Zm0,1.284a2.23,2.23,0,0,0-1.712.755,2.263,2.263,0,0,0-.592,1.549,2.3,2.3,0,1,0,3.853-1.712A2.233,2.233,0,0,0,620.92,95.383Z"/>
      </g>
    </g>
  </g>
</svg>
