<svg xmlns="http://www.w3.org/2000/svg" width="624.558" height="101.262" viewBox="0 0 624.558 101.262">
  <g id="アートワーク_8" data-name="アートワーク 8" transform="translate(312.279 50.631)">
    <g id="グループ_457" data-name="グループ 457" transform="translate(-312.279 -50.631)">
      <g id="グループ_456" data-name="グループ 456">
        <g id="グループ_455" data-name="グループ 455">
          <path id="パス_2919" data-name="パス 2919" d="M79.255,11.884l9.719,9.693-.768.768-9.731-9.694-9.668,9.694-.768-.768,9.668-9.693L68.089,2.266l.781-.781,9.6,9.618,9.617-9.618.781.781ZM71.526,9.97A1.927,1.927,0,0,1,73.452,11.9a1.785,1.785,0,0,1-.629,1.4,1.9,1.9,0,0,1-1.3.49A1.882,1.882,0,0,1,69.638,11.9a1.847,1.847,0,0,1,.616-1.422A1.806,1.806,0,0,1,71.526,9.97Zm6.949-6.961a1.83,1.83,0,0,1,1.422.629,1.845,1.845,0,0,1,.491,1.284,1.822,1.822,0,0,1-.629,1.41,1.849,1.849,0,0,1-1.284.491,1.818,1.818,0,0,1-1.41-.63,1.83,1.83,0,0,1-.491-1.271,1.906,1.906,0,0,1,1.9-1.913Zm0,13.922a1.819,1.819,0,0,1,1.422.642,1.873,1.873,0,0,1,.491,1.284,1.8,1.8,0,0,1-.629,1.41,1.87,1.87,0,0,1-1.284.478,1.836,1.836,0,0,1-1.41-.616,1.8,1.8,0,0,1-.491-1.272,1.858,1.858,0,0,1,.63-1.422A1.8,1.8,0,0,1,78.475,16.931ZM85.449,9.97a1.821,1.821,0,0,1,1.423.642A1.879,1.879,0,0,1,87.35,11.9a1.8,1.8,0,0,1-.617,1.4,1.926,1.926,0,0,1-2.707-.139,1.789,1.789,0,0,1-.491-1.259,1.83,1.83,0,0,1,.63-1.422A1.849,1.849,0,0,1,85.449,9.97Z"/>
          <path id="パス_2920" data-name="パス 2920" d="M114.611,2.9c0,.117-.067.175-.2.175l-3.437-.05h-6.8V6.4h1.976l3.336-.051a.178.178,0,0,1,.2.2l-.05,2.832V14.93l.05,2.833a.178.178,0,0,1-.2.2l-3.336-.051h-5.3l-3.311.051a.179.179,0,0,1-.2-.2l.051-2.833V9.378l-.051-2.832a.178.178,0,0,1,.2-.2l3.311.051h1.85V3.021H96.156l-3.411.05c-.135,0-.2-.058-.2-.175V1.749c0-.15.067-.227.2-.227l3.411.051h14.817l3.437-.051c.134,0,.2.077.2.227Zm-.277,3.763a.7.7,0,0,1-.126.391,7.273,7.273,0,0,0-.188,2.342v8.824l.05,4.947c0,.143-.068.213-.2.213h-1.2c-.134,0-.2-.07-.2-.213V21.878H94.658v1.285c0,.143-.067.213-.2.213H93.286c-.134,0-.2-.07-.2-.213l.051-4.9V9.341a21.206,21.206,0,0,0-.151-3.11q1.132.089,1.624.151c.243.025.365.118.365.277a2.188,2.188,0,0,1-.189.49,10.629,10.629,0,0,0-.126,2.28V20.456h17.813V9.366a19.233,19.233,0,0,0-.176-3.135q.957.051,1.7.151C114.221,6.407,114.334,6.5,114.334,6.659ZM102.7,11.343V7.679H98.837v3.664Zm0,5.287V12.575H98.837V16.63Zm5.464-5.287V7.679h-3.991v3.664Zm0,5.287V12.575h-3.991V16.63Z"/>
          <path id="パス_2921" data-name="パス 2921" d="M124.432,1.058a.45.45,0,0,1-.214.351,2.809,2.809,0,0,0-.566,1.033q-.782,2.04-1.65,3.789V19.223l.051,4.053c0,.134-.072.2-.214.2h-1.183a.179.179,0,0,1-.2-.2l.05-4.053V12.677q0-1.286.051-3.916a37.9,37.9,0,0,1-2.329,3.273c-.118.176-.218.265-.3.265s-.189-.113-.29-.34a3.35,3.35,0,0,0-.641-.906,26.74,26.74,0,0,0,5.236-9.077A8.41,8.41,0,0,0,122.62.251a10.966,10.966,0,0,1,1.523.517C124.335.86,124.432.956,124.432,1.058Zm16.944,19.537a3.857,3.857,0,0,0-.742.919c-.126.226-.239.34-.34.34a1.146,1.146,0,0,1-.353-.2,18.715,18.715,0,0,1-4.506-4.757,19.774,19.774,0,0,1-2.468-5.867h-1.158q-.705.579-1.246.982a9.629,9.629,0,0,1,2.543,3.814,10.347,10.347,0,0,1,.642,3.614q0,3.813-2.442,3.814-.819,0-1.587-.076a1.033,1.033,0,0,1-.49-.113.77.77,0,0,1-.126-.377,3.175,3.175,0,0,0-.391-1.058,16.014,16.014,0,0,0,2.266.2,1.074,1.074,0,0,0,1.033-.566,4.177,4.177,0,0,0,.34-1.964,11.382,11.382,0,0,0-.126-1.535,24.664,24.664,0,0,1-8.044,4.4,1.489,1.489,0,0,1-.328.075c-.092,0-.2-.1-.314-.314a3.314,3.314,0,0,0-.643-.819,22.743,22.743,0,0,0,9.014-4.67,6.856,6.856,0,0,0-.655-1.5,21.782,21.782,0,0,1-6.974,3.588,1.184,1.184,0,0,1-.34.1c-.084,0-.185-.1-.3-.3a3.374,3.374,0,0,0-.617-.781,21.833,21.833,0,0,0,7.591-3.625,11.5,11.5,0,0,0-1.045-1.2,20.273,20.273,0,0,1-5.224,2.416,1.968,1.968,0,0,1-.39.1q-.14,0-.289-.328a3.129,3.129,0,0,0-.592-.793,18.1,18.1,0,0,0,6.823-3.1h-1.033l-3.575.05a.177.177,0,0,1-.2-.2l.05-1.75V7.339q-.717.58-1.082.844a1.206,1.206,0,0,1-.39.226c-.06,0-.152-.105-.278-.314a2.219,2.219,0,0,0-.616-.643,15.941,15.941,0,0,0,5.3-5.488A7.064,7.064,0,0,0,128.737.34q.593.15,1.373.4.3.138.3.315c0,.117-.093.238-.277.365a3.157,3.157,0,0,0-.756.994l-.1.15h4.179a1.623,1.623,0,0,0,.567-.075.811.811,0,0,1,.226-.05,1.483,1.483,0,0,1,.73.428c.311.269.466.457.466.567,0,.134-.105.263-.315.39a2.635,2.635,0,0,0-.591.616,11.255,11.255,0,0,1-1.31,1.587H135.4l3.587-.051a.179.179,0,0,1,.2.2l-.05,1.713V9.228l.05,1.648a.178.178,0,0,1-.2.2l-3.587-.05h-1.108a15.759,15.759,0,0,0,1.523,3.978,22.247,22.247,0,0,0,2.065-1.813,3.863,3.863,0,0,0,.818-1.107,6.462,6.462,0,0,1,1.2.78q.289.2.29.353c0,.135-.106.23-.315.289a2.551,2.551,0,0,0-.856.592,29.306,29.306,0,0,1-2.531,1.989A16.267,16.267,0,0,0,141.376,20.595ZM131.293,9.9V7.188h-4.784V9.9Zm2.09-6.093H128.46a20.143,20.143,0,0,1-1.925,2.228h5.035A15.225,15.225,0,0,0,133.383,3.8ZM137.751,9.9V7.188h-5.086V9.9Z"/>
          <path id="パス_2922" data-name="パス 2922" d="M146.165,2.14A5.347,5.347,0,0,1,148,2.808a.485.485,0,0,1,.264.389.592.592,0,0,1-.113.3,4.687,4.687,0,0,0-.416,1.3,49.855,49.855,0,0,0-1.233,9.756,41.442,41.442,0,0,0,.176,4.532q.353-.907,1.813-4.2a4.446,4.446,0,0,0,.579,1.057.535.535,0,0,1,.113.29.671.671,0,0,1-.088.276,23.057,23.057,0,0,0-1.535,4.066c-.034.328-.051.588-.051.782a2.488,2.488,0,0,0,.025.377.828.828,0,0,1,.013.126.249.249,0,0,1-.152.213,5.6,5.6,0,0,1-1.157.329.353.353,0,0,1-.114.024c-.092,0-.164-.075-.214-.227a22,22,0,0,1-.982-7.59A64.327,64.327,0,0,1,146.039,4.7a12.809,12.809,0,0,0,.164-1.913A4.829,4.829,0,0,0,146.165,2.14Zm11.883,13.873q-.176-3.752-.176-7.176-1.825.1-3.247.1-1.284,0-2.506-.076a.241.241,0,0,1-.277-.226,9.911,9.911,0,0,1-.1-1.373q1.459.1,3,.1,1.56,0,3.084-.1l.025-2.957a10.175,10.175,0,0,0-.252-2.291,9.443,9.443,0,0,1,1.977.351c.193.084.289.19.289.315a.89.89,0,0,1-.1.365,3.229,3.229,0,0,0-.215,1.234q-.05.894-.05,2.858,1.963-.189,4.067-.579a.525.525,0,0,1,.125-.026c.076,0,.122.068.139.2a5.879,5.879,0,0,1,.1,1.02c0,.176-.058.281-.176.314a33.023,33.023,0,0,1-4.255.618q.037,4.264.239,7.779a18.775,18.775,0,0,1,4.532,2.668.205.205,0,0,1,.1.152.575.575,0,0,1-.051.176,4.793,4.793,0,0,1-.692,1.133.2.2,0,0,1-.164.113.236.236,0,0,1-.15-.088,17.086,17.086,0,0,0-3.6-2.367q-.164,3.474-4.317,3.475a4.747,4.747,0,0,1-3.047-.87,2.5,2.5,0,0,1-.97-2.064,2.674,2.674,0,0,1,1.31-2.354,4.742,4.742,0,0,1,2.656-.717A12.318,12.318,0,0,1,158.048,16.013Zm0,1.56a10.344,10.344,0,0,0-2.807-.427,2.982,2.982,0,0,0-1.812.478,1.4,1.4,0,0,0-.579,1.17,1.255,1.255,0,0,0,.742,1.172,3.76,3.76,0,0,0,1.725.34q2.731,0,2.731-2.242Z"/>
          <path id="パス_2923" data-name="パス 2923" d="M188.723,12.349a.178.178,0,0,1-.2.2L185.11,12.5H170.244l-3.412.051a.179.179,0,0,1-.2-.2V11a.179.179,0,0,1,.2-.2l3.412.05H185.11l3.412-.05a.178.178,0,0,1,.2.2Z"/>
          <path id="パス_2924" data-name="パス 2924" d="M198.4,1.133q0,.163-.264.378a3.348,3.348,0,0,0-.453,1.007q-.73,2.129-1.448,3.739V19.223l.05,4.053a.178.178,0,0,1-.2.2h-1.2a.178.178,0,0,1-.2-.2l.05-4.053V12.8q0-2.468.025-3.726a36.58,36.58,0,0,1-2.19,3.261c-.118.176-.214.264-.29.264-.059,0-.151-.114-.277-.34a3.431,3.431,0,0,0-.642-.894,26.189,26.189,0,0,0,4.847-9.253,8.64,8.64,0,0,0,.34-1.787q.831.226,1.561.49C198.3.9,198.4,1.007,198.4,1.133Zm9,2.291a.189.189,0,0,1-.214.214L204.5,3.575h-1.536a23.858,23.858,0,0,1-.78,3.613h2.6a1.433,1.433,0,0,0,.642-.126.7.7,0,0,1,.315-.076q.227,0,.743.517c.31.285.466.508.466.667a.564.564,0,0,1-.151.327,2.154,2.154,0,0,0-.315.957,23.7,23.7,0,0,1-2.959,8.006,23.361,23.361,0,0,1-4.619,5.035,1.049,1.049,0,0,1-.366.2q-.1,0-.352-.34a3.2,3.2,0,0,0-.856-.716,18.462,18.462,0,0,0,5.828-6.522,19.084,19.084,0,0,0-2.379-2.24c-.1-.076-.151-.135-.151-.176a.558.558,0,0,1,.138-.24l.479-.616c.076-.1.142-.152.2-.152a.26.26,0,0,1,.164.077,16.183,16.183,0,0,1,2.191,1.962,21.408,21.408,0,0,0,1.346-5.211H201.72A18.364,18.364,0,0,1,198.573,14c-.143.168-.244.252-.3.252s-.173-.1-.34-.29a2.942,2.942,0,0,0-.768-.666,17.256,17.256,0,0,0,4.355-9.719h-.075l-2.682.063a.189.189,0,0,1-.214-.214V2.392c0-.135.072-.2.214-.2l2.682.051H204.5l2.681-.051c.143,0,.214.067.214.2Zm2.858-.227c0,.009-.043.159-.126.453A14.485,14.485,0,0,0,210,6.307v6.76l.05,3.273a.178.178,0,0,1-.2.2h-1.171a.178.178,0,0,1-.2-.2l.051-3.273V6.356a26.294,26.294,0,0,0-.151-3.524q.817.038,1.6.151C210.162,3.009,210.255,3.08,210.255,3.2ZM214.6,1.083a1.682,1.682,0,0,1-.151.49,8.95,8.95,0,0,0-.139,2.24V16.63l.025,3.939a2.445,2.445,0,0,1-.717,2.039,4.519,4.519,0,0,1-2.531.492h-.516c-.268,0-.427-.03-.478-.088a1.009,1.009,0,0,1-.164-.429,2.449,2.449,0,0,0-.516-1.158,18.539,18.539,0,0,0,2.09.127,1.431,1.431,0,0,0,1.007-.265,1.348,1.348,0,0,0,.277-.981V3.839a19.378,19.378,0,0,0-.176-3.121,15.8,15.8,0,0,1,1.674.125C214.493.877,214.6.956,214.6,1.083Z"/>
          <path id="パス_2925" data-name="パス 2925" d="M218.2,6.533a24.83,24.83,0,0,0,3.2-.3q7.188-1.158,15.987-2.253h.088a.331.331,0,0,1,.352.214,5.8,5.8,0,0,1,.152,1.284c0,.185-.114.289-.34.314a11.686,11.686,0,0,0-3.764.769,11.49,11.49,0,0,0-4.96,3.612,7.207,7.207,0,0,0-1.687,4.508q0,5.235,7.5,5.853c.276.025.415.121.415.289a6.1,6.1,0,0,1-.151,1.234q-.075.365-.34.365h-.075a12.362,12.362,0,0,1-6.5-2.165,6.28,6.28,0,0,1-2.556-5.287q0-5.437,6.282-8.762l-.025-.051Q224.7,7.277,221.317,7.981a6.747,6.747,0,0,0-1.548.44,2.768,2.768,0,0,1-.491.177.414.414,0,0,1-.365-.227A15.216,15.216,0,0,1,218.2,6.533Zm15.773,3.941.957-.693a.186.186,0,0,1,.114-.038.28.28,0,0,1,.15.063,11.286,11.286,0,0,1,2.909,3.123.191.191,0,0,1,.05.113.189.189,0,0,1-.1.163l-.743.63a.29.29,0,0,1-.163.062.194.194,0,0,1-.177-.113A10.635,10.635,0,0,0,233.968,10.474Zm2.279-1.713.818-.655a.344.344,0,0,1,.164-.062.206.206,0,0,1,.126.051A13.951,13.951,0,0,1,240.3,11.1a.284.284,0,0,1,.038.126c0,.059-.042.118-.126.176l-.692.629a.22.22,0,0,1-.139.063c-.058,0-.117-.041-.176-.125A11.408,11.408,0,0,0,236.247,8.761Z"/>
          <path id="パス_2926" data-name="パス 2926" d="M253.475,5.362q-.014-.427-.025-1.359c-.009-.4-.017-.751-.025-1.045a8.414,8.414,0,0,0-.252-1.725,12.536,12.536,0,0,1,1.951.289c.311.084.466.211.466.379a1.123,1.123,0,0,1-.176.465,1.608,1.608,0,0,0-.177.705q-.063.567-.063,2.191,2.871-.089,8.259-.088c.184,0,.276.1.276.29V6.559q0,.264-.327.264-2.4-.077-4.33-.076-2,0-3.878.076,0,3.285.026,5.01a10.69,10.69,0,0,1,.314,2.707q0,5.124-5.022,7.653a1.351,1.351,0,0,1-.592.227.733.733,0,0,1-.466-.2,3.385,3.385,0,0,0-1.183-.718q5.223-1.975,5.614-6.182a3.021,3.021,0,0,1-2.832,1.461,3.277,3.277,0,0,1-2.505-1.019,3.689,3.689,0,0,1-.907-2.606,3.449,3.449,0,0,1,3.538-3.588,3.113,3.113,0,0,1,2.417.869l-.051-3.513q-6.256.354-9.617.768a5.523,5.523,0,0,0-.756.177,1.725,1.725,0,0,1-.377.088c-.151,0-.252-.088-.3-.265a8.475,8.475,0,0,1-.416-1.636c.176.016.365.025.567.025q.654,0,2.681-.177Q248.791,5.641,253.475,5.362Zm-2.19,5.489a2.029,2.029,0,0,0-1.574.679,2.22,2.22,0,0,0-.566,1.562,2.173,2.173,0,0,0,.692,1.712,2,2,0,0,0,1.4.5,2.252,2.252,0,0,0,1.788-.782,2.2,2.2,0,0,0,.554-1.484,2.051,2.051,0,0,0-.73-1.649A2.311,2.311,0,0,0,251.285,10.851Z"/>
          <path id="パス_2927" data-name="パス 2927" d="M265.822,16.755a3.526,3.526,0,0,1,2.694,1.183A3.528,3.528,0,0,1,268.251,23a3.567,3.567,0,0,1-2.429.919,3.529,3.529,0,0,1-2.694-1.183,3.527,3.527,0,0,1,.265-5.06A3.563,3.563,0,0,1,265.822,16.755Zm0,1.284a2.23,2.23,0,0,0-1.712.755,2.261,2.261,0,0,0-.592,1.549,2.3,2.3,0,1,0,3.853-1.712A2.233,2.233,0,0,0,265.822,18.039Z"/>
          <path id="パス_2928" data-name="パス 2928" d="M301.011,20.646a2.039,2.039,0,0,1-.667,1.7q-.6.491-3.3.49a.907.907,0,0,1-.479-.075,1.236,1.236,0,0,1-.176-.441,3.083,3.083,0,0,0-.516-1.209q1.4.126,2.354.127a1.461,1.461,0,0,0,.944-.252.984.984,0,0,0,.214-.73V6.546h-7.741a15.4,15.4,0,0,0,3.021,5.7A16.394,16.394,0,0,0,299,15.622a3.209,3.209,0,0,0-.893.9c-.152.226-.265.339-.341.339a.975.975,0,0,1-.39-.2,16.565,16.565,0,0,1-4-3.65,15.645,15.645,0,0,1-2.291-4.394,9.538,9.538,0,0,1-.454,1.385,13.922,13.922,0,0,1-2.2,3.764A15.8,15.8,0,0,1,284.8,16.78a1.048,1.048,0,0,1-.365.2c-.067,0-.181-.1-.34-.3a3.794,3.794,0,0,0-.868-.882,13.736,13.736,0,0,0,4.1-3.172,11.762,11.762,0,0,0,1.85-3.084,12.192,12.192,0,0,0,.743-3h-7.012v12.5l.05,3.789c0,.143-.067.215-.2.215h-1.272c-.134,0-.2-.072-.2-.215l.05-3.914V9.228l-.05-3.979a.178.178,0,0,1,.2-.2L285.1,5.1h4.985q.076-1.2.076-2.393A15.255,15.255,0,0,0,290,.151q.894.039,1.725.151c.193.025.289.113.289.264,0,.017-.042.177-.125.479a9.2,9.2,0,0,0-.152,1.938A18.619,18.619,0,0,1,291.62,5.1H297.2l3.613-.051a.178.178,0,0,1,.2.2l-.05,4.079v7.189Z"/>
          <path id="パス_2929" data-name="パス 2929" d="M327.77,15.9a2.825,2.825,0,0,0-.642,1.032c-.118.3-.219.441-.3.441a1.614,1.614,0,0,1-.366-.126,37.9,37.9,0,0,1-3.839-1.964l-.025,1.964v2l.05,4.079a.189.189,0,0,1-.214.214H321.3c-.151,0-.226-.071-.226-.214V22.118H311.065v1.334c0,.126-.067.19-.2.19H309.7c-.142,0-.214-.064-.214-.19l.051-4.129V17.548l-.025-2.19a35.126,35.126,0,0,1-3.5,1.863,1.343,1.343,0,0,1-.415.151q-.153,0-.34-.416a2.833,2.833,0,0,0-.668-.868q6.723-2.757,9.769-6.659A7.2,7.2,0,0,0,315.446,7.7q.969.189,1.573.365c.193.076.29.172.29.289,0,.068-.072.143-.214.227l-.1.076A23.044,23.044,0,0,0,327.77,15.9Zm-1.31-7.88a.178.178,0,0,1-.2.2h-1.2a.178.178,0,0,1-.2-.2V4.431H307.351V8.019a.178.178,0,0,1-.2.2h-1.2a.178.178,0,0,1-.2-.2l.051-2.657v-.83l-.051-1.322a.178.178,0,0,1,.2-.2l3.563.051h5.627V2.883a12.091,12.091,0,0,0-.189-2.632q.755.027,1.674.127c.226.025.34.092.34.2a1.177,1.177,0,0,1-.151.466,6.961,6.961,0,0,0-.126,1.812v.2H322.7l3.562-.051a.177.177,0,0,1,.2.2l-.05,1.2v.957ZM313.469,6.772c0,.11-.121.223-.365.34a3.368,3.368,0,0,0-.717.643,17.551,17.551,0,0,1-4.3,3.336,1.031,1.031,0,0,1-.416.15c-.084,0-.2-.121-.34-.365a2.6,2.6,0,0,0-.743-.83,14.6,14.6,0,0,0,4.331-2.934A5.048,5.048,0,0,0,311.9,5.74a7,7,0,0,1,1.334.73C313.389,6.579,313.469,6.681,313.469,6.772Zm8.371,8.044a20.172,20.172,0,0,1-5.715-5.173,22.607,22.607,0,0,1-5.752,5.173q.515.026,2.731.026h5.929Q321.325,14.842,321.84,14.816Zm-.767,5.929V16.214H311.065v4.531Zm4.846-10.876a3.79,3.79,0,0,0-.654.957q-.177.415-.3.415a1.094,1.094,0,0,1-.364-.15,19.215,19.215,0,0,1-5.59-4.242.265.265,0,0,1-.075-.127q0-.061.252-.252l.616-.44a.435.435,0,0,1,.2-.1c.042,0,.089.034.139.1A15.88,15.88,0,0,0,325.919,9.869Z"/>
          <path id="パス_2930" data-name="パス 2930" d="M332.986,2.14a5.347,5.347,0,0,1,1.838.668.485.485,0,0,1,.264.389.583.583,0,0,1-.113.3,4.693,4.693,0,0,0-.415,1.3,49.792,49.792,0,0,0-1.234,9.756,41.7,41.7,0,0,0,.176,4.532q.352-.907,1.813-4.2a4.482,4.482,0,0,0,.579,1.057.527.527,0,0,1,.113.29.67.67,0,0,1-.088.276,23.058,23.058,0,0,0-1.535,4.066c-.034.328-.051.588-.051.782a2.489,2.489,0,0,0,.025.377.716.716,0,0,1,.013.126.249.249,0,0,1-.151.213,5.625,5.625,0,0,1-1.158.329.348.348,0,0,1-.114.024c-.092,0-.163-.075-.214-.227a22,22,0,0,1-.982-7.59A64.456,64.456,0,0,1,332.86,4.7a12.807,12.807,0,0,0,.164-1.913A4.832,4.832,0,0,0,332.986,2.14ZM344.87,16.013q-.177-3.752-.177-7.176-1.824.1-3.247.1-1.284,0-2.506-.076a.239.239,0,0,1-.276-.226,9.766,9.766,0,0,1-.1-1.373q1.461.1,3,.1,1.562,0,3.084-.1l.025-2.957a10.232,10.232,0,0,0-.251-2.291,9.431,9.431,0,0,1,1.976.351c.193.084.29.19.29.315a.894.894,0,0,1-.1.365,3.234,3.234,0,0,0-.214,1.234q-.051.894-.051,2.858,1.964-.189,4.067-.579a.525.525,0,0,1,.125-.026c.076,0,.122.068.139.2a5.889,5.889,0,0,1,.1,1.02c0,.176-.059.281-.177.314a32.994,32.994,0,0,1-4.255.618q.039,4.264.24,7.779a18.769,18.769,0,0,1,4.531,2.668.2.2,0,0,1,.1.152.6.6,0,0,1-.05.176,4.8,4.8,0,0,1-.693,1.133.2.2,0,0,1-.163.113.238.238,0,0,1-.151-.088,17.06,17.06,0,0,0-3.6-2.367q-.164,3.474-4.317,3.475a4.748,4.748,0,0,1-3.047-.87,2.5,2.5,0,0,1-.969-2.064,2.673,2.673,0,0,1,1.309-2.354,4.744,4.744,0,0,1,2.656-.717A12.334,12.334,0,0,1,344.87,16.013Zm0,1.56a10.35,10.35,0,0,0-2.807-.427,2.985,2.985,0,0,0-1.813.478,1.4,1.4,0,0,0-.579,1.17,1.254,1.254,0,0,0,.743,1.172,3.755,3.755,0,0,0,1.724.34q2.732,0,2.732-2.242Z"/>
          <path id="パス_2931" data-name="パス 2931" d="M376.621,2.9c0,.117-.067.175-.2.175l-3.437-.05h-6.8V6.4h1.976l3.336-.051a.178.178,0,0,1,.2.2l-.051,2.832V14.93l.051,2.833a.179.179,0,0,1-.2.2l-3.336-.051h-5.3l-3.31.051a.179.179,0,0,1-.2-.2l.051-2.833V9.378l-.051-2.832a.178.178,0,0,1,.2-.2l3.31.051h1.851V3.021h-6.546l-3.412.05c-.134,0-.2-.058-.2-.175V1.749c0-.15.067-.227.2-.227l3.412.051h14.816l3.437-.051c.135,0,.2.077.2.227Zm-.277,3.763a.7.7,0,0,1-.126.391,7.258,7.258,0,0,0-.189,2.342v8.824l.051,4.947c0,.143-.068.213-.2.213h-1.2c-.134,0-.2-.07-.2-.213V21.878H356.668v1.285c0,.143-.067.213-.2.213H355.3c-.134,0-.2-.07-.2-.213l.051-4.9V9.341a21.205,21.205,0,0,0-.151-3.11q1.133.089,1.624.151c.243.025.365.118.365.277a2.187,2.187,0,0,1-.189.49,10.628,10.628,0,0,0-.126,2.28V20.456H374.48V9.366a19.262,19.262,0,0,0-.175-3.135q.955.051,1.7.151C376.23,6.407,376.344,6.5,376.344,6.659Zm-11.632,4.684V7.679h-3.865v3.664Zm0,5.287V12.575h-3.865V16.63Zm5.463-5.287V7.679h-3.99v3.664Zm0,5.287V12.575h-3.99V16.63Z"/>
          <path id="パス_2932" data-name="パス 2932" d="M386.442,1.058a.45.45,0,0,1-.214.351,2.81,2.81,0,0,0-.566,1.033q-.781,2.04-1.65,3.789V19.223l.051,4.053c0,.134-.072.2-.214.2h-1.183a.179.179,0,0,1-.2-.2l.05-4.053V12.677q0-1.286.051-3.916a37.9,37.9,0,0,1-2.329,3.273c-.118.176-.218.265-.3.265s-.189-.113-.29-.34a3.332,3.332,0,0,0-.642-.906,26.743,26.743,0,0,0,5.237-9.077,8.335,8.335,0,0,0,.39-1.725,10.922,10.922,0,0,1,1.523.517C386.345.86,386.442.956,386.442,1.058Zm16.944,19.537a3.833,3.833,0,0,0-.742.919c-.126.226-.24.34-.34.34a1.146,1.146,0,0,1-.353-.2,18.736,18.736,0,0,1-4.507-4.757,19.8,19.8,0,0,1-2.467-5.867h-1.158q-.705.579-1.246.982a9.629,9.629,0,0,1,2.543,3.814,10.369,10.369,0,0,1,.641,3.614q0,3.813-2.442,3.814-.818,0-1.586-.076a1.042,1.042,0,0,1-.491-.113.792.792,0,0,1-.126-.377,3.173,3.173,0,0,0-.39-1.058,16,16,0,0,0,2.266.2,1.074,1.074,0,0,0,1.033-.566,4.179,4.179,0,0,0,.339-1.964,11.222,11.222,0,0,0-.126-1.535,24.643,24.643,0,0,1-8.044,4.4,1.485,1.485,0,0,1-.327.075c-.092,0-.2-.1-.315-.314a3.288,3.288,0,0,0-.642-.819,22.739,22.739,0,0,0,9.013-4.67,6.806,6.806,0,0,0-.654-1.5,21.782,21.782,0,0,1-6.974,3.588,1.184,1.184,0,0,1-.34.1c-.084,0-.185-.1-.3-.3a3.374,3.374,0,0,0-.617-.781,21.833,21.833,0,0,0,7.591-3.625,11.5,11.5,0,0,0-1.045-1.2,20.289,20.289,0,0,1-5.224,2.416,1.968,1.968,0,0,1-.39.1c-.093,0-.189-.109-.29-.328a3.126,3.126,0,0,0-.591-.793,18.09,18.09,0,0,0,6.822-3.1h-1.032l-3.575.05a.177.177,0,0,1-.2-.2l.05-1.75V7.339q-.719.58-1.083.844a1.2,1.2,0,0,1-.39.226c-.059,0-.151-.105-.277-.314a2.224,2.224,0,0,0-.617-.643,15.944,15.944,0,0,0,5.3-5.488A7.154,7.154,0,0,0,390.747.34q.592.15,1.373.4c.2.092.3.2.3.315s-.092.238-.276.365a3.127,3.127,0,0,0-.756.994l-.1.15h4.179a1.623,1.623,0,0,0,.567-.075.8.8,0,0,1,.226-.05,1.487,1.487,0,0,1,.73.428c.311.269.466.457.466.567,0,.134-.105.263-.315.39a2.635,2.635,0,0,0-.591.616,11.255,11.255,0,0,1-1.31,1.587h2.166l3.587-.051a.179.179,0,0,1,.2.2l-.05,1.713V9.228l.05,1.648a.178.178,0,0,1-.2.2l-3.587-.05H396.3a15.721,15.721,0,0,0,1.523,3.978,22.381,22.381,0,0,0,2.065-1.813,3.9,3.9,0,0,0,.818-1.107,6.461,6.461,0,0,1,1.2.78q.289.2.289.353c0,.135-.105.23-.315.289a2.559,2.559,0,0,0-.855.592,29.306,29.306,0,0,1-2.531,1.989A16.255,16.255,0,0,0,403.386,20.595ZM393.3,9.9V7.188h-4.784V9.9Zm2.09-6.093H390.47a20.145,20.145,0,0,1-1.926,2.228h5.036A15.29,15.29,0,0,0,395.393,3.8ZM399.761,9.9V7.188h-5.086V9.9Z"/>
          <path id="パス_2933" data-name="パス 2933" d="M410.333,1.233a11.126,11.126,0,0,1,2.1.24c.21.049.315.159.315.327a1.892,1.892,0,0,1-.063.378,2.492,2.492,0,0,0-.063.528c.025.522.075,1.07.151,1.649a34.755,34.755,0,0,0,1.007,5.464q3.637-1.786,4.594-2.316a5,5,0,0,0,1.5-1.2,11.01,11.01,0,0,1,1.309,1.448.631.631,0,0,1,.113.34q0,.339-.428.389A9.406,9.406,0,0,0,418.6,9.3q-3.852,1.8-5.853,2.946a10.326,10.326,0,0,0-3.009,2.379,3.668,3.668,0,0,0-.806,2.291,2.361,2.361,0,0,0,1.788,2.367,13.723,13.723,0,0,0,4.267.465,49.326,49.326,0,0,0,6.635-.541.39.39,0,0,1,.087-.013.258.258,0,0,1,.265.24,11.337,11.337,0,0,1,.164,1.347v.063c0,.175-.122.272-.366.289a61.979,61.979,0,0,1-6.86.365,11.994,11.994,0,0,1-5.778-1.07,3.713,3.713,0,0,1-1.9-3.45,5.357,5.357,0,0,1,1.46-3.574,15.435,15.435,0,0,1,3.563-2.795,41.182,41.182,0,0,1-1.36-6.848A10.8,10.8,0,0,0,410.333,1.233Z"/>
          <path id="パス_2934" data-name="パス 2934" d="M449.176,17.888c0,.151-.072.226-.215.226l-3.373-.05H430.255l-3.361.05c-.134,0-.2-.075-.2-.226V16.881c0-.117.068-.177.2-.177l3.361.051H433.6V13.81H432.6l-3.613.05a.179.179,0,0,1-.2-.2v-.981a.178.178,0,0,1,.2-.2l3.613.049H433.6v-2.5h-.592l-3.663.05c-.151,0-.227-.068-.227-.2l.05-2.329V4.116l-.05-2.342c0-.133.076-.2.227-.2l3.663.051H442.7l3.676-.051c.126,0,.189.068.189.2l-.05,2.342V7.54l.05,2.329c0,.134-.063.2-.189.2l-3.676-.05h-.692v2.5h1.07l3.638-.049a.177.177,0,0,1,.2.2v.981a.178.178,0,0,1-.2.2l-3.638-.05h-1.07v2.945h3.575l3.373-.051c.143,0,.215.06.215.177Zm-13.8,1.826q0,.163-.339.264a2.538,2.538,0,0,0-.718.465,17.5,17.5,0,0,1-5.576,2.984l-.353.1c-.092,0-.214-.138-.365-.416a2.546,2.546,0,0,0-.717-.843,16.466,16.466,0,0,0,5.664-2.682,4.223,4.223,0,0,0,.856-.843,6.543,6.543,0,0,1,1.31.667C435.3,19.521,435.378,19.621,435.378,19.714Zm1.6-14.54V2.857h-6.332V5.174Zm0,3.612V6.356h-6.332v2.43Zm3.537,3.739v-2.5H435.1v2.5Zm0,4.23V13.81H435.1v2.945Zm4.531-11.581V2.857h-6.621V5.174Zm0,3.612V6.356h-6.621v2.43Zm3.4,13.332a3.386,3.386,0,0,0-.692.894c-.159.276-.29.415-.39.415a1.888,1.888,0,0,1-.365-.075,18.8,18.8,0,0,1-6.408-3.525c-.075-.058-.113-.1-.113-.139,0-.05.088-.134.264-.251l.592-.416a.919.919,0,0,1,.3-.151.317.317,0,0,1,.164.075A16.136,16.136,0,0,0,448.445,22.118Z"/>
          <path id="パス_2935" data-name="パス 2935" d="M460.131,6.005q1.963-.266,3.588-.643a.579.579,0,0,1,.138-.025.177.177,0,0,1,.189.177q.089.491.139,1.108v.1c0,.118-.08.189-.239.215q-1.776.351-4.305.742a60.165,60.165,0,0,1-5.187,10.888.273.273,0,0,1-.214.152.429.429,0,0,1-.2-.075,5.461,5.461,0,0,1-1.033-.782.243.243,0,0,1-.113-.187.461.461,0,0,1,.088-.24,46.245,46.245,0,0,0,4.847-9.6q-1.939.189-3.248.189-.768,0-1.36-.051a.346.346,0,0,1-.314-.315,7.507,7.507,0,0,1-.152-1.283q1.1.1,2.04.1a33.6,33.6,0,0,0,3.5-.213,29.253,29.253,0,0,0,.769-3.01,8.71,8.71,0,0,0,.213-1.736V1.233a9.938,9.938,0,0,1,2.015.516.29.29,0,0,1,.226.29.565.565,0,0,1-.2.378,2.616,2.616,0,0,0-.365.806Q460.521,4.618,460.131,6.005ZM465.6,16.327q-.266-2.757-.315-5.048a8.9,8.9,0,0,0-.151-1.649,8.681,8.681,0,0,1,1.75.34c.193.051.289.151.289.3a1.483,1.483,0,0,1-.163.465,4.54,4.54,0,0,0-.1,1.209,43.953,43.953,0,0,0,.315,4.746,24.1,24.1,0,0,1,4.871,2.58c.11.069.164.135.164.2a.663.663,0,0,1-.063.214,7.566,7.566,0,0,1-.617,1.133.239.239,0,0,1-.188.126.339.339,0,0,1-.215-.1,15.416,15.416,0,0,0-3.927-2.455q.038,4.027-4.62,4.028a4.532,4.532,0,0,1-2.87-.882,2.711,2.711,0,0,1-1.121-2.266,2.816,2.816,0,0,1,1.4-2.455,5.335,5.335,0,0,1,2.983-.793A12.061,12.061,0,0,1,465.6,16.327Zm.025,1.549a8.469,8.469,0,0,0-2.53-.428,3.98,3.98,0,0,0-2.354.578,1.407,1.407,0,0,0-.63,1.171q0,1.8,2.656,1.8a2.906,2.906,0,0,0,2.317-.844,2.441,2.441,0,0,0,.566-1.661A4.478,4.478,0,0,0,465.62,17.876Zm1.183-10.8c.059-.1.185-.328.378-.679.126-.227.222-.395.29-.5.083-.135.167-.2.251-.2a.6.6,0,0,1,.189.038,17.54,17.54,0,0,1,5.061,2.429.309.309,0,0,1,.138.227.525.525,0,0,1-.088.239,6.836,6.836,0,0,1-.592,1.02c-.067.092-.13.138-.188.138a.44.44,0,0,1-.177-.075A16.635,16.635,0,0,0,466.8,7.075Z"/>
          <path id="パス_2936" data-name="パス 2936" d="M486.837,3.8q-2.1.328-6.445,1.158a4.88,4.88,0,0,0-.907.238,1.265,1.265,0,0,1-.478.127.461.461,0,0,1-.415-.314,8.256,8.256,0,0,1-.617-1.776,9.478,9.478,0,0,0,1.271.088,9.349,9.349,0,0,0,.995-.051q3.4-.351,6.42-.931a2.4,2.4,0,0,0,.793-.238.726.726,0,0,1,.365-.177.855.855,0,0,1,.466.2,6.825,6.825,0,0,1,1.108,1.082.724.724,0,0,1,.176.44.519.519,0,0,1-.39.492,3.2,3.2,0,0,0-1.209.906q-3.474,3.663-6.6,6.848l.075.076A10.042,10.042,0,0,1,487,10.121a5.925,5.925,0,0,1,4.6,1.8,5.462,5.462,0,0,1,1.409,3.877,5.807,5.807,0,0,1-2.505,4.973,9.98,9.98,0,0,1-6,1.649,5.345,5.345,0,0,1-3.55-1.02A2.527,2.527,0,0,1,480,19.374a2.406,2.406,0,0,1,.932-1.914,3.139,3.139,0,0,1,2.09-.717,4.2,4.2,0,0,1,3.021,1.158,4.976,4.976,0,0,1,1.359,2.631q3.777-1.323,3.777-4.784a3.963,3.963,0,0,0-1.473-3.248,4.662,4.662,0,0,0-3-.981,11.377,11.377,0,0,0-7.087,2.908,30.859,30.859,0,0,0-2.266,2.1.48.48,0,0,1-.3.176.3.3,0,0,1-.214-.125,11.756,11.756,0,0,1-.957-1.019.241.241,0,0,1-.063-.152c0-.067.054-.147.164-.239a79.8,79.8,0,0,0,5.828-5.753Q485.15,5.79,486.837,3.8ZM485.83,20.9a3.793,3.793,0,0,0-1.045-2.078,2.431,2.431,0,0,0-1.712-.679,1.83,1.83,0,0,0-1.158.352,1.039,1.039,0,0,0-.415.857,1.472,1.472,0,0,0,.768,1.258,3.786,3.786,0,0,0,1.888.415A10.081,10.081,0,0,0,485.83,20.9Z"/>
          <path id="パス_2937" data-name="パス 2937" d="M505.226,13.608c-.009.041-.034.37-.076.982a1.063,1.063,0,0,1-.075.516,1.04,1.04,0,0,1-.366.252,47.181,47.181,0,0,1-5.287,2.53,6.165,6.165,0,0,0-.931.441.472.472,0,0,1-.34.15c-.084,0-.176-.083-.277-.251a6.52,6.52,0,0,1-.516-1.422,17.58,17.58,0,0,0,2.455-.668q.717-.264,1.082-.415V8.661h-.7l-2.392.05a.189.189,0,0,1-.214-.214V7.415c0-.135.072-.2.214-.2l2.392.05h.7V4.255a24.2,24.2,0,0,0-.188-3.537q.792.024,1.686.125c.21.034.315.113.315.24a.693.693,0,0,1-.05.213c-.042.109-.072.193-.089.252a12.288,12.288,0,0,0-.151,2.644V7.263h.177l2.391-.05c.126,0,.189.067.189.2V8.5c0,.143-.063.214-.189.214l-2.391-.05h-.177v6.42Q503.779,14.451,505.226,13.608Zm15.408-1.989a.178.178,0,0,1-.2.2l-3.588-.049h-7.767q.238.062.566.175c.2.068.332.114.391.139.176.066.264.159.264.277a.375.375,0,0,1-.189.289,1.826,1.826,0,0,0-.466.516l-.377.566h7.087l3.172-.049a.223.223,0,0,1,.252.252l-.227,2.581a28.064,28.064,0,0,1-.667,4.468,2.893,2.893,0,0,1-.969,1.649,2.593,2.593,0,0,1-1.561.416c-.688,0-1.229-.018-1.624-.051a.634.634,0,0,1-.39-.113,1.45,1.45,0,0,1-.152-.453,4.4,4.4,0,0,0-.44-1.071,13.483,13.483,0,0,0,2.48.215q.957,0,1.234-1.234a34.8,34.8,0,0,0,.692-5.35h-1.8a16.414,16.414,0,0,1-6.647,7.955.8.8,0,0,1-.39.177c-.092,0-.231-.1-.416-.315a2.464,2.464,0,0,0-.767-.591,14.447,14.447,0,0,0,6.7-7.226H512.54a18.846,18.846,0,0,1-6.345,6.332,2.224,2.224,0,0,1-.415.176q-.114,0-.378-.314a2.114,2.114,0,0,0-.756-.567,16.9,16.9,0,0,0,6.27-5.627h-2.581a17.276,17.276,0,0,1-4.079,3.676,1.332,1.332,0,0,1-.4.2q-.088,0-.366-.314a3.47,3.47,0,0,0-.83-.618,15.487,15.487,0,0,0,5.337-4.771,4.563,4.563,0,0,0,.655-1.4h-.113l-3.576.049c-.143,0-.213-.067-.213-.2V10.612c0-.134.07-.2.213-.2l3.576.05h8.308l3.588-.05a.178.178,0,0,1,.2.2Zm-2.707-2.908c0,.134-.071.2-.214.2l-3.059-.051h-4.2l-3.072.051a.178.178,0,0,1-.2-.2l.05-2.216V3.7l-.05-2.24a.178.178,0,0,1,.2-.2l3.072.051h4.2l3.059-.051c.143,0,.214.067.214.2l-.05,2.24V6.495Zm-1.5-4.23V2.518h-7.767V4.481Zm0,3.172V5.64h-7.767V7.653Z"/>
          <path id="パス_2938" data-name="パス 2938" d="M547.534,9.869a3.852,3.852,0,0,0-.718,1.032c-.126.278-.239.416-.34.416a.928.928,0,0,1-.4-.151,24.6,24.6,0,0,1-10.914-8.875,28.088,28.088,0,0,1-10.486,9.026,1.469,1.469,0,0,1-.39.151c-.076,0-.189-.121-.34-.365a3.411,3.411,0,0,0-.793-.918A23.259,23.259,0,0,0,533.724,1.46,6.577,6.577,0,0,0,534.441,0q.971.152,1.6.3.364.114.364.289a.385.385,0,0,1-.189.3l-.226.213A24.309,24.309,0,0,0,547.534,9.869ZM542.662,23.05c0,.134-.076.2-.227.2h-1.221a.178.178,0,0,1-.2-.2V21.992H529.57v1.183c0,.127-.068.189-.2.189h-1.247c-.134,0-.2-.062-.2-.189l.05-4.481V16.6l-.05-2.9a.178.178,0,0,1,.2-.2l3.563.051H538.9l3.537-.051c.151,0,.227.068.227.2l-.051,2.531V18.6Zm-1.649-2.455v-5.64H529.57v5.64Zm-.466-10.537a.178.178,0,0,1-.2.2l-3.022-.05h-4.116l-3.021.05a.178.178,0,0,1-.2-.2V8.938a.179.179,0,0,1,.2-.2l3.021.05h4.116l3.022-.05a.179.179,0,0,1,.2.2Z"/>
          <path id="パス_2939" data-name="パス 2939" d="M556.708,8.145q.6-2.316.944-3.815a9.247,9.247,0,0,0,.239-2.064V1.851a11.677,11.677,0,0,1,2,.691.4.4,0,0,1,.264.365.435.435,0,0,1-.164.316,1.932,1.932,0,0,0-.428.842l-1.107,3.866a20.983,20.983,0,0,1,2.5-.176,2.993,2.993,0,0,1,2.619,1.1,5.38,5.38,0,0,1,.73,3.133,20.509,20.509,0,0,1-1.422,8.4,3.069,3.069,0,0,1-2.946,2.039,6.439,6.439,0,0,1-2.619-.466.433.433,0,0,1-.314-.44,4.663,4.663,0,0,0-.3-1.548,7.541,7.541,0,0,0,2.983.729,1.586,1.586,0,0,0,1.019-.3,2.791,2.791,0,0,0,.718-1.045,19.039,19.039,0,0,0,1.158-7.39,3.972,3.972,0,0,0-.428-2.2,1.564,1.564,0,0,0-1.346-.528,17.16,17.16,0,0,0-2.795.277,70.568,70.568,0,0,1-5.25,12.2.3.3,0,0,1-.264.164.426.426,0,0,1-.176-.038,5.411,5.411,0,0,1-1.033-.692.29.29,0,0,1-.113-.214.488.488,0,0,1,.063-.2,56.738,56.738,0,0,0,4.947-10.978q-1.4.2-3.411.567a3.28,3.28,0,0,0-1.133.328.618.618,0,0,1-.327.125.379.379,0,0,1-.34-.252,9.954,9.954,0,0,1-.592-1.75h.478a15.771,15.771,0,0,0,2.2-.138Q554.367,8.483,556.708,8.145Zm9.126-.781a10.831,10.831,0,0,1,1.158-.8.439.439,0,0,1,.139-.026.393.393,0,0,1,.251.126,14.278,14.278,0,0,1,4.155,6.244.891.891,0,0,1,.038.214.3.3,0,0,1-.114.227,4.946,4.946,0,0,1-1.057.692.446.446,0,0,1-.227.075c-.117,0-.189-.075-.214-.226A14.464,14.464,0,0,0,565.834,7.364Zm.743-4.066.957-.705a.214.214,0,0,1,.113-.037.251.251,0,0,1,.138.075,11.093,11.093,0,0,1,2.908,3.109.2.2,0,0,1,.051.126.219.219,0,0,1-.088.164l-.756.616a.238.238,0,0,1-.151.064.2.2,0,0,1-.176-.113A10.518,10.518,0,0,0,566.577,3.3Zm2.266-1.736.831-.643a.3.3,0,0,1,.163-.076.158.158,0,0,1,.114.051A13.737,13.737,0,0,1,572.884,3.9a.26.26,0,0,1,.05.138c0,.051-.038.109-.113.177l-.7.617a.18.18,0,0,1-.138.075c-.051,0-.105-.041-.165-.125A11.256,11.256,0,0,0,568.843,1.562Z"/>
          <path id="パス_2940" data-name="パス 2940" d="M167.1,39.9a6.643,6.643,0,0,1,2.026.466c.168.084.252.185.252.3a.587.587,0,0,1-.151.365,2.526,2.526,0,0,0-.34,1.033q-.164.894-.264,1.674a55.658,55.658,0,0,0,7.163-1.107.383.383,0,0,1,.1-.014c.1,0,.172.068.214.2a3.715,3.715,0,0,1,.126.971.29.29,0,0,1-.289.314,58.869,58.869,0,0,1-7.541,1.133q-.24,2.456-.264,3.688a17.976,17.976,0,0,1,4.7-.73,6.025,6.025,0,0,0,.466-2.165,5.888,5.888,0,0,1,1.435.705q.315.226.315.4a5.729,5.729,0,0,1-.277.515c-.051.094-.122.219-.214.379-.076.134-.134.243-.176.326a6.8,6.8,0,0,1,4.443,2.267,5.462,5.462,0,0,1,1.31,3.663,5.646,5.646,0,0,1-2.568,4.771,13.4,13.4,0,0,1-4.91,2,1.043,1.043,0,0,1-.214.025.456.456,0,0,1-.4-.315,2.474,2.474,0,0,0-.906-.957,13.624,13.624,0,0,0,5.035-1.788,4.633,4.633,0,0,0,2.216-3.977,4.05,4.05,0,0,0-1.536-3.311,5.619,5.619,0,0,0-2.908-1.171,27.623,27.623,0,0,1-5,7.063q.087.327.541,1.447a.4.4,0,0,1,.038.151c0,.076-.055.156-.164.24a5.077,5.077,0,0,1-.957.515.519.519,0,0,1-.151.026c-.084,0-.147-.055-.189-.164a10.306,10.306,0,0,1-.44-1.234q-2.9,2.19-4.847,2.191a2.082,2.082,0,0,1-1.863-.881,3.062,3.062,0,0,1-.453-1.75,6.931,6.931,0,0,1,1.775-4.381,12.426,12.426,0,0,1,4.33-3.3q.063-1.662.214-4.13-1.989.1-3.172.1a6.876,6.876,0,0,1-1.209-.076.346.346,0,0,1-.34-.34q-.05-.327-.1-1.184,1.133.09,2.429.089,1.032,0,2.568-.063.189-1.625.24-2.266c.016-.26.025-.49.025-.692A4.406,4.406,0,0,0,167.1,39.9ZM166.579,51a9.932,9.932,0,0,0-3.563,3.134,5.122,5.122,0,0,0-.97,2.82q0,1.209,1.134,1.209,1.46,0,3.965-2.014A33.875,33.875,0,0,1,166.579,51Zm1.913,4.066a19.321,19.321,0,0,0,2.216-2.77,22.991,22.991,0,0,0,1.674-2.794,12.963,12.963,0,0,0-4.356.793A27.791,27.791,0,0,0,168.492,55.062Z"/>
          <path id="パス_2941" data-name="パス 2941" d="M187.141,39.9a6.915,6.915,0,0,1,1.8.617c.226.125.34.252.34.377a.594.594,0,0,1-.1.34,2.634,2.634,0,0,0-.466,1.008,37.092,37.092,0,0,0-.78,5.93c-.009.351-.013.658-.013.918a14.042,14.042,0,0,0,.114,1.989q.325-.644,1.007-1.951.691-1.347.906-1.75a3.458,3.458,0,0,0,.516,1.045.659.659,0,0,1,.113.327.833.833,0,0,1-.138.378,25.732,25.732,0,0,0-1.637,3.4,2.549,2.549,0,0,0-.176.83.6.6,0,0,1,.013.1.254.254,0,0,1-.189.264q-.328.063-1.234.175c-.117,0-.206-.088-.264-.263a14.465,14.465,0,0,1-.642-4.823,43.985,43.985,0,0,1,.6-6.054,20.083,20.083,0,0,0,.239-2.43C187.153,40.2,187.149,40.057,187.141,39.9Zm8.069.114a8.855,8.855,0,0,1,1.875.214q.4.075.4.365a1.39,1.39,0,0,1-.012.151,2.4,2.4,0,0,0-.076.692c0,.16,0,.331.013.517q.315,4.28.315,6.822,0,5.6-2.115,8.459a13.252,13.252,0,0,1-4.255,3.74.608.608,0,0,1-.315.113.564.564,0,0,1-.353-.163,3.488,3.488,0,0,0-1.309-.719,13.192,13.192,0,0,0,4.482-3.537,9.6,9.6,0,0,0,1.661-3.5,17.6,17.6,0,0,0,.454-4.306q0-2.958-.252-6.142A12.117,12.117,0,0,0,195.21,40.019Z"/>
          <path id="パス_2942" data-name="パス 2942" d="M212.614,55.087q-.126-2.165-.152-3.89-1.3.051-2.5.05-1.888,0-3.425-.125c-.168,0-.264-.105-.289-.314a9.068,9.068,0,0,1-.076-1.31,35.732,35.732,0,0,0,4.205.227q1.069,0,2.026-.05l-.024-3.84q-1.437.062-2.682.062-2.228,0-4.142-.189a.279.279,0,0,1-.239-.251,10.775,10.775,0,0,1-.1-1.347,37.6,37.6,0,0,0,4.658.264q1.184,0,2.506-.062l-.026-2.708a6.478,6.478,0,0,0-.226-1.7,10.342,10.342,0,0,1,2.039.34.379.379,0,0,1,.29.378.4.4,0,0,1-.063.214,2.429,2.429,0,0,0-.3,1.184c-.017.208-.046.957-.088,2.24a58.815,58.815,0,0,0,6.294-.856,1.08,1.08,0,0,1,.126-.012c.093,0,.147.067.164.2a9.454,9.454,0,0,1,.076,1.133q0,.252-.177.252a64.178,64.178,0,0,1-6.483.754q0,2.608.038,3.815a44.457,44.457,0,0,0,5.69-.742.381.381,0,0,1,.126-.026c.084,0,.138.051.164.151l.025,1.234c0,.15-.088.239-.265.264a47.777,47.777,0,0,1-5.69.693q0,1.776.177,4.268a20.743,20.743,0,0,1,6.885,3.322.325.325,0,0,1,.139.252.543.543,0,0,1-.038.189,2.961,2.961,0,0,1-.642,1.108.307.307,0,0,1-.226.138.34.34,0,0,1-.164-.062,19.965,19.965,0,0,0-5.879-3.274,3.671,3.671,0,0,1-1.284,3.223,7.265,7.265,0,0,1-6.886-.126,2.559,2.559,0,0,1-1.007-2.139,2.682,2.682,0,0,1,1.422-2.317,6.054,6.054,0,0,1,3.324-.831A15.44,15.44,0,0,1,212.614,55.087Zm.025,1.536a12.663,12.663,0,0,0-2.732-.327,4.957,4.957,0,0,0-2.543.528,1.261,1.261,0,0,0-.705,1.095q0,1.6,2.883,1.6a3.356,3.356,0,0,0,2.631-.807,2.619,2.619,0,0,0,.478-1.686C212.651,56.908,212.647,56.774,212.639,56.623Z"/>
          <path id="パス_2943" data-name="パス 2943" d="M237.1,44.034q-.014-.427-.025-1.359-.014-.6-.025-1.045A8.414,8.414,0,0,0,236.8,39.9a12.537,12.537,0,0,1,1.951.289c.311.084.466.211.466.379a1.123,1.123,0,0,1-.176.465,1.608,1.608,0,0,0-.177.705q-.063.567-.063,2.191,2.871-.088,8.259-.088c.184,0,.276.1.276.29V45.23c0,.177-.109.265-.327.265q-2.4-.076-4.33-.076-2,0-3.878.076,0,3.285.026,5.01a10.69,10.69,0,0,1,.314,2.707q0,5.124-5.022,7.653a1.351,1.351,0,0,1-.592.227.739.739,0,0,1-.466-.2,3.37,3.37,0,0,0-1.183-.718q5.223-1.977,5.614-6.182a3.021,3.021,0,0,1-2.832,1.461,3.276,3.276,0,0,1-2.505-1.019,3.689,3.689,0,0,1-.907-2.606,3.449,3.449,0,0,1,3.538-3.588,3.117,3.117,0,0,1,2.417.868l-.051-3.512q-6.256.354-9.617.768a5.378,5.378,0,0,0-.756.177,1.725,1.725,0,0,1-.377.088c-.152,0-.252-.088-.3-.265a8.5,8.5,0,0,1-.416-1.636c.176.016.365.025.566.025q.655,0,2.682-.177Q232.418,44.311,237.1,44.034Zm-2.19,5.488a2.03,2.03,0,0,0-1.574.68,2.22,2.22,0,0,0-.567,1.562,2.175,2.175,0,0,0,.693,1.712,2,2,0,0,0,1.4.5,2.251,2.251,0,0,0,1.788-.781,2.2,2.2,0,0,0,.554-1.484,2.053,2.053,0,0,0-.73-1.65A2.316,2.316,0,0,0,234.912,49.522Z"/>
          <path id="パス_2944" data-name="パス 2944" d="M260.985,44.085a33.161,33.161,0,0,1-1.384,6.659,20.508,20.508,0,0,1-2.015,4.608q-1.56,2.655-3.789,2.656a3.2,3.2,0,0,1-2.744-1.725,7.651,7.651,0,0,1-1.02-4.13,8.775,8.775,0,0,1,.882-3.789,9.533,9.533,0,0,1,2.114-2.894,10.876,10.876,0,0,1,7.73-2.858,9.348,9.348,0,0,1,7.074,2.606,7.89,7.89,0,0,1,2.128,5.7,8.1,8.1,0,0,1-2.278,5.84,12.042,12.042,0,0,1-5.917,3.148.908.908,0,0,1-.226.037.511.511,0,0,1-.441-.314,2.924,2.924,0,0,0-1.007-.957A11.057,11.057,0,0,0,266.3,55.6a7.136,7.136,0,0,0,1.838-5,6.186,6.186,0,0,0-2.191-4.921,6.633,6.633,0,0,0-4.468-1.6Zm-1.8.1a8.381,8.381,0,0,0-5.022,2.366,7.623,7.623,0,0,0-2.48,5.577,5.584,5.584,0,0,0,.78,3.2,1.619,1.619,0,0,0,1.309.831q1.321,0,2.392-1.888a22.835,22.835,0,0,0,1.989-4.846A27.241,27.241,0,0,0,259.185,44.186Z"/>
          <path id="パス_2945" data-name="パス 2945" d="M273.462,45.205a24.984,24.984,0,0,0,3.2-.3q7.188-1.158,15.987-2.254h.089a.331.331,0,0,1,.352.215,5.8,5.8,0,0,1,.151,1.283c0,.186-.113.29-.34.315a11.724,11.724,0,0,0-3.764.768,11.506,11.506,0,0,0-4.96,3.613,7.212,7.212,0,0,0-1.686,4.508q0,5.235,7.5,5.853.416.038.416.289a6.178,6.178,0,0,1-.151,1.234c-.05.243-.164.365-.34.365h-.076a12.355,12.355,0,0,1-6.495-2.165,6.28,6.28,0,0,1-2.556-5.287q0-5.437,6.282-8.762l-.026-.051q-7.074,1.122-10.461,1.826a6.7,6.7,0,0,0-1.548.44,2.71,2.71,0,0,1-.491.177.415.415,0,0,1-.365-.227A15.558,15.558,0,0,1,273.462,45.205Zm15.774,3.941.957-.693a.183.183,0,0,1,.113-.038.285.285,0,0,1,.151.063,11.268,11.268,0,0,1,2.908,3.123.193.193,0,0,1,.051.113.189.189,0,0,1-.1.163l-.743.63a.3.3,0,0,1-.164.062.193.193,0,0,1-.176-.113A10.623,10.623,0,0,0,289.236,49.146Zm2.279-1.713.818-.655a.344.344,0,0,1,.164-.062.2.2,0,0,1,.126.051,13.97,13.97,0,0,1,2.945,3.007.305.305,0,0,1,.038.127c0,.059-.043.118-.126.176l-.692.629a.222.222,0,0,1-.139.063c-.059,0-.118-.041-.176-.125A11.438,11.438,0,0,0,291.515,47.433Z"/>
          <path id="パス_2946" data-name="パス 2946" d="M299.514,52.507q.4.2,1.133.629c.093.043.139.1.139.164a.287.287,0,0,1-.063.164,3.977,3.977,0,0,0-.692,2.014q0,3.146,6.6,3.146a32.333,32.333,0,0,0,7.4-.742.683.683,0,0,1,.151-.026c.1,0,.168.068.2.2a9.749,9.749,0,0,1,.24,1.335v.063c0,.134-.114.227-.34.276a39.483,39.483,0,0,1-7.8.667q-8.019,0-8.019-4.846A5.484,5.484,0,0,1,299.514,52.507Zm.718-9.606a30.679,30.679,0,0,0,6.445.579q3.021,0,5.7-.226h.088a.254.254,0,0,1,.277.239,7.941,7.941,0,0,1,.075,1.158.357.357,0,0,1-.364.391,16.578,16.578,0,0,0-6.672,2.933.677.677,0,0,1-.4.151.568.568,0,0,1-.328-.1A2.948,2.948,0,0,0,304,47.509a34.1,34.1,0,0,1,4.443-2.58q-1.145.1-2.794.1a25.376,25.376,0,0,1-5.237-.465c-.151-.025-.226-.142-.226-.353Q300.182,43.771,300.232,42.9Zm12.148-2.039.932-.679a.251.251,0,0,1,.138-.051.227.227,0,0,1,.138.062A11.112,11.112,0,0,1,316.5,43.3a.2.2,0,0,1,.05.127.214.214,0,0,1-.088.163l-.755.616a.229.229,0,0,1-.151.063.224.224,0,0,1-.189-.113A10.6,10.6,0,0,0,312.38,40.862Zm2.266-1.737.831-.642a.278.278,0,0,1,.163-.063.191.191,0,0,1,.113.05,13.6,13.6,0,0,1,2.946,3.009.235.235,0,0,1,.038.125.238.238,0,0,1-.113.177l-.7.63a.2.2,0,0,1-.139.063c-.058,0-.113-.042-.163-.126A11.526,11.526,0,0,0,314.646,39.125Z"/>
          <path id="パス_2947" data-name="パス 2947" d="M341.752,41.718a.421.421,0,0,1-.289.428,4.59,4.59,0,0,0-.881.591,47.66,47.66,0,0,1-7.6,5.49v7.251l.05,3.248a3.44,3.44,0,0,1-.252,1.472,2.484,2.484,0,0,1-.567.693,3.225,3.225,0,0,1-1.85.616q-.742.076-2.757.076a.925.925,0,0,1-.491-.076,1.6,1.6,0,0,1-.163-.465,3.138,3.138,0,0,0-.542-1.26q1.233.126,3.487.127,1.422,0,1.423-1.574V50.14a20.243,20.243,0,0,0-.239-3.688q.289.05,1.523.176a41.01,41.01,0,0,0,6.344-4.582H326.206l-3.563.05c-.134,0-.2-.075-.2-.227V40.647a.178.178,0,0,1,.2-.2l3.563.051H339.4a1.771,1.771,0,0,0,.706-.1.607.607,0,0,1,.251-.075q.227,0,.768.541Q341.753,41.478,341.752,41.718Z"/>
          <path id="パス_2948" data-name="パス 2948" d="M350.841,47.333a.386.386,0,0,1-.2.314,1.1,1.1,0,0,0-.39.643A22.723,22.723,0,0,1,344.4,59.48a1.206,1.206,0,0,1-.365.252q-.089,0-.353-.3a2.6,2.6,0,0,0-.856-.756q4.431-3.826,6.131-10.9h-2.594l-2.253.05a.177.177,0,0,1-.2-.2V46.59c0-.159.067-.239.2-.239l2.253.05H348.9a1.32,1.32,0,0,0,.466-.05.867.867,0,0,1,.315-.1c.134,0,.357.147.667.44C350.677,47.019,350.841,47.231,350.841,47.333Zm11.443-5.665q0,.227-.315.314a4.011,4.011,0,0,0-1.019.642,36.5,36.5,0,0,1-5.338,3.449v2.065h.466l2.392-.05c.126,0,.189.067.189.2v.931c0,.134-.063.2-.189.2l-2.392-.051h-.466v2.316h.768l2.631-.05c.142,0,.214.067.214.2v.906c0,.135-.072.2-.214.2l-2.631-.05h-.768v2.429h1.7l3.2-.05a.178.178,0,0,1,.2.2v.931a.177.177,0,0,1-.2.2l-3.2-.05h-1.7l.051,2.807a2.079,2.079,0,0,1-.542,1.624,4.765,4.765,0,0,1-2.857.554c-.244,0-.513,0-.806-.013a.867.867,0,0,1-.466-.075,1.731,1.731,0,0,1-.176-.466,3.572,3.572,0,0,0-.542-1.107,19.631,19.631,0,0,0,2.657.15,1.53,1.53,0,0,0,.956-.214.91.91,0,0,0,.252-.729V56.56h-1.7l-3.2.05c-.159,0-.239-.066-.239-.2v-.931c0-.135.08-.2.239-.2l3.2.05h1.7V52.9h-.831l-2.656.05a.178.178,0,0,1-.2-.2v-.906a.178.178,0,0,1,.2-.2l2.656.05h.831V49.372h-.566l-2.38.051c-.117,0-.176-.068-.176-.2V48.29c0-.135.059-.2.176-.2l2.38.05h.566v-.567a16.56,16.56,0,0,0-.176-2.945l1.158.239a32.758,32.758,0,0,0,4.57-3.1h-8.774l-3.538.05a.178.178,0,0,1-.2-.2v-1.1a.178.178,0,0,1,.2-.2l3.538.05h9.076a1.617,1.617,0,0,0,.717-.1.7.7,0,0,1,.29-.077c.143,0,.382.182.717.542A1.8,1.8,0,0,1,362.284,41.668Zm4.645,16.881a3.679,3.679,0,0,0-.957.844c-.151.21-.264.314-.34.314s-.2-.1-.377-.314a21.172,21.172,0,0,1-4.1-6.068,29.177,29.177,0,0,1-2.09-7.176.774.774,0,0,1-.012-.113c0-.076.117-.142.352-.2l.667-.177a.7.7,0,0,1,.2-.05c.059,0,.1.055.113.163a37.2,37.2,0,0,0,.894,3.978,28.98,28.98,0,0,0,2.971-3.223,5.681,5.681,0,0,0,.742-1.232,7.514,7.514,0,0,1,1.184.906.614.614,0,0,1,.239.377c0,.117-.093.223-.277.315a3.918,3.918,0,0,0-1.07.957,41.068,41.068,0,0,1-3.3,3.348A18.616,18.616,0,0,0,366.929,58.549Z"/>
          <path id="パス_2949" data-name="パス 2949" d="M379.61,39.9a10.693,10.693,0,0,1,1.661,1.235.528.528,0,0,1,.177.339.4.4,0,0,1-.252.34,3.418,3.418,0,0,0-.957.666q-5.337,4.9-7.6,7.328a.968.968,0,0,0-.365.641c0,.16.113.315.34.467a81.162,81.162,0,0,1,9.932,8.559c.109.119.164.2.164.252a.465.465,0,0,1-.139.265,10.583,10.583,0,0,1-.969.969.488.488,0,0,1-.252.126c-.076,0-.155-.059-.239-.177a68.726,68.726,0,0,0-9.718-8.786,2.136,2.136,0,0,1-1.007-1.624,2.63,2.63,0,0,1,.906-1.674q1.3-1.386,3.764-3.852,3.033-3.072,3.424-3.475A6.6,6.6,0,0,0,379.61,39.9Z"/>
          <path id="パス_2950" data-name="パス 2950" d="M396.433,45.294a32.46,32.46,0,0,0,4.1-1.059.372.372,0,0,1,.126-.025c.1,0,.159.068.176.2q.087.49.138,1.058v.1c0,.152-.088.247-.264.29q-2.594.705-4.671,1.057a116.65,116.65,0,0,1-4.947,13.91c-.059.135-.13.2-.214.2a.457.457,0,0,1-.176-.049,9.163,9.163,0,0,1-1.208-.567.237.237,0,0,1-.126-.214.305.305,0,0,1,.025-.113,83.483,83.483,0,0,0,4.821-12.891q-2.517.278-5.212.315c-.234,0-.373-.088-.415-.264-.084-.621-.151-1.092-.2-1.41q.49.05,1.624.05a36.994,36.994,0,0,0,4.645-.315q.465-1.774.755-3.248a11.941,11.941,0,0,0,.214-2.026,2.745,2.745,0,0,0-.025-.391,9.241,9.241,0,0,1,2.077.592.278.278,0,0,1,.2.277.739.739,0,0,1-.2.415,2.607,2.607,0,0,0-.415,1.007q-.165.543-.453,1.674Q396.571,44.815,396.433,45.294Zm1.6,10.9a7.467,7.467,0,0,1,1.209-.125.264.264,0,0,1,.289.252,2.859,2.859,0,0,0,1.448,2.518,7.715,7.715,0,0,0,3.424.578,26.6,26.6,0,0,0,3.814-.34c.068-.008.114-.012.139-.012.1,0,.159.063.176.189a7.9,7.9,0,0,1,.1,1.246.288.288,0,0,1-.29.327,20.581,20.581,0,0,1-3.373.265q-4.117,0-5.678-1.423A4.452,4.452,0,0,1,398.031,56.194Zm1.939-5.412a10.433,10.433,0,0,1-.088-1.373.385.385,0,0,1,.34-.389,20.683,20.683,0,0,1,4.507-.542,25.577,25.577,0,0,1,3.2.265q.353.05.39.277a7.66,7.66,0,0,1,.038.805c0,.126,0,.235-.013.327-.016.236-.088.353-.214.353a.544.544,0,0,1-.113-.013,20.429,20.429,0,0,0-3.311-.29A22,22,0,0,0,399.97,50.782Zm4.3-8.41.944-.691a.22.22,0,0,1,.114-.038.27.27,0,0,1,.151.063,11.289,11.289,0,0,1,2.908,3.121.16.16,0,0,1,.05.113.184.184,0,0,1-.1.164l-.742.618a.256.256,0,0,1-.164.062.211.211,0,0,1-.176-.113A10.59,10.59,0,0,0,404.275,42.372Zm2.266-1.725.818-.64a.3.3,0,0,1,.164-.076.2.2,0,0,1,.126.05,14.026,14.026,0,0,1,2.946,3.008.3.3,0,0,1,.037.126.267.267,0,0,1-.125.189l-.693.617a.206.206,0,0,1-.138.076c-.059,0-.118-.043-.176-.127A11.635,11.635,0,0,0,406.541,40.647Z"/>
          <path id="パス_2951" data-name="パス 2951" d="M421.657,45.167q-.567-1.408-1.183-3.021a7.886,7.886,0,0,0-1.083-2.014,15.421,15.421,0,0,1,2.04-.227c.36,0,.541.131.541.391l-.013.289a1.6,1.6,0,0,0,.038.378,8.221,8.221,0,0,0,.466,1.725q.376,1.058.843,2.165a41.281,41.281,0,0,0,5.652-1.649.555.555,0,0,1,.151-.025.233.233,0,0,1,.214.164,5.048,5.048,0,0,1,.328,1.133.572.572,0,0,1,.013.1.215.215,0,0,1-.139.227q-2.3.782-5.577,1.549a24.751,24.751,0,0,0,4.28,6.319,5.294,5.294,0,0,0,.705.567c.118.067.176.143.176.227a.556.556,0,0,1-.075.289c-.176.293-.4.634-.667,1.019q-.215.264-.34.264a.865.865,0,0,1-.315-.15c-.151-.11-.458-.3-.919-.567a12.53,12.53,0,0,0-5.854-1.4,6.4,6.4,0,0,0-3.713.893,2.434,2.434,0,0,0-1.083,2.116q0,1.85,2.329,2.731a13.372,13.372,0,0,0,4.632.681,19.38,19.38,0,0,0,3.714-.316,7.592,7.592,0,0,1-.339,1.675.433.433,0,0,1-.328.264,28.678,28.678,0,0,1-2.971.126,12.846,12.846,0,0,1-6.42-1.36,4.088,4.088,0,0,1-2.266-3.688,3.876,3.876,0,0,1,2.1-3.563,8.485,8.485,0,0,1,4.292-.982,13.2,13.2,0,0,1,5.464,1.171,23.593,23.593,0,0,1-3.966-5.991q-2.518.427-5.552.64-1.257.09-1.825.089c-.134,0-.256-.005-.364-.012-.126,0-.228-.1-.3-.3a7.349,7.349,0,0,1-.289-1.334q.68.026,1.271.025t1.284-.037A45.521,45.521,0,0,0,421.657,45.167Z"/>
          <path id="パス_2952" data-name="パス 2952" d="M435.463,42.737a6.37,6.37,0,0,1,2.039.542c.151.075.227.172.227.29a2.458,2.458,0,0,1-.1.465,8.96,8.96,0,0,0-.2,2.367,45.672,45.672,0,0,0,.365,5.854,10.643,10.643,0,0,0,1.145,3.939q.73,1.31,1.586,1.31,1.486,0,2.757-4.04a3.458,3.458,0,0,0,.844,1.283.625.625,0,0,1,.239.466.8.8,0,0,1-.025.188,8.148,8.148,0,0,1-1.687,2.947,2.963,2.963,0,0,1-2.165,1.094q-1.687,0-2.921-2.253A14.372,14.372,0,0,1,436.13,52.4a51.633,51.633,0,0,1-.466-7.187A12.942,12.942,0,0,0,435.463,42.737Zm13.2,3.223a11.443,11.443,0,0,1,1.133-.691.5.5,0,0,1,.227-.064.2.2,0,0,1,.151.064,15.256,15.256,0,0,1,5.035,8.924v.064a.325.325,0,0,1-.189.276,5.57,5.57,0,0,1-1.183.592.384.384,0,0,1-.1.013c-.134,0-.214-.076-.239-.227A15.509,15.509,0,0,0,448.668,45.96Z"/>
          <path id="パス_2953" data-name="パス 2953" d="M461.089,55.427a3.53,3.53,0,0,1,2.7,1.183,3.528,3.528,0,0,1-.265,5.061,3.569,3.569,0,0,1-2.43.919,3.529,3.529,0,0,1-2.693-1.183,3.528,3.528,0,0,1,.264-5.06A3.56,3.56,0,0,1,461.089,55.427Zm0,1.284a2.233,2.233,0,0,0-1.712.755,2.265,2.265,0,0,0-.591,1.549,2.3,2.3,0,1,0,3.852-1.712A2.229,2.229,0,0,0,461.089,56.711Z"/>
          <path id="パス_2954" data-name="パス 2954" d="M11.216,89.228l9.719,9.693-.768.767L10.436,90,.768,99.688,0,98.921l9.668-9.693L.05,79.609l.781-.78,9.6,9.617,9.617-9.617.781.78ZM3.487,87.313a1.855,1.855,0,0,1,1.435.643,1.842,1.842,0,0,1,.491,1.283,1.785,1.785,0,0,1-.629,1.4,1.9,1.9,0,0,1-1.3.49,1.817,1.817,0,0,1-1.41-.629,1.814,1.814,0,0,1-.478-1.26,1.849,1.849,0,0,1,.616-1.422A1.806,1.806,0,0,1,3.487,87.313Zm6.949-6.96a1.907,1.907,0,1,1-1.41,3.184,1.906,1.906,0,0,1,1.41-3.184Zm0,13.921a1.819,1.819,0,0,1,1.422.643,1.873,1.873,0,0,1,.491,1.284,1.794,1.794,0,0,1-.629,1.409,1.866,1.866,0,0,1-1.284.479,1.836,1.836,0,0,1-1.41-.616A1.806,1.806,0,0,1,8.535,96.2a1.861,1.861,0,0,1,.63-1.423A1.8,1.8,0,0,1,10.436,94.274Zm6.974-6.961a1.821,1.821,0,0,1,1.423.643,1.877,1.877,0,0,1,.478,1.283,1.8,1.8,0,0,1-.617,1.4,1.926,1.926,0,0,1-2.707-.139,1.79,1.79,0,0,1-.491-1.26,1.931,1.931,0,0,1,1.914-1.926Z"/>
          <path id="パス_2955" data-name="パス 2955" d="M46.9,82.089c0,.135-.063.2-.189.2l-3.6-.05H28.771v3.713a42.835,42.835,0,0,1-.541,7.73,20.861,20.861,0,0,1-2.341,6.37c-.143.226-.231.34-.264.34s-.144-.1-.328-.29a3.835,3.835,0,0,0-1.032-.744,18.233,18.233,0,0,0,2.442-6.294,41.853,41.853,0,0,0,.491-7.313l-.051-4.783a.178.178,0,0,1,.2-.2l3.663.049h4.872V79.534a11.164,11.164,0,0,0-.151-2.09,11.657,11.657,0,0,1,1.7.126c.21.025.315.093.315.2a1,1,0,0,1-.151.492,3.356,3.356,0,0,0-.138,1.246v1.308H43.11l3.6-.049c.126,0,.189.067.189.2Zm-.843,5.9c0,.135-.072.2-.215.2l-3.008-.049h-5.01v3.688h3.121l3.513-.051a.178.178,0,0,1,.2.2l-.05,2.229v2.027l.05,4.078a.178.178,0,0,1-.2.2h-1.2a.178.178,0,0,1-.2-.2v-.906H32.435v1.058a.157.157,0,0,1-.177.177h-1.17c-.135,0-.2-.06-.2-.177l.051-4.129v-1.8l-.051-2.557a.179.179,0,0,1,.2-.2l3.487.051H36.3V86.181a20.081,20.081,0,0,0-.151-3,14.047,14.047,0,0,1,1.649.164c.21.025.315.091.315.2a2.117,2.117,0,0,1-.164.515,8.921,8.921,0,0,0-.125,2.065v.617h5.01l3.008-.051c.143,0,.215.069.215.2Zm-3,10.022v-4.81H32.435v4.81Z"/>
          <path id="パス_2956" data-name="パス 2956" d="M59.579,82.14a2.957,2.957,0,0,0-.668.818c-.134.26-.231.391-.289.391a.748.748,0,0,1-.328-.2,17.14,17.14,0,0,1-3.2-3.222,21.042,21.042,0,0,1-5.061,5.337.637.637,0,0,1-.3.176q-.113,0-.264-.339a3.085,3.085,0,0,0-.592-.87A16.987,16.987,0,0,0,54.216,78.6a3.077,3.077,0,0,0,.277-.793,7.72,7.72,0,0,1,1.435.515q.252.126.252.252c0,.093-.072.181-.215.265l-.1.075A13.354,13.354,0,0,0,59.579,82.14Zm-.1,8.459c0,.118-.067.176-.2.176l-2.845-.049H52.818l-2.832.049c-.134,0-.2-.058-.2-.176v-.982a.178.178,0,0,1,.2-.2l2.832.05h1.4V86.7H53.75l-2.266.064c-.159,0-.239-.072-.239-.214v-.957c0-.134.08-.2.239-.2l2.266.05h.466v-.39a12.349,12.349,0,0,0-.176-2.393,13.476,13.476,0,0,1,1.548.153c.209.024.314.1.314.213a1.582,1.582,0,0,1-.163.492,5.019,5.019,0,0,0-.126,1.409v.516h.466l2.291-.05a.178.178,0,0,1,.2.2v.957c0,.142-.067.214-.2.214L56.079,86.7h-.466v2.77h.818l2.845-.05a.178.178,0,0,1,.2.2Zm-.944,9.455c0,.134-.072.2-.215.2H57.262a.178.178,0,0,1-.2-.2v-.932h-4.6v1.258c0,.142-.068.215-.2.215H51.207a.19.19,0,0,1-.214-.215l.05-3.7V95.132l-.05-2.166a.177.177,0,0,1,.2-.2l2.4.025h2.329l2.4-.025a.178.178,0,0,1,.2.2l-.051,1.8V96.44Zm-1.473-2.166v-3.84h-4.6v3.84ZM72.57,82.114a.178.178,0,0,1-.2.2l-3.336-.049H66.691v2.555h1.775l3.21-.05a.178.178,0,0,1,.2.2l-.05,3.6v5.854l.025,3.927a2.142,2.142,0,0,1-.516,1.624,3.446,3.446,0,0,1-2.14.441c-.269,0-.428-.025-.478-.076a1.017,1.017,0,0,1-.139-.391,2.715,2.715,0,0,0-.39-1.031q.969.075,1.523.074c.478,0,.718-.3.718-.906V94.351H66.691V96.39l.05,3.916q0,.213-.2.213h-1.1c-.134,0-.2-.071-.2-.213l.05-3.916V94.351H61.882v2.24l.051,3.852a.18.18,0,0,1-.2.2h-1.07c-.151,0-.226-.069-.226-.2l.05-3.877v-8.12l-.05-3.474c0-.134.075-.2.226-.2l3.172.05h1.46V82.266H63.317l-3.348.049a.178.178,0,0,1-.2-.2V81.083c0-.143.067-.215.2-.215l3.348.051h1.976v-.2a21.447,21.447,0,0,0-.176-3.148,14.753,14.753,0,0,1,1.549.152c.184.033.277.1.277.213a1.417,1.417,0,0,1-.1.466,9.137,9.137,0,0,0-.151,2.215v.3h2.341l3.336-.051c.134,0,.2.072.2.215Zm-7.277,6.849V86.08H61.882v2.883Zm0,4.179V90.171H61.882v2.971Zm5.137-4.179V86.08H66.691v2.883Zm0,4.179V90.171H66.691v2.971Zm.982-13.381a.25.25,0,0,1,.05.113c0,.042-.05.109-.151.2l-.592.466a.5.5,0,0,1-.239.126c-.042,0-.092-.042-.151-.126a13.673,13.673,0,0,0-1.913-2.015c-.068-.058-.1-.1-.1-.125,0-.05.05-.113.151-.189l.516-.377a.53.53,0,0,1,.226-.113.306.306,0,0,1,.164.075A14.816,14.816,0,0,1,71.412,79.761Z"/>
          <path id="パス_2957" data-name="パス 2957" d="M78.091,79.9a7.839,7.839,0,0,1,1.687.692c.243.143.365.281.365.416a.8.8,0,0,1-.177.44,3.934,3.934,0,0,0-.516,1.361,39.324,39.324,0,0,0-1.208,8.9,20.882,20.882,0,0,0,.39,4.431q.189-.439.957-2.19.542-1.184.944-2.166a11.406,11.406,0,0,0,.617,1.033.352.352,0,0,1,.138.251,1.06,1.06,0,0,1-.125.415Q80.066,96,79.5,97.573a1.547,1.547,0,0,0-.1.643l.05.566a.214.214,0,0,1-.176.239,6.333,6.333,0,0,1-1.158.251c-.135,0-.231-.084-.289-.251a16.062,16.062,0,0,1-.894-3.713,27.741,27.741,0,0,1-.265-3.764,47.488,47.488,0,0,1,1.058-8.787A17.072,17.072,0,0,0,78.091,79.9ZM83.73,92.966l1.4-.1a.047.047,0,0,1,.038-.012c.092,0,.138.087.138.264q.112,2.832,4.7,2.832a40.021,40.021,0,0,0,5.073-.352.811.811,0,0,1,.1-.012q.164,0,.189.264c.051.613.076,1.015.076,1.209,0,.125-.017.2-.051.226a.637.637,0,0,1-.289.088,40.683,40.683,0,0,1-4.607.277,12.752,12.752,0,0,1-3.677-.416,4.354,4.354,0,0,1-2-1.209A4.261,4.261,0,0,1,83.73,92.966Zm.907-8.283q0-1.108.025-1.411a.341.341,0,0,1,.3-.365,35.027,35.027,0,0,1,5.464-.465q2.5,0,3.663.125.39.039.39.265,0,.819-.025,1.208,0,.24-.189.24h-.1q-1.248-.138-4.142-.138A31.736,31.736,0,0,0,84.637,84.683Z"/>
          <path id="パス_2958" data-name="パス 2958" d="M109.561,84.821a27.272,27.272,0,0,0,6.307-1.258.219.219,0,0,1,.075-.013.184.184,0,0,1,.164.113,8.126,8.126,0,0,1,.415,1.309v.063a.2.2,0,0,1-.163.2,34.253,34.253,0,0,1-6.773,1.258,68.412,68.412,0,0,0,.491,7.113,26.538,26.538,0,0,1,7.352,3.323.274.274,0,0,1,.151.215.435.435,0,0,1-.025.125,3.673,3.673,0,0,1-.768,1.259.277.277,0,0,1-.164.1.244.244,0,0,1-.125-.05,24.756,24.756,0,0,0-6.345-3.273c0,.277-.009.515-.026.716a3.388,3.388,0,0,1-1.4,2.808,5.321,5.321,0,0,1-3.248.932,6.205,6.205,0,0,1-3.814-1.007,2.677,2.677,0,0,1-1.108-2.216,2.966,2.966,0,0,1,1.662-2.606,6.493,6.493,0,0,1,3.336-.818,18.439,18.439,0,0,1,2.782.177q-.415-4-.453-8.5l-.025-4.1a7.833,7.833,0,0,0-.239-2.115,10.548,10.548,0,0,1,2.039.34c.184.059.277.164.277.314a.578.578,0,0,1-.076.252,4.2,4.2,0,0,0-.252,1.348Q109.562,81.648,109.561,84.821ZM108.4,94.892a14.72,14.72,0,0,0-2.895-.3,4.735,4.735,0,0,0-2.644.63,1.5,1.5,0,0,0-.781,1.271q0,1.8,3.2,1.8a3.243,3.243,0,0,0,2.417-.844,2.678,2.678,0,0,0,.73-1.964A5.164,5.164,0,0,0,108.4,94.892Z"/>
          <path id="パス_2959" data-name="パス 2959" d="M124.948,78.577a6.909,6.909,0,0,1,1.8.617c.226.125.339.252.339.377a.593.593,0,0,1-.1.34,2.606,2.606,0,0,0-.466,1.008,37.218,37.218,0,0,0-.781,5.93c-.008.351-.012.658-.012.918a14.215,14.215,0,0,0,.113,1.989q.327-.643,1.007-1.951.693-1.347.906-1.75a3.517,3.517,0,0,0,.516,1.045.662.662,0,0,1,.114.327.833.833,0,0,1-.138.378,25.733,25.733,0,0,0-1.637,3.4,2.523,2.523,0,0,0-.176.83.581.581,0,0,1,.012.1.253.253,0,0,1-.189.263q-.327.063-1.233.176c-.118,0-.206-.088-.265-.263a14.494,14.494,0,0,1-.641-4.823,43.986,43.986,0,0,1,.6-6.054,20.082,20.082,0,0,0,.239-2.43C124.961,78.871,124.957,78.729,124.948,78.577Zm8.07.113a8.916,8.916,0,0,1,1.875.215q.4.075.4.365a1.386,1.386,0,0,1-.012.151,2.4,2.4,0,0,0-.076.692c0,.159,0,.331.013.517q.313,4.278.314,6.822,0,5.6-2.115,8.459a13.234,13.234,0,0,1-4.254,3.739.6.6,0,0,1-.315.114.564.564,0,0,1-.353-.163,3.488,3.488,0,0,0-1.309-.719,13.188,13.188,0,0,0,4.481-3.537,9.619,9.619,0,0,0,1.662-3.5,17.644,17.644,0,0,0,.454-4.306q0-2.958-.252-6.143A12.185,12.185,0,0,0,133.018,78.69Z"/>
          <path id="パス_2960" data-name="パス 2960" d="M153.432,80.188a.178.178,0,0,1-.2.2c-.024,0-.113,0-.264-.012-.537-.018-1.12-.029-1.75-.038v17.5l.051,2.757a.178.178,0,0,1-.2.2h-1.2a.178.178,0,0,1-.2-.2l.05-2.757V95.206a68.232,68.232,0,0,1-6.772,2.053,2.53,2.53,0,0,0-1.007.39.473.473,0,0,1-.34.151c-.093,0-.177-.092-.252-.278a15.424,15.424,0,0,1-.441-1.5,21.138,21.138,0,0,0,2.115-.365l.517-.1V80.34c-.6.009-1.125.02-1.587.038l-.478.012a.178.178,0,0,1-.2-.2V79.144c0-.151.067-.227.2-.227l3.273.051h5.2l3.285-.051c.135,0,.2.076.2.227Zm-3.714,3.928V80.34h-4.682v3.776Zm0,5.112V85.45h-4.682v3.778Zm0,4.556V90.562h-4.682v4.62Q147.679,94.5,149.718,93.784Zm15.195,5.275a3.418,3.418,0,0,0-.907.919c-.126.21-.231.314-.314.314a.775.775,0,0,1-.378-.227,24.263,24.263,0,0,1-4.645-4.909,24.554,24.554,0,0,1-5.539,5.061.93.93,0,0,1-.416.2c-.084,0-.2-.123-.339-.365a2.8,2.8,0,0,0-.743-.819,19.737,19.737,0,0,0,6.1-5.488,26.308,26.308,0,0,1-3.4-10.6q-.742.012-1.321.038l-.4.012c-.143,0-.214-.067-.214-.2V81.876c0-.118.071-.177.214-.177l3.084.05h5.992a1.258,1.258,0,0,0,.566-.075.5.5,0,0,1,.3-.1q.213,0,.755.541.467.467.466.731,0,.1-.264.4a2.313,2.313,0,0,0-.3.982,24.646,24.646,0,0,1-3.612,9.643A22.349,22.349,0,0,0,164.913,99.059ZM161.74,83.147h-5.9a24.523,24.523,0,0,0,2.833,9.252A22.61,22.61,0,0,0,161.74,83.147Z"/>
          <path id="パス_2961" data-name="パス 2961" d="M175.357,89.126c.017.16.025.265.025.314,0,.177-.147.336-.44.479q-1.473.695-2.732,1.234v3.2l.025,3.915a4.286,4.286,0,0,1-.163,1.384,1.3,1.3,0,0,1-.5.63,3.278,3.278,0,0,1-1.976.453c-.236,0-.479,0-.731-.013a.906.906,0,0,1-.49-.074,1.294,1.294,0,0,1-.164-.417,3.96,3.96,0,0,0-.491-1.158,17.473,17.473,0,0,0,1.989.1.923.923,0,0,0,.818-.315,1.745,1.745,0,0,0,.189-.944V91.745q-1.184.466-1.775.68a3.311,3.311,0,0,0-.982.49.532.532,0,0,1-.34.177c-.1,0-.184-.075-.252-.227a10.563,10.563,0,0,1-.465-1.573,16.543,16.543,0,0,0,2.266-.6l1.548-.542V84.507h-.856l-2.568.05c-.143,0-.214-.068-.214-.2V83.272a.189.189,0,0,1,.214-.213l2.568.049h.856v-2.05a17.315,17.315,0,0,0-.2-3.148,14.9,14.9,0,0,1,1.674.152c.227.025.34.091.34.2a1.424,1.424,0,0,1-.164.515,8.736,8.736,0,0,0-.151,2.242v2.088h.34l2.568-.049c.159,0,.239.071.239.213v1.083c0,.134-.08.2-.239.2l-2.568-.05h-.34v5.047q1.636-.666,3.147-1.435a3.974,3.974,0,0,0-.025.466C175.332,88.745,175.34,88.925,175.357,89.126ZM190.489,99.2a3.48,3.48,0,0,0-.781.97c-.118.242-.218.365-.3.365a1.747,1.747,0,0,1-.441-.177,19.827,19.827,0,0,1-5.073-4.1,24.131,24.131,0,0,1-6.244,4.344,1.4,1.4,0,0,1-.39.125c-.126,0-.26-.121-.4-.365a2.793,2.793,0,0,0-.8-.818,20.265,20.265,0,0,0,6.886-4.494,22.642,22.642,0,0,1-3.79-8.837,31.937,31.937,0,0,1-1.46,8.309,17.224,17.224,0,0,1-3.7,5.954c-.168.167-.277.251-.327.251q-.151,0-.39-.289a2.626,2.626,0,0,0-.856-.692,15.391,15.391,0,0,0,4.569-8.145,47.519,47.519,0,0,0,1.032-9.4l.051-1.7-2.9.05c-.151,0-.226-.067-.226-.2V79.22c0-.135.075-.2.226-.2l3.147.049h5.98a1.954,1.954,0,0,0,.68-.075.6.6,0,0,1,.2-.076q.227,0,.743.466c.31.286.466.5.466.641a.43.43,0,0,1-.252.366.916.916,0,0,0-.415.591q-.453,2.166-1.335,5.149h3.16a1.194,1.194,0,0,0,.491-.075.982.982,0,0,1,.315-.076q.227,0,.742.516c.294.311.441.526.441.643a.386.386,0,0,1-.177.3,1.8,1.8,0,0,0-.541.882,18.836,18.836,0,0,1-3.864,6.848A17.093,17.093,0,0,0,190.489,99.2Zm-3.047-11.758h-3.449l-.239.744c-.05.142-.126.213-.227.213a1.234,1.234,0,0,1-.2-.025l-.705-.1c-.261-.051-.391-.118-.391-.2a.619.619,0,0,1,.038-.164,65.074,65.074,0,0,0,2.027-7.414h-4.872q.567,8.309,4.519,13.469A16.562,16.562,0,0,0,187.442,87.439Z"/>
          <path id="パス_2962" data-name="パス 2962" d="M193.611,81.409a6.37,6.37,0,0,1,2.039.542c.152.075.227.172.227.29a2.377,2.377,0,0,1-.1.465,8.95,8.95,0,0,0-.2,2.367,45.852,45.852,0,0,0,.365,5.854,10.667,10.667,0,0,0,1.145,3.939q.73,1.31,1.587,1.31,1.485,0,2.757-4.04a3.465,3.465,0,0,0,.843,1.283.622.622,0,0,1,.239.466.754.754,0,0,1-.025.188A8.133,8.133,0,0,1,200.8,97.02a2.962,2.962,0,0,1-2.165,1.094q-1.687,0-2.921-2.253a14.4,14.4,0,0,1-1.435-4.784,51.8,51.8,0,0,1-.465-7.187A12.85,12.85,0,0,0,193.611,81.409Zm13.205,3.223a11.8,11.8,0,0,1,1.134-.692.5.5,0,0,1,.226-.063.2.2,0,0,1,.151.063,15.263,15.263,0,0,1,5.036,8.925v.064a.325.325,0,0,1-.189.276,5.6,5.6,0,0,1-1.184.592.381.381,0,0,1-.1.013c-.135,0-.214-.077-.24-.227A15.508,15.508,0,0,0,206.816,84.632Z"/>
          <path id="パス_2963" data-name="パス 2963" d="M215.377,81.989q2.127.2,4.947.2h9.127a2.89,2.89,0,0,0,1.3-.226.543.543,0,0,1,.3-.088.666.666,0,0,1,.366.113,6.3,6.3,0,0,1,1.158,1.057.584.584,0,0,1,.138.365.557.557,0,0,1-.214.428,2.473,2.473,0,0,0-.566.881,26.875,26.875,0,0,1-5.061,8.447,28.867,28.867,0,0,1-7.654,6.207.8.8,0,0,1-.44.15.548.548,0,0,1-.428-.2A4.3,4.3,0,0,0,217,98.454a24.88,24.88,0,0,0,8.334-6.369,23.629,23.629,0,0,0,4.847-8.246H220.3q-2.241,0-4.331.164h-.088q-.315,0-.378-.416c0-.066-.021-.344-.062-.83Q215.389,82.227,215.377,81.989ZM231,79.4l.906-.667a.24.24,0,0,1,.152-.064.28.28,0,0,1,.151.064,11.554,11.554,0,0,1,2.908,3.122.2.2,0,0,1,.05.125.219.219,0,0,1-.088.164l-.756.617a.233.233,0,0,1-.151.062.193.193,0,0,1-.176-.113A10.834,10.834,0,0,0,231,79.4Zm2.266-1.725.831-.643a.265.265,0,0,1,.164-.075.157.157,0,0,1,.113.051,13.856,13.856,0,0,1,2.945,3.02.239.239,0,0,1,.038.127.271.271,0,0,1-.113.176l-.705.617a.182.182,0,0,1-.139.076c-.058,0-.113-.042-.163-.126A11.5,11.5,0,0,0,233.265,77.671Z"/>
          <path id="パス_2964" data-name="パス 2964" d="M240.073,85.5q1.85.175,4.28.176h9.227a3.225,3.225,0,0,0,1.272-.176.883.883,0,0,1,.365-.126.561.561,0,0,1,.327.151,4.837,4.837,0,0,1,.956.919.723.723,0,0,1,.177.378c0,.1-.075.205-.227.315a2.2,2.2,0,0,0-.592.881,24.34,24.34,0,0,1-4.619,7.062,23.485,23.485,0,0,1-6.269,4.569.815.815,0,0,1-.366.114.474.474,0,0,1-.327-.163,4.491,4.491,0,0,0-1.447-.807q8.384-4.029,11.216-11.468h-9.769q-2.3,0-3.638.139h-.063q-.252,0-.327-.34A12.055,12.055,0,0,1,240.073,85.5Zm2.19-5.4q1.75.176,4.205.175h3.99q1.952,0,4-.125c.185,0,.277.1.277.3a5.427,5.427,0,0,1,.026.567q0,.339-.026.591c0,.227-.08.34-.239.34h-.088l-3.84-.05h-4.2q-2.166,0-3.663.1h-.063c-.143,0-.227-.121-.252-.365A12.328,12.328,0,0,1,242.263,80.1Z"/>
          <path id="パス_2965" data-name="パス 2965" d="M261.343,82.782q.642-.78,1.007-1.183a.354.354,0,0,1,.252-.139.433.433,0,0,1,.213.076,23.465,23.465,0,0,1,4.645,3.436.454.454,0,0,1,.152.277.446.446,0,0,1-.076.215,7.476,7.476,0,0,1-.881,1.107c-.084.1-.155.151-.214.151a.339.339,0,0,1-.2-.125A26.147,26.147,0,0,0,261.343,82.782Zm.616,13.532a16.06,16.06,0,0,0,2.707-1.057,46.726,46.726,0,0,0,7.453-4.8,43.7,43.7,0,0,0,6.961-6.937,8.593,8.593,0,0,0,.441,1.7.714.714,0,0,1-.189.906,46.277,46.277,0,0,1-6.257,5.93,54.493,54.493,0,0,1-7.742,5.035,9.136,9.136,0,0,0-1.41.994.539.539,0,0,1-.352.177.48.48,0,0,1-.34-.2A9.289,9.289,0,0,1,261.959,96.314Z"/>
          <path id="パス_2966" data-name="パス 2966" d="M289.106,86.257a35.478,35.478,0,0,1,8.4,3.587c.151.067.227.155.227.264a.4.4,0,0,1-.038.151,8.743,8.743,0,0,1-.617,1.26c-.1.125-.189.188-.264.188a.459.459,0,0,1-.227-.088,27.06,27.06,0,0,0-7.5-3.449v5.979q0,.982.025,2.77.038,2.253.038,2.492a.383.383,0,0,1,.012.088c0,.16-.113.24-.34.24-.176.016-.39.025-.642.025s-.483-.009-.667-.025a.318.318,0,0,1-.365-.353q.113-2.216.113-5.237V82.706a21.674,21.674,0,0,0-.289-4.129,9.59,9.59,0,0,1,2.127.34c.2.043.3.143.3.3a1.86,1.86,0,0,1-.114.465,12.774,12.774,0,0,0-.176,2.857Zm5.463-6.03.919-.667a.235.235,0,0,1,.151-.064.222.222,0,0,1,.139.064,11.289,11.289,0,0,1,2.908,3.121.2.2,0,0,1,.05.113.211.211,0,0,1-.1.164l-.742.629a.283.283,0,0,1-.164.063.214.214,0,0,1-.176-.113A10.533,10.533,0,0,0,294.569,80.227Zm2.266-1.725.831-.642a.258.258,0,0,1,.151-.076.206.206,0,0,1,.126.051,13.717,13.717,0,0,1,2.933,3.008.243.243,0,0,1,.05.127.265.265,0,0,1-.126.187l-.692.617a.208.208,0,0,1-.138.077q-.088,0-.177-.126A11.331,11.331,0,0,0,296.835,78.5Z"/>
          <path id="パス_2967" data-name="パス 2967" d="M309.141,85.488q.6-2.316.944-3.814a9.249,9.249,0,0,0,.239-2.065v-.415a11.729,11.729,0,0,1,2,.692.4.4,0,0,1,.264.365.433.433,0,0,1-.164.315,1.936,1.936,0,0,0-.428.843l-1.107,3.865A21.172,21.172,0,0,1,313.4,85.1a3,3,0,0,1,2.618,1.094,5.384,5.384,0,0,1,.73,3.134,20.512,20.512,0,0,1-1.422,8.4,3.069,3.069,0,0,1-2.946,2.039,6.456,6.456,0,0,1-2.619-.466.433.433,0,0,1-.314-.441,4.637,4.637,0,0,0-.3-1.547,7.545,7.545,0,0,0,2.983.729,1.591,1.591,0,0,0,1.02-.3,2.794,2.794,0,0,0,.717-1.045A19.028,19.028,0,0,0,315.02,89.3a3.968,3.968,0,0,0-.429-2.2,1.565,1.565,0,0,0-1.346-.529,17.175,17.175,0,0,0-2.795.278,70.6,70.6,0,0,1-5.25,12.2.3.3,0,0,1-.264.164.443.443,0,0,1-.176-.038,5.341,5.341,0,0,1-1.032-.693.285.285,0,0,1-.114-.213.491.491,0,0,1,.063-.2,56.763,56.763,0,0,0,4.948-10.977q-1.4.2-3.412.566a3.3,3.3,0,0,0-1.133.328.618.618,0,0,1-.327.125.38.38,0,0,1-.34-.252,9.975,9.975,0,0,1-.592-1.75h.478a15.782,15.782,0,0,0,2.2-.137Q306.8,85.827,309.141,85.488Zm9.126-.78a10.987,10.987,0,0,1,1.158-.806.471.471,0,0,1,.139-.025.393.393,0,0,1,.251.126,14.278,14.278,0,0,1,4.155,6.244.893.893,0,0,1,.038.214.3.3,0,0,1-.113.227,5.018,5.018,0,0,1-1.058.692.446.446,0,0,1-.227.075c-.117,0-.189-.075-.214-.226A14.464,14.464,0,0,0,318.267,84.708Zm.743-4.066.957-.705a.216.216,0,0,1,.113-.038.255.255,0,0,1,.138.076,11.094,11.094,0,0,1,2.908,3.109.2.2,0,0,1,.051.126.219.219,0,0,1-.088.164l-.756.616a.238.238,0,0,1-.151.064.194.194,0,0,1-.176-.114A10.514,10.514,0,0,0,319.01,80.642Zm2.266-1.737.831-.642a.3.3,0,0,1,.164-.076.158.158,0,0,1,.113.05,13.741,13.741,0,0,1,2.933,3.009.259.259,0,0,1,.05.138.268.268,0,0,1-.113.177l-.7.617a.18.18,0,0,1-.138.075c-.051,0-.105-.041-.164-.125A11.291,11.291,0,0,0,321.276,78.9Z"/>
          <path id="パス_2968" data-name="パス 2968" d="M349.341,95.231c0,.152-.072.227-.215.227l-3.373-.05H330.42l-3.361.05c-.134,0-.2-.075-.2-.227V94.225c0-.118.068-.177.2-.177l3.361.051h3.349V91.153h-1.007l-3.613.051a.179.179,0,0,1-.2-.2v-.981a.178.178,0,0,1,.2-.2l3.613.05h1.007V87.364h-.592l-3.663.051c-.151,0-.227-.068-.227-.2l.05-2.329V81.46l-.05-2.342c0-.134.076-.2.227-.2l3.663.051h9.693l3.676-.051q.189,0,.189.2l-.05,2.342v3.424l.05,2.329c0,.134-.063.2-.189.2l-3.676-.051h-.692v2.505h1.07l3.638-.05a.178.178,0,0,1,.2.2V91a.178.178,0,0,1-.2.2l-3.638-.051h-1.07V94.1h3.575l3.373-.051c.143,0,.215.059.215.177Zm-13.8,1.827q0,.164-.339.263a2.571,2.571,0,0,0-.718.466,17.5,17.5,0,0,1-5.576,2.984l-.353.1q-.138,0-.365-.416a2.55,2.55,0,0,0-.717-.844,16.448,16.448,0,0,0,5.664-2.681,4.249,4.249,0,0,0,.856-.843,6.541,6.541,0,0,1,1.31.667C335.464,96.864,335.543,96.965,335.543,97.058Zm1.6-14.54V80.2h-6.332v2.317Zm0,3.612V83.7h-6.332v2.43Zm3.537,3.739V87.364h-5.413v2.505Zm0,4.23V91.153h-5.413V94.1Zm4.531-11.581V80.2H338.59v2.317Zm0,3.612V83.7H338.59v2.43Zm3.4,13.332a3.4,3.4,0,0,0-.692.893c-.159.277-.29.416-.39.416a1.838,1.838,0,0,1-.365-.076,18.792,18.792,0,0,1-6.408-3.524c-.075-.059-.113-.106-.113-.139q0-.076.264-.252l.592-.416a.931.931,0,0,1,.3-.15.309.309,0,0,1,.164.075A16.137,16.137,0,0,0,348.61,99.462Z"/>
          <path id="パス_2969" data-name="パス 2969" d="M360.3,83.349q1.964-.266,3.588-.643a.532.532,0,0,1,.138-.025.176.176,0,0,1,.189.176q.088.492.139,1.109v.1c0,.119-.08.19-.239.215q-1.776.353-4.3.742a60.147,60.147,0,0,1-5.187,10.889.273.273,0,0,1-.214.152.422.422,0,0,1-.2-.076,5.42,5.42,0,0,1-1.033-.781.245.245,0,0,1-.113-.187.467.467,0,0,1,.088-.241,46.239,46.239,0,0,0,4.847-9.6q-1.939.189-3.248.188-.768,0-1.36-.05a.347.347,0,0,1-.314-.315,7.507,7.507,0,0,1-.152-1.283q1.1.1,2.04.1a33.56,33.56,0,0,0,3.5-.212,29.254,29.254,0,0,0,.769-3.01,8.711,8.711,0,0,0,.213-1.737v-.277a9.937,9.937,0,0,1,2.015.516.29.29,0,0,1,.226.29.565.565,0,0,1-.2.378,2.607,2.607,0,0,0-.365.805Q360.686,81.963,360.3,83.349Zm5.464,10.322q-.266-2.757-.315-5.048a8.906,8.906,0,0,0-.151-1.649,8.762,8.762,0,0,1,1.75.339q.289.076.289.3a1.492,1.492,0,0,1-.163.465,4.534,4.534,0,0,0-.1,1.209,43.969,43.969,0,0,0,.315,4.746,24.1,24.1,0,0,1,4.871,2.58c.11.069.164.135.164.2a.666.666,0,0,1-.063.215,7.565,7.565,0,0,1-.617,1.133.239.239,0,0,1-.188.126.335.335,0,0,1-.215-.1,15.472,15.472,0,0,0-3.927-2.455q.037,4.029-4.62,4.029a4.532,4.532,0,0,1-2.87-.882,2.711,2.711,0,0,1-1.121-2.266,2.815,2.815,0,0,1,1.4-2.455,5.335,5.335,0,0,1,2.983-.793A12.061,12.061,0,0,1,365.76,93.671Zm.025,1.549a8.469,8.469,0,0,0-2.53-.428,3.973,3.973,0,0,0-2.354.578,1.406,1.406,0,0,0-.63,1.171q0,1.8,2.656,1.8a2.906,2.906,0,0,0,2.317-.844,2.441,2.441,0,0,0,.566-1.661A4.478,4.478,0,0,0,365.785,95.22Zm1.183-10.8c.059-.1.185-.328.378-.68.126-.226.222-.394.29-.5.083-.134.167-.2.251-.2a.622.622,0,0,1,.189.037,17.54,17.54,0,0,1,5.061,2.43.307.307,0,0,1,.138.227.525.525,0,0,1-.088.239,6.826,6.826,0,0,1-.592,1.019c-.067.093-.13.139-.188.139a.439.439,0,0,1-.177-.075A16.614,16.614,0,0,0,366.968,84.419Z"/>
          <path id="パス_2970" data-name="パス 2970" d="M380.263,78.577a6.914,6.914,0,0,1,1.8.617c.227.125.34.252.34.377a.594.594,0,0,1-.1.34,2.62,2.62,0,0,0-.466,1.008,37.09,37.09,0,0,0-.78,5.93c-.009.351-.013.658-.013.918a14.039,14.039,0,0,0,.114,1.989q.327-.643,1.007-1.951.691-1.347.906-1.75a3.493,3.493,0,0,0,.516,1.045.659.659,0,0,1,.113.327.833.833,0,0,1-.138.378,25.73,25.73,0,0,0-1.637,3.4,2.549,2.549,0,0,0-.176.83.6.6,0,0,1,.013.1.253.253,0,0,1-.189.263q-.327.063-1.234.176c-.117,0-.206-.088-.264-.263a14.464,14.464,0,0,1-.642-4.823,43.983,43.983,0,0,1,.6-6.054,20.082,20.082,0,0,0,.239-2.43C380.275,78.871,380.271,78.729,380.263,78.577Zm8.069.113a8.927,8.927,0,0,1,1.876.215q.4.075.4.365a1.389,1.389,0,0,1-.012.151,2.4,2.4,0,0,0-.076.692c0,.159,0,.331.013.517q.315,4.278.315,6.822,0,5.6-2.115,8.459a13.227,13.227,0,0,1-4.255,3.739.6.6,0,0,1-.315.114.56.56,0,0,1-.352-.163,3.491,3.491,0,0,0-1.31-.719,13.192,13.192,0,0,0,4.482-3.537,9.6,9.6,0,0,0,1.661-3.5,17.6,17.6,0,0,0,.454-4.306q0-2.958-.252-6.143A12.126,12.126,0,0,0,388.332,78.69Z"/>
          <path id="パス_2971" data-name="パス 2971" d="M405.735,93.759q-.126-2.166-.151-3.89-1.3.051-2.505.05-1.889,0-3.424-.125c-.168,0-.264-.106-.29-.315a9.215,9.215,0,0,1-.075-1.309,35.713,35.713,0,0,0,4.2.226q1.071,0,2.027-.049l-.025-3.84q-1.436.061-2.682.062-2.227,0-4.141-.189a.281.281,0,0,1-.239-.251,10.791,10.791,0,0,1-.1-1.347,37.572,37.572,0,0,0,4.658.264q1.184,0,2.505-.063l-.025-2.707a6.473,6.473,0,0,0-.227-1.7,10.28,10.28,0,0,1,2.04.34.377.377,0,0,1,.289.378.4.4,0,0,1-.063.214,2.44,2.44,0,0,0-.3,1.183q-.025.313-.088,2.241a58.816,58.816,0,0,0,6.294-.856,1.147,1.147,0,0,1,.126-.013c.092,0,.147.068.164.2a9.441,9.441,0,0,1,.075,1.132c0,.168-.059.252-.176.252a63.892,63.892,0,0,1-6.483.755q0,2.608.038,3.815a44.682,44.682,0,0,0,5.69-.742.381.381,0,0,1,.126-.026c.083,0,.138.051.163.151l.025,1.234c0,.15-.088.239-.264.264a47.775,47.775,0,0,1-5.69.693q0,1.776.176,4.268a20.748,20.748,0,0,1,6.886,3.322.327.327,0,0,1,.139.252.543.543,0,0,1-.038.189,2.975,2.975,0,0,1-.642,1.108.312.312,0,0,1-.227.138.347.347,0,0,1-.164-.062,19.925,19.925,0,0,0-5.878-3.274,3.674,3.674,0,0,1-1.284,3.223,7.265,7.265,0,0,1-6.886-.126,2.557,2.557,0,0,1-1.007-2.14,2.68,2.68,0,0,1,1.422-2.316,6.05,6.05,0,0,1,3.324-.831A15.419,15.419,0,0,1,405.735,93.759Zm.025,1.536a12.655,12.655,0,0,0-2.731-.327,4.955,4.955,0,0,0-2.543.528,1.26,1.26,0,0,0-.7,1.1q0,1.6,2.883,1.6a3.355,3.355,0,0,0,2.63-.806,2.619,2.619,0,0,0,.479-1.686C405.773,95.58,405.769,95.446,405.76,95.295Z"/>
          <path id="パス_2972" data-name="パス 2972" d="M430.224,82.706q-.014-.428-.025-1.359-.014-.6-.025-1.045a8.414,8.414,0,0,0-.252-1.725,12.535,12.535,0,0,1,1.951.289c.311.084.466.211.466.379a1.123,1.123,0,0,1-.176.465,1.608,1.608,0,0,0-.177.705q-.063.567-.063,2.19,2.871-.087,8.259-.087c.184,0,.276.1.276.29V83.9c0,.177-.109.265-.327.265q-2.4-.077-4.33-.076-2,0-3.878.076,0,3.284.026,5.01a10.69,10.69,0,0,1,.314,2.707q0,5.124-5.022,7.653a1.364,1.364,0,0,1-.592.227.739.739,0,0,1-.466-.2A3.37,3.37,0,0,0,425,98.845q5.223-1.977,5.614-6.182a3.021,3.021,0,0,1-2.832,1.461,3.276,3.276,0,0,1-2.505-1.02,3.685,3.685,0,0,1-.907-2.6,3.449,3.449,0,0,1,3.538-3.588,3.117,3.117,0,0,1,2.417.868l-.051-3.512q-6.256.354-9.617.768a5.378,5.378,0,0,0-.756.177,1.712,1.712,0,0,1-.377.088c-.151,0-.252-.088-.3-.265a8.5,8.5,0,0,1-.416-1.637c.176.017.365.026.567.026q.654,0,2.681-.177Q425.54,82.983,430.224,82.706Zm-2.19,5.488a2.032,2.032,0,0,0-1.574.68,2.224,2.224,0,0,0-.566,1.562,2.174,2.174,0,0,0,.692,1.711,2,2,0,0,0,1.4.5,2.251,2.251,0,0,0,1.788-.781,2.2,2.2,0,0,0,.554-1.484,2.052,2.052,0,0,0-.73-1.65A2.316,2.316,0,0,0,428.034,88.194Z"/>
          <path id="パス_2973" data-name="パス 2973" d="M442.57,94.1a3.53,3.53,0,0,1,2.7,1.183,3.531,3.531,0,0,1-.265,5.061,3.569,3.569,0,0,1-2.43.919,3.532,3.532,0,0,1-2.694-1.183,3.529,3.529,0,0,1,.265-5.06A3.558,3.558,0,0,1,442.57,94.1Zm0,1.284a2.233,2.233,0,0,0-1.712.755,2.265,2.265,0,0,0-.591,1.549,2.3,2.3,0,1,0,3.852-1.712A2.229,2.229,0,0,0,442.57,95.383Z"/>
          <path id="パス_2974" data-name="パス 2974" d="M459.345,91.179q.4.2,1.133.629c.092.043.138.1.138.164a.29.29,0,0,1-.063.164,3.987,3.987,0,0,0-.692,2.013q0,3.147,6.6,3.147a32.318,32.318,0,0,0,7.4-.742.7.7,0,0,1,.152-.026c.1,0,.167.068.2.2a9.81,9.81,0,0,1,.239,1.335v.064c0,.134-.113.226-.34.276a39.465,39.465,0,0,1-7.8.667q-8.021,0-8.019-4.846A5.477,5.477,0,0,1,459.345,91.179Zm.718-9.606a30.672,30.672,0,0,0,6.445.579q3.021,0,5.7-.226h.088a.254.254,0,0,1,.278.239,7.941,7.941,0,0,1,.075,1.158.358.358,0,0,1-.365.391,16.594,16.594,0,0,0-6.672,2.932.672.672,0,0,1-.4.152.565.565,0,0,1-.327-.1,2.939,2.939,0,0,0-1.057-.515,33.928,33.928,0,0,1,4.443-2.58q-1.146.1-2.794.1a25.369,25.369,0,0,1-5.237-.465c-.151-.025-.227-.142-.227-.353Q460.012,82.442,460.063,81.573Zm12.147-2.039.932-.68a.257.257,0,0,1,.138-.05.229.229,0,0,1,.139.062,11.126,11.126,0,0,1,2.908,3.11.207.207,0,0,1,.05.127.214.214,0,0,1-.088.163l-.755.616a.233.233,0,0,1-.151.063.222.222,0,0,1-.189-.113A10.587,10.587,0,0,0,472.21,79.534Zm2.267-1.737.83-.642a.281.281,0,0,1,.164-.063.188.188,0,0,1,.113.05,13.6,13.6,0,0,1,2.946,3.009.24.24,0,0,1,.037.125.235.235,0,0,1-.113.177l-.7.63a.2.2,0,0,1-.139.063c-.059,0-.113-.042-.164-.126A11.507,11.507,0,0,0,474.477,77.8Z"/>
          <path id="パス_2975" data-name="パス 2975" d="M501.583,80.39a.419.419,0,0,1-.29.427,4.652,4.652,0,0,0-.88.592,47.715,47.715,0,0,1-7.6,5.489v7.251l.05,3.248a3.442,3.442,0,0,1-.252,1.473,2.46,2.46,0,0,1-.566.693,3.231,3.231,0,0,1-1.851.616q-.742.075-2.756.076a.933.933,0,0,1-.491-.076,1.59,1.59,0,0,1-.164-.465,3.124,3.124,0,0,0-.541-1.26q1.233.126,3.487.127,1.422,0,1.422-1.574v-8.2a20.242,20.242,0,0,0-.239-3.688q.29.049,1.523.176a41.073,41.073,0,0,0,6.345-4.582h-12.74l-3.562.05c-.135,0-.2-.076-.2-.227V79.319a.179.179,0,0,1,.2-.2l3.562.051h13.193a1.762,1.762,0,0,0,.7-.1.615.615,0,0,1,.252-.075q.227,0,.768.541Q501.584,80.151,501.583,80.39Z"/>
          <path id="パス_2976" data-name="パス 2976" d="M510.671,86a.386.386,0,0,1-.2.314,1.1,1.1,0,0,0-.39.643,22.728,22.728,0,0,1-5.854,11.19,1.18,1.18,0,0,1-.365.252q-.088,0-.352-.3a2.582,2.582,0,0,0-.856-.756q4.429-3.827,6.13-10.9H506.19l-2.253.05a.178.178,0,0,1-.2-.2V85.262c0-.159.067-.24.2-.24l2.253.051h2.543a1.3,1.3,0,0,0,.466-.051.871.871,0,0,1,.314-.1q.2,0,.668.44C510.508,85.69,510.671,85.9,510.671,86Zm11.443-5.665c0,.151-.105.256-.314.314a3.994,3.994,0,0,0-1.02.642,36.48,36.48,0,0,1-5.338,3.449V86.81h.466l2.392-.05c.126,0,.189.067.189.2v.931c0,.134-.063.2-.189.2l-2.392-.051h-.466V90.36h.768l2.631-.05c.143,0,.215.067.215.2v.906c0,.135-.072.2-.215.2l-2.631-.05h-.768V94h1.7l3.2-.05a.178.178,0,0,1,.2.2v.932a.178.178,0,0,1-.2.2l-3.2-.051h-1.7l.051,2.808a2.079,2.079,0,0,1-.541,1.624,4.767,4.767,0,0,1-2.858.554c-.243,0-.512-.005-.8-.013a.865.865,0,0,1-.466-.075,1.755,1.755,0,0,1-.177-.466,3.548,3.548,0,0,0-.541-1.107,19.615,19.615,0,0,0,2.656.15,1.532,1.532,0,0,0,.957-.214.912.912,0,0,0,.252-.729V95.231h-1.7l-3.2.051c-.16,0-.24-.066-.24-.2v-.932q0-.2.24-.2l3.2.05h1.7V91.569h-.831l-2.656.05a.178.178,0,0,1-.2-.2v-.906a.178.178,0,0,1,.2-.2l2.656.05h.831V88.044H513.4l-2.379.051c-.118,0-.176-.068-.176-.2v-.931c0-.135.058-.2.176-.2l2.379.05h.567v-.567a16.535,16.535,0,0,0-.177-2.945l1.159.239a32.78,32.78,0,0,0,4.569-3.1h-8.774l-3.537.051a.178.178,0,0,1-.2-.2v-1.1a.178.178,0,0,1,.2-.2l3.537.05h9.076a1.6,1.6,0,0,0,.718-.1.715.715,0,0,1,.29-.076c.142,0,.381.182.717.542A1.8,1.8,0,0,1,522.114,80.34Zm4.646,16.881a3.662,3.662,0,0,0-.957.843q-.227.315-.34.315t-.378-.315a21.174,21.174,0,0,1-4.1-6.067,29.231,29.231,0,0,1-2.089-7.176.686.686,0,0,1-.013-.113c0-.076.118-.143.353-.2l.667-.177a.688.688,0,0,1,.2-.05c.058,0,.1.055.113.163a37.479,37.479,0,0,0,.893,3.978,28.97,28.97,0,0,0,2.971-3.223,5.649,5.649,0,0,0,.743-1.232,7.55,7.55,0,0,1,1.183.906.607.607,0,0,1,.24.377c0,.117-.093.223-.277.314a3.926,3.926,0,0,0-1.071.958,40.9,40.9,0,0,1-3.3,3.348A18.618,18.618,0,0,0,526.76,97.221Z"/>
          <path id="パス_2977" data-name="パス 2977" d="M539.44,78.577a10.665,10.665,0,0,1,1.662,1.235.526.526,0,0,1,.176.339.4.4,0,0,1-.251.34,3.37,3.37,0,0,0-.957.666q-5.337,4.9-7.6,7.327a.97.97,0,0,0-.364.642c0,.16.113.314.339.467a81.177,81.177,0,0,1,9.933,8.559c.108.119.163.2.163.252a.469.469,0,0,1-.138.265,10.709,10.709,0,0,1-.969.969.5.5,0,0,1-.252.126q-.114,0-.24-.177A68.609,68.609,0,0,0,531.22,90.8a2.139,2.139,0,0,1-1.007-1.624,2.625,2.625,0,0,1,.907-1.674q1.3-1.386,3.763-3.853,3.035-3.071,3.425-3.474A6.645,6.645,0,0,0,539.44,78.577Z"/>
          <path id="パス_2978" data-name="パス 2978" d="M556.263,83.966a32.416,32.416,0,0,0,4.1-1.059.376.376,0,0,1,.126-.025c.1,0,.159.068.176.2q.089.491.139,1.058v.1c0,.152-.088.247-.265.29q-2.594.705-4.67,1.057a116.891,116.891,0,0,1-4.947,13.91c-.059.135-.131.2-.214.2a.441.441,0,0,1-.176-.05,9.144,9.144,0,0,1-1.209-.566.237.237,0,0,1-.126-.214.3.3,0,0,1,.025-.113,83.385,83.385,0,0,0,4.822-12.891q-2.518.278-5.212.315-.352,0-.416-.264c-.084-.621-.15-1.092-.2-1.41q.491.049,1.624.05a36.967,36.967,0,0,0,4.645-.315q.467-1.774.756-3.248a12.058,12.058,0,0,0,.214-2.026,2.9,2.9,0,0,0-.025-.391,9.23,9.23,0,0,1,2.076.592.277.277,0,0,1,.2.277.735.735,0,0,1-.2.415,2.608,2.608,0,0,0-.415,1.007q-.164.542-.453,1.674Q556.4,83.487,556.263,83.966Zm1.6,10.9a7.456,7.456,0,0,1,1.208-.125.264.264,0,0,1,.29.252,2.857,2.857,0,0,0,1.448,2.518,7.729,7.729,0,0,0,3.424.578,26.608,26.608,0,0,0,3.814-.34,1.386,1.386,0,0,1,.139-.012c.1,0,.159.063.176.189a7.9,7.9,0,0,1,.1,1.246.288.288,0,0,1-.289.327,20.593,20.593,0,0,1-3.374.265q-4.116,0-5.677-1.423A4.448,4.448,0,0,1,557.862,94.866Zm1.939-5.412a10.426,10.426,0,0,1-.089-1.373.387.387,0,0,1,.34-.39,20.759,20.759,0,0,1,4.507-.542,25.61,25.61,0,0,1,3.2.266c.235.033.366.125.391.276a7.685,7.685,0,0,1,.038.806c0,.126-.005.234-.013.327-.017.236-.088.353-.214.353a.538.538,0,0,1-.113-.013,20.448,20.448,0,0,0-3.311-.29A21.941,21.941,0,0,0,559.8,89.454Zm4.3-8.41.944-.691a.222.222,0,0,1,.113-.039.273.273,0,0,1,.151.064,11.273,11.273,0,0,1,2.908,3.121.156.156,0,0,1,.05.113.186.186,0,0,1-.1.164l-.743.618a.254.254,0,0,1-.163.062.213.213,0,0,1-.177-.113A10.588,10.588,0,0,0,564.106,81.044Zm2.266-1.725.818-.64a.3.3,0,0,1,.164-.076.194.194,0,0,1,.125.05,13.955,13.955,0,0,1,2.946,3.008.291.291,0,0,1,.038.126c0,.06-.042.122-.126.189l-.692.617a.21.21,0,0,1-.139.076c-.058,0-.117-.043-.176-.127A11.631,11.631,0,0,0,566.372,79.319Z"/>
          <path id="パス_2979" data-name="パス 2979" d="M581.488,83.839q-.567-1.41-1.184-3.022a7.879,7.879,0,0,0-1.082-2.013,15.428,15.428,0,0,1,2.039-.227c.361,0,.541.131.541.391l-.012.289a1.551,1.551,0,0,0,.038.378,8.251,8.251,0,0,0,.465,1.724q.378,1.058.844,2.165a41.2,41.2,0,0,0,5.652-1.648.519.519,0,0,1,.151-.025.234.234,0,0,1,.214.164,5.1,5.1,0,0,1,.327,1.132.5.5,0,0,1,.013.1.214.214,0,0,1-.139.227q-2.3.782-5.576,1.548a24.713,24.713,0,0,0,4.28,6.32,5.309,5.309,0,0,0,.7.567c.117.067.176.143.176.227a.547.547,0,0,1-.076.289c-.176.293-.4.634-.667,1.019-.142.176-.256.264-.34.264a.866.866,0,0,1-.315-.15c-.15-.11-.457-.3-.918-.567a12.533,12.533,0,0,0-5.854-1.4,6.4,6.4,0,0,0-3.713.893,2.432,2.432,0,0,0-1.083,2.116q0,1.85,2.329,2.731a13.365,13.365,0,0,0,4.632.681,19.388,19.388,0,0,0,3.714-.316,7.591,7.591,0,0,1-.34,1.675.432.432,0,0,1-.327.264,28.691,28.691,0,0,1-2.971.126,12.843,12.843,0,0,1-6.42-1.36,4.087,4.087,0,0,1-2.266-3.688,3.874,3.874,0,0,1,2.1-3.563,8.491,8.491,0,0,1,4.293-.982,13.19,13.19,0,0,1,5.463,1.171,23.617,23.617,0,0,1-3.965-5.991q-2.519.428-5.552.64-1.258.09-1.825.089c-.134,0-.256-.005-.365-.013-.126,0-.227-.1-.3-.3a7.255,7.255,0,0,1-.29-1.334q.68.025,1.272.025t1.283-.037A45.8,45.8,0,0,0,581.488,83.839Z"/>
          <path id="パス_2980" data-name="パス 2980" d="M595.293,81.409a6.384,6.384,0,0,1,2.04.542c.151.075.226.172.226.29a2.378,2.378,0,0,1-.1.465,8.948,8.948,0,0,0-.2,2.367,45.855,45.855,0,0,0,.365,5.854,10.665,10.665,0,0,0,1.146,3.939q.729,1.31,1.586,1.31,1.485,0,2.757-4.04a3.465,3.465,0,0,0,.843,1.283.622.622,0,0,1,.239.466.756.756,0,0,1-.025.188,8.134,8.134,0,0,1-1.687,2.947,2.96,2.96,0,0,1-2.165,1.094q-1.687,0-2.92-2.253a14.371,14.371,0,0,1-1.436-4.784,51.794,51.794,0,0,1-.465-7.187A12.855,12.855,0,0,0,595.293,81.409ZM608.5,84.632a11.684,11.684,0,0,1,1.133-.692.5.5,0,0,1,.226-.063.2.2,0,0,1,.151.063,15.257,15.257,0,0,1,5.036,8.925v.064a.325.325,0,0,1-.189.276,5.6,5.6,0,0,1-1.184.592.381.381,0,0,1-.1.013c-.134,0-.214-.077-.239-.227A15.52,15.52,0,0,0,608.5,84.632Z"/>
          <path id="パス_2981" data-name="パス 2981" d="M620.92,94.1a3.526,3.526,0,0,1,2.694,1.183,3.529,3.529,0,0,1-.264,5.061,3.571,3.571,0,0,1-2.43.919,3.531,3.531,0,0,1-2.694-1.183,3.527,3.527,0,0,1,.265-5.06A3.558,3.558,0,0,1,620.92,94.1Zm0,1.284a2.23,2.23,0,0,0-1.712.755,2.261,2.261,0,0,0-.592,1.549,2.3,2.3,0,1,0,3.853-1.712A2.233,2.233,0,0,0,620.92,95.383Z"/>
        </g>
      </g>
    </g>
  </g>
</svg>
